<svg width="64" height="64" viewBox="0 0 64 64" fill="none" xmlns="http://www.w3.org/2000/svg">
<circle cx="32" cy="32" r="32" fill="#0066B3"/>
<path d="M31.5492 14.5923C27.0522 14.5923 23.4547 18.2898 23.4547 22.6868C23.4547 27.1837 27.1521 30.7813 31.5492 30.7813C36.0461 30.7813 39.6436 27.0838 39.6436 22.6868C39.7436 18.2898 36.0461 14.5923 31.5492 14.5923ZM31.5492 16.8907C31.8489 16.8907 32.1487 17.0906 32.1487 17.4903V18.7894C33.1481 19.0892 33.8476 19.9886 33.8476 20.9879C33.8476 21.2877 33.6477 21.5875 33.248 21.5875C32.9482 21.5875 32.6484 21.3877 32.6484 20.9879C32.6484 20.3883 32.1487 19.7887 31.4492 19.7887C30.8496 19.7887 30.25 20.2884 30.25 20.9879C30.25 21.5875 30.7497 22.1871 31.4492 22.1871C32.7483 22.1871 33.7477 23.1864 33.7477 24.4856C33.7477 25.5848 33.0481 26.4842 32.0488 26.6841V27.8832C32.0488 28.6827 30.8496 28.6827 30.8496 27.8832V26.6841C29.8503 26.3843 29.1508 25.4849 29.1508 24.4856C29.1508 24.1858 29.4506 23.886 29.7504 23.886C30.0502 23.886 30.35 24.1858 30.35 24.4856C30.35 25.0851 30.8496 25.6848 31.5492 25.6848C32.1487 25.6848 32.7483 25.1851 32.7483 24.4856C32.7483 23.886 32.2487 23.2864 31.5492 23.2864C30.25 23.2864 29.2507 22.287 29.2507 20.9879C29.2507 19.8887 29.9502 18.9893 30.9496 18.7894V17.4903C31.0495 17.0906 31.3493 16.8907 31.5492 16.8907ZM46.3391 29.2823C45.6396 29.2823 44.94 29.5821 44.4404 30.0818C43.2412 31.2809 41.9421 32.58 40.7429 33.7792C41.2426 34.4788 41.5424 35.2782 41.5424 36.1776C41.5424 38.3761 39.7436 40.2748 37.4451 40.2748H31.1494C30.35 40.3747 30.35 39.0756 31.1494 39.0756H37.4451C39.0441 39.0756 40.3432 37.7765 40.3432 36.1776C40.3432 35.578 40.1433 35.0784 39.9434 34.6786C39.4438 33.8792 38.5444 33.2796 37.4451 33.2796H25.2534C22.7551 33.2796 21.456 34.5787 20.2568 35.678L28.3513 43.7724C28.4513 43.7724 28.6511 43.7724 28.7511 43.7724H38.6443C40.643 43.7724 42.3418 42.7731 43.541 41.0743C44.8401 39.1756 47.3384 35.578 48.4377 33.9791C48.8374 33.3795 49.1372 32.7799 49.1372 32.0804C49.1372 31.3809 48.9373 30.6814 48.4377 30.1817C47.7381 29.4822 47.0386 29.2823 46.3391 29.2823ZM18.2582 35.578C18.1583 35.578 17.9584 35.6779 17.8585 35.7779L14.3608 39.2755C14.161 39.4754 14.161 39.8751 14.3608 40.075L23.6545 49.3686C23.8544 49.5685 24.2541 49.5685 24.454 49.3686L27.9516 45.871C28.1515 45.6711 28.1515 45.2714 27.9516 45.0716L18.6579 35.7779C18.558 35.578 18.3581 35.578 18.2582 35.578Z" fill="white"/>
</svg>
