<svg width="72" height="72" viewBox="0 0 72 72" fill="none" xmlns="http://www.w3.org/2000/svg">
<circle cx="36" cy="36" r="36" fill="#0066B3"/>
<path d="M35.4908 16.4164C30.4318 16.4164 26.3845 20.5761 26.3845 25.5227C26.3845 30.5818 30.5442 34.629 35.4908 34.629C40.5499 34.629 44.5972 30.4693 44.5972 25.5227C44.7096 20.5761 40.5499 16.4164 35.4908 16.4164ZM35.4908 19.0021C35.8281 19.0021 36.1654 19.227 36.1654 19.6767V21.1382C37.2896 21.4754 38.0766 22.4872 38.0766 23.6115C38.0766 23.9488 37.8517 24.286 37.402 24.286C37.0648 24.286 36.7275 24.0612 36.7275 23.6115C36.7275 22.9369 36.1654 22.2624 35.3784 22.2624C34.7039 22.2624 34.0293 22.8245 34.0293 23.6115C34.0293 24.286 34.5915 24.9606 35.3784 24.9606C36.8399 24.9606 37.9642 26.0848 37.9642 27.5463C37.9642 28.783 37.1772 29.7948 36.053 30.0196V31.3687C36.053 32.2681 34.7039 32.2681 34.7039 31.3687V30.0196C33.5796 29.6824 32.7927 28.6705 32.7927 27.5463C32.7927 27.209 33.1299 26.8718 33.4672 26.8718C33.8045 26.8718 34.1418 27.209 34.1418 27.5463C34.1418 28.2209 34.7039 28.8954 35.4908 28.8954C36.1654 28.8954 36.8399 28.3333 36.8399 27.5463C36.8399 26.8718 36.2778 26.1972 35.4908 26.1972C34.0293 26.1972 32.9051 25.073 32.9051 23.6115C32.9051 22.3748 33.6921 21.363 34.8163 21.1382V19.6767C34.9287 19.227 35.266 19.0021 35.4908 19.0021ZM52.1295 32.9426C51.3426 32.9426 50.5556 33.2799 49.9935 33.842C48.6444 35.1911 47.1829 36.6526 45.8338 38.0017C46.3959 38.7887 46.7332 39.6881 46.7332 40.6999C46.7332 43.1732 44.7096 45.3092 42.1238 45.3092H35.0411C34.1418 45.4216 34.1418 43.9602 35.0411 43.9602H42.1238C43.9226 43.9602 45.3841 42.4987 45.3841 40.6999C45.3841 40.0253 45.1593 39.4632 44.9344 39.0135C44.3723 38.1141 43.3605 37.4396 42.1238 37.4396H28.4082C25.5976 37.4396 24.1361 38.9011 22.787 40.1378L31.8933 49.244C32.0057 49.244 32.2306 49.244 32.343 49.244H43.4729C45.7214 49.244 47.6326 48.1198 48.9817 46.2086C50.4432 44.0726 53.2538 40.0253 54.4904 38.2266C54.9401 37.552 55.2774 36.8775 55.2774 36.0905C55.2774 35.3035 55.0525 34.5166 54.4904 33.9545C53.7035 33.1675 52.9165 32.9426 52.1295 32.9426ZM20.5385 40.0253C20.4261 40.0253 20.2012 40.1377 20.0888 40.2502L16.154 44.185C15.9291 44.4098 15.9291 44.8595 16.154 45.0844L26.6094 55.5398C26.8342 55.7646 27.2839 55.7646 27.5088 55.5398L31.4436 51.6049C31.6684 51.3801 31.6684 50.9304 31.4436 50.7056L20.9882 40.2502C20.8758 40.0253 20.6509 40.0253 20.5385 40.0253Z" fill="white"/>
</svg>
