<svg width="72" height="72" viewBox="0 0 72 72" fill="none" xmlns="http://www.w3.org/2000/svg">
<circle cx="36" cy="36" r="36" fill="#0066B3"/>
<path d="M52.5625 51.8828C56.1857 51.8828 59.0038 49.0646 59.0038 45.4414C59.0038 41.8181 56.1857 39 52.5625 39C48.9392 39 46.1211 41.8181 46.1211 45.4414C46.1211 49.0646 48.9392 51.8828 52.5625 51.8828ZM52.5625 42.0194C54.5754 42.0194 55.9845 43.6297 55.9845 45.4414C55.9845 47.253 54.3741 48.8634 52.5625 48.8634C50.7508 48.8634 49.1405 47.253 49.1405 45.4414C49.1405 43.6297 50.5495 42.0194 52.5625 42.0194Z" fill="white"/>
<path d="M38.9245 44.7933H31.1035V46.9658H38.9245V44.7933Z" fill="white"/>
<path d="M38.9245 49.5728H31.1035V51.7452H38.9245V49.5728Z" fill="white"/>
<path d="M25.6161 26.6213L20.0859 32.1515L21.6221 33.6877L27.1523 28.1575L25.6161 26.6213Z" fill="white"/>
<path d="M28.9296 30.0036L23.3994 35.5338L24.9356 37.07L30.4658 31.5398L28.9296 30.0036Z" fill="white"/>
<path d="M44.6416 26.4957L43.1055 28.0319L48.6357 33.5621L50.1718 32.0259L44.6416 26.4957Z" fill="white"/>
<path d="M41.1573 29.9083L39.6211 31.4445L45.1513 36.9747L46.6875 35.4385L41.1573 29.9083Z" fill="white"/>
<path d="M19.4414 51.8828C23.0647 51.8828 25.8828 49.0646 25.8828 45.4414C25.8828 41.8181 23.0647 39 19.4414 39C15.8181 39 13 41.8181 13 45.4414C13 49.0646 15.8181 51.8828 19.4414 51.8828ZM19.4414 48.8634C19.0388 48.8634 18.6362 48.8634 18.2336 48.6621L22.6621 44.2336C22.8634 44.6362 22.8634 45.0388 22.8634 45.4414C22.8634 47.253 21.4543 48.8634 19.4414 48.8634ZM19.4414 41.8181C19.844 41.8181 20.2465 41.8181 20.6491 42.0194L16.2207 46.4478C16.0194 46.0453 16.0194 45.6427 16.0194 45.2401C16.0194 43.4284 17.4284 41.8181 19.4414 41.8181Z" fill="white"/>
<path d="M27.9482 20.4414C27.9482 24.0647 30.7663 26.8828 34.3896 26.8828C38.0129 26.8828 40.831 24.0647 40.831 20.4414C40.831 16.8181 38.0129 14 34.3896 14C30.7663 14 27.9482 16.8181 27.9482 20.4414Z" fill="white"/>
</svg>
