<svg width="64" height="64" viewBox="0 0 64 64" fill="none" xmlns="http://www.w3.org/2000/svg">
<circle cx="32" cy="32" r="32" fill="#0066B3"/>
<path d="M46.7237 46.118C49.9444 46.118 52.4494 43.613 52.4494 40.3923C52.4494 37.1716 49.9444 34.6666 46.7237 34.6666C43.503 34.6666 40.998 37.1716 40.998 40.3923C40.998 43.613 43.503 46.118 46.7237 46.118ZM46.7237 37.3505C48.513 37.3505 49.7655 38.7819 49.7655 40.3923C49.7655 42.0026 48.3341 43.4341 46.7237 43.4341C45.1134 43.4341 43.682 42.0026 43.682 40.3923C43.682 38.7819 44.9344 37.3505 46.7237 37.3505Z" fill="white"/>
<path d="M34.6004 39.8163H27.6484V41.7474H34.6004V39.8163Z" fill="white"/>
<path d="M34.6004 44.0647H27.6484V45.9958H34.6004V44.0647Z" fill="white"/>
<path d="M22.7712 23.6634L17.8555 28.5791L19.2209 29.9446L24.1367 25.0289L22.7712 23.6634Z" fill="white"/>
<path d="M25.7146 26.6698L20.7988 31.5856L22.1643 32.9511L27.08 28.0353L25.7146 26.6698Z" fill="white"/>
<path d="M39.6819 23.5518L38.3164 24.9172L43.2321 29.833L44.5976 28.4675L39.6819 23.5518Z" fill="white"/>
<path d="M36.5862 26.5852L35.2207 27.9507L40.1364 32.8664L41.5019 31.5009L36.5862 26.5852Z" fill="white"/>
<path d="M17.2823 46.118C20.503 46.118 23.008 43.613 23.008 40.3923C23.008 37.1716 20.503 34.6666 17.2823 34.6666C14.0616 34.6666 11.5566 37.1716 11.5566 40.3923C11.5566 43.613 14.0616 46.118 17.2823 46.118ZM17.2823 43.4341C16.9245 43.4341 16.5666 43.4341 16.2087 43.2551L20.1451 39.3187C20.3241 39.6766 20.3241 40.0344 20.3241 40.3923C20.3241 42.0026 19.0716 43.4341 17.2823 43.4341ZM17.2823 37.1716C17.6402 37.1716 17.998 37.1716 18.3559 37.3505L14.4195 41.2869C14.2405 40.9291 14.2405 40.5712 14.2405 40.2134C14.2405 38.603 15.493 37.1716 17.2823 37.1716Z" fill="white"/>
<path d="M24.8457 18.1701C24.8457 21.3908 27.3507 23.8958 30.5714 23.8958C33.7921 23.8958 36.297 21.3908 36.297 18.1701C36.297 14.9494 33.7921 12.4445 30.5714 12.4445C27.3507 12.4445 24.8457 14.9494 24.8457 18.1701Z" fill="white"/>
</svg>
