<svg width="64" height="64" viewBox="0 0 64 64" fill="none" xmlns="http://www.w3.org/2000/svg">
<circle cx="32" cy="32" r="32" fill="#0066B3"/>
<mask id="mask0" mask-type="alpha" maskUnits="userSpaceOnUse" x="0" y="0" width="64" height="64">
<circle cx="32" cy="32" r="32" fill="#0066B3"/>
</mask>
<g mask="url(#mask0)">
<path d="M40.4626 22.8138H41.5049C42.3998 22.8138 43.1278 23.5418 43.1278 24.4367C43.1278 24.547 43.1278 31.2682 43.1278 31.184C43.1278 32.0789 42.3998 32.8069 41.5049 32.8069H40.4626C39.5677 32.8069 38.8398 32.0789 38.8398 31.184C38.8398 31.0357 38.8398 24.2727 38.8398 24.4367C38.8398 23.5418 39.5677 22.8138 40.4626 22.8138ZM34.8829 21.5962C36.0618 21.5962 37.0215 22.5555 37.0215 23.7349C37.0215 23.9447 37.0215 30.9983 37.0215 30.6633C37.0215 31.975 35.8258 33.0404 34.4416 32.7633C33.6264 32.6053 32.985 31.9164 32.7985 31.0563C33.7061 30.2609 34.2916 29.1086 34.2916 27.8117C34.2916 26.4848 33.6781 25.31 32.7335 24.514V23.7349C32.7335 22.5555 33.6976 21.5962 34.8829 21.5962ZM28.9435 20.0053C30.0488 20.0692 30.9153 21.0094 30.9153 22.1453V23.5938C30.6019 23.5219 30.279 23.4757 29.9441 23.4757H26.6379V22.3424C26.6379 21.054 27.6614 19.9124 28.9435 20.0053ZM22.6695 21.0325C23.8529 21.0325 24.8162 21.99 24.8162 23.1672V23.4757H20.5237V23.1672C20.5237 21.99 21.486 21.0325 22.6695 21.0325ZM42.0598 42.4026C41.2803 44.6421 40.887 46.9783 40.8915 49.3456L40.8986 66H25.5006V50.8388C25.5006 48.0081 24.0304 45.0012 21.9166 43.4928C20.3201 41.9446 16.6484 40.5033 16.6484 36.0677V27.8117C16.6484 26.6225 17.4847 25.5891 18.6762 25.3458C18.8164 25.3108 18.9762 25.2939 19.1662 25.2939H29.9441C31.3388 25.2939 32.4734 26.4232 32.4734 27.8117C32.4734 29.2002 31.3388 30.3299 29.9441 30.3299H23.9994C23.5901 30.3299 23.2323 30.6034 23.1231 30.998C23.0148 31.3926 23.1835 31.8112 23.5351 32.0207C23.5661 32.0394 26.6654 33.9104 28.7624 37.316C28.9346 37.5947 29.232 37.7483 29.5374 37.7483C29.6999 37.7483 29.865 37.7048 30.0133 37.6134C30.4412 37.3502 30.5735 36.79 30.3107 36.3625C29.1912 34.5447 27.8382 33.1345 26.7142 32.1481H29.944C30.3717 32.1481 30.7768 32.0671 31.1674 31.9517C31.6273 33.2747 32.7115 34.2802 34.0918 34.5478C35.2882 34.7831 36.483 34.4703 37.3891 33.7257C37.5376 33.6037 37.6581 33.4587 37.7857 33.3192C38.4167 34.1086 39.376 34.6251 40.4626 34.6251H41.5049C42.0948 34.6251 42.6419 34.4622 43.1278 34.1994V36.0917C43.1278 38.2455 42.7682 40.3686 42.0598 42.4026Z" fill="white"/>
</g>
</svg>
