<svg width="72" height="72" viewBox="0 0 72 72" fill="none" xmlns="http://www.w3.org/2000/svg">
<circle cx="36" cy="36" r="36" fill="#0066B3"/>
<path d="M28.1817 34.1418L28.8563 34.5915C29.6432 35.0412 30.0929 35.9406 30.0929 36.84V40.5499H41.4477V35.9406C41.4477 34.9287 41.785 33.9169 42.3471 33.0175C42.9092 32.2306 43.2465 31.2188 43.2465 30.0945V20.8758C43.2465 19.864 42.4595 18.9646 41.3353 18.9646C40.3235 18.9646 39.5365 19.7516 39.5365 20.8758C39.5365 19.864 38.7496 18.9646 37.7377 18.9646C36.7259 18.9646 35.939 19.7516 35.939 20.8758C35.939 19.864 35.152 18.9646 34.1402 18.9646C33.1284 18.9646 32.3414 19.7516 32.3414 20.8758C32.3414 19.864 31.5544 18.9646 30.4302 18.9646C29.4184 18.9646 28.6314 19.7516 28.6314 20.8758V25.3727L27.6196 25.5976V22.3373C24.1345 23.3491 24.4718 26.497 24.4718 26.497L25.3711 30.0945C25.7084 31.7809 26.7202 33.13 28.1817 34.1418Z" fill="white"/>
<path d="M43.3577 45.7213H42.908V43.3604C42.908 42.6859 42.3459 42.1238 41.6713 42.1238H29.4172C28.7426 42.1238 28.1805 42.6859 28.1805 43.3604V45.7213H27.7308C27.0563 45.7213 26.4941 46.2835 26.4941 46.958V51.7922C26.4941 52.4667 27.0563 53.0289 27.7308 53.0289H43.4701C44.1446 53.0289 44.7068 52.4667 44.7068 51.7922V46.958C44.5943 46.2835 44.0322 45.7213 43.3577 45.7213Z" fill="white"/>
<path d="M24.9213 21.6628H17.7262C17.3889 20.9883 16.602 20.4261 15.7026 20.4261C14.4659 20.4261 13.4541 21.438 13.4541 22.6746C13.4541 23.4616 13.9038 24.2485 14.5783 24.5858L9.96896 35.6033H9.51927C9.182 35.6033 8.84473 35.9406 8.84473 36.2779C8.84473 36.6151 9.182 36.9524 9.51927 36.9524H9.63169C9.63169 38.976 10.6435 40.7748 12.105 41.899C12.3299 42.0115 12.5547 42.1239 12.892 42.1239H18.738C18.9628 42.1239 19.3001 42.0115 19.525 41.899C20.9865 40.7748 21.9983 38.976 21.9983 36.9524H22.1107C22.5604 36.9524 22.7853 36.6151 22.7853 36.2779C22.7853 35.8282 22.448 35.6033 22.1107 35.6033H21.5486L16.9392 24.5858C17.2765 24.361 17.6138 24.0237 17.8386 23.6864H23.2349C23.4598 23.2367 23.6846 22.8995 24.0219 22.4498C24.2468 22.2249 24.584 22.0001 24.9213 21.6628ZM15.3653 35.6033H10.9808L15.3653 25.1479V35.6033ZM20.5368 35.6033H16.1523V25.1479L20.5368 35.6033Z" fill="white"/>
<path d="M61.5714 35.6033H61.0093L56.3999 24.5858C57.0745 24.2485 57.5242 23.4616 57.5242 22.6746C57.5242 21.438 56.5124 20.4261 55.2757 20.4261C54.3763 20.4261 53.7018 20.8758 53.2521 21.6628H44.8203V23.7989H53.2521C53.4769 24.1361 53.7018 24.4734 54.1515 24.6982L49.5421 35.7158H49.0924C48.6427 35.7158 48.4179 36.053 48.4179 36.3903C48.4179 36.7276 48.7551 37.0648 49.0924 37.0648C49.0924 39.0885 50.1042 40.8872 51.5657 42.0115C51.7906 42.1239 52.0154 42.2363 52.3527 42.2363H58.1987C58.4236 42.2363 58.7608 42.1239 58.9857 42.0115C60.4472 40.8872 61.459 39.0885 61.459 37.0648H61.5714C61.9087 37.0648 62.246 36.7276 62.246 36.3903C62.246 35.9406 61.9087 35.6033 61.5714 35.6033ZM54.826 35.6033H50.4415L54.826 25.1479V35.6033ZM55.7254 35.6033V25.1479L60.1099 35.6033H55.7254Z" fill="white"/>
</svg>
