<svg width="64" height="64" viewBox="0 0 64 64" fill="none" xmlns="http://www.w3.org/2000/svg">
<circle cx="32" cy="32" r="32" fill="#0066B3"/>
<path d="M25.0498 30.3483L25.6494 30.748C26.3489 31.1477 26.7486 31.9472 26.7486 32.7466V36.0444H36.8418V31.9472C36.8418 31.0478 37.1416 30.1484 37.6412 29.3489C38.1409 28.6494 38.4407 27.75 38.4407 26.7507V18.5563C38.4407 17.6569 37.7412 16.8574 36.7418 16.8574C35.8424 16.8574 35.1429 17.5569 35.1429 18.5563C35.1429 17.6569 34.4434 16.8574 33.544 16.8574C32.6446 16.8574 31.9451 17.5569 31.9451 18.5563C31.9451 17.6569 31.2456 16.8574 30.3462 16.8574C29.4468 16.8574 28.7473 17.5569 28.7473 18.5563C28.7473 17.6569 28.0477 16.8574 27.0484 16.8574C26.149 16.8574 25.4495 17.5569 25.4495 18.5563V22.5536L24.5501 22.7534V19.8554C21.4522 20.7548 21.752 23.5529 21.752 23.5529L22.5515 26.7507C22.8513 28.2497 23.7507 29.4489 25.0498 30.3483Z" fill="white"/>
<path d="M38.5406 40.6412H38.1409V38.5426C38.1409 37.943 37.6412 37.4434 37.0416 37.4434H26.149C25.5494 37.4434 25.0498 37.943 25.0498 38.5426V40.6412H24.65C24.0504 40.6412 23.5508 41.1408 23.5508 41.7404V46.0375C23.5508 46.6371 24.0504 47.1368 24.65 47.1368H38.6405C39.2401 47.1368 39.7398 46.6371 39.7398 46.0375V41.7404C39.6398 41.1408 39.1402 40.6412 38.5406 40.6412Z" fill="white"/>
<path d="M22.1516 19.2557H15.756C15.4562 18.6562 14.7566 18.1565 13.9572 18.1565C12.8579 18.1565 11.9585 19.0559 11.9585 20.1551C11.9585 20.8547 12.3583 21.5542 12.9579 21.854L8.86065 31.6473H8.46092C8.16112 31.6473 7.86133 31.9471 7.86133 32.2469C7.86133 32.5467 8.16112 32.8465 8.46092 32.8465H8.56085C8.56085 34.6453 9.46024 36.2442 10.7594 37.2435C10.9592 37.3435 11.1591 37.4434 11.4589 37.4434H16.6554C16.8552 37.4434 17.155 37.3435 17.3549 37.2435C18.654 36.2442 19.5534 34.6453 19.5534 32.8465H19.6533C20.053 32.8465 20.2529 32.5467 20.2529 32.2469C20.2529 31.8472 19.9531 31.6473 19.6533 31.6473H19.1537L15.0564 21.854C15.3562 21.6541 15.656 21.3543 15.8559 21.0545H20.6526C20.8525 20.6548 21.0524 20.355 21.3522 19.9553C21.552 19.7554 21.8518 19.5555 22.1516 19.2557ZM13.6574 31.6473H9.76004L13.6574 22.3536V31.6473ZM18.2543 31.6473H14.3569V22.3536L18.2543 31.6473Z" fill="white"/>
<path d="M54.7278 31.6473H54.2281L50.1309 21.854C50.7305 21.5542 51.1302 20.8547 51.1302 20.1551C51.1302 19.0559 50.2308 18.1565 49.1316 18.1565C48.3321 18.1565 47.7325 18.5562 47.3328 19.2557H39.8379V21.1545H47.3328C47.5327 21.4543 47.7325 21.754 48.1323 21.9539L44.035 31.7473H43.6353C43.2356 31.7473 43.0357 32.0471 43.0357 32.3468C43.0357 32.6466 43.3355 32.9464 43.6353 32.9464C43.6353 34.7452 44.5347 36.3441 45.8338 37.3435C46.0337 37.4434 46.2335 37.5433 46.5333 37.5433H51.7298C51.9297 37.5433 52.2295 37.4434 52.4293 37.3435C53.7284 36.3441 54.6278 34.7452 54.6278 32.9464H54.7278C55.0276 32.9464 55.3274 32.6466 55.3274 32.3468C55.3274 31.9471 55.0276 31.6473 54.7278 31.6473ZM48.7318 31.6473H44.8345L48.7318 22.3536V31.6473ZM49.5313 31.6473V22.3536L53.4287 31.6473H49.5313Z" fill="white"/>
</svg>
