<svg width="64" height="64" viewBox="0 0 64 64" fill="none" xmlns="http://www.w3.org/2000/svg">
<circle cx="32" cy="32" r="32" fill="#0066B3"/>
<path d="M31.8867 12C31.4163 12 31.035 12.3813 31.035 12.8517V16.2587C31.035 16.7292 31.4163 17.1105 31.8867 17.1105C32.3571 17.1105 32.7385 16.7292 32.7385 16.2587V12.8517C32.7385 12.3813 32.3571 12 31.8867 12ZM19.8425 16.9907C19.6245 16.9907 19.4099 17.0772 19.2436 17.2436C18.911 17.5762 18.911 18.1087 19.2436 18.4413L21.6524 20.8502C21.985 21.1828 22.5176 21.1828 22.8502 20.8502C23.1828 20.5176 23.1828 19.9851 22.8502 19.6524L20.4413 17.2436C20.275 17.0772 20.0604 16.9907 19.8425 16.9907ZM43.931 16.9907C43.713 16.9907 43.4984 17.0772 43.3321 17.2436L40.9233 19.6524C40.5906 19.9851 40.5906 20.5176 40.9233 20.8502C41.2559 21.1828 41.7884 21.1828 42.121 20.8502L44.5299 18.4413C44.8625 18.1087 44.8625 17.5762 44.5299 17.2436C44.3635 17.0772 44.149 16.9907 43.931 16.9907ZM31.8867 19.6657C26.6931 19.6657 21.6657 23.6951 21.6657 29.3943C21.6657 36.368 26.588 38.1416 27.1489 42.663H36.6246C37.1854 38.1416 42.1077 36.368 42.1077 29.3943C42.1077 23.6951 37.0803 19.6657 31.8867 19.6657ZM30.9418 21.8483C31.4969 21.8221 31.9677 22.1041 31.9532 22.6602C31.9673 23.1061 31.5741 23.5246 31.1282 23.5385C27.951 23.9091 25.4986 26.6018 25.4986 29.8867C25.4986 30.5409 25.5958 31.1692 25.7781 31.7632C25.9555 32.2005 25.6839 32.7575 25.2324 32.8945C24.7809 33.0314 24.2497 32.7177 24.1545 32.2557C23.9234 31.5038 23.7951 30.7139 23.7951 29.8867C23.7951 25.7484 26.9209 22.3174 30.9418 21.8483ZM14.8517 29.035C14.3813 29.035 14 29.4163 14 29.8867C14 30.3571 14.3813 30.7385 14.8517 30.7385H18.2587C18.7292 30.7385 19.1105 30.3571 19.1105 29.8867C19.1105 29.4163 18.7292 29.035 18.2587 29.035H14.8517V29.035ZM45.5147 29.035C45.0443 29.035 44.6629 29.4163 44.6629 29.8867C44.6629 30.3571 45.0443 30.7385 45.5147 30.7385H48.9217C49.3921 30.7385 49.7734 30.3571 49.7734 29.8867C49.7734 29.4163 49.3921 29.035 48.9217 29.035H45.5147ZM27.2021 44.3665V46.07H36.5713V44.3665H27.2021ZM27.2021 47.7735V48.6252C27.2021 49.6039 28.0068 50.3287 28.9056 50.3287H30.1832V51.1805C30.1832 52.1242 30.943 52.884 31.8867 52.884C32.8305 52.884 33.5902 52.1242 33.5902 51.1805V50.3287H34.8678C35.7666 50.3287 36.5713 49.6039 36.5713 48.6252V47.7735H27.2021Z" fill="white"/>
</svg>
