<svg width="64" height="64" viewBox="0 0 64 64" fill="none" xmlns="http://www.w3.org/2000/svg">
<circle cx="32" cy="32" r="32" fill="#0066B3"/>
<path d="M39.6561 29.3458C40.475 31.0698 40.9922 32.9663 40.9922 35.0351C40.9922 42.2329 35.1736 48.0516 27.9758 48.0516C20.7779 48.0516 14.9593 42.1898 14.9593 35.0351C14.9162 27.8372 20.7779 21.9755 27.9758 21.9755C30.0015 21.9755 31.9411 22.4496 33.6651 23.3116L36.0787 20.1653C33.6651 18.8292 30.9066 18.0964 27.9758 18.0964C18.6229 18.0964 11.0371 25.6822 11.0371 34.992C11.0371 44.3018 18.6229 51.9307 27.9758 51.9307C37.2856 51.9307 44.8713 44.3449 44.8713 34.992C44.8713 32.0611 44.1386 29.3458 42.8456 26.9321L39.6561 29.3458Z" fill="white"/>
<path d="M27.9762 28.9578C28.4072 28.9578 28.8382 29.0009 29.2692 29.0871L31.769 25.8115C30.6053 25.3374 29.3123 25.0356 27.9762 25.0356C22.5023 25.0356 18.0198 29.5181 18.0198 34.992C17.9767 40.5089 22.4592 44.9914 27.9762 44.9914C33.45 44.9914 37.9325 40.5089 37.9325 35.0351C37.9325 33.6989 37.6739 32.4059 37.1997 31.2422L33.9241 33.742C34.0103 34.173 34.0534 34.604 34.0534 35.0351C34.0534 38.3969 31.338 41.1123 27.9762 41.1123C24.6143 41.1123 21.8989 38.3538 21.8989 34.992C21.8989 31.6301 24.6143 28.9578 27.9762 28.9578Z" fill="white"/>
<path d="M51.9402 16.631C51.8109 16.3293 51.5091 16.1138 51.1643 16.1138H46.8973V11.8468C46.8973 11.502 46.6818 11.2003 46.3801 11.071C46.0784 10.9417 45.6905 11.0279 45.475 11.2434L40.9494 15.7259C40.777 15.8983 40.6908 16.1138 40.6908 16.3293V19.3033L29.1829 32.2336C28.795 32.0612 28.4071 31.975 27.976 31.975C26.2951 31.975 24.959 33.3111 24.959 34.992C24.959 36.673 26.2951 38.0091 27.976 38.0091C29.657 38.0091 30.9931 36.673 30.9931 34.992C30.9931 34.561 30.9069 34.1731 30.7345 33.7852L43.6648 22.2772H46.6387C46.8542 22.2772 47.0698 22.191 47.2422 22.0186L51.7247 17.5361C51.9833 17.3206 52.0695 16.9327 51.9402 16.631Z" fill="white"/>
</svg>
