<svg width="64" height="64" viewBox="0 0 64 64" fill="none" xmlns="http://www.w3.org/2000/svg">
<circle cx="32" cy="32" r="32" fill="#0066B3"/>
<path d="M31.547 13.7974L28.3492 15.9959L24.5518 15.1964L22.4532 18.3943L18.6558 19.0938L17.9563 22.8912L14.7584 24.9898L15.5579 28.7872L13.3594 31.985L15.5579 35.1829L14.7584 38.9803L17.9563 41.0789L18.6558 44.8763L22.4532 45.5758L24.5518 48.7736L28.3492 47.9741L31.547 50.1727L34.7448 47.9741L38.5423 48.7736L40.6408 45.5758L44.4382 44.8763L45.1378 41.0789L48.3356 38.9803L47.5361 35.1829L49.7346 31.985L47.5361 28.7872L48.3356 24.9898L45.1378 22.8912L44.4382 19.0938L40.6408 18.3943L38.5423 15.1964L34.7448 15.9959L31.547 13.7974ZM31.547 18.3943C39.0419 18.3943 45.2377 24.4901 45.2377 32.085C45.2377 39.5799 39.1418 45.7756 31.547 45.7756C24.0521 45.7756 17.8563 39.6798 17.8563 32.085C17.9563 24.4901 24.0521 18.3943 31.547 18.3943ZM31.547 20.6927C25.2513 20.6927 20.1548 25.7893 20.1548 32.085C20.1548 38.3807 25.2513 43.4772 31.547 43.4772C37.8427 43.4772 42.9393 38.3807 42.9393 32.085C42.9393 25.7893 37.9427 20.6927 31.547 20.6927ZM37.1432 26.2889L39.6415 28.6873L31.0474 37.7811L29.9481 38.9803L28.7489 37.881L23.6524 33.2841L25.9508 30.7858L29.8482 34.2834L37.1432 26.2889Z" fill="white"/>
</svg>
