<svg width="72" height="72" viewBox="0 0 72 72" fill="none" xmlns="http://www.w3.org/2000/svg">
<circle cx="36" cy="36" r="36" fill="#0066B3"/>
<path d="M35.4894 15.522L31.8919 17.9953L27.6198 17.0959L25.2589 20.6935L20.9868 21.4805L20.1998 25.7526L16.6023 28.1134L17.5016 32.3855L15.0283 35.9831L17.5016 39.5806L16.6023 43.8527L20.1998 46.2137L20.9868 50.4857L25.2589 51.2727L27.6198 54.8702L31.8919 53.9708L35.4894 56.4442L39.087 53.9708L43.3591 54.8702L45.72 51.2727L49.9921 50.4857L50.779 46.2137L54.3766 43.8527L53.4772 39.5806L55.9505 35.9831L53.4772 32.3855L54.3766 28.1134L50.779 25.7526L49.9921 21.4805L45.72 20.6935L43.3591 17.0959L39.087 17.9953L35.4894 15.522ZM35.4894 20.6935C43.9212 20.6935 50.8914 27.5514 50.8914 36.0955C50.8914 44.5273 44.0336 51.4975 35.4894 51.4975C27.0576 51.4975 20.0874 44.6397 20.0874 36.0955C20.1998 27.5514 27.0576 20.6935 35.4894 20.6935ZM35.4894 23.2792C28.4067 23.2792 22.6731 29.0129 22.6731 36.0955C22.6731 43.1782 28.4067 48.9118 35.4894 48.9118C42.5721 48.9118 48.3057 43.1782 48.3057 36.0955C48.3057 29.0129 42.6845 23.2792 35.4894 23.2792ZM41.7851 29.5749L44.5957 32.2731L34.9273 42.5036L33.6906 43.8527L32.3416 42.6161L26.6079 37.4446L29.1937 34.634L33.5782 38.5688L41.7851 29.5749Z" fill="white"/>
</svg>
