<svg width="32" height="32" viewBox="0 0 32 32" fill="none" xmlns="http://www.w3.org/2000/svg">
<path d="M0 4C0 1.79086 1.79086 0 4 0H28C30.2091 0 32 1.79086 32 4V28C32 30.2091 30.2091 32 28 32H4C1.79086 32 0 30.2091 0 28V4Z" fill="white"/>
<path d="M19.3569 9.98875H21V7.12675C20.7165 7.08775 19.7416 7 18.6062 7C16.2371 7 14.6143 8.49025 14.6143 11.2292V13.75H12V16.9495H14.6143V25H17.8195V16.9503H20.3281L20.7263 13.7508H17.8188V11.5465C17.8195 10.6217 18.0685 9.98875 19.3569 9.98875Z" fill="#0F1A40"/>
</svg>
