<svg width="32" height="32" viewBox="0 0 32 32" fill="none" xmlns="http://www.w3.org/2000/svg">
<path d="M0 4C0 1.79086 1.79086 0 4 0H28C30.2091 0 32 1.79086 32 4V28C32 30.2091 30.2091 32 28 32H4C1.79086 32 0 30.2091 0 28V4Z" fill="white"/>
<path d="M12.3182 7C9.385 7 7 9.385 7 12.3182V19.6818C7 22.615 9.385 25 12.3182 25H19.6818C22.615 25 25 22.615 25 19.6818V12.3182C25 9.385 22.615 7 19.6818 7H12.3182ZM20.9091 10.2727C21.3591 10.2727 21.7273 10.6409 21.7273 11.0909C21.7273 11.5409 21.3591 11.9091 20.9091 11.9091C20.4591 11.9091 20.0909 11.5409 20.0909 11.0909C20.0909 10.6409 20.4591 10.2727 20.9091 10.2727ZM16 11.5C18.4832 11.5 20.5 13.5168 20.5 16C20.5 18.4832 18.4832 20.5 16 20.5C13.5168 20.5 11.5 18.4832 11.5 16C11.5 13.5168 13.5168 11.5 16 11.5ZM16 12.3182C13.9709 12.3182 12.3182 13.9709 12.3182 16C12.3182 18.0291 13.9709 19.6818 16 19.6818C18.0291 19.6818 19.6818 18.0291 19.6818 16C19.6818 13.9709 18.0291 12.3182 16 12.3182Z" fill="#0F1A40"/>
</svg>
