<svg width="32" height="32" viewBox="0 0 32 32" fill="none" xmlns="http://www.w3.org/2000/svg">
<path d="M0 4C0 1.79086 1.79086 0 4 0H28C30.2091 0 32 1.79086 32 4V28C32 30.2091 30.2091 32 28 32H4C1.79086 32 0 30.2091 0 28V4Z" fill="white"/>
<path d="M3.16602 7.16666C3.16602 4.95752 4.95688 3.16666 7.16602 3.16666H24.8327C27.0418 3.16666 28.8327 4.95753 28.8327 7.16666V24.8333C28.8327 27.0425 27.0418 28.8333 24.8327 28.8333H7.16601C4.95687 28.8333 3.16602 27.0425 3.16602 24.8333V7.16666Z" fill="#0F1A40"/>
<path d="M27.6441 2H4.35594C3.05473 2 2 3.05473 2 4.35594V27.6441C2 28.9453 3.05473 30 4.35594 30H27.6441C28.9453 30 30 28.9453 30 27.6441V4.35594C30 3.05473 28.9453 2 27.6441 2ZM11.2537 24.3581H7.27581V12.3904H11.2537V24.3581ZM9.26489 10.7563H9.23897C7.90411 10.7563 7.04079 9.83737 7.04079 8.68893C7.04079 7.51457 7.93053 6.62109 9.29131 6.62109C10.6521 6.62109 11.4895 7.51457 11.5154 8.68893C11.5154 9.83737 10.6521 10.7563 9.26489 10.7563ZM25.5972 24.3581H21.6198V17.9557C21.6198 16.3467 21.0439 15.2493 19.6046 15.2493C18.5057 15.2493 17.8513 15.9895 17.5636 16.7041C17.4585 16.9598 17.4328 17.3172 17.4328 17.6748V24.3581H13.4551C13.4551 24.3581 13.5072 13.5132 13.4551 12.3904H17.4328V14.0849C17.9614 13.2695 18.9072 12.1096 21.0177 12.1096C23.6348 12.1096 25.5972 13.82 25.5972 17.4959V24.3581Z" fill="white"/>
</svg>
