<svg width="32" height="32" viewBox="0 0 32 32" fill="none" xmlns="http://www.w3.org/2000/svg">
<path d="M0 4C0 1.79086 1.79086 0 4 0H28C30.2091 0 32 1.79086 32 4V28C32 30.2091 30.2091 32 28 32H4C1.79086 32 0 30.2091 0 28V4Z" fill="white"/>
<path d="M25.6923 9.89415C24.96 10.2154 24.1797 10.4283 23.3662 10.5317C24.2031 10.032 24.8418 9.24677 25.1422 8.30031C24.3618 8.76554 23.5003 9.09415 22.5822 9.27754C21.8412 8.48862 20.7852 8 19.6332 8C17.3982 8 15.5988 9.81415 15.5988 12.0382C15.5988 12.3582 15.6258 12.6658 15.6923 12.9588C12.336 12.7951 9.36615 11.1865 7.37108 8.736C7.02277 9.34031 6.81846 10.032 6.81846 10.7766C6.81846 12.1748 7.53846 13.4142 8.61169 14.1317C7.96308 14.1194 7.32677 13.9311 6.78769 13.6345C6.78769 13.6468 6.78769 13.6628 6.78769 13.6788C6.78769 15.6406 8.18708 17.2702 10.0222 17.6455C9.69354 17.7354 9.33538 17.7785 8.96369 17.7785C8.70523 17.7785 8.44431 17.7637 8.19938 17.7095C8.72246 19.3083 10.2068 20.4837 11.9717 20.5218C10.5982 21.5963 8.85415 22.2437 6.96615 22.2437C6.63508 22.2437 6.31754 22.2289 6 22.1883C7.78831 23.3415 9.90769 24 12.1932 24C19.6222 24 23.6837 17.8462 23.6837 12.512C23.6837 12.3335 23.6775 12.1612 23.6689 11.9902C24.4702 11.4215 25.1434 10.7114 25.6923 9.89415Z" fill="#0F1A40"/>
</svg>
