<svg width="784" height="867" viewBox="0 0 784 867" fill="none" xmlns="http://www.w3.org/2000/svg">
<path d="M0.438656 287.382C1.02353 267.49 3.36295 247.598 10.9663 229.462C20.3243 207.23 36.7011 190.263 56.5868 177.392C88.17 156.915 120.923 138.194 153.676 118.887C198.126 92.5597 243.161 66.8175 288.197 41.0752C315.101 25.8638 342.005 10.6524 371.834 2.46172C389.965 -2.2187 407.511 0.121493 425.642 6.55707C465.999 21.1834 501.676 44.5855 537.938 65.6474C581.219 90.2195 623.914 114.792 667.195 139.949C695.269 156.33 723.343 171.542 747.323 193.774C765.454 210.155 775.397 230.632 779.491 255.204C785.925 293.818 783.585 332.431 783.585 371.044C784.17 440.081 783.585 509.702 783.585 578.738C783.585 603.895 780.076 629.052 766.624 651.284C755.511 670.006 739.719 683.462 721.588 694.578C689.42 714.47 657.252 733.192 625.084 751.913C582.388 777.071 539.693 802.228 496.412 826.215C474.771 838.501 451.961 849.032 429.151 858.978C401.077 871.264 372.419 868.924 345.514 855.467C311.592 838.501 278.254 819.779 245.501 801.643C209.824 781.751 174.731 761.274 139.639 740.797C107.471 722.076 74.7177 705.109 45.474 681.707C23.8337 664.741 8.62682 643.679 5.11758 616.181C2.19321 594.534 1.02353 572.887 0.438656 551.24C-0.146219 504.436 -0.146219 321.315 0.438656 287.382Z" fill="#FFC700"/>
</svg>
