<svg width="72" height="72" viewBox="0 0 72 72" fill="none" xmlns="http://www.w3.org/2000/svg">
<circle cx="36" cy="36" r="36" fill="#0066B3"/>
<path d="M37.5765 46.8844C36.9307 46.6347 35.0946 46.6638 34.4843 46.8825C32.785 47.2483 29.9676 48.6683 29.9676 51.7289L29.9122 55.4205C29.9102 55.5586 29.9644 55.6921 30.0625 55.7908C30.1605 55.8896 30.2941 55.945 30.4341 55.945H41.1126L41.4952 55.9954C41.5177 55.9986 41.5403 55.9999 41.5635 55.9999C41.6893 55.9999 41.8113 55.9547 41.9074 55.8721C42.0203 55.7741 42.0855 55.6315 42.0855 55.4831V51.7367C42.0855 48.6734 39.2771 47.2528 37.5765 46.8844Z" fill="white"/>
<path d="M36.0017 45.3612C37.8267 45.3612 39.3062 43.8873 39.3062 42.069C39.3062 40.2507 37.8267 38.7767 36.0017 38.7767C34.1767 38.7767 32.6973 40.2507 32.6973 42.069C32.6973 43.8873 34.1767 45.3612 36.0017 45.3612Z" fill="white"/>
<path d="M51.4925 46.8844C50.8474 46.6347 49.0119 46.6638 48.4003 46.8825C46.701 47.2483 43.8837 48.6683 43.8837 51.7289L43.8282 55.4205C43.8262 55.5586 43.8804 55.6921 43.9785 55.7908C44.0766 55.8896 44.2101 55.945 44.3501 55.945H55.0286L55.4112 55.9954C55.4338 55.9986 55.457 55.9999 55.4796 55.9999C55.6054 55.9999 55.7273 55.9547 55.8234 55.8721C55.9363 55.7734 56.0015 55.6315 56.0015 55.4825V51.736C56.0015 48.6734 53.1932 47.2528 51.4925 46.8844Z" fill="white"/>
<path d="M49.9138 45.3612C51.7388 45.3612 53.2183 43.8873 53.2183 42.069C53.2183 40.2507 51.7388 38.7767 49.9138 38.7767C48.0888 38.7767 46.6094 40.2507 46.6094 42.069C46.6094 43.8873 48.0888 45.3612 49.9138 45.3612Z" fill="white"/>
<path d="M23.6651 46.8844C23.0199 46.6347 21.1832 46.6638 20.5729 46.8825C18.8735 47.2483 16.0562 48.6683 16.0562 51.7289L16.0001 55.4199C15.9981 55.5579 16.0523 55.6915 16.1504 55.7902C16.2484 55.8889 16.382 55.9444 16.522 55.9444H27.2005L27.5831 55.9947C27.6056 55.9986 27.6289 55.9999 27.6521 55.9999C27.7779 55.9999 27.8998 55.9547 27.9959 55.8721C28.1088 55.7741 28.174 55.6315 28.174 55.4831V51.7367C28.174 48.6734 25.3657 47.2528 23.6651 46.8844Z" fill="white"/>
<path d="M22.0857 45.3612C23.9107 45.3612 25.3902 43.8873 25.3902 42.069C25.3902 40.2507 23.9107 38.7767 22.0857 38.7767C20.2607 38.7767 18.7812 40.2507 18.7812 42.069C18.7812 43.8873 20.2607 45.3612 22.0857 45.3612Z" fill="white"/>
<path d="M18.7637 34.9328C19.0372 34.9876 19.3134 34.9225 19.525 34.7515C19.7385 34.5786 19.8604 34.3225 19.8604 34.0489V29.6141C19.8604 29.4244 20.0166 29.2696 20.2082 29.2696C20.3998 29.2696 20.5559 29.4244 20.5559 29.6141V36.5457H27.0906L27.1106 30.0883C27.1113 29.8986 27.2668 29.7444 27.459 29.7444C27.6506 29.745 27.8061 29.8992 27.8061 30.0902L27.8029 30.925L31.9518 33.1754C32.2421 33.2876 32.6021 33.2676 32.9137 33.125C33.2421 32.9747 33.4866 32.7031 33.6015 32.3612C33.6221 32.2999 33.6369 32.2366 33.6473 32.165L33.6731 32.1386L33.6576 32.0715C33.6666 31.9528 33.6576 31.8308 33.6311 31.705C33.6073 31.5973 33.566 31.4876 33.504 31.3696L33.4776 31.3199C33.4182 31.2186 33.3479 31.1257 33.2686 31.0437L33.2221 30.9999C33.1208 30.9057 33.0241 30.8341 32.9253 30.7805L29.788 29.0837C29.7493 29.0631 29.7144 29.0347 29.6867 29.0012L29.6861 28.8837H29.6086L28.0577 26.4366C27.5893 25.6986 26.8345 25.2199 26.0384 25.1566C25.9655 25.1502 25.8939 25.147 25.8216 25.147H21.8081C21.332 25.147 20.8682 25.2399 20.4288 25.4231C20.0591 25.5766 19.7301 25.8528 19.4759 26.2218C18.5443 27.5708 18.0527 29.1496 18.0527 30.7863V34.016C18.0521 34.4573 18.3585 34.8515 18.7637 34.9328Z" fill="white"/>
<path d="M23.7129 23.9516C25.3266 23.9516 26.6348 22.6463 26.6348 21.0361C26.6348 19.4259 25.3266 18.1206 23.7129 18.1206C22.0992 18.1206 20.791 19.4259 20.791 21.0361C20.791 22.6463 22.0992 23.9516 23.7129 23.9516Z" fill="white"/>
<path d="M32.9231 29.7993L36.9895 23.8039L37.8546 24.3819L33.7992 30.3613C33.7998 30.3619 33.8005 30.3632 33.8011 30.3639C33.9082 30.4626 34.0043 30.5684 34.0895 30.6832C34.0966 30.6935 34.105 30.7026 34.1121 30.7129C34.3076 30.9845 34.4379 31.2916 34.494 31.6148C34.494 31.6161 34.4953 31.6181 34.4953 31.6193H52.9917V16H30.1328V28.0935L30.3218 28.3916L32.9231 29.7993ZM49.5221 18.3065H50.5653V29.8148H49.5221V18.3065ZM45.9196 23.4516H46.9628V29.8155H45.9196V23.4516ZM43.308 25.4619H44.3512V29.8155H43.308V25.4619ZM40.5984 23.0226H41.6416V29.8155H40.5984V23.0226Z" fill="white"/>
</svg>
