<svg width="72" height="72" viewBox="0 0 72 72" fill="none" xmlns="http://www.w3.org/2000/svg">
<circle cx="36" cy="36" r="36" fill="#0066B3"/>
<path d="M32.0082 33.6667L29.6835 39.5248L29.1721 35.2939H29.4976C29.6835 35.2939 29.8695 35.1079 29.8695 34.922V33.7596C29.8695 33.5737 29.6835 33.3877 29.4976 33.3877H27.6378C27.4519 33.3877 27.2659 33.5737 27.2659 33.7596V34.8755C27.2659 35.0615 27.4519 35.2474 27.6378 35.2474H27.9633L27.4519 39.4783L25.1272 33.6202C22.756 34.1781 20.9428 36.1308 20.6173 38.6414L20.0129 43.5232C19.9199 44.1276 20.3384 44.7321 20.9428 44.8715C21.8262 45.0575 22.7095 45.197 23.6394 45.3365L24.2903 56.5878C24.3368 57.4712 25.0807 58.1686 25.9641 58.1686H31.0783C31.9617 58.1686 32.7056 57.4712 32.7521 56.5878L33.403 45.3365C34.3329 45.197 35.2162 45.0575 36.0996 44.8715C36.704 44.7321 37.1225 44.1276 37.0295 43.5232L36.4251 38.6879C36.1926 36.1773 34.3794 34.2246 32.0082 33.6667Z" fill="white"/>
<path d="M28.5682 32.4114C31.4698 32.4114 33.8219 30.0592 33.8219 27.1577C33.8219 24.2561 31.4698 21.9039 28.5682 21.9039C25.6666 21.9039 23.3145 24.2561 23.3145 27.1577C23.3145 30.0592 25.6666 32.4114 28.5682 32.4114Z" fill="white"/>
<path d="M43.2603 14C38.425 14 34.5195 16.7896 34.5195 20.2301C34.5195 22.1828 35.7749 23.9496 37.7741 25.0654C37.5881 25.6233 37.2161 26.3672 36.4258 27.2506C35.9608 27.8085 36.5187 28.6454 37.2161 28.3664C38.6574 27.855 40.2847 27.0646 41.819 26.3207C42.2839 26.3672 42.7488 26.4137 43.2603 26.4137C48.0956 26.4137 52.001 23.6241 52.001 20.1836C52.001 16.7896 48.0956 14 43.2603 14ZM46.9797 18.8818L42.8883 23.2987C42.7488 23.4846 42.4699 23.4846 42.2839 23.2987L39.5873 20.3696C39.4478 20.2301 39.4478 19.9511 39.5873 19.8117L40.4242 19.0213C40.5637 18.8818 40.8426 18.8818 40.9821 19.0213L42.5629 20.695L45.5384 17.487C45.6779 17.3475 45.9569 17.301 46.0964 17.487L46.9332 18.2774C47.1192 18.4634 47.1192 18.7423 46.9797 18.8818Z" fill="white"/>
</svg>
