<svg width="72" height="72" viewBox="0 0 72 72" fill="none" xmlns="http://www.w3.org/2000/svg">
<circle cx="36" cy="36" r="36" fill="#0066B3"/>
<path d="M35.9749 20.3312C31.909 20.3312 28.6463 23.6441 28.6463 27.6598C28.6463 31.7257 31.9592 34.9885 35.9749 34.9885C40.0408 34.9885 43.3035 31.6755 43.3035 27.6598C43.3035 23.6441 40.0408 20.3312 35.9749 20.3312ZM36.5271 29.5673L34.8706 31.2238L33.2141 29.5673L31.6078 27.961L33.2643 26.3045L34.8706 27.9108L38.6855 24.0959L40.342 25.7524L36.5271 29.5673ZM50.6322 25.6018C49.9796 24.9994 49.7286 24.0457 50.08 23.2426L50.3812 22.4896C50.8831 21.3351 50.2306 20.03 49.0259 19.6787L48.2227 19.4779C47.3694 19.2269 46.7671 18.4739 46.7169 17.5704V16.7171C46.6667 15.4622 45.5122 14.5587 44.3075 14.7594L43.5043 14.91C42.6008 15.0606 41.7475 14.659 41.3459 13.8559L40.9443 13.1532C40.342 12.0488 38.9365 11.7477 37.9326 12.4504L37.28 12.9022C36.5773 13.4041 35.5733 13.4041 34.8706 12.9022L34.218 12.4002C33.2141 11.6473 31.7584 11.9987 31.1561 13.103L30.7545 13.8057C30.3027 14.6088 29.4494 15.0104 28.5459 14.8598L27.7427 14.7092C26.4878 14.5085 25.3835 15.412 25.2831 16.6669L25.2329 17.47C25.1827 18.3736 24.5804 19.1265 23.7271 19.3775L22.9239 19.6285C21.7192 19.9798 21.0667 21.2849 21.5686 22.4394L21.8698 23.1924C22.2212 23.9955 21.9702 24.9492 21.3176 25.5516L20.7153 26.1038C19.7616 26.9069 19.7616 28.4128 20.7153 29.2159L21.3176 29.7681C21.9702 30.3704 22.2212 31.3241 21.8698 32.1273L21.5686 32.8802C21.0667 34.0347 21.7192 35.3398 22.9239 35.6912L23.7271 35.892C24.5804 36.143 25.1827 36.8959 25.2329 37.7994L25.2831 38.6026C25.3333 39.8575 26.4878 40.761 27.6925 40.5602L28.4957 40.4096C29.3992 40.259 30.2525 40.6606 30.6541 41.4637L31.0557 42.1665C31.658 43.2708 33.0635 43.572 34.0675 42.8692L34.72 42.4175C35.4227 41.9155 36.4267 41.9155 37.1294 42.4175L37.782 42.9194C38.7859 43.6724 40.2416 43.321 40.8439 42.2167L41.2455 41.5139C41.6973 40.7108 42.5506 40.3092 43.4541 40.4598L44.2573 40.6104C45.5122 40.8112 46.6165 39.9077 46.7169 38.6528L46.7671 37.8496C46.8173 36.9461 47.4196 36.1932 48.2729 35.9422L49.0761 35.7414C50.2808 35.39 50.9333 34.0849 50.4314 32.9304L50.1302 32.1775C49.7788 31.3743 50.0298 30.4206 50.6824 29.8183L51.2847 29.2661C52.2384 28.463 52.2384 26.9571 51.2847 26.1539L50.6322 25.6018ZM35.9749 37.8496C30.3529 37.8496 25.8353 33.2818 25.8353 27.71C25.8353 22.0881 30.4031 17.5704 35.9749 17.5704C41.5969 17.5704 46.1145 22.1383 46.1145 27.71C46.1145 33.2818 41.5969 37.8496 35.9749 37.8496ZM20.2133 55.5187L25.1325 43.2206C25.7851 43.5218 26.538 43.7226 27.291 43.7226C27.5922 43.7226 27.8933 43.6724 28.1945 43.6222H28.2949L28.3451 43.7226C29.1984 45.3288 30.9553 46.3328 32.8627 46.3328C33.3647 46.3328 33.9169 46.2324 34.3686 46.0818L29.1984 59.0826C29.0478 59.4841 28.4957 59.5343 28.2949 59.1328L25.8353 54.8159C25.7349 54.6653 25.5843 54.6151 25.4337 54.6653L20.8157 56.121C20.4141 56.2716 20.0627 55.87 20.2133 55.5187ZM42.7514 59.2332L37.531 46.1822C38.0329 46.3328 38.5349 46.4332 39.0369 46.4332C40.9443 46.4332 42.651 45.4292 43.5545 43.7728L43.6047 43.6724H43.7051C44.0063 43.7226 44.3075 43.7728 44.6086 43.7728C45.4118 43.7728 46.1145 43.572 46.8173 43.2708L51.7365 55.6692C51.8871 56.0708 51.5357 56.4724 51.1341 56.3218L46.5161 54.8661C46.3655 54.8159 46.2149 54.8661 46.1145 55.0167L43.6549 59.3336C43.4541 59.6347 42.902 59.5845 42.7514 59.2332Z" fill="white"/>
</svg>
