<svg width="72" height="72" viewBox="0 0 72 72" fill="none" xmlns="http://www.w3.org/2000/svg">
<circle cx="36" cy="36" r="36" fill="#0066B3"/>
<path d="M44.4795 41.7534L48.0668 40.274L48.6731 39.6164V26.0822C48.6731 25.6438 48.37 25.2603 47.9152 25.2603H37.4059C37.4059 29.2603 33.6165 32.4383 28.8671 32.4383C28.6145 32.4383 28.3619 32.4383 28.1093 32.3836C27.5535 32.6575 27.0482 32.9315 26.543 33.1507V36.6027C26.8461 36.4931 27.1998 36.4384 27.5535 36.4384C28.9177 36.4384 30.1808 37.2603 30.7871 38.5753C31.2418 39.5068 31.2924 40.6027 30.9892 41.589C30.6861 42.5753 30.0292 43.3973 29.1703 43.8904L26.543 45.3699V46.5754C26.543 47.0137 26.8966 47.3973 27.3009 47.3973H42.6606C42.5595 47.2329 42.4585 47.0137 42.408 46.8493C42.0543 45.863 42.1048 44.7671 42.509 43.8356C42.8122 42.9041 43.57 42.137 44.4795 41.7534Z" fill="white"/>
<path d="M24.6239 29.3699C24.4724 29.863 24.1692 30.4658 23.5629 31.2329C23.2092 31.726 23.6134 32.3836 24.1692 32.1644C25.2808 31.726 26.5439 31.0685 27.7565 30.4658C28.1102 30.5206 28.4639 30.5206 28.8681 30.5206C32.607 30.5206 35.6385 28.1644 35.6385 25.2603C35.6385 22.3562 32.607 20 28.8681 20C25.1292 20 22.0977 22.3562 22.0977 25.2603C22.0977 26.9041 23.0576 28.3836 24.6239 29.3699ZM32.2027 24.274C32.708 24.274 33.1122 24.7123 33.1122 25.2603C33.1122 25.8082 32.708 26.2466 32.2027 26.2466C31.6975 26.2466 31.2933 25.8082 31.2933 25.2603C31.2933 24.7123 31.6975 24.274 32.2027 24.274ZM28.8681 24.274C29.3733 24.274 29.7775 24.7123 29.7775 25.2603C29.7775 25.8082 29.3733 26.2466 28.8681 26.2466C28.3628 26.2466 27.9586 25.8082 27.9586 25.2603C27.9586 24.7123 28.3628 24.274 28.8681 24.274ZM25.5334 24.274C26.0386 24.274 26.4428 24.7123 26.4428 25.2603C26.4428 25.8082 26.0386 26.2466 25.5334 26.2466C25.0281 26.2466 24.6239 25.8082 24.6239 25.2603C24.5734 24.7123 25.0281 24.274 25.5334 24.274Z" fill="white"/>
<path d="M59.2319 38.4109C58.373 36.1643 55.1899 36.4931 53.9772 36.9315C53.4215 37.0958 53.0678 37.4246 52.6636 37.863C52.2089 38.3561 49.0258 41.9178 49.0258 41.9178L45.0848 43.5616C44.1248 43.9452 43.6701 45.0958 44.0237 46.1369C44.3269 46.9589 45.0342 47.452 45.7416 47.452C45.9437 47.452 46.1963 47.3972 46.3984 47.3424L50.7436 45.5342C50.9962 45.4246 51.2489 45.2602 51.4004 45.0411L51.7036 44.7123C51.7541 47.1232 52.0573 51.178 52.1078 51.3972C52.1583 51.726 52.3099 52 52.7141 52C53.1183 52 58.5245 52 59.3835 52C59.7371 52 59.9392 51.726 59.9898 51.3424C59.9898 46.9589 60.1414 40.8219 59.2319 38.4109Z" fill="white"/>
<path d="M55.3409 35.6165C57.5732 35.6165 59.3829 33.6539 59.3829 31.2329C59.3829 28.812 57.5732 26.8494 55.3409 26.8494C53.1085 26.8494 51.2988 28.812 51.2988 31.2329C51.2988 33.6539 53.1085 35.6165 55.3409 35.6165Z" fill="white"/>
<path d="M29.1696 39.5067C28.7149 38.5204 27.6033 38.1369 26.6939 38.63L23.2076 40.5478C23.2076 40.5478 21.2877 39.1232 20.6814 38.63C20.2772 38.3013 19.1656 37.315 18.054 36.9314C16.7909 36.493 13.6583 36.2191 12.7489 38.4109C11.8394 40.8218 11.991 46.9588 12.0415 51.2876C12.0415 51.6711 12.2941 51.9451 12.6478 51.9451C13.5067 51.9451 18.913 51.9451 19.3172 51.9451C19.7214 51.9451 19.873 51.7259 19.9235 51.3424C19.974 51.1232 20.3277 46.1369 20.3277 43.9999C20.3277 43.7807 20.3277 43.5068 20.3277 43.2328L22.0961 44.5478C22.3992 44.767 22.7529 44.8766 23.1571 44.8766C23.4603 44.8766 23.7129 44.8218 24.016 44.6574L28.4623 42.1917C29.2707 41.7533 29.6244 40.5478 29.1696 39.5067Z" fill="white"/>
<path d="M16.6397 35.6165C18.872 35.6165 20.6817 33.6539 20.6817 31.2329C20.6817 28.812 18.872 26.8494 16.6397 26.8494C14.4073 26.8494 12.5977 28.812 12.5977 31.2329C12.5977 33.6539 14.4073 35.6165 16.6397 35.6165Z" fill="white"/>
</svg>
