<svg width="40" height="40" viewBox="0 0 40 40" fill="none" xmlns="http://www.w3.org/2000/svg">
<circle cx="20" cy="20" r="20" fill="#0066B3"/>
<path d="M28.2492 28.1841C27.8673 28.767 27.204 29.1087 26.5005 29.0685C25.797 29.0283 24.8925 28.9278 24.2694 28.767C21.4956 28.0434 18.6213 26.3148 16.1892 23.8827C13.7571 21.4506 12.0285 18.5763 11.3049 15.8024C11.1441 15.1793 11.0637 14.2949 11.0034 13.5914C10.9632 12.908 11.2848 12.2447 11.8677 11.8628L14.34 10.2146C14.9832 9.79253 15.8475 10.0136 16.1892 10.697L18.1992 14.5764C18.4806 15.1191 18.3399 15.8025 17.8575 16.1844L16.0485 17.5914C16.7721 18.9381 17.4555 20.0235 18.7821 21.33C20.0082 22.5561 21.0735 23.2797 22.4604 24.0234L23.8875 22.1943C24.2694 21.7119 24.9528 21.5511 25.4955 21.8526L29.3949 23.8626C30.0783 24.2043 30.2994 25.0686 29.8773 25.7118L28.2492 28.1841Z" fill="white"/>
</svg>
