<svg width="120" height="120" viewBox="0 0 120 120" fill="none" xmlns="http://www.w3.org/2000/svg">
<circle cx="60" cy="60" r="60" fill="#0066B3"/>
<path d="M79.0819 32H41.7829C41.3101 32 40.8566 32.1844 40.5222 32.5126C40.1878 32.8408 40 33.2859 40 33.75V86.25C40 86.7141 40.1878 87.1592 40.5222 87.4874C40.8566 87.8156 41.3101 88 41.7829 88H79.0819C79.5548 88 80.0083 87.8156 80.3427 87.4874C80.677 87.1592 80.8649 86.7141 80.8649 86.25V33.75C80.8649 33.2859 80.677 32.8408 80.3427 32.5126C80.0083 32.1844 79.5548 32 79.0819 32ZM50.0201 82.1667V84.6983H48.1361V82.2892C45.4261 81.9858 43.9046 80.8717 42.615 78.5442L44.909 76.3683C45.6341 77.7567 46.7989 79.075 48.5462 79.075C48.8847 79.0778 49.2202 79.0127 49.5322 78.8836C49.8441 78.7545 50.1259 78.5643 50.3602 78.3245C50.5945 78.0846 50.7764 77.8004 50.8947 77.4891C51.013 77.1778 51.0653 76.846 51.0483 76.5142C51.0483 74.7642 49.2178 74.1808 47.3873 73.3233C45.5568 72.4658 43.7263 71.3458 43.7263 68.435C43.7263 65.6233 45.3785 63.5467 48.1599 63.0392V60.7058H50.0439V63.0858C50.8392 63.1493 51.6124 63.3745 52.3142 63.7471C53.0161 64.1197 53.6314 64.6315 54.1208 65.25L52.3914 67.6533C52.0666 67.1973 51.6394 66.8208 51.1427 66.5527C50.6459 66.2847 50.0931 66.1324 49.5268 66.1075C48.9695 66.0964 48.43 66.3004 48.0243 66.6757C47.6187 67.0509 47.3793 67.5674 47.3576 68.1142C47.3576 69.66 49.2118 70.1908 51.0483 71.0775C52.8847 71.9642 54.7389 73.2008 54.7389 76.2167C54.7152 79.0983 52.9857 81.5833 50.0201 82.1667ZM77.3584 84.7392H59.1487C58.8201 84.7392 58.5049 84.611 58.2725 84.3829C58.0401 84.1548 57.9096 83.8455 57.9096 83.5229C57.9096 83.2003 58.0401 82.891 58.2725 82.6629C58.5049 82.4348 58.8201 82.3067 59.1487 82.3067H77.3347C77.6633 82.3067 77.9785 82.4348 78.2109 82.6629C78.4432 82.891 78.5738 83.2003 78.5738 83.5229C78.5738 83.8455 78.4432 84.1548 78.2109 84.3829C77.9785 84.611 77.6633 84.7392 77.3347 84.7392H77.3584ZM77.3584 79.2908H59.1487C58.8201 79.2908 58.5049 79.1627 58.2725 78.9346C58.0401 78.7065 57.9096 78.3972 57.9096 78.0746C57.9096 77.752 58.0401 77.4427 58.2725 77.2146C58.5049 76.9865 58.8201 76.8583 59.1487 76.8583H77.3347C77.6633 76.8583 77.9785 76.9865 78.2109 77.2146C78.4432 77.4427 78.5738 77.752 78.5738 78.0746C78.5738 78.3972 78.4432 78.7065 78.2109 78.9346C77.9785 79.1627 77.6633 79.2908 77.3347 79.2908H77.3584ZM77.3584 73.8425H59.1487C58.8201 73.8425 58.5049 73.7144 58.2725 73.4863C58.0401 73.2582 57.9096 72.9488 57.9096 72.6262C57.9096 72.3037 58.0401 71.9943 58.2725 71.7662C58.5049 71.5381 58.8201 71.41 59.1487 71.41H77.3347C77.6633 71.41 77.9785 71.5381 78.2109 71.7662C78.4432 71.9943 78.5738 72.3037 78.5738 72.6262C78.5738 72.9488 78.4432 73.2582 78.2109 73.4863C77.9785 73.7144 77.6633 73.8425 77.3347 73.8425H77.3584ZM77.3584 68.3942H59.1487C58.8201 68.3942 58.5049 68.266 58.2725 68.0379C58.0401 67.8098 57.9096 67.5005 57.9096 67.1779C57.9096 66.8553 58.0401 66.546 58.2725 66.3179C58.5049 66.0898 58.8201 65.9617 59.1487 65.9617H77.3347C77.6633 65.9617 77.9785 66.0898 78.2109 66.3179C78.4432 66.546 78.5738 66.8553 78.5738 67.1779C78.5738 67.5005 78.4432 67.8098 78.2109 68.0379C77.9785 68.266 77.6633 68.3942 77.3347 68.3942H77.3584ZM77.3584 62.9458H59.1487C58.8201 62.9458 58.5049 62.8177 58.2725 62.5896C58.0401 62.3615 57.9096 62.0522 57.9096 61.7296C57.9096 61.407 58.0401 61.0977 58.2725 60.8696C58.5049 60.6415 58.8201 60.5133 59.1487 60.5133H77.3347C77.6633 60.5133 77.9785 60.6415 78.2109 60.8696C78.4432 61.0977 78.5738 61.407 78.5738 61.7296C78.5738 62.0522 78.4432 62.3615 78.2109 62.5896C77.9785 62.8177 77.6633 62.9458 77.3347 62.9458H77.3584ZM75.1892 41.5142C74.8713 41.5131 74.5552 41.4679 74.2502 41.38L67.9683 51.2092C68.3943 51.6741 68.6778 52.2477 68.7862 52.8639C68.8945 53.48 68.8234 54.1137 68.5809 54.6919C68.3384 55.2702 67.9345 55.7694 67.4156 56.1321C66.8967 56.4949 66.2839 56.7064 65.6479 56.7423C65.0119 56.7781 64.3785 56.637 63.8207 56.335C63.2629 56.033 62.8033 55.5825 62.4949 55.0354C62.1865 54.4883 62.0418 53.8668 62.0775 53.2425C62.1132 52.6182 62.3279 52.0165 62.6968 51.5067L57.0389 44.5767C56.5393 44.7823 55.9965 44.8668 55.4565 44.8232C54.9166 44.7795 54.3953 44.6089 53.9366 44.3258L49.0395 48.6542C49.4003 49.3757 49.4832 50.2009 49.2728 50.9777C49.0624 51.7544 48.573 52.4303 47.8948 52.8807C47.2165 53.3311 46.3953 53.5256 45.5824 53.4283C44.7696 53.331 44.02 52.9485 43.4719 52.3513C42.9238 51.7542 42.6142 50.9826 42.6002 50.179C42.5862 49.3754 42.8687 48.5939 43.3956 47.9786C43.9225 47.3634 44.6583 46.9559 45.4673 46.8313C46.2762 46.7068 47.1038 46.8735 47.7974 47.3008L52.7064 42.9725C52.4436 42.446 52.3276 41.8607 52.3702 41.2759C52.4127 40.6912 52.6123 40.128 52.9485 39.6435C53.2848 39.159 53.7458 38.7706 54.2847 38.5178C54.8235 38.2649 55.421 38.1567 56.0163 38.204C56.6116 38.2513 57.1835 38.4526 57.6739 38.7873C58.1642 39.122 58.5555 39.5782 58.808 40.1095C59.0604 40.6408 59.165 41.2282 59.111 41.812C59.0571 42.3959 58.8466 42.9553 58.5009 43.4333L64.1647 50.3633C64.8666 50.0792 65.6456 50.0361 66.3756 50.2408L72.6753 40.4117C72.1579 39.8457 71.8542 39.1227 71.8149 38.3633C71.7757 37.6039 72.0032 36.8544 72.4595 36.2399C72.9157 35.6255 73.5731 35.1835 74.3216 34.9877C75.0702 34.792 75.8645 34.8544 76.5717 35.1646C77.279 35.4747 77.8563 36.0138 78.2071 36.6917C78.558 37.3696 78.6611 38.1452 78.4992 38.8887C78.3373 39.6322 77.9202 40.2987 77.3177 40.7766C76.7152 41.2545 75.9638 41.5148 75.1892 41.5142Z" fill="white"/>
</svg>
