<svg width="120" height="120" viewBox="0 0 120 120" fill="none" xmlns="http://www.w3.org/2000/svg">
<circle cx="60" cy="60" r="60" fill="#0066B3"/>
<path d="M64.9526 59.8045C67.6862 57.071 67.6862 52.6388 64.9526 49.9052C62.2189 47.1716 57.7868 47.1716 55.0532 49.9052C52.3195 52.6388 52.3195 57.071 55.0532 59.8045C57.7868 62.5382 62.2189 62.5382 64.9526 59.8045Z" fill="white"/>
<path d="M86.7453 54.6509L81.6604 53.4622H81.4622C81.066 52.0755 80.4717 50.7547 79.8113 49.5C79.8774 49.434 79.8774 49.434 79.9434 49.3679L82.7169 44.9434C83.1132 44.2831 83.0472 43.4245 82.6509 43.0283C82.1226 42.5 81.7925 42.1698 81.7925 42.1698L77.0378 37.4151C76.5755 36.9528 75.7169 36.9528 75.1226 37.3491L70.6981 40.1226C70.6321 40.1887 70.566 40.1887 70.566 40.2547C69.3113 39.5944 67.9906 39 66.6038 38.6038V38.4056L65.4151 33.3207C65.2169 32.5944 64.6226 32 63.9622 32H57.2264C57.2264 32 56.6981 32 56.1038 32C55.5094 32 54.8491 32.5944 54.6509 33.3207L53.4622 38.4056V38.6038C52.0755 39 50.7547 39.5944 49.5 40.2547C49.434 40.1887 49.434 40.1887 49.3679 40.1226L44.9434 37.3491C44.2831 36.9528 43.4245 37.0188 43.0283 37.4151L42.1698 38.2075L38.2075 42.1698C38.2075 42.1698 37.8774 42.5 37.4151 42.9622C36.9528 43.4245 36.9528 44.2831 37.3491 44.8774L40.1226 49.3019C40.1887 49.3679 40.1887 49.434 40.2547 49.434C39.5944 50.6887 39 52.0094 38.6038 53.3962H38.4056L33.3207 54.5849C32.5944 54.7831 32 55.3774 32 56.0378V62.7736C32 62.7736 32 63.3019 32 63.8962C32 64.4906 32.5944 65.1509 33.3207 65.3491L38.4056 66.5378H38.6038C39 67.9245 39.5944 69.2453 40.2547 70.5C40.1887 70.566 40.1887 70.566 40.1226 70.6321L37.3491 75.0566C36.9528 75.717 37.0188 76.5755 37.4151 76.9717C37.8774 77.5 38.2075 77.8302 38.2075 77.8302L42.9622 82.5849C43.4245 83.0472 44.2831 83.0472 44.8774 82.6509L49.3019 79.8774L49.3679 79.8113C49.434 79.8113 49.434 79.8113 49.434 79.7453C50.6887 80.4057 52.0094 81 53.3962 81.3962V81.5943L54.5849 86.6793C54.6509 86.9434 54.7831 87.1415 54.9151 87.3396C55.1793 87.7359 55.5755 88 56.0378 88H62.7736C62.7736 88 63.3019 88 63.8962 88C64.2925 88 64.7547 87.7359 65.0188 87.3396C65.1509 87.1415 65.2831 86.9434 65.3491 86.6793L66.5378 81.5943V81.3962C67.9245 81 69.2453 80.4057 70.5 79.7453L70.566 79.8113L70.6321 79.8774L75.0566 82.6509C75.717 83.0472 76.5755 82.9812 76.9717 82.5849L77.8302 81.7925L81.7925 77.8302C81.7925 77.8302 82.1226 77.5 82.5849 77.0378C83.0472 76.5755 83.0472 75.7169 82.6509 75.1226L79.8774 70.6981C79.8113 70.6321 79.8113 70.566 79.7453 70.566C80.4057 69.3113 81 67.9906 81.3962 66.6038H81.5943L86.6793 65.4151C87.4057 65.2169 88 64.6226 88 63.9622V57.2264C88 57.2264 88 56.6981 88 56.1038C88 55.4434 87.4057 54.8491 86.7453 54.6509ZM70.3679 71.5566C69.3774 66.7359 65.1509 63.0378 60 63.0378C54.8491 63.0378 50.6226 66.6698 49.6321 71.5566C46.4622 68.7169 44.4812 64.6226 44.4812 60C44.4812 51.4151 51.4151 44.4812 60 44.4812C68.5849 44.4812 75.5188 51.4151 75.5188 60C75.5188 64.5566 73.5378 68.7169 70.3679 71.5566Z" fill="white"/>
</svg>
