<svg width="120" height="120" viewBox="0 0 120 120" fill="none" xmlns="http://www.w3.org/2000/svg">
<circle cx="60" cy="60" r="60" fill="#0066B3"/>
<path d="M87.0726 52.8032C88.1517 52.8032 88.3125 52.2931 87.4316 51.6731L61.6049 33.4664C60.724 32.8445 59.278 32.8445 58.3971 33.4664L32.5684 51.6731C31.6875 52.2931 31.8483 52.8032 32.9274 52.8032H87.0726ZM60.0019 40.1252C62.1523 40.1252 63.8944 41.8694 63.8944 44.0196C63.8944 46.1699 62.1502 47.9121 60.0019 47.9121C57.8477 47.9121 56.1056 46.1699 56.1056 44.0196C56.1056 41.8694 57.8498 40.1252 60.0019 40.1252Z" fill="white"/>
<path d="M44.8877 55.7458H37.2734V80.0816H44.8877V55.7458Z" fill="white"/>
<path d="M63.8066 55.7458H56.1924V80.0816H63.8066V55.7458Z" fill="white"/>
<path d="M82.7285 55.7458H75.1143V80.0816H82.7285V55.7458Z" fill="white"/>
<path d="M86.5674 83.0249H33.4345C32.8342 83.0249 32.3496 83.5115 32.3496 84.1098V86.4818C32.3496 87.0822 32.8342 87.5667 33.4345 87.5667H86.5654C87.1658 87.5667 87.6504 87.0822 87.6504 86.4818V84.1098C87.6504 83.5115 87.1658 83.0249 86.5674 83.0249Z" fill="white"/>
</svg>
