<svg width="120" height="120" viewBox="0 0 120 120" fill="none" xmlns="http://www.w3.org/2000/svg">
<circle cx="60" cy="60" r="60" fill="#0066B3"/>
<path d="M87.906 84.9292C87.8157 84.568 87.4544 84.3873 87.0932 84.3873H82.5773V58.1955C82.5773 57.7439 82.1258 57.2923 81.6742 57.2923H78.0615C77.6099 57.2923 77.1583 57.7439 77.1583 58.1955V84.3873H69.933V63.6145C69.933 63.1629 69.4814 62.7113 69.0298 62.7113H65.4172C64.9656 62.7113 64.514 63.1629 64.514 63.6145V84.3873H57.2887V50.9702C57.2887 50.5186 56.8371 50.067 56.3855 50.067H52.7728C52.3213 50.067 51.8697 50.5186 51.8697 50.9702V84.3873H44.6443V67.2272C44.6443 66.7756 44.1927 66.324 43.7412 66.324H40.1285C39.6769 66.324 39.2253 66.7756 39.2253 67.2272V84.3873H36.4255C36.0643 84.3873 35.6127 83.9357 35.6127 83.5745V32.9068C35.6127 32.5456 35.432 32.1843 35.0708 32.094C34.7095 31.9133 34.3482 32.0037 34.0773 32.2746L32.271 34.0809C31.9097 34.4422 31.9097 34.9841 32.271 35.3454C33.0838 36.2485 33.8063 35.0744 33.8063 35.0744V83.5745C33.8063 84.9292 35.0708 86.1937 36.4255 86.1937H84.9256C84.9256 86.1937 83.8418 87.0065 84.6546 87.729C85.1062 88.1806 85.7384 87.9097 85.9191 87.729L87.7254 85.9227C87.9963 85.6518 88.0867 85.2905 87.906 84.9292ZM78.9647 78.0652C78.9647 77.6136 79.4163 77.162 79.8678 77.162C80.3194 77.162 80.771 77.6136 80.771 78.0652V81.6778C80.771 82.1294 80.3194 82.581 79.8678 82.581C79.4163 82.581 78.9647 82.1294 78.9647 81.6778V78.0652ZM41.0317 69.0335C41.0317 68.5819 41.4833 68.1303 41.9348 68.1303C42.3864 68.1303 42.838 68.5819 42.838 69.0335V72.6462C42.838 73.0977 42.3864 73.5493 41.9348 73.5493C41.4833 73.5493 41.0317 73.0977 41.0317 72.6462V69.0335Z" fill="white"/>
<path d="M41.9361 59.0986C43.4714 59.0986 45.5487 57.2923 44.194 54.8537L53.8579 42.7513C54.1288 42.8416 54.9417 43.0222 55.7545 42.5707L64.7862 51.6023C63.7024 53.3183 65.5087 55.6666 67.2247 55.4859C70.1149 55.1247 69.9342 52.6861 69.9342 52.5958L77.8821 49.2541C78.3337 49.796 79.0562 50.1573 79.8691 50.1573C81.4044 50.1573 82.5786 48.9831 82.5786 47.4478C82.5786 45.9124 81.3141 44.6479 79.8691 44.7383C76.9789 44.8286 77.1596 47.5381 77.1596 47.6284L69.2117 50.9701C67.7666 49.6154 66.4119 50.2476 66.0506 50.3379L57.0189 41.3062C58.0124 38.8677 56.1158 37.4226 54.5804 37.4226C53.045 37.4226 50.9677 39.0483 52.3225 41.6675L42.6586 53.7699C40.6716 53.228 39.2266 54.8537 39.2266 56.3891C39.2266 57.9245 40.491 59.0986 41.9361 59.0986Z" fill="white"/>
</svg>
