<svg width="120" height="120" viewBox="0 0 120 120" fill="none" xmlns="http://www.w3.org/2000/svg">
<circle cx="60" cy="60" r="60" fill="#0066B3"/>
<path d="M83.5922 79.289L80.6279 76.3249C83.0738 72.3893 82.5949 67.1679 79.1606 63.7462C75.1688 59.7543 68.7258 59.7391 64.7339 63.7462C60.7421 67.738 60.7269 74.181 64.7339 78.1728C68.1503 81.5892 73.3619 82.0923 77.2957 79.6554L80.2607 82.6205L82.9908 85.3344C83.9183 86.262 85.4107 86.262 86.3222 85.3344C87.2498 84.4229 87.2498 82.9296 86.3222 82.003L83.5922 79.289ZM76.915 75.9281C75.638 77.1926 73.8882 77.9843 71.9473 77.9843C68.0779 77.9843 64.9234 74.8298 64.9234 70.9603C64.9234 69.0194 65.7151 67.2697 66.9796 65.9928C68.2566 64.7282 70.0064 63.9365 71.9473 63.9365C75.8167 63.9365 78.9712 67.091 78.9712 70.9603C78.9712 72.9014 78.1794 74.6511 76.915 75.9281Z" fill="white"/>
<path d="M63.7228 81.4095C63.7032 81.4408 63.6746 81.4738 63.6388 81.5221C63.4619 81.742 62.848 81.8965 62.5754 81.9412C62.108 82.0225 61.6211 82.0288 61.1376 81.8652C60.865 81.775 60.9857 81.8286 60.7131 81.7553C60.2324 81.6311 60.2153 81.4149 59.9839 81.263C59.849 81.17 59.5505 81.1924 59.3199 80.7313C59.252 80.6043 59.0135 79.9323 58.8696 80.1942C58.7203 80.4471 59.0751 80.1156 58.8865 80.4899C58.6667 80.3523 58.3888 80.1129 58.1636 79.902C57.7722 79.5615 57.6659 79.6205 57.4317 79.4123C56.8947 78.9226 57.0886 78.6724 56.0868 77.9404C55.4255 77.4561 54.3478 75.9316 53.5713 75.3203C53.4471 75.222 53.3318 75.1488 53.2255 75.1068C52.834 74.9548 52.3112 75.1514 51.7956 75.1854C51.7733 75.1934 51.7563 75.1997 51.742 75.1934C51.0271 75.2301 49.5919 74.2989 48.852 74.1068C48.4999 74.0111 48.4722 74.1998 48.1147 73.8986C47.7743 73.6314 47.9432 73.5894 47.836 73.2292C46.4625 72.6359 47.768 71.6395 46.5304 70.6037C46.2935 70.4179 45.8807 70.2293 45.6609 70.2347C45.4866 70.5609 45.6636 70.5269 45.6975 70.862C45.3883 70.9067 45.0782 70.9523 44.7717 70.997C43.626 70.8764 44.3329 71.0613 43.8263 70.7914C42.7593 70.2374 42.7628 71.0112 41.9604 70.9523C41.6119 70.938 41.3554 70.6877 41.0462 71.014C40.5735 71.4947 40.9309 71.349 40.1883 71.5206C39.7916 71.6109 39.3867 71.6752 38.998 71.7119C37.0507 68.2428 35.9311 64.2492 35.9311 60C35.9311 57.766 36.2599 55.6096 36.8345 53.556C37.2903 54.1137 37.1357 53.2325 37.5208 53.9975C37.7773 53.7642 37.8899 53.3585 37.8336 53.0744C37.628 53.0208 37.4815 53.1361 37.276 53.0431C37.1803 52.7902 37.1974 52.5284 37.318 52.2862C37.3993 52.1227 37.5289 51.9681 37.7067 51.8305C39.7352 50.2684 38.8496 51.1102 39.6932 50.9074C39.8818 50.8591 40.1517 50.6964 40.3295 50.7555C40.6083 50.8483 40.6307 51.1245 40.9514 51.1182C41.233 51.1129 41.1516 50.9547 41.6154 51.0646C41.6967 51.2729 41.711 51.54 41.4689 51.7402C41.1284 52.0101 41.148 51.616 40.8102 51.9431C41.0864 52.2809 41.5305 52.1459 41.3616 52.582C41.2124 52.9671 41.2124 52.6017 41.0945 52.8805C41.0917 52.8921 41.0801 52.9171 41.0774 52.9287C41.0721 52.9484 41.0721 52.9707 41.0721 52.9877C41.0668 53.0583 41.064 53.1173 41.0578 53.1789C40.4448 53.4381 40.5877 53.4238 40.0221 53.3282C39.8085 53.2888 39.7629 53.2745 39.5744 53.4488C39.4502 53.5498 39.3295 53.7357 39.1213 53.7187C39.1267 53.2147 39.4814 53.4229 39.7013 52.9564C39.7406 52.8751 39.8979 52.2531 39.9041 52.1316C39.6083 51.9744 39.8595 52.1004 39.5806 52.0673C38.9417 51.9859 38.9113 52.1575 38.4296 52.5346C38.4073 52.9707 38.4886 53.4212 38.3537 53.7562C38.2724 53.9591 38.1115 54.1137 37.7996 54.1977C38.25 54.5489 38.267 53.9949 38.7031 54.5069C38.4922 54.6114 38.3259 54.5945 38.1884 54.8107C37.9015 55.2807 38.25 54.9823 38.3456 55.0386C38.351 55.044 38.5538 54.9144 38.4216 55.1342C38.2697 55.3764 38.3573 55.1199 37.7657 55.1985C37.7434 55.052 37.7147 54.9001 37.6897 54.7482C37.4395 55.1083 37.1554 55.5926 36.9159 56.0823C36.646 56.6453 36.4288 57.2164 36.3618 57.6354C36.654 58.0206 36.5226 57.7141 36.9159 58.1368C37.5324 57.7114 37.4815 58.0385 38.2017 57.7427C38.3394 57.6864 38.5083 57.6024 38.7111 57.4925C38.9336 57.7767 38.8461 58.1904 39.2545 58.345C39.8934 58.3138 39.4653 57.7373 39.2858 57.2986C40.4537 55.917 39.46 56.0323 39.2179 54.9823C39.1839 54.825 39.1642 54.6418 39.1731 54.4247C39.2858 54.3433 39.7585 54.0502 39.8684 53.9939C40.2285 53.8027 40.1186 54.0109 40.5806 53.8956C40.7888 54.1771 40.9265 54.6418 41.2812 54.2557C41.5484 53.96 41.2866 53.7688 41.619 53.4113C42.106 53.6785 42.1963 53.884 42.6494 54.3094C43.8424 53.9493 43.6627 54.5569 44.0032 55.3621C44.1605 55.3281 44.324 55.2861 44.4812 55.2414C44.6279 55.4381 44.7655 55.6328 44.9093 55.8267C44.8897 55.841 43.7699 56.3808 43.6877 56.4094C43.5108 55.8777 43.7717 55.6668 43.6091 55.1065C43.3133 55.4327 43.4232 55.5203 43.2347 55.7901C43.0658 56.0296 42.8602 56.1163 42.6494 56.3308C42.669 56.3451 42.703 56.3728 42.7539 56.4291C42.8692 56.5497 42.8353 56.3755 42.8549 56.5863C42.4242 56.6847 42.2616 56.2575 41.9238 57.0394C42.1042 56.9948 42.2785 56.9465 42.4644 56.8929C42.7513 57.2976 42.4867 57.0278 42.6082 57.3513C42.9263 58.1761 43.3598 57.1744 43.5287 56.9858C43.7512 57.3772 43.5368 57.5461 43.3061 57.8803C43.0497 58.2431 43.0559 58.4603 42.8361 58.7301C42.51 58.3138 42.7235 58.7132 42.6788 58.2798C42.434 58.513 42.333 58.7892 42.1614 59.093L42.1444 59.1242C41.922 59.5094 41.888 59.5693 42.1758 60.0134C41.9648 60.32 41.72 60.6693 41.6807 61.0241C41.6297 61.3673 41.5824 61.7077 41.5341 62.0401C41.5261 62.0714 41.5225 62.0965 41.5198 62.1161C42.0006 62.5835 41.9362 62.6478 41.7789 63.1009C41.6467 63.4807 41.5537 63.5459 41.4778 63.9587C41.241 65.2867 41.3625 64.6594 42.3643 65.8497C42.1587 65.9283 41.9559 65.9962 41.762 66.0579C41.0077 65.3403 41.3822 65.4806 40.5797 65.805C39.7183 66.1508 40.0846 66.4216 39.8398 66.7112C39.5726 67.0346 39.1275 66.7924 38.897 67.4654C38.7764 67.8451 38.6182 68.1552 38.8014 68.5207C39.0239 68.9622 39.0712 69.3733 39.4261 69.7754C40.3635 70.8844 41.4546 70.1355 41.3027 69.3956C41.2044 68.9005 41.0069 68.7424 41.6574 68.3822C41.9532 68.6441 42.0399 68.9363 42.1444 69.2294C42.2007 69.4063 42.2544 69.7638 42.4733 69.896C43.0166 69.7414 42.7825 69.4179 43.5823 69.3161C44.047 69.8281 44.2382 70.661 44.9022 70.6475C45.4116 70.6333 45.265 70.4054 45.5098 70.1329C45.7824 69.829 45.8789 70.0712 46.2077 69.8907C46.2131 69.5556 46.2444 69.7387 46.1569 69.4063C46.0102 68.8237 46.2185 68.9899 46.4633 68.3733C46.4857 68.3143 46.5053 68.258 46.525 68.1928C46.6599 68.2571 46.7949 68.317 46.9271 68.3786C46.9494 67.729 47.2872 68.0802 47.7493 67.8889C47.9495 67.8076 48.0781 67.7316 48.1684 67.6611C48.4499 67.4501 48.3713 67.292 48.8547 67.132C48.9137 67.1177 48.9816 67.09 49.0459 67.0641C49.0513 67.0588 49.0798 67.0525 49.0879 67.0641H49.1389C49.2568 67.0864 49.3194 67.1517 49.4284 67.191C49.8842 67.233 50.3399 67.2813 50.7849 67.3259C51.4381 67.132 51.1477 66.7603 52.1522 66.8675C52.5712 66.9068 52.4587 66.9881 52.825 67.1803C52.8787 67.208 52.952 67.225 53.0217 67.2616C53.1789 67.3599 53.3398 67.4475 53.4998 67.5341C54.0261 67.6691 54.2147 67.1794 54.8509 67.2473C55.2164 67.2866 55.0109 67.3483 55.5372 67.0703C56.3451 66.6254 56.0154 66.7781 56.8821 66.7639C57.211 66.7522 57.1949 66.6262 57.4925 66.603C58.0635 66.7719 58.3173 67.2393 58.3504 67.7513C58.4183 68.863 58.4942 69.0149 58.7444 69.3018C59.1099 66.3805 60.4245 63.6764 62.5433 61.5576C63.0187 61.0795 63.5254 60.6434 64.0544 60.2493C63.7166 60.1733 63.7389 60.0831 63.3511 59.3655C62.7854 58.2762 62.5692 58.8365 61.9802 59.2583C61.0232 58.614 60.8097 59.4612 60.4611 60.1421C60.2413 60.5674 59.9571 60.4629 59.6139 60.8204C58.8427 61.6139 59.8106 61.4539 57.942 61.4396C57.1628 61.437 57.6382 61.378 56.9769 61.1242C56.749 61.0259 56.2762 61.0232 56.0091 60.9553C55.1423 60.747 55.2299 59.7873 54.6615 59.219C53.6177 58.1528 54.22 59.3173 53.7696 57.3951C53.5248 56.3763 54.0395 55.9653 53.9099 55.5239C53.792 55.1351 53.5498 54.9832 53.5498 54.5391C53.5641 54.1673 53.8733 54.002 53.7071 53.565C53.5212 53.0137 53.1861 53.1879 52.8599 53.4247C52.3756 53.0762 52.4631 53.1879 52.238 52.6928C52.1111 52.414 51.9734 52.3407 51.8412 52.0682C51.5123 51.3872 52.9609 51.1843 53.0601 50.7233C52.9984 50.3712 52.8268 50.1129 52.489 49.9941C52.1432 49.8788 51.9573 50.0727 51.6705 49.9262C51.7858 49.5767 51.7214 49.8583 51.893 49.6473C52.0959 49.3998 52.0083 49.3515 52.2585 49.07C52.4784 48.8136 52.4551 48.4454 52.582 48.0853C52.7625 47.5705 52.4274 47.4972 52.8099 47.0808C53.4176 46.4115 52.9788 46.7886 52.5427 46.0737C52.616 45.9495 52.683 45.8235 52.7482 45.6993C53.1959 45.8146 52.8268 45.9156 53.2433 45.8995C53.2826 45.8065 53.3336 45.6993 53.3782 45.601C53.0914 45.3141 52.9958 45.4884 52.5927 45.1729C52.2889 45.5018 52.3926 45.8959 52.0297 46.0085C51.675 46.1184 51.3569 45.7386 51.1182 45.4035C51.028 45.08 51.431 44.551 51.5794 44.3365C51.8162 43.9817 51.6017 43.8021 51.6696 43.2838C51.7509 42.6056 51.7742 43.2105 51.574 42.5716C51.9788 42.2311 51.7706 42.3687 51.9198 42.048L51.9278 42.0337L51.9449 42.0024C52.0378 41.8219 52.2174 41.6592 52.356 41.4447C52.8733 40.6655 53.2478 40.5582 53.918 40.3697C54.439 40.2258 55.6293 39.3027 56.1074 39.7307C56.0538 40.2544 55.6123 40.2482 55.2182 40.5976C55.598 40.9237 55.6293 40.8988 56.0626 40.7325C55.9751 40.5046 55.9501 40.6396 55.9527 40.4483C56.085 40.384 56.2173 40.3161 56.3469 40.2482C56.1556 39.7674 56.3325 39.7191 56.6847 39.3698C56.4085 39.1499 56.4004 39.2795 56.3781 38.9533C56.8115 38.6808 56.4595 38.8997 56.9045 39.0659C57.1574 38.813 57.1887 38.2893 57.5434 37.9462C57.7632 37.7326 57.8249 37.8336 58.1368 37.5298C58.3933 37.2822 58.3003 37.192 58.6712 37.091C58.6229 36.8238 58.5273 36.9078 58.7391 36.6656C59.0679 36.3028 59.5809 36.2769 59.9884 36.0436C59.7096 35.9793 59.5237 36.0151 59.3914 35.9534C59.5943 35.9507 59.7936 35.9248 59.9991 35.9248C65.973 35.9248 71.4358 38.1285 75.6483 41.7504C75.5974 41.8067 75.55 41.8629 75.4768 41.9443V41.9863C75.4964 42.3884 75.6036 42.1302 75.4937 42.6502C75.3641 43.2633 75.4571 43.8969 75.2372 44.4875C75.5384 44.9799 75.7073 45.0112 76.0138 45.6385C76.1237 45.8718 76.3176 46.5786 76.0281 46.7412C75.9325 46.7895 74.9083 46.1979 74.6412 46.0237C74.1827 45.7279 73.7887 45.551 73.324 45.1622C73.0711 44.9567 72.66 44.5126 72.4715 44.3884C72.232 44.6412 72.3812 44.8048 71.9764 44.8244C71.6896 44.8361 71.7092 44.6922 71.4501 44.5742C71.0783 44.5376 70.6958 44.5099 70.316 44.4786C70.1025 44.5572 69.5172 45.1712 69.2133 45.357C68.6762 45.7029 68.6557 45.7681 68.0453 45.5992C67.5387 46.038 67.7388 46.2015 66.8774 46.1622C66.3198 46.1398 66.0248 45.6332 65.7407 46.2721C66.0471 46.7055 66.3206 46.6376 66.6548 46.6858C66.9051 46.7306 67.1472 46.7028 67.3724 46.8467C67.384 46.8467 67.561 47.0103 67.586 47.0299C68.0873 46.6894 68.0221 46.3713 68.132 45.9772C68.5708 46.0165 68.3572 46.2497 68.8719 46.1488C69.2767 46.0701 69.1535 46.0281 69.5305 46.1175C69.8763 46.3624 69.8067 47.8145 69.6824 48.1666C69.5868 48.4364 69.4296 48.4454 69.3697 48.7207C69.2821 49.1317 69.5439 48.8779 69.2294 49.3873C68.8862 49.9333 68.703 50.6679 68.2249 51.087C67.8871 50.8787 67.5467 50.6625 67.2035 50.4454C66.0891 49.6742 66.41 50.0602 65.6754 49.7841C65.343 49.6768 65.293 49.4775 65.0311 49.3533C64.8426 49.2577 64.6853 49.2747 64.4404 49.1621C64.0686 48.9878 63.5459 48.6697 63.2447 48.9762C63.3547 49.2604 64.3368 49.7331 64.5816 49.8457C64.8211 49.961 65.0374 49.9244 65.2938 50.1585C65.646 50.4793 65.5361 50.4936 65.9328 50.5839C66.7576 50.7643 66.242 51.0199 67.2947 51.0057C68.0829 50.994 68.0435 51.2085 68.6459 51.5463C69.0426 51.3863 69.6673 50.2014 69.9318 50.1987C70.4018 50.3953 70.4161 51.2854 70.5448 51.6758C70.9863 52.9734 70.3535 53.4435 70.4885 54.5971C70.5617 55.2218 70.4831 55.3737 70.6377 56.0689C70.745 56.5417 71.5359 57.0734 72.1542 57.6507C72.7709 57.6623 73.3812 57.7096 73.9808 57.8026C74.0318 57.7186 74.0791 57.6256 74.0961 57.513C74.164 57.1672 73.9468 56.8124 74.1158 56.4523C74.6895 56.6239 74.752 57.0037 74.8842 57.3808C74.9521 57.5863 75.0389 57.8088 75.1264 58.0304C77.4597 58.6042 79.6008 59.8061 81.3488 61.554C84.2441 64.4359 85.5729 68.342 85.2101 72.1775C86.9973 68.4939 88.0018 64.36 88.0018 59.9955C88 44.5564 75.4436 32 60 32C44.5564 32 32 44.5564 32 60C32 75.4436 44.5564 88 60 88C65.217 88 70.1051 86.5648 74.2926 84.0716C70.6091 84.7356 66.7594 83.8098 63.7228 81.4095ZM50.1451 47.2185C50.2854 47.2918 50.4239 47.365 50.5668 47.4321C50.8903 47.6849 50.44 47.6206 50.9806 47.8038C51.3577 47.8851 51.7322 47.97 52.1066 48.0514C52.2585 48.4963 52.2898 48.524 51.9716 48.8198C51.7465 49.0308 51.5239 49.3095 51.3328 49.4418C51.0485 48.9378 51.0995 49.2756 51.0039 48.9325C50.8833 48.5276 51.0852 48.7439 50.9556 48.3614C50.4462 48.1952 50.3873 48.6259 49.844 47.9083C49.9119 47.5339 49.9029 47.5902 50.1451 47.2185Z" fill="white"/>
</svg>
