<svg width="120" height="120" viewBox="0 0 120 120" fill="none" xmlns="http://www.w3.org/2000/svg">
<circle cx="60" cy="60" r="60" fill="#0066B3"/>
<path d="M86.5257 34.3334H53.859C53.215 34.3334 52.6924 33.8106 52.6924 33.1666C52.6924 32.5226 53.2127 32 53.859 32H86.5257C87.1697 32 87.6924 32.5226 87.6924 33.1666C87.6924 33.8106 87.1697 34.3334 86.5257 34.3334Z" fill="white"/>
<path d="M70.192 71.6667C69.548 71.6667 69.0254 71.144 69.0254 70.5V61.1666C69.0254 60.5226 69.548 60 70.192 60C70.836 60 71.3587 60.5226 71.3587 61.1666V70.5C71.3587 71.144 70.836 71.6667 70.192 71.6667Z" fill="white"/>
<path d="M70.1924 76.3332C68.2627 76.3332 66.6924 74.7629 66.6924 72.8333C66.6924 70.9036 68.2627 69.3333 70.1924 69.3333C72.122 69.3333 73.6924 70.9036 73.6924 72.8333C73.6924 74.7629 72.122 76.3332 70.1924 76.3332ZM70.1924 71.6665C69.5484 71.6665 69.0257 72.1893 69.0257 72.8333C69.0257 73.4773 69.5484 73.9999 70.1924 73.9999C70.8364 73.9999 71.359 73.4773 71.359 72.8333C71.359 72.1893 70.8341 71.6665 70.1924 71.6665Z" fill="white"/>
<path d="M42.1927 48.3334C45.4144 48.3334 48.0261 45.7218 48.0261 42.5001C48.0261 39.2784 45.4144 36.6667 42.1927 36.6667C38.971 36.6667 36.3594 39.2784 36.3594 42.5001C36.3594 45.7218 38.971 48.3334 42.1927 48.3334Z" fill="white"/>
<path d="M52.3525 67.7326L50.8592 55.7765C50.4952 52.8622 48.0055 50.6665 45.0702 50.6665H43.3575V54.1665C43.3575 54.8105 42.8348 55.3332 42.1908 55.3332C41.5468 55.3332 41.0242 54.8105 41.0242 54.1665V50.6665H39.3091C36.3738 50.6665 33.8841 52.8622 33.5201 55.7765L32.0268 67.7326C31.9032 68.7289 32.2112 69.7299 32.8761 70.4836C33.4898 71.1789 34.3508 71.5989 35.2701 71.6596L36.3598 86.9172C36.4042 87.5263 36.9105 87.9999 37.5242 87.9999H46.8575C47.4688 87.9999 47.9775 87.5263 48.0218 86.9172L49.1115 71.6596C50.0309 71.5989 50.8918 71.1789 51.5055 70.4836C52.1681 69.7299 52.4761 68.7289 52.3525 67.7326ZM43.3575 63.4999C43.3575 64.1438 42.8348 64.6666 42.1908 64.6666C41.5468 64.6666 41.0242 64.1438 41.0242 63.4999V58.8332C41.0242 58.1892 41.5468 57.6665 42.1908 57.6665C42.8348 57.6665 43.3575 58.1892 43.3575 58.8332V63.4999Z" fill="white"/>
<path d="M84.1911 32C83.5471 32 83.0245 32.5226 83.0245 33.1666H57.3577C57.3577 32.5226 56.8351 32 56.1911 32C55.5471 32 55.0244 32.5226 55.0244 33.1666V61.1667C55.0244 61.8107 55.5471 62.3333 56.1911 62.3333H84.1911C84.8351 62.3333 85.3578 61.8107 85.3578 61.1667V33.1666C85.3578 32.5226 84.8351 32 84.1911 32ZM70.191 55.3334C65.6877 55.3334 62.0244 51.67 62.0244 47.1667C62.0244 43.0647 65.0764 39.6907 69.0244 39.119V47.1667C69.0244 47.8107 69.547 48.3334 70.191 48.3334H78.2388C77.6671 52.2814 74.2931 55.3334 70.191 55.3334ZM79.5244 46H72.5244C71.8804 46 71.3578 45.4773 71.3578 44.8333V37.8333C71.3578 37.1893 71.8804 36.6667 72.5244 36.6667C77.0277 36.6667 80.6911 40.33 80.6911 44.8333C80.6911 45.4773 80.1684 46 79.5244 46Z" fill="white"/>
</svg>
