<svg width="120" height="120" viewBox="0 0 120 120" fill="none" xmlns="http://www.w3.org/2000/svg">
<circle cx="60" cy="60" r="60" fill="#0066B3"/>
<path d="M42.6758 39.6662V65.9513C42.6758 70.1942 46.1254 75.7936 49.9135 77.7013L60.2429 82.9055L70.5712 77.7025C74.3605 75.7942 77.8108 70.1948 77.8108 65.9513V39.6662C66.5261 35.679 53.9604 35.6783 42.6758 39.6662Z" fill="white"/>
<path d="M81.7571 36.1619C68.0458 30.6172 52.4672 30.6079 38.7292 36.1625C38.2887 36.3405 38 36.7691 38 37.2439V65.9513C38 71.9053 42.4924 79.1996 47.8105 81.8796L59.7174 87.8762C60.0453 88.0402 60.4342 88.0423 60.7677 87.8762L72.6751 81.8796C77.9926 79.2002 82.4863 71.9072 82.4863 65.9513V37.2439C82.4863 36.768 82.1975 36.3411 81.7571 36.1619ZM80.1436 65.9513C80.1436 71.1245 76.2404 77.4593 71.6204 79.7858L60.7683 85.2532C60.4392 85.4194 60.054 85.4225 59.718 85.2532L48.864 79.7845C44.2452 77.4593 40.3433 71.1245 40.3433 65.9513V38.848C40.3433 38.3602 40.6463 37.924 41.1042 37.7542C53.3633 33.2045 67.1236 33.2045 79.3833 37.7542C79.8412 37.924 80.1449 38.3602 80.1449 38.848V65.9513H80.1436Z" fill="white"/>
</svg>
