<svg width="120" height="120" viewBox="0 0 120 120" fill="none" xmlns="http://www.w3.org/2000/svg">
<circle cx="60" cy="60" r="60" fill="#0066B3"/>
<path d="M53.3129 51.6621C53.8517 51.6621 54.2947 51.2191 54.2947 50.6804C54.2947 50.1415 53.8517 49.6985 53.3129 49.6985C52.7741 49.6985 52.3311 50.1415 52.3311 50.6804C52.3311 51.2191 52.7621 51.6621 53.3129 51.6621Z" fill="white"/>
<path d="M52.3311 57.2538C52.3311 57.7926 52.7741 58.2356 53.3129 58.2356C53.8517 58.2356 54.2947 57.7926 54.2947 57.2538C54.2947 56.715 53.8517 56.272 53.3129 56.272C52.7741 56.272 52.3311 56.703 52.3311 57.2538Z" fill="white"/>
<path d="M59.8744 65.0247C60.4132 65.0247 60.8562 64.5817 60.8562 64.0428C60.8562 63.5041 60.4132 63.061 59.8744 63.061C59.3356 63.061 58.8926 63.5041 58.8926 64.0428C58.9046 64.5817 59.3356 65.0247 59.8744 65.0247Z" fill="white"/>
<path d="M66.6742 63.061C66.1354 63.061 65.6924 63.5041 65.6924 64.0428C65.6924 64.5817 66.1354 65.0247 66.6742 65.0247C67.213 65.0247 67.656 64.5817 67.656 64.0428C67.656 63.5041 67.213 63.061 66.6742 63.061Z" fill="white"/>
<path d="M60.8562 57.2538C60.8562 56.715 60.4132 56.272 59.8744 56.272C59.3356 56.272 58.8926 56.715 58.8926 57.2538C58.8926 57.7926 59.3356 58.2356 59.8744 58.2356C60.4252 58.2237 60.8562 57.7926 60.8562 57.2538Z" fill="white"/>
<path d="M59.8744 51.6621C60.4132 51.6621 60.8562 51.2191 60.8562 50.6804C60.8562 50.1415 60.4132 49.6985 59.8744 49.6985C59.3356 49.6985 58.8926 50.1415 58.8926 50.6804C58.9046 51.2191 59.3356 51.6621 59.8744 51.6621Z" fill="white"/>
<path d="M85.5933 74.7231C85.5933 74.7231 85.5813 74.7231 85.5933 74.7231H68.1839C67.7887 74.7351 67.4775 75.0465 67.4775 75.4416C67.4775 76.6269 66.5196 77.5848 65.3342 77.5968H53.9714C52.786 77.5848 51.8281 76.6269 51.8281 75.4416C51.8281 75.0465 51.5168 74.7351 51.1217 74.7231H34.3947C33.0776 74.7231 32 75.8008 32 77.1178C32 78.4349 33.0776 79.5125 34.3947 79.5125H85.5813C86.8984 79.5365 87.976 78.4948 88 77.1777C88 77.1658 88 77.1418 88 77.1298C88 75.8008 86.9224 74.7231 85.5933 74.7231Z" fill="white"/>
<path d="M66.6742 58.2237C67.213 58.2237 67.656 57.7806 67.656 57.2419C67.656 56.703 67.213 56.26 66.6742 56.26C66.1354 56.26 65.6924 56.703 65.6924 57.2419C65.6924 57.7926 66.1354 58.2237 66.6742 58.2237Z" fill="white"/>
<path d="M53.2775 75.4416C53.2775 75.8367 53.5889 76.1479 53.984 76.1599H65.3469C65.742 76.1479 66.0532 75.8367 66.0532 75.4416C66.0532 74.2561 67.0111 73.2983 68.1965 73.2863H84.7918V42.0714C84.8037 40.9459 83.8937 40.012 82.7682 40C82.7443 40 82.7323 40 82.7084 40H37.8078C36.6344 40 35.6885 40.898 35.6885 42.0714V73.2863H51.1343C52.3197 73.2983 53.2775 74.2561 53.2775 75.4416ZM38.9213 69.6942V44.1907C38.9213 43.7956 39.2446 43.4723 39.6397 43.4723H80.8285C81.2236 43.4723 81.547 43.7956 81.547 44.1907V69.6942C81.547 70.0893 81.2236 70.4127 80.8285 70.4127H39.6397C39.2446 70.4127 38.9213 70.0893 38.9213 69.6942Z" fill="white"/>
<path d="M40.3574 68.8559H80.1094V44.9089H40.3574V68.8559ZM53.3127 66.4612C51.9717 66.4612 50.8941 65.3836 50.8941 64.0426C50.8941 62.7015 51.9717 61.6239 53.3127 61.6239C54.6538 61.6239 55.7314 62.7015 55.7314 64.0426C55.7194 65.3836 54.6418 66.4612 53.3127 66.4612ZM66.6752 48.2615C68.0162 48.2615 69.0938 49.3392 69.0938 50.6802C69.0938 52.0212 68.0162 53.0989 66.6752 53.0989C65.3341 53.0989 64.2565 52.0212 64.2565 50.6802C64.2565 49.3392 65.3341 48.2615 66.6752 48.2615ZM58.6529 48.5968C59.0241 48.3812 59.4432 48.2615 59.8742 48.2615C61.2033 48.2615 62.2929 49.3392 62.2929 50.6682C62.2929 51.0274 62.221 51.3747 62.0654 51.6979L65.4898 55.1463C65.849 54.9427 66.2561 54.835 66.6752 54.835C68.0162 54.835 69.0938 55.9126 69.1058 57.2537C69.1058 58.2953 68.3754 59.1814 67.5373 59.5166V61.7796C68.3754 62.1149 69.1058 63.0009 69.1058 64.0426C69.1058 65.3716 68.0282 66.4612 66.6871 66.4612C65.3581 66.4612 64.2685 65.3836 64.2685 64.0426C64.2565 62.929 65.0108 61.9712 66.0885 61.7078V59.5885C64.7953 59.2652 64.0051 57.9481 64.3404 56.6549C64.3762 56.4993 64.4361 56.3437 64.508 56.188L61.0955 52.7636C59.9461 53.4461 58.4614 53.0509 57.7908 51.9015C57.1203 50.752 57.5035 49.2673 58.6529 48.5968ZM53.2888 48.2615C54.6178 48.2615 55.7074 49.3392 55.7074 50.6802C55.7194 51.7937 54.9651 52.7516 53.8875 53.015V54.9068C55.1806 55.2301 55.9708 56.5472 55.6476 57.8403C55.5518 58.2474 55.3482 58.6066 55.0608 58.906L58.3416 62.1867C58.617 61.9592 58.9402 61.7916 59.2875 61.7078V59.5885C57.9944 59.2532 57.2161 57.9361 57.5514 56.643C57.8866 55.3498 59.2037 54.5716 60.4968 54.9068C61.7899 55.2421 62.5683 56.5592 62.233 57.8523C62.0294 58.6186 61.4667 59.2412 60.7243 59.5166V61.7796C61.9815 62.2346 62.6281 63.6235 62.1732 64.8807C61.7182 66.138 60.3292 66.7846 59.072 66.3296C57.8866 65.8985 57.228 64.6412 57.5633 63.42L53.7557 59.6124C52.4386 59.8519 51.1814 58.9898 50.93 57.6727C50.906 57.529 50.8941 57.3853 50.8941 57.2297C50.8941 56.188 51.6245 55.302 52.4626 54.9667V52.9312C51.6245 52.5959 50.8941 51.7099 50.8941 50.6682C50.8822 49.3392 51.9598 48.2615 53.2888 48.2615Z" fill="white"/>
<path d="M66.6742 51.6621C67.213 51.6621 67.656 51.2191 67.656 50.6804C67.656 50.1415 67.213 49.6985 66.6742 49.6985C66.1354 49.6985 65.6924 50.1415 65.6924 50.6804C65.6924 51.2191 66.1354 51.6621 66.6742 51.6621Z" fill="white"/>
<path d="M53.3129 63.061C52.7741 63.061 52.3311 63.5041 52.3311 64.0428C52.3311 64.5817 52.7741 65.0247 53.3129 65.0247C53.8517 65.0247 54.2947 64.5817 54.2947 64.0428C54.2947 63.5041 53.8517 63.061 53.3129 63.061Z" fill="white"/>
</svg>
