<svg width="486" height="480" viewBox="0 0 486 480" fill="none" xmlns="http://www.w3.org/2000/svg">
<path d="M292.903 2.88664C292.903 2.88664 212.698 -14.5701 142.81 38.5537C72.9211 91.6775 45.9145 182.816 22.1323 256.114C-1.64983 329.413 26.0734 397.3 87.7093 421.972C149.345 446.643 182.43 394.397 262.857 381.746C343.284 369.095 366.473 377.854 427.627 323.68C488.781 269.506 487.138 160.294 424.131 87.3905C361.124 14.4874 292.903 2.88664 292.903 2.88664Z" fill="#F1F9FE"/>
<path d="M443.269 113.594C442.862 112.927 442.442 112.247 442.034 111.593L192.253 11.7694C183.492 14.9016 174.98 18.6928 166.791 23.1107L443.269 113.594Z" fill="white"/>
<path d="M446.73 119.45L446.038 118.215L103.365 77.4452C97.6453 84.6231 92.3329 92.0975 87.3047 99.8066L446.73 119.45Z" fill="white"/>
<path d="M452.176 129.778L83.3984 420.18C84.8192 420.823 86.2523 421.416 87.7101 422.009C98.078 426.335 109.203 428.556 120.437 428.544L452.621 130.668L452.176 129.778Z" fill="white"/>
<path d="M435.374 101.672C433.879 99.5843 432.323 97.5211 430.741 95.495L316.068 9.74329C308.557 6.80011 300.807 4.50616 292.904 2.88662C292.904 2.88662 288.691 1.97239 281.377 1.20642L435.374 101.672Z" fill="white"/>
<path d="M449.002 123.576C448.841 123.268 448.668 122.959 448.495 122.65L47.9046 180.505C44.1242 190.389 40.5785 200.359 37.2305 210.156L449.002 123.576Z" fill="white"/>
<path d="M457.316 141.07C457.057 140.465 456.81 139.835 456.55 139.242L366.857 363.696C374.092 360.918 381.083 357.546 387.761 353.615L457.316 141.07Z" fill="white"/>
<path d="M462.259 154.129C461.741 152.584 461.197 151.053 460.629 149.521L441.652 308.991C446.664 302.745 451.081 296.044 454.847 288.977L462.259 154.129Z" fill="white"/>
<path d="M450.855 127.11L450.411 126.27L13.7949 313.562C14.1963 324.563 15.9388 335.475 18.9838 346.054L450.855 127.11Z" fill="white"/>
<path d="M454.623 134.905C454.45 134.522 454.265 134.139 454.092 133.769L269.443 380.745C279.327 379.262 288.321 378.101 296.623 377.039L454.623 134.905Z" fill="white"/>
<path d="M80.5089 346.35H36.0332V479.481H80.5089V346.35Z" fill="#0066B3"/>
<path opacity="0.17" d="M80.5089 346.35H36.0332V479.481H80.5089V346.35Z" fill="white"/>
<path opacity="0.2" d="M80.5089 440.552C65.0562 444.697 50.1325 450.608 36.0332 458.17V479.481H80.5089V440.552Z" fill="black"/>
<path d="M147.222 334.836H102.746V479.481H147.222V334.836Z" fill="#F5821F"/>
<path opacity="0.2" d="M145.06 432.213C130.883 432.192 116.729 433.358 102.746 435.697V479.481H147.222V432.213H145.06Z" fill="black"/>
<path d="M213.935 301.171H169.459V479.481H213.935V301.171Z" fill="#0066B3"/>
<path opacity="0.17" d="M213.935 301.171H169.459V479.481H213.935V301.171Z" fill="white"/>
<path opacity="0.2" d="M213.935 436.241C200.407 434.857 185.853 433.498 169.459 432.769V479.481H213.935V436.241Z" fill="black"/>
<path d="M280.648 318.887H236.172V479.481H280.648V318.887Z" fill="#F5821F"/>
<path opacity="0.2" d="M280.648 440.379C265.797 440.759 250.938 440.131 236.172 438.502V479.481H280.648V440.379Z" fill="black"/>
<path d="M347.364 224.969H302.889V479.481H347.364V224.969Z" fill="#0066B3"/>
<path opacity="0.17" d="M347.364 224.969H302.889V479.481H347.364V224.969Z" fill="white"/>
<path opacity="0.2" d="M347.364 426.876C332.955 432.155 318.057 435.987 302.889 438.316V479.481H347.364V426.876Z" fill="black"/>
<path d="M485.732 178.022H441.256V479.481H485.732V178.022Z" fill="#0066B3"/>
<path opacity="0.17" d="M485.732 178.022H441.256V479.481H485.732V178.022Z" fill="white"/>
<path opacity="0.2" d="M485.732 379.151C471.321 384.425 456.423 388.257 441.256 390.591V479.481H485.732V379.151Z" fill="black"/>
<path d="M414.077 189.079H369.602V479.481H414.077V189.079Z" fill="#F5821F"/>
<path opacity="0.2" d="M369.602 418.426V479.481H414.077V400.314C399.857 406.319 384.847 412.471 369.602 418.426Z" fill="black"/>
<path d="M485.41 480H0.589806C0.43338 480 0.28336 479.947 0.17275 479.854C0.0621396 479.76 0 479.633 0 479.5C0 479.367 0.0621396 479.24 0.17275 479.146C0.28336 479.053 0.43338 479 0.589806 479H485.41C485.567 479 485.717 479.053 485.827 479.146C485.938 479.24 486 479.367 486 479.5C486 479.633 485.938 479.76 485.827 479.854C485.717 479.947 485.567 480 485.41 480Z" fill="#0066B3"/>
<path d="M142.588 144.381L161.626 172.796L199.109 169.275V176.886C199.109 176.886 163.665 188.906 159.266 190.068C154.868 191.229 133.199 176.305 133.199 176.305C133.199 176.305 130.58 154.92 142.588 144.381Z" fill="#2B80C0"/>
<path d="M158.773 190.747C153.25 190.747 135.003 178.294 132.829 176.811C132.756 176.762 132.694 176.698 132.647 176.624C132.6 176.549 132.569 176.466 132.557 176.379C132.458 175.489 130.086 154.549 142.144 143.912C142.209 143.853 142.286 143.809 142.37 143.783C142.454 143.758 142.543 143.75 142.63 143.762C142.717 143.774 142.8 143.804 142.874 143.852C142.948 143.899 143.011 143.961 143.058 144.035L161.899 172.141L199.11 168.658C199.197 168.65 199.284 168.661 199.367 168.688C199.45 168.716 199.526 168.76 199.592 168.818C199.654 168.877 199.704 168.948 199.738 169.026C199.772 169.105 199.789 169.19 199.789 169.275V176.886C199.789 177.016 199.749 177.142 199.673 177.249C199.598 177.355 199.492 177.435 199.369 177.479C197.924 177.973 163.85 189.512 159.489 190.673C159.255 190.729 159.014 190.754 158.773 190.747ZM133.792 175.922C142.44 181.852 156.129 190.228 159.119 189.438C163.183 188.35 194.489 177.763 198.504 176.416V169.918L161.688 173.365C161.576 173.378 161.462 173.36 161.359 173.312C161.257 173.264 161.169 173.188 161.108 173.093L142.465 145.283C132.137 155.031 133.558 173.5 133.792 175.959V175.922Z" fill="#263238"/>
<path d="M176.7 174.056C178.318 171.474 157.686 181.469 156.723 181.148C155.759 180.827 158.329 176.626 156.723 174.699C155.117 172.772 152.535 179.208 150.916 174.699C149.518 171.212 147.793 167.866 145.764 164.704L137.302 151.114C131.47 162.073 133.212 176.256 133.212 176.256C133.212 176.256 154.894 191.192 159.28 190.018C162.356 189.203 180.641 183.075 191.401 179.468C183.359 180.308 169.855 181.642 168.064 181.42C165.42 181.148 175.094 176.626 176.7 174.056Z" fill="#2B80C0" fill-opacity="0.2"/>
<path opacity="0.5" d="M176.7 174.056C178.318 171.474 157.686 181.469 156.723 181.148C155.759 180.827 158.329 176.626 156.723 174.699C155.117 172.772 152.535 179.208 150.916 174.699C149.518 171.212 147.793 167.866 145.764 164.704L137.302 151.114C131.47 162.073 133.212 176.256 133.212 176.256C133.212 176.256 154.894 191.192 159.28 190.018C162.356 189.203 180.641 183.075 191.401 179.468C183.359 180.308 169.855 181.642 168.064 181.42C165.42 181.148 175.094 176.626 176.7 174.056Z" fill="black" fill-opacity="0.2"/>
<path d="M194.723 178.096C194.573 178.097 194.427 178.042 194.316 177.941C194.204 177.841 194.133 177.702 194.118 177.553L193.228 169.93C193.21 169.766 193.258 169.602 193.361 169.473C193.464 169.345 193.614 169.262 193.778 169.244C193.942 169.226 194.106 169.274 194.235 169.377C194.363 169.48 194.446 169.63 194.464 169.794L195.341 177.404C195.358 177.568 195.311 177.732 195.21 177.861C195.108 177.99 194.96 178.075 194.797 178.096H194.723Z" fill="#263238"/>
<path d="M199.109 169.275L202.334 164.877L212.872 164.297C212.872 164.297 213.465 173.08 211.995 174.551C210.525 176.021 199.109 176.886 199.109 176.886V169.275Z" fill="white"/>
<path d="M199.11 177.503C199.033 177.506 198.956 177.493 198.884 177.465C198.812 177.438 198.746 177.396 198.69 177.343C198.628 177.284 198.578 177.213 198.544 177.134C198.51 177.056 198.492 176.971 198.492 176.886V169.275C198.489 169.141 198.533 169.01 198.616 168.905L201.828 164.519C201.883 164.444 201.953 164.383 202.034 164.338C202.115 164.293 202.205 164.266 202.297 164.259L212.848 163.679C212.929 163.674 213.009 163.685 213.085 163.711C213.162 163.738 213.232 163.78 213.292 163.834C213.351 163.888 213.4 163.953 213.434 164.027C213.468 164.1 213.487 164.179 213.491 164.259C213.589 165.767 214.022 173.402 212.428 174.983C210.834 176.564 201.099 177.355 199.159 177.454L199.11 177.503ZM199.728 169.473V176.218C204.348 175.835 210.698 174.983 211.563 174.106C212.428 173.229 212.49 168.46 212.292 164.951L202.656 165.482L199.728 169.473Z" fill="#263238"/>
<path d="M208.2 163.419C208.2 163.419 206.73 174.835 208.2 174.835C209.67 174.835 214.649 175.131 214.649 172.5C214.649 169.868 215.526 162.542 213.76 162.246C211.993 161.949 208.2 163.419 208.2 163.419Z" fill="white"/>
<path d="M209.338 175.465H208.202C208.069 175.462 207.939 175.431 207.82 175.373C207.7 175.316 207.595 175.233 207.51 175.131C206.373 173.896 207.189 166.483 207.584 163.333C207.602 163.223 207.647 163.12 207.717 163.034C207.786 162.947 207.876 162.88 207.979 162.839C208.387 162.678 211.995 161.319 213.872 161.603C215.75 161.887 215.602 165.31 215.355 170.251C215.355 171.141 215.269 171.931 215.269 172.5C215.273 172.813 215.213 173.124 215.092 173.413C214.971 173.703 214.791 173.964 214.564 174.18C213.391 175.341 210.994 175.465 209.338 175.465ZM208.437 174.229H208.671C209.907 174.229 212.748 174.229 213.749 173.303C213.857 173.199 213.942 173.074 213.999 172.936C214.057 172.798 214.085 172.649 214.082 172.5C214.082 171.919 214.083 171.104 214.169 170.189C214.416 165.421 214.268 162.95 213.712 162.851C212.016 162.881 210.341 163.225 208.77 163.864C208.227 168.262 207.942 173.241 208.387 174.229H208.437Z" fill="#263238"/>
<path d="M200.346 167.224C200.346 167.224 202.681 162.542 204.447 162.283C206.214 162.023 208.252 162.579 208.252 163.456C208.252 164.334 210.007 170.189 208.252 170.783C206.498 171.376 205.621 169.312 205.621 169.312L205.028 168.139C204.892 168.787 204.571 169.381 204.104 169.851C203.637 170.32 203.044 170.644 202.397 170.783" fill="white"/>
<path d="M207.582 171.462C207.024 171.415 206.49 171.215 206.039 170.883C205.587 170.552 205.236 170.102 205.024 169.584C204.459 170.466 203.573 171.095 202.554 171.338C202.472 171.358 202.388 171.361 202.306 171.348C202.224 171.335 202.145 171.306 202.073 171.262C202.002 171.219 201.94 171.162 201.891 171.094C201.842 171.027 201.807 170.95 201.788 170.869C201.768 170.788 201.765 170.704 201.778 170.621C201.791 170.539 201.82 170.46 201.864 170.389C201.907 170.318 201.965 170.256 202.032 170.207C202.099 170.158 202.176 170.122 202.257 170.103C202.785 169.994 203.27 169.736 203.656 169.359C204.041 168.982 204.31 168.503 204.431 167.978C204.451 167.849 204.512 167.729 204.604 167.637C204.696 167.544 204.816 167.483 204.945 167.462C205.074 167.442 205.206 167.463 205.323 167.522C205.439 167.581 205.534 167.676 205.593 167.793L206.173 168.966C206.26 169.152 206.89 170.498 208.064 170.115C208.447 169.992 208.718 168.966 207.878 164.815C207.759 164.345 207.681 163.866 207.644 163.382C207.197 163.078 206.691 162.871 206.159 162.773C205.627 162.675 205.081 162.689 204.555 162.814C203.554 162.987 201.825 165.631 200.849 167.459C200.813 167.532 200.763 167.598 200.703 167.652C200.642 167.705 200.571 167.747 200.494 167.773C200.417 167.8 200.336 167.81 200.254 167.805C200.173 167.8 200.094 167.779 200.021 167.743C199.878 167.667 199.77 167.538 199.719 167.384C199.668 167.23 199.679 167.062 199.749 166.916C200.169 166.075 202.331 161.974 204.296 161.603C205.675 161.319 207.112 161.585 208.298 162.344C208.458 162.467 208.589 162.624 208.681 162.803C208.773 162.983 208.824 163.181 208.83 163.382C208.83 163.518 208.941 164.074 209.04 164.618C209.682 167.83 210.127 170.795 208.41 171.338C208.142 171.425 207.863 171.467 207.582 171.462Z" fill="#263238"/>
<path d="M89.6993 210.613L90.6259 262.81L60.0488 319.331L65.6083 323.038C65.6083 323.038 109.157 275.782 110.702 271.458C112.246 267.134 121.203 228.218 121.203 228.218C121.203 228.218 124.292 215.555 119.041 208.76C113.79 201.965 96.1854 196.714 89.6993 210.613Z" fill="#333333"/>
<path d="M65.6074 323.655C65.4855 323.653 65.3663 323.619 65.2615 323.557L59.702 319.85C59.5768 319.761 59.488 319.629 59.4517 319.479C59.4154 319.33 59.4341 319.172 59.5043 319.035L90.0073 262.662L89.0807 210.625C89.062 210.536 89.062 210.443 89.0807 210.354C90.1242 207.888 91.8156 205.752 93.9756 204.17C96.1355 202.589 98.6833 201.622 101.349 201.372C108.675 200.556 116.322 204.3 119.472 208.377C124.847 215.332 121.882 227.835 121.746 228.366C121.387 229.948 112.764 267.357 111.232 271.668C109.7 275.98 67.7941 321.518 66.0151 323.458C65.9091 323.573 65.7634 323.644 65.6074 323.655ZM60.851 319.134L65.5086 322.235C77.8629 308.83 108.897 274.67 110.12 271.248C111.627 267.011 120.51 228.465 120.597 228.082C120.597 227.946 123.549 215.616 118.546 209.143C115.667 205.436 108.341 201.841 101.534 202.595C99.1042 202.822 96.7805 203.699 94.8066 205.133C92.8328 206.568 91.2817 208.508 90.3161 210.749L91.2427 262.798C91.2432 262.905 91.2178 263.011 91.1686 263.107L60.851 319.134Z" fill="#263238"/>
<path opacity="0.2" d="M109.084 266.171C107.231 267.567 84.0663 299.589 73.0215 314.946C85.5118 301.245 109.553 274.646 110.702 271.458C112.247 267.134 121.204 228.218 121.204 228.218C121.204 228.218 121.376 227.489 121.574 226.291C119.35 217.161 108.775 207.512 106.638 210.551L103.586 233.469C103.586 233.469 103.586 252.111 104.192 253.952C104.797 255.793 110.616 251.815 109.133 253.952C107.651 256.089 97.8291 264.947 100.275 264.947C102.721 264.947 111.53 264.342 109.084 266.171Z" fill="white"/>
<path d="M65.6086 323.038C65.6086 323.038 65.9175 332.304 66.5352 333.848C67.1529 335.392 69.6238 342.496 70.5504 344.04C71.4769 345.585 70.2415 346.511 68.6972 346.511C67.1529 346.511 63.4466 346.511 61.9023 344.967C60.358 343.423 57.8871 338.172 55.7251 335.701C53.5631 333.23 47.6948 330.142 49.5479 327.053C51.4011 323.964 60.0492 319.331 60.0492 319.331L65.6086 323.038Z" fill="#2B80C0"/>
<path d="M68.696 347.129C67.0405 347.129 63.1859 347.129 61.4563 345.399C60.3618 344.068 59.4018 342.632 58.5901 341.112C57.6127 339.351 56.4973 337.669 55.2544 336.084C54.5308 335.322 53.7503 334.615 52.9195 333.971C50.4486 331.933 47.3971 329.4 49.0155 326.707C50.9304 323.507 59.3932 318.949 59.7514 318.763C59.8463 318.705 59.9553 318.675 60.0665 318.675C60.1776 318.675 60.2866 318.705 60.3815 318.763L65.941 322.47C66.0238 322.524 66.0928 322.597 66.1421 322.683C66.1915 322.768 66.2199 322.865 66.2251 322.964C66.3487 326.67 66.6822 332.514 67.1023 333.564C67.2752 333.996 67.5841 334.799 67.9671 335.874C68.8734 338.523 69.9125 341.125 71.0804 343.67C71.3101 343.987 71.4478 344.361 71.4783 344.751C71.5088 345.141 71.431 345.532 71.2533 345.881C70.9753 346.296 70.5922 346.631 70.143 346.85C69.6938 347.069 69.1945 347.165 68.696 347.129ZM60.0479 320.048C58.4789 320.925 51.6593 324.792 50.1644 327.374C49.1637 329.017 51.0416 330.759 53.7966 333.045C54.6766 333.73 55.5027 334.482 56.2675 335.293C57.5697 336.93 58.7311 338.674 59.7391 340.507C60.5128 341.925 61.4099 343.273 62.42 344.534C63.779 345.893 67.3617 345.893 68.7825 345.893C69.0568 345.921 69.3337 345.884 69.5912 345.785C69.8486 345.686 70.0794 345.529 70.265 345.325C70.3183 345.163 70.3316 344.991 70.3036 344.823C70.2756 344.656 70.2072 344.497 70.1044 344.361C68.891 341.752 67.8188 339.08 66.8923 336.356C66.5216 335.33 66.2128 334.503 66.0398 334.083C65.4468 332.588 65.1503 325.2 65.0885 323.371L60.0479 320.048Z" fill="#263238"/>
<path d="M56.7011 333.07C54.6713 330.601 52.7783 328.023 51.0305 325.348C50.4618 325.847 49.9631 326.42 49.5479 327.053C47.6948 330.142 53.5631 333.23 55.7251 335.701C57.8871 338.172 60.358 343.422 61.9023 344.967C63.4466 346.511 67.1529 346.511 68.6972 346.511C70.2415 346.511 71.4769 345.584 70.5504 344.04C61.7911 343.719 60.3457 337.406 56.7011 333.07Z" fill="#263238"/>
<path d="M92.4766 188.066C92.4766 188.066 92.279 188.635 91.9825 189.611C90.537 194.194 86.5713 207.685 87.8438 212.775C89.388 218.952 102.595 232.394 109.773 239.584C116.506 246.317 137.879 256.324 137.879 256.324C137.879 256.324 128.613 281.033 126.451 286.901C124.289 292.77 116.568 313.463 116.568 313.463L122.745 317.169C122.745 317.169 148.38 281.651 153.631 274.547C158.881 267.443 165.083 257.065 163.205 253.853C146.391 225.228 126.451 209.686 126.451 209.686L128.613 201.347L92.4766 188.066Z" fill="#333333"/>
<path d="M122.744 317.787C122.631 317.79 122.52 317.76 122.423 317.701L116.246 313.994C116.121 313.922 116.027 313.807 115.98 313.671C115.932 313.536 115.934 313.387 115.986 313.253C115.986 313.253 123.708 292.56 125.87 286.691C127.834 281.366 135.753 260.278 137.1 256.645C133.715 255.039 115.566 246.243 109.34 240.016C99.8268 230.504 88.7202 218.829 87.2377 212.923C86.0023 207.771 89.7086 194.775 91.3888 189.45L91.8829 187.893C91.9407 187.737 92.0555 187.609 92.2042 187.535C92.28 187.501 92.3621 187.484 92.4451 187.484C92.5281 187.484 92.6101 187.501 92.686 187.535L128.823 200.816C128.967 200.869 129.087 200.975 129.158 201.112C129.229 201.249 129.246 201.408 129.205 201.557L127.142 209.501C141.711 222.058 154.079 236.96 163.736 253.594C166.343 258.029 156.187 272.125 154.124 274.967C148.935 281.984 123.498 317.231 123.238 317.577C123.178 317.649 123.102 317.705 123.016 317.741C122.93 317.778 122.837 317.793 122.744 317.787ZM117.321 313.204L122.571 316.354C125.598 312.154 148.268 280.761 153.136 274.176C159.029 266.208 164.255 256.769 162.673 254.162C146.106 225.969 126.216 210.329 126.067 210.156C125.97 210.083 125.897 209.983 125.858 209.869C125.818 209.754 125.814 209.63 125.845 209.513L127.871 201.718L92.8589 188.869C92.7848 189.116 92.686 189.425 92.5624 189.796C91.327 193.898 87.1883 207.636 88.4361 212.627C90.0174 218.952 104.694 233.629 110.204 239.139C116.789 245.724 137.928 255.669 138.138 255.768C138.28 255.833 138.392 255.95 138.451 256.094C138.511 256.239 138.514 256.4 138.459 256.547C138.36 256.794 129.168 281.317 127.031 287.111C125.054 292.448 118.494 310.053 117.321 313.204Z" fill="#263238"/>
<path opacity="0.2" d="M126.452 209.686L126.81 208.266L119.781 205.054C119.781 205.054 113.665 202.916 111.219 203.213C108.773 203.509 107.513 210.551 111.528 214.529C115.543 218.507 145.144 231.949 143.316 232.246C141.487 232.542 121.313 231.01 124.673 232.863C128.033 234.716 151.568 236.829 150.345 238.67C149.122 240.511 146.639 241.425 150.036 242.944C153.434 244.464 161.452 252.828 163.515 255.706C163.595 255.072 163.488 254.428 163.206 253.853C146.392 225.228 126.452 209.686 126.452 209.686Z" fill="white"/>
<path d="M122.586 207.117C122.486 207.117 122.388 207.092 122.302 207.043C118.138 204.819 112.418 202.101 111.306 201.545C109.406 201.93 107.529 202.425 105.685 203.027C105.533 203.085 105.364 203.081 105.214 203.016C105.064 202.952 104.945 202.832 104.882 202.681C104.825 202.529 104.829 202.36 104.893 202.21C104.958 202.06 105.078 201.942 105.228 201.878C107.203 201.237 109.211 200.705 111.245 200.285C111.373 200.241 111.512 200.241 111.64 200.285C111.714 200.285 118.25 203.435 122.883 205.906C123.004 205.971 123.1 206.075 123.155 206.202C123.21 206.328 123.222 206.469 123.188 206.602C123.154 206.736 123.076 206.854 122.967 206.938C122.858 207.023 122.724 207.068 122.586 207.067V207.117Z" fill="white"/>
<path d="M100.471 201.199C100.307 201.224 100.14 201.182 100.007 201.084C99.874 200.985 99.7854 200.838 99.7608 200.674C99.7362 200.51 99.7778 200.343 99.8762 200.21C99.9747 200.077 100.122 199.988 100.286 199.964C104.101 198.897 108.069 198.48 112.023 198.728C112.186 198.728 112.343 198.793 112.459 198.909C112.575 199.025 112.64 199.182 112.64 199.346C112.64 199.51 112.575 199.667 112.459 199.783C112.343 199.898 112.186 199.964 112.023 199.964C108.212 199.749 104.392 200.166 100.718 201.199C100.637 201.219 100.552 201.219 100.471 201.199Z" fill="white"/>
<path d="M122.747 317.169L127.071 326.744C127.071 326.744 135.719 331.068 135.719 332.304C135.719 333.539 133.866 333.848 133.866 333.848H121.512C119.967 333.848 115.952 329.833 112.246 327.671C108.539 325.509 106.995 324.582 107.304 321.802C107.613 319.023 116.57 313.463 116.57 313.463L122.747 317.169Z" fill="#2B80C0"/>
<path d="M121.511 334.466C120.473 334.466 119.04 333.403 116.631 331.538C115.139 330.327 113.57 329.212 111.936 328.202C108.23 326.027 106.327 324.94 106.685 321.728C107.019 318.738 115.333 313.525 116.235 312.944C116.332 312.884 116.443 312.852 116.557 312.852C116.67 312.852 116.781 312.884 116.878 312.944L123.055 316.651C123.165 316.712 123.251 316.807 123.302 316.922L127.54 326.299C133.371 329.227 136.336 331.241 136.336 332.316C136.336 333.7 134.841 334.317 133.964 334.466H121.511ZM116.569 314.192C113.196 316.317 108.106 320.122 107.921 321.876C107.674 324.174 108.761 324.916 112.566 327.139C114.248 328.181 115.865 329.324 117.409 330.562C119.027 331.797 120.856 333.23 121.523 333.23H133.877C133.877 333.23 135.113 332.958 135.113 332.304C134.804 331.649 130.554 329.166 126.798 327.3C126.674 327.234 126.575 327.13 126.514 327.003L122.264 317.639L116.569 314.192Z" fill="#263238"/>
<path d="M116.113 324.681C113.808 322.625 111.091 321.084 108.144 320.159C107.725 320.624 107.436 321.191 107.304 321.802C106.995 324.582 108.539 325.509 112.246 327.671C115.952 329.833 119.967 333.848 121.512 333.848H133.866C133.866 333.848 135.719 333.539 135.719 332.304C135.719 332.304 135.719 332.229 135.719 332.192C132.095 331.995 128.488 331.557 124.921 330.883C117.571 329.413 120.128 328.325 116.113 324.681Z" fill="#263238"/>
<path d="M131.468 119.104C125.64 120.18 120.225 122.853 115.828 126.826C109.28 133.163 104.931 142.083 104.536 146.247C104.14 150.41 98.5191 170.437 96.4065 174.575C94.2939 178.714 89.451 185.781 92.6384 189.821C94.2445 191.847 126.316 202.496 129.491 202.496C132.667 202.496 133.655 199.531 134.05 197.752C134.446 195.973 138.399 179.715 141.574 173.772C144.749 167.83 151.878 163.889 152.693 150.002C153.201 141.808 151.197 133.654 146.948 126.628C146.948 126.628 137.608 118.907 131.468 119.104Z" fill="#2B80C0"/>
<path d="M129.49 203.114C126.377 203.114 93.9961 192.539 92.1553 190.204C89.1779 186.423 92.4394 180.53 94.8115 176.218C95.2068 175.514 95.5651 174.872 95.8616 174.291C97.9371 170.227 103.534 150.188 103.917 146.185C104.349 141.564 109.068 132.509 115.394 126.418C119.879 122.342 125.418 119.607 131.38 118.524H131.455C137.768 118.301 146.935 125.874 147.318 126.196C147.361 126.231 147.398 126.272 147.429 126.319C151.778 133.447 153.823 141.744 153.285 150.077C152.704 160.257 148.664 165.322 145.427 169.399C144.188 170.868 143.08 172.443 142.116 174.106C139.077 179.814 135.235 195.306 134.704 197.913C133.876 201.36 132.134 203.114 129.49 203.114ZM131.529 119.722C130.911 119.821 122.362 121.34 116.246 127.27C109.575 133.744 105.51 142.491 105.127 146.296C104.732 150.497 99.1355 170.585 96.9488 174.847C96.6399 175.44 96.2816 176.083 95.8863 176.811C93.6748 180.814 90.648 186.312 93.1189 189.438C94.4902 191.068 126.093 201.878 129.478 201.878C131.504 201.878 132.789 200.482 133.431 197.616C134.012 194.972 137.903 179.307 141.017 173.488C142.008 171.739 143.158 170.085 144.451 168.546C147.75 164.408 151.481 159.701 152.037 149.916C152.507 141.89 150.562 133.908 146.453 126.999C145.613 126.356 137.1 119.512 131.529 119.722Z" fill="#263238"/>
<path d="M135.003 154.302C131.457 154.321 127.92 153.927 124.465 153.128C124.308 153.085 124.175 152.981 124.094 152.84C124.013 152.699 123.991 152.532 124.032 152.375C124.051 152.296 124.085 152.222 124.133 152.158C124.18 152.093 124.241 152.038 124.31 151.996C124.379 151.955 124.455 151.928 124.535 151.916C124.615 151.905 124.696 151.909 124.774 151.93C130.945 153.304 137.333 153.393 143.54 152.189C143.619 152.173 143.701 152.173 143.781 152.188C143.861 152.203 143.936 152.234 144.004 152.279C144.072 152.324 144.13 152.381 144.175 152.449C144.221 152.516 144.253 152.592 144.269 152.671C144.287 152.75 144.289 152.831 144.275 152.911C144.261 152.991 144.232 153.067 144.188 153.134C144.144 153.202 144.087 153.261 144.02 153.306C143.954 153.352 143.879 153.384 143.799 153.4C140.907 154.01 137.959 154.312 135.003 154.302Z" fill="#263238"/>
<path d="M137.844 159.762C131.442 158.987 125.25 156.982 119.609 153.857C119.531 153.821 119.46 153.77 119.403 153.705C119.345 153.641 119.302 153.565 119.276 153.482C119.249 153.4 119.24 153.313 119.25 153.227C119.259 153.141 119.286 153.058 119.33 152.984C119.373 152.909 119.432 152.844 119.502 152.794C119.572 152.743 119.652 152.707 119.736 152.69C119.821 152.672 119.908 152.672 119.993 152.69C120.077 152.708 120.157 152.744 120.227 152.795C120.314 152.795 128.949 157.736 137.956 158.527C138.119 158.535 138.273 158.608 138.383 158.73C138.493 158.851 138.551 159.012 138.542 159.176C138.534 159.339 138.461 159.493 138.34 159.603C138.218 159.713 138.058 159.771 137.894 159.762H137.844Z" fill="#263238"/>
<path d="M134.026 172.623C133.92 172.622 133.816 172.594 133.723 172.542C133.631 172.49 133.552 172.416 133.495 172.327C133.452 172.257 133.424 172.18 133.412 172.099C133.399 172.018 133.403 171.936 133.422 171.857C133.442 171.777 133.477 171.703 133.525 171.637C133.574 171.572 133.635 171.516 133.705 171.474C135.389 170.459 137.014 169.349 138.573 168.151C138.704 168.051 138.87 168.006 139.034 168.027C139.198 168.048 139.348 168.132 139.45 168.262C139.546 168.393 139.589 168.556 139.568 168.717C139.547 168.878 139.465 169.025 139.339 169.127C137.755 170.341 136.105 171.467 134.397 172.5C134.29 172.58 134.16 172.623 134.026 172.623Z" fill="#263238"/>
<path d="M102.62 186.065C102.456 186.089 102.289 186.048 102.156 185.949C102.022 185.851 101.934 185.704 101.909 185.54C101.885 185.376 101.926 185.209 102.025 185.076C102.123 184.943 102.27 184.854 102.434 184.829C111.62 181.972 120.553 178.36 129.144 174.032C129.29 173.955 129.461 173.939 129.618 173.987C129.776 174.036 129.908 174.145 129.985 174.291C130.062 174.437 130.077 174.607 130.029 174.765C129.98 174.922 129.871 175.054 129.725 175.131C121.074 179.507 112.068 183.143 102.805 186.003C102.748 186.036 102.685 186.057 102.62 186.065Z" fill="#263238"/>
<path d="M96.8512 187.794C96.717 187.797 96.586 187.754 96.4786 187.673C96.3713 187.593 96.2937 187.479 96.2582 187.35C96.2357 187.271 96.229 187.189 96.2387 187.107C96.2483 187.026 96.2739 186.948 96.3142 186.876C96.3544 186.805 96.4084 186.742 96.473 186.692C96.5376 186.642 96.6116 186.605 96.6906 186.584C96.6906 186.584 97.3824 186.398 98.5931 186.04C98.6743 186.017 98.7592 186.009 98.8432 186.019C98.9271 186.028 99.0084 186.054 99.0824 186.094C99.1564 186.135 99.2216 186.19 99.2744 186.256C99.3272 186.322 99.3665 186.398 99.39 186.479C99.4135 186.56 99.4208 186.645 99.4115 186.729C99.4022 186.813 99.3765 186.894 99.3357 186.968C99.295 187.042 99.2401 187.107 99.1742 187.16C99.1082 187.213 99.0325 187.252 98.9514 187.276L97.0118 187.844L96.8512 187.794Z" fill="#263238"/>
<path d="M102.411 190.71C102.247 190.74 102.078 190.703 101.941 190.608C101.805 190.513 101.711 190.367 101.682 190.204C101.652 190.04 101.689 189.871 101.784 189.734C101.879 189.598 102.025 189.504 102.188 189.475C108.481 187.09 114.638 184.364 120.633 181.308C120.705 181.27 120.783 181.246 120.863 181.239C120.944 181.231 121.025 181.239 121.102 181.263C121.179 181.288 121.251 181.327 121.312 181.379C121.374 181.432 121.425 181.496 121.461 181.568C121.5 181.638 121.524 181.716 121.533 181.796C121.542 181.876 121.534 181.957 121.511 182.034C121.488 182.111 121.45 182.182 121.399 182.245C121.348 182.307 121.285 182.358 121.214 182.396C115.187 185.469 109.001 188.219 102.683 190.636C102.599 190.681 102.506 190.706 102.411 190.71Z" fill="#263238"/>
<path d="M145.144 130.878C145.144 130.878 148.677 140.625 151.321 141.503C153.965 142.38 165.936 138.402 167.258 132.657C168.58 126.912 149.962 117.597 145.132 115.361C140.301 113.125 124.772 112.26 115.914 110.938C107.056 109.616 99.087 104.761 93.787 103.414C88.4869 102.068 73.8594 104.304 73.8594 104.304L84.0394 110.938C84.0394 110.938 100.421 114.916 106.623 114.916C112.825 114.916 118.125 112.26 126.538 114.916C134.952 117.572 145.576 120.228 152.211 123.329C158.845 126.43 164.157 128.197 164.157 132.187C164.157 136.178 157.103 139.736 155.769 139.736C154.435 139.736 151.334 129.111 147.8 128.222C147.8 128.222 143.365 126.01 145.144 130.878Z" fill="#F5821F"/>
<path d="M152.31 142.207C151.918 142.216 151.526 142.166 151.149 142.059C148.283 141.107 144.972 132.076 144.564 131.051C143.922 129.297 143.959 128.135 144.675 127.493C145.688 126.591 147.529 127.369 148.011 127.604C150.408 128.271 152.397 132.397 154.003 135.708C154.496 136.893 155.118 138.019 155.856 139.069C157.091 138.921 163.553 135.597 163.553 132.175C163.553 129.136 159.846 127.431 154.596 125.084C153.756 124.701 152.866 124.305 151.964 123.848C146.128 121.424 140.135 119.397 134.026 117.782C131.394 117.004 128.787 116.238 126.366 115.472C120.831 113.73 116.655 114.335 112.628 114.928C110.648 115.266 108.645 115.456 106.636 115.497C100.459 115.497 84.5835 111.667 83.9041 111.506L83.7187 111.42L73.5387 104.773C73.4352 104.704 73.355 104.605 73.3085 104.49C73.262 104.375 73.2514 104.248 73.2781 104.127C73.3048 104.005 73.3675 103.894 73.4581 103.809C73.5487 103.724 73.6629 103.668 73.7858 103.649C74.3788 103.562 88.6111 101.437 93.9482 102.772C96.4189 103.5 98.8342 104.404 101.175 105.477C105.893 107.702 110.875 109.317 116.001 110.283C118.817 110.716 122.264 111.086 125.884 111.519C133.779 112.371 141.945 113.248 145.342 114.805C147.813 115.917 169.396 125.924 167.827 132.768C167.16 135.659 164.207 137.846 161.848 139.18C158.926 140.869 155.671 141.901 152.31 142.207ZM145.725 130.631C147.047 134.337 149.802 140.304 151.532 140.885C153.061 141.032 154.602 140.829 156.041 140.292H155.769C154.892 140.292 154.287 139.118 152.891 136.227C151.495 133.336 149.506 129.222 147.653 128.815H147.517C146.899 128.506 145.812 128.209 145.491 128.494C145.416 128.494 145.095 128.963 145.725 130.705V130.631ZM119.04 113.112C121.654 113.117 124.252 113.534 126.737 114.348C129.208 115.101 131.74 115.867 134.372 116.646C140.932 118.561 147.714 120.55 152.483 122.823L155.102 124.058C160.514 126.529 164.788 128.432 164.788 132.274C164.788 135.573 160.637 138.525 157.857 139.773C159.041 139.329 160.189 138.797 161.292 138.179C164.319 136.487 166.234 134.473 166.666 132.57C167.679 128.185 153.842 120.08 144.885 116.016C141.661 114.545 133.235 113.631 125.798 112.828C122.091 112.433 118.669 112.062 115.84 111.593C110.602 110.595 105.512 108.935 100.694 106.651C98.4084 105.602 96.0509 104.719 93.6393 104.007C89.55 102.982 79.5306 104.155 75.5896 104.687L84.2376 110.357C85.6337 110.703 100.768 114.298 106.574 114.298C108.525 114.253 110.47 114.068 112.393 113.742C114.591 113.377 116.813 113.179 119.04 113.149V113.112Z" fill="#263238"/>
<path d="M156.041 82.4488C156.041 82.4488 160.982 88.1936 160.982 89.1943C160.982 90.195 161.18 91.5663 161.18 92.1593C161.18 92.7523 168.123 95.8656 168.123 97.1011C168.123 98.3365 163.564 101.067 163.564 101.067V112.186C163.564 114.36 162.329 114.953 160.192 115.744C158.054 116.534 152.866 115.546 152.866 115.546L146.923 126.665L133.654 116.782L137.361 108.665L136.125 106.293C136.125 106.293 129.59 102.586 130.974 96.4092C132.357 90.232 137.509 89.4784 139.103 87.094C140.696 84.7096 143.254 79.3725 145.638 78.5819C148.023 77.7912 156.041 82.4488 156.041 82.4488Z" fill="white"/>
<path d="M146.925 127.246C146.791 127.249 146.66 127.205 146.554 127.122L133.286 117.239C133.171 117.155 133.089 117.034 133.053 116.897C133.017 116.76 133.029 116.614 133.088 116.485L136.732 108.64L135.756 106.688C134.706 106.021 129.135 102.142 130.469 96.2115C131.457 91.8875 134.175 90.0343 136.337 88.6383C137.234 88.1388 138.03 87.4769 138.684 86.6863C139.055 86.1427 139.475 85.4509 139.92 84.6478C141.514 81.9546 143.49 78.6065 145.529 77.9271C148 77.0993 154.98 81.1268 156.339 81.9546C156.399 81.9814 156.45 82.0242 156.487 82.0781C158.402 84.2896 161.589 88.1565 161.589 89.219C161.589 89.7378 161.651 90.4544 161.713 90.998C161.713 91.381 161.713 91.7269 161.787 91.9863C162.523 92.4973 163.286 92.9675 164.073 93.3947C167.235 95.2232 168.73 96.1868 168.73 97.101C168.73 98.3365 166 100.276 164.172 101.413V112.161C164.172 114.731 162.677 115.472 160.391 116.3C158.451 117.004 154.523 116.436 153.188 116.213L147.456 126.912C147.415 126.99 147.357 127.058 147.286 127.112C147.216 127.165 147.135 127.202 147.048 127.221L146.925 127.246ZM134.422 116.534L146.777 125.701L152.385 115.25C152.445 115.132 152.541 115.037 152.659 114.979C152.777 114.921 152.911 114.903 153.04 114.928C154.436 115.2 158.39 115.756 160.045 115.151C162.195 114.372 163.01 113.915 163.01 112.173V101.054C163.01 100.948 163.037 100.843 163.089 100.75C163.14 100.657 163.216 100.579 163.307 100.523C165.481 99.2013 167.482 97.5829 167.569 97.0763C166.321 96.0455 164.967 95.1509 163.529 94.4078C161.182 93.0612 160.626 92.7152 160.626 92.1346C160.626 91.8875 160.626 91.5045 160.552 91.0597C160.478 90.615 160.428 89.7502 160.428 89.1695C159.062 86.9302 157.477 84.832 155.696 82.9059C152.707 81.1268 147.518 78.5448 145.998 79.0513C144.479 79.5578 142.465 82.8441 141.056 85.2285C140.587 86.0315 140.155 86.7604 139.821 87.3287C139.085 88.2585 138.175 89.035 137.14 89.6143C135.04 91.0103 132.656 92.5917 131.791 96.4339C130.555 102.067 136.584 105.626 136.646 105.663C136.752 105.723 136.838 105.813 136.893 105.922L138.128 108.306C138.168 108.389 138.189 108.48 138.189 108.572C138.189 108.664 138.168 108.755 138.128 108.838L134.422 116.534Z" fill="#263238"/>
<path d="M155.436 112.816C148.666 110.567 149.259 106.379 148.987 100.251C148.715 94.1236 143.514 84.7837 143.514 84.7837L140.673 84.5861C140.129 85.5126 139.622 86.3651 139.202 87.0569C137.609 89.4413 132.457 90.232 131.073 96.3721C129.69 102.512 136.225 106.256 136.225 106.256L137.46 108.628L133.754 116.744L147.023 126.628L152.965 115.509C152.965 115.509 158.117 116.497 160.291 115.707C161.071 115.46 161.815 115.111 162.503 114.669C160.107 114.215 157.746 113.595 155.436 112.816Z" fill="#2B80C0"/>
<path opacity="0.5" d="M155.436 112.816C148.666 110.567 149.259 106.379 148.987 100.251C148.715 94.1236 143.514 84.7837 143.514 84.7837L140.673 84.5861C140.129 85.5126 139.622 86.3651 139.202 87.0569C137.609 89.4413 132.457 90.232 131.073 96.3721C129.69 102.512 136.225 106.256 136.225 106.256L137.46 108.628L133.754 116.744L147.023 126.628L152.965 115.509C152.965 115.509 158.117 116.497 160.291 115.707C161.071 115.46 161.815 115.111 162.503 114.669C160.107 114.215 157.746 113.595 155.436 112.816Z" fill="white"/>
<path d="M153.657 91.5539C153.553 91.5509 153.452 91.5224 153.362 91.4708C153.272 91.4191 153.196 91.3461 153.141 91.2581C153.086 91.17 153.053 91.0698 153.046 90.9662C153.039 90.8627 153.058 90.759 153.101 90.6644C153.596 89.8496 154.272 89.1604 155.078 88.6506C156.77 87.4152 159.402 88.9472 159.513 89.0089C159.654 89.0938 159.756 89.2305 159.798 89.3898C159.839 89.5491 159.817 89.7184 159.735 89.8614C159.696 89.932 159.642 89.994 159.578 90.0437C159.514 90.0933 159.441 90.1296 159.362 90.1503C159.284 90.171 159.202 90.1758 159.122 90.1644C159.042 90.153 158.965 90.1255 158.895 90.0838C158.327 89.7502 156.671 89.0336 155.807 89.6513C155.169 90.0544 154.626 90.5895 154.213 91.2204C154.159 91.3211 154.079 91.4054 153.981 91.4641C153.883 91.5229 153.771 91.5539 153.657 91.5539Z" fill="#263238"/>
<path d="M159.206 94.7537H155.87C155.729 94.7567 155.591 94.7101 155.48 94.6221C155.37 94.5341 155.294 94.4102 155.265 94.2719C155.233 94.1328 155.252 93.9872 155.318 93.8607C155.383 93.7341 155.491 93.6347 155.623 93.58L158.786 92.184C158.86 92.1515 158.941 92.1341 159.022 92.1327C159.103 92.1313 159.184 92.1459 159.26 92.1757C159.336 92.2056 159.405 92.25 159.463 92.3065C159.522 92.3631 159.569 92.4306 159.601 92.5052C159.634 92.5798 159.651 92.6601 159.652 92.7415C159.654 92.8229 159.639 92.9037 159.609 92.9794C159.58 93.0552 159.535 93.1242 159.479 93.1828C159.422 93.2413 159.355 93.2881 159.28 93.3206L158.823 93.5183H159.231C159.394 93.5183 159.551 93.5834 159.667 93.6992C159.783 93.815 159.848 93.9722 159.848 94.136C159.848 94.2192 159.832 94.3016 159.799 94.3782C159.766 94.4548 159.719 94.5241 159.659 94.5818C159.599 94.6395 159.528 94.6844 159.45 94.714C159.372 94.7435 159.289 94.757 159.206 94.7537Z" fill="#263238"/>
<path d="M141.773 97.1134C141.857 97.4812 142.055 97.813 142.339 98.0614C142.623 98.3099 142.979 98.4624 143.354 98.4971C143.68 98.5402 144.011 98.5179 144.328 98.4315C144.645 98.3451 144.942 98.1963 145.201 97.9938C145.46 97.7913 145.676 97.5392 145.836 97.2523C145.996 96.9653 146.097 96.6493 146.134 96.3227C146.134 95.0873 144.553 92.5546 145.739 91.764C146.925 90.9733 149.099 90.7756 148.704 88.5889C148.308 86.4022 146.134 87.0075 146.529 84.6355C146.925 82.2634 154.251 82.2511 156.042 82.4488C157.834 82.6464 157.821 78.8907 155.844 74.5296C153.868 70.1685 146.134 68.5872 144.553 70.3662C144.098 70.7982 143.824 71.3871 143.787 72.0135C143.751 72.6399 143.953 73.2567 144.355 73.7389C144.355 73.7389 135.633 72.1576 134.644 73.7389C133.656 75.3203 134.644 76.111 134.644 76.111C134.644 76.111 127.714 74.7273 122.957 83.4495C118.201 92.1717 124.341 101.437 127.714 103.908C131.086 106.379 136.226 108.665 140.192 107.281C144.157 105.897 138.202 101.104 137.807 98.7565C137.412 96.4092 141.773 97.1134 141.773 97.1134Z" fill="#263238"/>
<path d="M137.621 108.245C133.272 108.245 128.812 105.391 127.354 104.353C123.845 101.882 117.471 92.2581 122.412 83.153C126.119 76.2716 131.345 75.4315 133.618 75.4315C133.528 74.7183 133.704 73.9972 134.112 73.4054C135.076 71.8858 140.166 72.4294 143.267 72.9235C143.139 72.4008 143.147 71.8541 143.29 71.3352C143.432 70.8164 143.705 70.3425 144.082 69.9585C144.811 69.1431 146.405 68.8466 148.443 69.1555C151.445 69.6002 155.077 71.3669 156.399 74.2702C158.005 77.8035 158.425 81.0651 157.449 82.4117C157.285 82.6454 157.06 82.8299 156.799 82.9453C156.538 83.0607 156.25 83.1026 155.967 83.0665C153.496 82.7947 147.405 83.1406 147.133 84.7343C146.985 85.6609 147.269 85.8709 147.838 86.3033C148.22 86.5472 148.548 86.8673 148.801 87.2435C149.054 87.6197 149.226 88.0441 149.308 88.49C149.703 90.6026 148.072 91.3192 147.01 91.801C146.687 91.9336 146.377 92.0948 146.083 92.2828C145.688 92.5423 146.083 93.753 146.343 94.556C146.562 95.1225 146.699 95.7174 146.75 96.3227C146.736 96.7113 146.637 97.0922 146.463 97.4396C146.288 97.787 146.041 98.0928 145.737 98.3365C145.406 98.6367 145.014 98.8617 144.587 98.996C144.161 99.1304 143.71 99.1709 143.267 99.1148C142.842 99.0644 142.438 98.9047 142.094 98.6513C141.749 98.398 141.477 98.0596 141.302 97.6693C140.371 97.465 139.399 97.5871 138.547 98.0153C138.476 98.092 138.427 98.1864 138.406 98.2886C138.384 98.3908 138.39 98.497 138.424 98.5959C138.794 99.6009 139.338 100.533 140.03 101.351C141.265 103.068 142.501 104.847 142.068 106.293C141.928 106.659 141.702 106.987 141.41 107.249C141.118 107.511 140.768 107.7 140.388 107.8C139.497 108.102 138.561 108.252 137.621 108.245ZM133.507 76.6422C131.493 76.6422 126.946 77.4082 123.5 83.746C118.904 92.1593 124.821 101.042 128.058 103.34C131.295 105.638 136.41 107.886 139.98 106.639C140.746 106.367 140.857 106.033 140.882 105.922C141.166 105.057 139.98 103.451 139.017 102.067C138.2 101.107 137.583 99.9945 137.201 98.7936C137.136 98.4974 137.147 98.19 137.231 97.8988C137.315 97.6077 137.47 97.342 137.682 97.1257C138.844 95.9891 141.574 96.4462 141.883 96.508C142.006 96.5292 142.12 96.5881 142.208 96.6766C142.297 96.7651 142.356 96.8789 142.377 97.0022C142.445 97.2397 142.582 97.4514 142.772 97.6099C142.961 97.7685 143.194 97.8667 143.44 97.8917C143.708 97.9171 143.98 97.8874 144.237 97.8046C144.494 97.7218 144.731 97.5875 144.934 97.4099C145.1 97.2773 145.236 97.1126 145.336 96.9257C145.436 96.7389 145.497 96.5337 145.515 96.3227C145.45 95.8503 145.334 95.3863 145.169 94.939C144.749 93.6418 144.218 92.0357 145.392 91.2327C145.746 91.014 146.118 90.824 146.503 90.6644C147.739 90.1332 148.295 89.7996 148.097 88.6877C148.042 88.3946 147.924 88.1169 147.751 87.8737C147.579 87.6306 147.355 87.4278 147.096 87.2793C146.615 87.0213 146.232 86.6109 146.009 86.1125C145.785 85.614 145.733 85.0555 145.861 84.5243C146.429 81.1021 155.942 81.8187 156.041 81.831C156.107 81.8424 156.174 81.8344 156.236 81.8081C156.297 81.7818 156.35 81.7383 156.387 81.6828C156.893 80.9786 156.856 78.3842 155.213 74.7767C154.089 72.3058 150.79 70.7492 148.196 70.3538C146.442 70.0944 145.293 70.3538 144.947 70.7739C144.597 71.0935 144.381 71.5345 144.344 72.0073C144.308 72.48 144.452 72.949 144.749 73.3189C144.833 73.4164 144.885 73.5374 144.899 73.6655C144.912 73.7936 144.886 73.9227 144.823 74.0354C144.759 74.1447 144.664 74.2317 144.549 74.2848C144.434 74.3378 144.305 74.3543 144.181 74.3319C139.746 73.5289 135.533 73.393 135.1 74.0478C134.408 75.1597 134.964 75.6168 134.964 75.6168C135.072 75.7033 135.147 75.8233 135.179 75.9576C135.21 76.092 135.195 76.2329 135.137 76.3581C135.079 76.4834 134.981 76.5856 134.857 76.6484C134.734 76.7111 134.594 76.7307 134.458 76.704C134.143 76.6576 133.825 76.637 133.507 76.6422Z" fill="#263238"/>
<path d="M143.749 99.4854C143.749 99.4854 142.514 95.1367 139.4 94.7414C136.287 94.346 134.459 97.9041 136.225 101.277C137.992 104.65 141.773 107.022 142.959 106.626C144.145 106.231 144.75 104.044 144.75 104.044" fill="white"/>
<path d="M142.686 107.281C140.846 107.281 137.374 104.81 135.681 101.561C135.151 100.688 134.871 99.6855 134.871 98.6639C134.871 97.6423 135.151 96.6402 135.681 95.7668C136.084 95.1736 136.644 94.7051 137.299 94.4146C137.954 94.1241 138.678 94.0233 139.388 94.1237C142.921 94.5684 144.206 99.1395 144.329 99.3248C144.374 99.4887 144.351 99.6634 144.266 99.8105C144.182 99.9576 144.042 100.065 143.879 100.109C143.715 100.154 143.54 100.131 143.393 100.046C143.246 99.9618 143.138 99.8222 143.094 99.6584C143.094 99.6584 141.97 95.6927 139.252 95.3467C138.761 95.265 138.256 95.3278 137.8 95.5273C137.344 95.7269 136.955 96.0548 136.682 96.471C136.278 97.1535 136.064 97.9323 136.064 98.7257C136.064 99.519 136.278 100.298 136.682 100.98C138.424 104.254 141.908 106.28 142.674 106.033C143.44 105.786 143.909 104.489 144.058 103.884C144.1 103.72 144.206 103.58 144.352 103.494C144.498 103.408 144.672 103.384 144.836 103.426C145 103.469 145.14 103.575 145.226 103.721C145.311 103.867 145.336 104.041 145.293 104.205C145.219 104.464 144.564 106.676 143.106 107.207C142.971 107.253 142.829 107.278 142.686 107.281Z" fill="#263238"/>
<path d="M132.666 113.557L150.691 125.442L149.69 134.152L130.084 118.314L132.666 113.557Z" fill="#2B80C0"/>
<path d="M149.694 134.794C149.553 134.799 149.416 134.75 149.311 134.658L129.704 118.82C129.592 118.728 129.515 118.601 129.486 118.459C129.456 118.318 129.477 118.17 129.544 118.042L132.126 113.285C132.165 113.209 132.22 113.143 132.287 113.09C132.354 113.036 132.431 112.998 132.514 112.977C132.597 112.956 132.684 112.953 132.768 112.968C132.852 112.982 132.932 113.015 133.003 113.063L151.028 124.911C151.123 124.975 151.199 125.065 151.246 125.169C151.294 125.274 151.313 125.389 151.3 125.504L150.311 134.152C150.298 134.263 150.256 134.368 150.188 134.457C150.121 134.546 150.031 134.615 149.928 134.658C149.859 134.718 149.78 134.764 149.694 134.794ZM130.878 118.178L149.212 133.003L150.027 125.788L132.892 114.484L130.878 118.178Z" fill="#263238"/>
<path d="M126.217 126.22L118.014 130.31C116.26 131.199 80.2222 141.428 78.7643 143.492C77.3065 145.555 64.7051 190.661 64.7051 190.661L72.9084 193.008L90.3898 160.491C90.3898 160.491 134.334 151.114 136.966 150.237C139.597 149.36 142.822 145.543 143.415 142.034" fill="#2B80C0"/>
<path d="M72.8736 193.626H72.7006L64.4479 191.254C64.3691 191.232 64.2954 191.195 64.2313 191.145C64.1671 191.095 64.1138 191.032 64.0746 190.96C64.0353 190.889 64.011 190.81 64.0029 190.729C63.9949 190.648 64.0034 190.566 64.0278 190.488C65.2633 185.867 76.6911 145.221 78.1736 143.133C79.1249 141.811 88.959 138.612 107.985 132.817C112.926 131.31 117.139 130.013 117.658 129.766L125.861 125.664C125.933 125.626 126.012 125.603 126.093 125.596C126.174 125.59 126.256 125.599 126.333 125.624C126.41 125.65 126.482 125.69 126.543 125.744C126.604 125.798 126.654 125.863 126.689 125.936C126.725 126.009 126.746 126.088 126.751 126.17C126.756 126.251 126.745 126.332 126.719 126.409C126.693 126.486 126.651 126.557 126.597 126.618C126.544 126.679 126.478 126.728 126.405 126.764L118.202 130.866C117.633 131.15 114.434 132.101 108.318 133.991C98.5336 136.981 80.3233 142.54 79.1496 143.875C77.9759 145.209 70.4027 172.166 65.3498 190.241L72.4906 192.279L89.7867 160.158C89.8293 160.078 89.8891 160.009 89.9618 159.956C90.0344 159.902 90.1181 159.866 90.2067 159.849C90.6391 159.75 134.139 150.472 136.709 149.607C139.031 148.841 142.182 145.295 142.75 141.898C142.76 141.817 142.787 141.74 142.829 141.67C142.87 141.6 142.926 141.539 142.992 141.492C143.058 141.444 143.133 141.411 143.213 141.393C143.292 141.376 143.374 141.376 143.454 141.391C143.534 141.403 143.611 141.431 143.68 141.473C143.749 141.515 143.809 141.571 143.856 141.637C143.903 141.702 143.937 141.777 143.955 141.856C143.973 141.934 143.975 142.016 143.961 142.096C143.368 145.641 140.106 149.78 137.104 150.744C134.547 151.596 94.8273 160.084 90.738 160.961L73.306 193.218C73.274 193.317 73.2176 193.406 73.142 193.477C73.0664 193.549 72.9741 193.6 72.8736 193.626Z" fill="#263238"/>
<g opacity="0.2">
<path d="M100.375 135.807C90.2935 138.921 79.5205 142.392 78.7298 143.492C77.6921 144.95 71.0578 168.052 67.2773 181.37C72.8492 178.504 81.7937 173.649 78.7298 173.414C74.5417 173.08 73.8993 170.832 79.3723 166.965C84.8453 163.098 95.4329 155.364 92.5914 154.722C89.7499 154.079 79.7058 152.782 85.8213 149.558C91.9367 146.333 125.788 149.558 131.903 146.654C138.018 143.751 124.169 142.466 116.114 141.503C108.059 140.539 123.527 140.539 123.527 140.539C123.527 140.539 129.012 140.218 127.715 134.362C126.418 128.506 120.809 130.656 117.98 130.26C117.226 130.643 110.098 132.731 102.129 135.202L100.375 135.807Z" fill="#2B80C0"/>
<path opacity="0.5" d="M100.375 135.807C90.2935 138.921 79.5205 142.392 78.7298 143.492C77.6921 144.95 71.0578 168.052 67.2773 181.37C72.8492 178.504 81.7937 173.649 78.7298 173.414C74.5417 173.08 73.8993 170.832 79.3723 166.965C84.8453 163.098 95.4329 155.364 92.5914 154.722C89.7499 154.079 79.7058 152.782 85.8213 149.558C91.9367 146.333 125.788 149.558 131.903 146.654C138.018 143.751 124.169 142.466 116.114 141.503C108.059 140.539 123.527 140.539 123.527 140.539C123.527 140.539 129.012 140.218 127.715 134.362C126.418 128.506 120.809 130.656 117.98 130.26C117.226 130.643 110.098 132.731 102.129 135.202L100.375 135.807Z" fill="black"/>
</g>
<path d="M72.8732 193.008C72.8732 193.008 74.924 202.966 74.924 203.843C74.924 204.72 71.9837 207.067 71.9837 207.067L70.2293 209.699C70.2293 209.699 67.0048 210.934 66.1277 209.699C65.4838 208.694 64.9925 207.599 64.6699 206.45C64.6699 206.45 60.8524 206.746 60.2717 204.115C59.6911 201.483 64.6699 190.636 64.6699 190.636L72.8732 193.008Z" fill="white"/>
<path d="M67.6089 210.835C67.2426 210.869 66.8736 210.817 66.5307 210.684C66.1878 210.551 65.8803 210.341 65.6322 210.069C65.0201 209.154 64.5417 208.155 64.2114 207.104C63.0501 207.104 60.221 206.783 59.665 204.263C59.0597 201.508 63.5814 191.526 64.1003 190.389C64.1641 190.257 64.2718 190.152 64.4048 190.091C64.5378 190.03 64.6878 190.018 64.8292 190.055L73.0325 192.39C73.1424 192.424 73.2414 192.487 73.3195 192.572C73.3976 192.656 73.452 192.76 73.4772 192.872C73.8108 194.54 75.5404 202.929 75.5404 203.83C75.5404 204.732 73.6378 206.511 72.4518 207.537L70.7469 210.094C70.67 210.202 70.5623 210.284 70.438 210.329C69.528 210.647 68.5729 210.818 67.6089 210.835ZM64.6686 205.894C64.8022 205.894 64.9323 205.937 65.0392 206.017C65.1461 206.097 65.2241 206.21 65.2616 206.338C65.5649 207.408 66.0227 208.428 66.6205 209.365C66.9912 209.859 68.659 209.612 69.8327 209.217L71.4758 206.746C71.5103 206.695 71.5519 206.649 71.5994 206.61C72.6525 205.849 73.5676 204.913 74.305 203.843C74.305 203.275 73.0695 197.357 72.3406 193.515L65.0021 191.427C63.1242 195.602 60.4928 202.323 60.8758 204.028C61.3329 206.116 64.5821 205.894 64.5821 205.881L64.6686 205.894Z" fill="#263238"/>
<path d="M75.2071 188.054H75.0341L65.9537 185.447C65.7982 185.398 65.6677 185.292 65.5893 185.149C65.511 185.006 65.4911 184.838 65.5336 184.681C65.5548 184.602 65.5918 184.529 65.6422 184.465C65.6926 184.4 65.7555 184.347 65.8271 184.308C65.8986 184.269 65.9773 184.244 66.0585 184.236C66.1397 184.228 66.2217 184.237 66.2996 184.261L75.38 186.893C75.5439 186.916 75.6919 187.003 75.7915 187.135C75.8911 187.267 75.9342 187.433 75.9113 187.597C75.8883 187.761 75.8013 187.909 75.6692 188.008C75.5371 188.108 75.3709 188.151 75.2071 188.128V188.054Z" fill="#263238"/>
</svg>
