<svg width="461" height="518" viewBox="0 0 461 518" fill="none" xmlns="http://www.w3.org/2000/svg">
<path opacity="0.95" d="M189.739 253.215H61.6325C51.5115 253.215 43.2959 244.999 43.2959 234.878V106.771C43.2959 96.6501 51.5115 88.4346 61.6325 88.4346H189.739C199.86 88.4346 208.076 96.6501 208.076 106.771V234.878C208.076 245.03 199.86 253.215 189.739 253.215Z" fill="url(#paint0_linear)"/>
<path d="M163.844 215.698H87.5605V219.477H163.844V215.698Z" fill="#96BFE6"/>
<path d="M153.035 227.599H98.3682V231.379H153.035V227.599Z" fill="#96BFE6"/>
<path opacity="0.95" d="M439.08 410.279H256.745C244.812 410.279 235.159 400.626 235.159 388.693V167.185C235.159 155.252 244.812 145.6 256.745 145.6H439.08C451.013 145.6 460.666 155.252 460.666 167.185V388.693C460.697 400.626 451.013 410.279 439.08 410.279Z" fill="url(#paint1_linear)"/>
<path d="M355.331 301.758H337.432V305.069H355.331V301.758Z" fill="#4598E6"/>
<path d="M373.608 332.09H269.523V338.494H373.608V332.09Z" fill="#96BFE6"/>
<path d="M353.677 362.891H269.522V369.295H353.677V362.891Z" fill="#96BFE6"/>
<path d="M318.847 347.491H269.522V353.894H318.847V347.491Z" fill="#96BFE6"/>
<path d="M400.814 171.996V175.245H419.9V193.144H423.149V171.996H400.814ZM271.302 193.144H274.551V175.245H293.637V171.996H271.333V193.144H271.302ZM419.9 285.483V303.382H400.814V306.631H423.118V285.483H419.9ZM274.551 285.483H271.302V306.631H293.606V303.382H274.519V285.483H274.551Z" fill="#4598E6"/>
<path d="M413.028 369.763C402.501 369.763 393.941 361.204 393.941 350.677C393.941 340.15 402.501 331.59 413.028 331.59C423.555 331.59 432.114 340.15 432.114 350.677C432.114 361.204 423.555 369.763 413.028 369.763ZM413.028 335.308C404.531 335.308 397.659 342.211 397.659 350.677C397.659 359.142 404.562 366.046 413.028 366.046C421.493 366.046 428.397 359.142 428.397 350.677C428.397 342.211 421.525 335.308 413.028 335.308Z" fill="#4598E6"/>
<path d="M411.809 358.205L403.156 349.552L405.749 346.928L411.809 352.988L420.306 344.492L422.93 347.116L411.809 358.205Z" fill="#4598E6"/>
<path opacity="0.95" d="M330.247 136.478H239.314C231.004 136.478 224.257 129.731 224.257 121.422V42.5147C224.257 34.2054 231.004 27.458 239.314 27.458H330.247C338.556 27.458 345.304 34.2054 345.304 42.5147V121.39C345.304 129.731 338.556 136.478 330.247 136.478Z" fill="url(#paint2_linear)"/>
<path d="M289.107 115.83H279.517V117.611H289.107V115.83Z" fill="#4598E6"/>
<path d="M313.567 47.169V48.9184H323.813V58.5397H325.562V47.2003H313.567V47.169ZM244.031 58.5084H245.781V48.8871H256.027V47.1378H244.062V58.5084H244.031ZM323.813 108.083V117.704H313.567V119.454H325.531V108.114H323.813V108.083ZM245.781 108.083H244.031V119.422H255.995V117.673H245.749V108.083H245.781Z" fill="#4598E6"/>
<path d="M132.105 197.299H119.267V199.673H132.105V197.299Z" fill="#4598E6"/>
<path d="M164.124 105.584V107.896H177.806V120.734H180.118V105.584H164.124ZM71.2539 120.734H73.5655V107.896H87.2477V105.584H71.2539V120.734ZM177.806 186.959V199.798H164.124V202.109H180.118V186.959H177.806ZM73.5967 186.959H71.2851V202.109H87.279V199.798H73.5967V186.959Z" fill="#4598E6"/>
<path d="M128.482 60.1955C128.482 60.1955 120.391 55.01 113.113 64.2252C105.834 73.4403 108.458 82.2807 109.957 90.5587C111.457 98.7743 118.798 117.517 115.705 125.795C112.581 134.073 116.58 138.384 116.58 138.384C116.58 138.384 141.633 144.788 138.696 107.115C135.791 69.4419 128.482 60.1955 128.482 60.1955Z" fill="#163342"/>
<path d="M143.726 143.726C143.726 143.726 151.067 163.156 158.001 181.274H176.807C173.933 172.402 171.028 162.937 170.684 161.219C170.059 157.845 169.778 147.849 165.936 140.82C162.094 133.792 152.91 131.043 152.91 131.043C137.759 131.73 143.726 143.726 143.726 143.726Z" fill="#4598E6"/>
<path d="M96.6195 162.687C96.6195 162.687 99.5559 172.214 102.367 181.273H163.687C163.937 180.493 164.281 179.649 164.656 178.743C169.154 168.341 171.341 159.501 169.154 153.597C166.967 147.693 154.535 131.511 151.317 130.887C148.1 130.231 138.884 125.889 138.884 125.889C132.855 124.983 124.265 125.42 121.297 126.482C118.361 127.513 101.899 129.169 95.8698 133.854C88.935 139.227 96.6195 162.687 96.6195 162.687Z" fill="#EDDAD3"/>
<path d="M141.82 146.475L147.443 139.915L142.57 122.609C142.539 122.578 140.914 132.23 141.82 146.475Z" fill="#D6C5BE"/>
<path d="M143.257 115.205C143.257 115.205 141.414 132.168 141.789 137.666C141.789 137.666 132.199 147.287 121.266 126.42C121.266 126.42 125.858 117.829 122.39 106.115C118.954 94.4322 143.257 115.205 143.257 115.205Z" fill="#EEA886"/>
<path d="M141.82 137.697V146.474L130.762 138.228L141.82 137.697Z" fill="#EEA886"/>
<path d="M141.82 146.475L137.228 140.789L121.766 125.389L116.768 130.2L141.82 146.475Z" fill="#D6C5BE"/>
<path d="M90.1523 147.13C90.1523 147.13 92.8076 156.939 99.961 181.242H131.886C132.886 168.466 133.417 158.282 133.198 155.19C132.573 146.537 119.61 126.857 119.61 126.857C119.61 126.857 111.519 127.825 102.835 129.731C92.9637 131.886 90.1523 147.13 90.1523 147.13Z" fill="#4598E6"/>
<path d="M145.725 128.919C153.628 138.384 156.439 159.157 156.877 181.274H163.968C172.214 164.061 169.996 156.221 169.996 156.221C165.686 141.508 152.909 131.043 152.909 131.043L145.725 128.919Z" fill="#4598E6"/>
<path d="M147.411 139.883L154.502 141.851L142.538 122.578L147.411 139.883Z" fill="#FAE6DE"/>
<path d="M137.228 140.789L130.761 149.255L117.548 127.138L121.765 125.389L137.228 140.789Z" fill="#FAE6DE"/>
<path d="M142.882 118.954L142.538 122.296C142.538 122.296 134.916 123.796 124.951 111.613C124.951 111.582 132.042 120.235 142.882 118.954Z" fill="#A77860"/>
<path d="M140.945 119.204C143.944 119.079 152.347 118.11 156.471 98.7742C161.531 75.1584 150.348 62.9131 140.789 60.6327C131.23 58.3524 122.39 61.6948 117.486 74.0338C117.486 74.0338 113.893 83.6551 119.704 100.805C125.545 117.954 137.728 119.298 140.945 119.204Z" fill="#EEA987"/>
<path d="M133.261 75.9393C133.261 75.9393 146.1 76.7515 158.064 94.6821C158.064 94.6821 163.656 73.0967 149.036 63.2255C134.417 53.3856 124.171 61.851 120.61 66.1306C120.61 66.1306 115.487 67.3177 115.331 77.0014C115.174 86.7164 108.646 101.336 122.953 108.302C122.953 108.302 121.578 97.2124 122.859 94.6821C124.14 92.183 128.513 93.9011 133.261 75.9393Z" fill="#163342"/>
<path d="M123.576 90.4026C122.92 88.7158 121.17 88.0598 120.202 89.8403C119.234 91.6521 120.389 98.6182 122.982 99.3991C125.575 100.18 124.888 93.8076 123.576 90.4026Z" fill="#EEA987"/>
<path d="M77.7822 181.274H98.6804C100.867 175.901 102.929 171.121 104.272 167.685C108.801 156.315 126.794 134.885 115.33 127.763C115.33 127.763 100.305 126.857 92.7452 135.604C85.2168 144.382 85.6229 154.784 83.6862 159.313C82.2805 162.687 79.5315 174.214 77.7822 181.274Z" fill="#4598E6"/>
<path d="M216.745 341.856L152.926 342.34L152.97 348.181L216.789 347.698L216.745 341.856Z" fill="#323657"/>
<path d="M228.577 288.011L210.86 345.934L216.178 347.56L233.895 289.637L228.577 288.011Z" fill="#323657"/>
<path d="M337.775 355.331H332.809V500.088H337.775V355.331Z" fill="#706865"/>
<path d="M146.966 355.312H365.787V346.596H146.966V355.312Z" fill="#B59074"/>
<path d="M172.28 500.071H177.247L177.247 355.314H172.28L172.28 500.071Z" fill="#706865"/>
<path d="M151.066 335.964C151.066 335.964 154.377 336.62 155.939 336.683C157.532 336.745 164.811 333.434 167.154 333.746C169.496 334.059 184.709 340.525 185.428 340.993C186.115 341.462 185.115 342.493 185.115 342.493L150.129 342.899L151.066 335.964Z" fill="#EEA886"/>
<path d="M91.2143 483.219L88.9652 488.061C88.9652 488.061 79.5001 484.531 79.4689 484.406C79.4064 484.281 82.0616 477.659 82.0616 477.659L91.2143 483.219Z" fill="#515269"/>
<path d="M172.151 483.126L174.775 490.779C174.775 490.779 164.404 493.059 162.905 492.934C162.78 492.934 160.937 484.282 160.937 484.282L172.151 483.126Z" fill="#6A6B8A"/>
<path d="M161.718 490.685C161.718 490.685 168.965 488.717 169.184 488.405C169.403 488.092 172.058 486.281 173.432 486.53C174.807 486.749 174.932 488.405 176.306 488.748C177.681 489.092 188.27 492.466 189.738 493.34C191.207 494.215 198.204 491.653 199.547 493.465C200.89 495.277 202.202 500.056 191.207 501.712C180.211 503.368 168.403 508.272 165.779 507.616C163.124 506.898 161.312 493.621 161.718 490.685Z" fill="#51588F"/>
<path d="M78.7188 483.126C78.7188 483.126 85.435 486 85.7786 485.875C86.1222 485.75 89.246 486 90.1519 486.999C91.0578 487.999 90.1519 489.311 90.9953 490.404C91.8387 491.497 96.6181 497.808 98.0238 499.276C99.1796 500.463 105.458 501.587 107.458 503.712C108.988 505.305 107.177 511.646 96.4932 508.616C86.091 505.648 73.1897 500.525 71.5653 498.432C69.941 496.339 76.6571 485.125 78.7188 483.126Z" fill="#51588F"/>
<path d="M85.623 387.881C85.623 387.881 115.174 401.032 121.422 405.499C127.669 409.998 141.383 418.276 141.851 420.275C142.32 422.305 145.006 420.337 140.164 430.427C135.291 440.548 112.331 464.883 110.176 467.538C107.927 470.287 91.9956 486.812 91.9956 486.812L80.0002 477.784C80.0002 477.784 103.054 443.891 106.396 438.893C109.739 433.895 111.238 433.176 109.27 430.958C107.302 428.772 99.4302 428.803 58.8521 411.997C54.7912 410.31 43.4831 406.436 41.9837 400.97C39.2972 391.13 41.6088 378.666 52.5108 373.168C63.3816 367.764 85.623 387.881 85.623 387.881Z" fill="#34395C"/>
<path d="M99.6489 292.793C99.399 293.012 99.1178 293.511 98.8055 294.199C98.3681 295.198 97.9308 296.573 97.4935 298.072C96.1503 302.758 94.932 308.755 94.932 308.755C94.932 308.755 78.0323 294.667 80.4063 293.792C82.8117 292.918 84.561 288.794 84.561 288.794C84.561 288.794 101.461 291.2 99.6489 292.793Z" fill="#EEA886"/>
<path d="M98.6181 341.462C98.6181 341.462 84.9047 367.702 84.3112 377.541C83.7177 387.381 55.666 374.449 55.666 374.449L98.6181 341.462Z" fill="#EDDCC5"/>
<path d="M84.3415 376.917L84.6539 379.353L85.1537 382.571C84.7476 382.539 57.7581 380.852 55.7901 381.352C53.8221 381.852 59.5074 374.98 59.5074 374.98L84.3415 376.917Z" fill="#323657"/>
<path d="M85.1544 382.571C85.1544 382.571 115.674 389.756 123.233 392.161C130.793 394.566 143.757 398.815 147.255 400.814C149.098 401.876 151.941 403.469 155.315 414.496C159.157 426.991 167.935 462.165 169.934 467.632C171.184 471.068 174.776 484.594 174.776 484.594L159.188 487.312C159.188 487.312 140.602 449.92 139.102 439.955C136.572 423.18 130.075 423.086 127.451 421.556C124.827 420.025 112.175 422.899 67.1614 419.307C62.6631 418.963 50.3554 418.713 47.1691 413.871C41.4213 405.093 35.6111 395.129 44.5451 386.319C53.4479 377.479 85.1544 382.571 85.1544 382.571Z" fill="#494F80"/>
<path d="M105.617 257.463C105.617 257.463 110.896 266.584 109.709 269.083C108.491 271.551 115.238 277.58 114.113 278.861C113.02 280.142 110.74 281.672 110.771 282.047C110.802 282.422 108.803 294.324 106.21 294.574C103.618 294.823 85.9057 293.918 84.4375 288.388C82.9693 282.859 78.6585 270.708 77.6276 268.459C76.628 266.178 86.8428 248.748 105.617 257.463Z" fill="#EEA886"/>
<path d="M83.7805 255.714C82.3124 256.807 81.1253 257.963 80.1569 259.15C79.0011 259.681 72.1288 263.086 73.5657 266.772C75.4713 271.707 83.2183 284.983 83.8743 286.358C83.968 286.545 83.968 286.202 83.9055 285.452C84.3741 280.766 90.1531 275.518 90.1531 275.518L93.2144 274.144C91.6213 271.176 92.246 268.365 92.246 268.365C95.7134 264.648 107.303 260.618 107.303 260.618C105.647 244.124 91.5275 249.966 83.7805 255.714Z" fill="#403429"/>
<path d="M88.9964 271.645C88.1842 270.395 83.8734 270.614 84.4982 274.269C85.1229 277.955 90.4334 280.891 91.5892 279.267C92.745 277.643 89.8711 272.988 88.9964 271.645Z" fill="#EEA886"/>
<path d="M80.4377 293.824C80.4377 293.824 59.0085 306.319 54.1978 328.092C49.3559 349.896 40.6406 388.162 40.4844 392.692C40.4844 392.692 69.4732 378.76 85.1546 382.571C85.1546 382.571 95.0258 347.053 100.242 338.682C105.428 330.279 97.7122 310.567 97.7122 310.567C97.7122 310.567 90.3088 298.728 80.4377 293.824Z" fill="#5C9AFF"/>
<path d="M98.8364 294.199C98.3991 295.198 97.9618 296.573 97.5244 298.072C94.9942 297.01 90.1523 292.574 90.0273 292.418C92.0266 293.23 98.8364 294.199 98.8364 294.199Z" fill="#A77860"/>
<path d="M88.7769 305.163C88.7769 305.163 91.026 307.756 94.181 313.223C97.7422 319.439 100.647 325.562 101.428 326.936C102.99 329.747 108.582 332.621 111.049 333.683C113.33 334.652 152.721 335.495 153.221 335.464C153.689 335.433 152.658 347.428 152.658 347.428C152.658 347.428 98.2732 348.99 95.8991 346.803C93.525 344.617 86.6527 336.432 83.7788 332.371C81.0299 328.498 76.8128 322.125 74.5949 319.408C72.0958 316.346 66.8479 305.882 73.5328 300.634C82.0295 293.98 86.7464 302.102 88.7769 305.163Z" fill="#5C9AFF"/>
<path d="M77.2822 323.031C77.2822 323.031 81.4681 335.808 85.1542 341.462C88.8403 347.116 94.4006 352.707 94.4006 352.707L96.4311 346.741C96.4311 346.741 80.9371 328.123 77.2822 323.031Z" fill="#406CB3"/>
<path d="M8.77832 504.836L10.0903 508.491L65.0378 491.466L62.4138 484.031L8.77832 504.836Z" fill="#918783"/>
<path d="M66.9429 429.084H60.6953V488.842H66.9429V429.084Z" fill="#918783"/>
<path d="M82.2484 425.929H45.3877V429.459H82.2484V425.929Z" fill="#5E5854"/>
<path d="M119.33 504.836L118.018 508.491L63.0391 491.466L65.4756 483.594L119.33 504.836Z" fill="#918783"/>
<path d="M80.5948 508.085V512.364L63.0391 491.466L65.4756 483.594L80.5948 508.085Z" fill="#918783"/>
<path d="M124.451 509.928C124.451 512.77 122.139 515.051 119.328 515.051C116.485 515.051 114.205 512.739 114.205 509.928C114.205 507.116 116.517 504.805 119.328 504.805C122.139 504.774 124.451 507.085 124.451 509.928Z" fill="#BFB2AC"/>
<path d="M81.0312 509.928C81.0312 512.77 78.7196 515.051 75.9082 515.051C73.0655 515.051 70.7852 512.739 70.7852 509.928C70.7852 507.116 73.0968 504.805 75.9082 504.805C78.7196 504.774 81.0312 507.085 81.0312 509.928Z" fill="#BFB2AC"/>
<path d="M13.9003 509.928C13.9003 512.77 11.5887 515.051 8.77731 515.051C5.93466 515.051 3.6543 512.739 3.6543 509.928C3.6543 507.116 5.9659 504.805 8.77731 504.805C11.62 504.774 13.9003 507.085 13.9003 509.928Z" fill="#BFB2AC"/>
<path d="M101.117 425.929H26.9896C23.366 425.929 20.3984 422.993 20.3984 419.338V419.182C20.3984 415.558 23.3348 412.59 26.9896 412.59H101.117C104.741 412.59 107.708 415.527 107.708 419.182V419.338C107.708 422.961 104.741 425.929 101.117 425.929Z" fill="#E2D2CA"/>
<path d="M37.5792 403.25H11.4018C5.09178 403.25 0 398.159 0 391.848V331.278C0 324.968 5.09178 319.876 11.4018 319.876H37.5792C43.8893 319.876 48.981 324.968 48.981 331.278V391.848C48.981 398.127 43.8893 403.25 37.5792 403.25Z" fill="#E2D2CA"/>
<path d="M49.5438 422.587C40.6723 422.587 33.4563 419.619 28.1458 413.715C16.1193 400.439 18.2747 377.073 18.3684 376.073C18.5558 374.23 20.1802 372.887 22.0232 373.075C23.8663 373.262 25.2095 374.886 25.0221 376.729C24.9908 377.011 23.0853 398.159 33.1127 409.217C37.1736 413.684 42.5465 415.871 49.5438 415.871C51.3869 415.871 52.8863 417.37 52.8863 419.213C52.8863 421.087 51.3869 422.587 49.5438 422.587Z" fill="#E2D2CA"/>
<path d="M222.915 211.73C222.915 211.73 233.224 216.76 230.662 230.504C228.101 244.218 226.976 246.061 229.85 251.434C232.692 256.807 236.066 279.673 233.505 284.015C230.943 288.357 201.736 264.96 197.675 245.342C193.614 225.725 200.236 216.978 202.579 213.73C204.922 210.481 213.794 207.107 222.915 211.73Z" fill="#0E2D3D"/>
<path d="M225.758 261.274C225.758 261.274 231.006 262.336 233.942 266.678C236.004 269.708 236.16 276.393 236.441 277.674C236.722 278.923 240.658 293.23 240.658 293.23L229.725 300.571L225.758 261.274Z" fill="#5C9AFF"/>
<path d="M266.148 505.648C266.148 505.648 273.27 515.269 272.302 516.768C271.333 518.299 263.805 518.518 259.244 516.768C254.684 515.019 254.559 503.773 252.497 498.932C251.622 496.901 253.497 490.935 256.089 490.497C258.682 490.06 261.525 491.341 261.525 491.341C261.525 491.341 258.838 498.151 266.148 505.648Z" fill="#1D3B54"/>
<path d="M261.588 491.247C261.588 491.247 263.087 495.339 263.65 499.244C264.118 502.493 268.742 509.365 268.523 510.24C268.304 511.114 262.431 511.895 260.026 509.646C257.621 507.397 256.09 500.868 255.559 496.995C255.059 493.371 254.435 491.56 254.435 491.56C254.435 491.56 259.308 488.873 261.588 491.247Z" fill="#EEA886"/>
<path d="M204.047 505.804C204.047 505.804 210.92 515.238 209.951 516.769C208.983 518.299 201.455 518.518 196.894 516.769C192.333 515.019 192.208 503.774 190.146 498.932C189.272 496.901 191.146 490.935 193.739 490.498C196.332 490.06 199.393 491.435 199.393 491.435C199.393 491.435 196.738 498.307 204.047 505.804Z" fill="#1D3B54"/>
<path d="M199.393 491.435C199.393 491.435 199.924 495.902 200.799 499.057C201.673 502.212 206.359 509.397 206.14 510.271C205.922 511.146 200.049 511.927 197.644 509.678C195.238 507.429 193.395 500.931 193.177 497.026C192.958 493.09 193.708 490.529 193.708 490.529C193.708 490.529 197.113 489.029 199.393 491.435Z" fill="#EEA886"/>
<path d="M233.755 335.027C233.755 335.027 239.877 363.515 241.283 370.669C242.689 377.854 246.625 412.559 247.062 418.494C247.499 424.429 253.466 446.64 253.185 448.764C252.903 450.888 262.025 493.247 262.025 493.247C262.025 493.247 258.901 495.746 255.621 493.465C253.934 492.278 235.598 453.793 235.598 443.266C235.598 428.678 224.82 409.654 223.415 406.405C210.482 376.104 213.044 366.858 211.357 364.859C209.67 362.891 209.514 366.077 208.546 370.419C207.546 374.792 205.453 412.465 204.172 417.245C202.891 422.024 203.891 438.205 203.173 446.358C202.454 454.511 199.393 491.403 199.393 491.403C199.393 491.403 196.988 495.152 193.645 491.497C192.927 490.716 187.866 450.388 187.71 440.704C187.554 430.989 187.429 417.62 187.148 413.434C184.555 373.23 178.151 367.483 188.21 339.025C207.109 285.764 233.755 335.027 233.755 335.027Z" fill="#EEA886"/>
<path d="M192.645 327.092C192.645 327.092 175.215 351.52 182.712 403.437C182.712 403.437 224.071 409.06 246.25 396.94C246.25 396.94 237.097 343.398 233.755 335.058C230.443 326.717 192.645 327.092 192.645 327.092Z" fill="#141954"/>
<path d="M252.341 498.088V508.147H253.622V500.368L252.341 498.088Z" fill="#1D3B54"/>
<path d="M189.958 498.088V508.147H191.27V500.368L189.958 498.088Z" fill="#1D3B54"/>
<path d="M216.075 257.713C216.075 257.713 222.51 260.743 224.728 261.18C226.946 261.617 235.63 272.863 237.129 276.986C238.66 281.079 237.129 287.264 234.006 294.48C230.882 301.696 233.818 304.132 232.413 311.348C230.976 318.564 229.726 333.871 230.007 337.9C230.288 341.93 193.896 342.68 185.618 335.37C185.618 335.37 193.959 322.875 195.021 321.094C196.083 319.314 195.208 309.568 194.209 307.068C193.24 304.569 186.68 283.328 186.68 283.328C186.68 283.328 181.339 266.99 186.149 263.242C190.335 259.993 201.768 258.837 203.83 258.119C205.892 257.4 211.858 257.088 216.075 257.713Z" fill="#EDDAD3"/>
<path d="M218.104 272.02L222.008 267.459L218.603 255.432C218.635 255.432 217.479 262.117 218.104 272.02Z" fill="#D6C5BE"/>
<path d="M219.135 250.278C219.135 250.278 218.947 251.902 218.76 254.12C218.666 255.12 218.572 256.213 218.479 257.369C218.229 260.618 218.01 264.116 218.135 265.928C218.135 265.928 211.45 272.613 203.859 258.119C203.859 258.119 207.046 252.152 204.64 243.999C202.235 235.846 219.135 250.278 219.135 250.278Z" fill="#EEA886"/>
<path d="M218.104 265.928V272.019L210.42 266.303L218.104 265.928Z" fill="#EEA886"/>
<path d="M218.104 272.02L214.917 268.084L204.172 257.369L200.704 260.712L218.104 272.02Z" fill="#D6C5BE"/>
<path d="M202.673 258.4C202.673 258.4 211.701 272.082 212.138 278.111C212.576 284.14 208.796 329.216 205.766 343.679C202.736 358.174 180.838 342.055 180.838 342.055C180.838 342.055 195.551 318.252 189.897 299.196C184.243 280.141 182.212 272.519 182.212 272.519C182.212 272.519 184.149 261.898 191.053 260.399C197.05 259.087 202.673 258.4 202.673 258.4Z" fill="#5C9AFF"/>
<path d="M237.722 278.798C237.722 278.798 239.346 284.546 233.005 297.291C233.005 297.291 233.099 313.566 233.286 318.658C233.474 323.75 237.066 342.024 237.066 342.024L228.413 346.647C227.164 347.397 225.602 346.366 225.758 344.898C227.538 330.247 233.317 274.737 220.822 259.806L225.82 261.274C225.82 261.305 234.723 268.584 237.722 278.798Z" fill="#5C9AFF"/>
<path d="M222.008 267.459L226.944 268.802L218.635 255.432L222.008 267.459Z" fill="#FAE6DE"/>
<path d="M214.919 268.084L210.42 273.956L201.205 258.587L204.391 256.776L214.919 268.084Z" fill="#FAE6DE"/>
<path d="M222.692 290.915L221.418 291.923L233.36 307.011L234.634 306.003L222.692 290.915Z" fill="#EB4747"/>
<path d="M220.697 305.288C220.697 305.288 221.852 305.319 222.602 304.757C223.883 303.789 224.351 301.383 226.663 301.54C228.943 301.727 230.005 308.881 229.443 310.224C228.881 311.567 225.695 312.254 221.009 311.317C216.261 310.411 220.697 305.288 220.697 305.288Z" fill="#EEA886"/>
<path d="M225.852 301.571C225.852 301.571 229.132 300.446 232.943 299.634C236.286 298.915 240.253 298.666 240.628 299.259C241.065 299.915 237.379 300.446 234.13 301.383C231.131 302.227 231.85 302.539 231.85 302.539C231.85 302.539 231.662 302.445 235.067 302.133C238.753 301.789 242.533 301.789 242.908 302.539C243.096 302.883 242.971 303.133 241.627 303.476C242.44 303.445 242.533 303.632 242.564 303.976C242.721 305.632 237.348 306.944 235.224 307.475C236.879 307.069 238.097 306.975 237.504 308.068C236.817 309.349 229.163 310.88 226.446 311.692C223.509 312.566 225.852 301.571 225.852 301.571Z" fill="#EEA886"/>
<path d="M192.302 260.618C190.053 259.899 183.399 262.242 182.274 269.052C181.15 275.862 180.712 283.39 179.65 287.076C178.588 290.731 175.933 306.975 178.182 308.318C180.431 309.661 184.68 310.879 190.615 310.879C196.769 310.879 220.603 311.942 220.603 311.942L222.103 303.476C222.103 303.476 213.044 303.008 208.358 302.289C204.172 301.664 198.393 299.884 191.583 299.134C191.583 299.134 193.02 289.075 194.082 286.233C195.144 283.39 202.454 263.929 192.302 260.618Z" fill="#5C9AFF"/>
<path d="M222.79 318.345L246.812 313.566L264.618 275.456L238.971 278.142L222.79 318.345Z" fill="white"/>
<path d="M249.81 307.1C249.81 307.1 251.122 305.882 252.309 304.164C253.496 302.446 257.307 295.917 256.963 295.511C256.62 295.105 250.903 294.948 249.872 295.886C248.842 296.823 250.903 297.166 250.903 297.166C250.903 297.166 247.779 297.479 247.998 298.353C248.217 299.228 250.091 298.978 250.091 298.978C250.091 298.978 247.592 299.447 247.967 300.228C248.342 301.009 249.56 300.977 249.56 300.977C249.56 300.977 247.342 301.258 247.623 302.102C247.904 302.945 251.403 303.758 250.934 304.445C250.466 305.194 249.81 307.1 249.81 307.1Z" fill="#EEA886"/>
<path d="M221.416 213.261C221.416 213.261 236.379 217.978 228.257 243.812C220.135 269.645 199.675 240.813 201.83 225.069C203.954 209.325 221.416 213.261 221.416 213.261Z" fill="#EEA987"/>
<path d="M229.787 228.318C229.787 228.318 222.353 235.627 209.889 236.533C209.889 236.533 205.109 242.156 204.734 244.343C204.734 244.343 193.614 225.413 207.296 214.042C220.947 202.703 234.785 223.663 229.787 228.318Z" fill="#0E2D3D"/>
<path d="M210.045 237.064C209.951 235.19 208.795 230.91 205.984 232.098C203.204 233.285 206.14 242 208.014 241.469C208.014 241.469 210.263 241.5 210.045 237.064Z" fill="#EEA987"/>
<path d="M218.728 254.12C218.635 255.12 218.541 256.213 218.447 257.369C209.794 253.089 208.451 246.935 208.42 246.748C214.605 254.714 218.728 254.12 218.728 254.12Z" fill="#A77860"/>
<path d="M344.585 127.576C344.585 127.576 362.235 125.733 368.607 142.788C374.98 159.844 380.946 165.436 381.696 174.37C384.726 210.606 401.657 202.422 396.877 223.288C392.129 244.187 388.818 247.342 388.818 247.342L348.365 239.407L307.381 239.532C307.381 239.532 323.406 231.535 319.845 214.479C316.284 197.424 307.381 169.466 312.41 150.442C317.471 131.418 334.027 129.012 344.585 127.576Z" fill="#0E2D3D"/>
<path d="M415.214 275.831H276.611C283.296 258.681 289.856 242.656 291.73 240.719C295.698 236.565 315.284 223.57 331.746 218.384C348.177 213.199 357.518 218.197 357.518 218.197C357.518 218.197 388.037 226.756 401.001 240.782C404.656 244.686 410.216 260.024 415.214 275.831Z" fill="#F5821F"/>
<path d="M356.768 198.392C356.768 198.392 355.363 216.01 358.736 221.289C362.141 226.568 355.831 233.722 342.868 231.285C329.904 228.849 330.654 221.477 330.654 221.477C330.654 221.477 334.277 210.606 333.215 201.891C332.153 193.206 356.768 198.392 356.768 198.392Z" fill="#EEA886"/>
<path d="M365.202 220.696C365.202 220.696 353.488 247.185 338.337 252.902C338.337 252.902 322.187 240.063 326.217 220.383C326.217 220.383 346.709 210.918 365.202 220.696Z" fill="#EEA886"/>
<path d="M346.896 137.54C346.896 137.54 370.293 140.914 366.857 175.432C363.42 209.95 342.803 207.201 341.429 207.17C340.055 207.138 320.718 207.888 319.063 165.748C319.063 165.78 318.282 134.635 346.896 137.54Z" fill="#EEA886"/>
<path d="M344.241 150.067C344.241 150.067 355.174 161.562 360.234 167.373C365.295 173.183 365.888 184.429 365.888 184.429C365.888 184.429 374.448 173.995 370.855 161.812C367.294 149.661 358.829 125.982 337.399 133.261C315.97 140.539 315.189 172.527 317.688 188.396C317.72 188.364 327.341 153.347 344.241 150.067Z" fill="#0E2D3D"/>
<path d="M335.244 205.733C335.244 205.733 345.24 210.731 355.393 202.828C355.393 202.828 351.519 209.294 344.709 209.637C337.899 209.981 335.244 205.733 335.244 205.733Z" fill="#A77860"/>
<path d="M323.218 101.055H309.285C309.098 99.8676 308.911 98.6493 308.754 97.4623C307.848 90.1839 307.599 83.5614 307.599 83.5614C307.599 83.5614 303.538 64.9436 315.283 63.7878C315.283 63.7878 318.438 64.7875 318.626 66.0682C319.344 71.035 320.968 81.8121 321.031 84.3736C321.062 85.6544 322.28 94.5572 323.218 101.055Z" fill="#323657"/>
<path d="M315.628 64.1627C315.472 69.2545 315.159 74.7211 314.722 80.5938C314.722 80.5938 314.129 90.1526 313.941 101.055H264.398C263.242 95.6817 261.961 90.9023 261.805 90.3088C261.805 90.3088 261.805 90.3088 261.805 90.2776C261.805 90.2463 261.805 90.2464 261.805 90.2464C261.805 90.2464 260.681 95.6193 259.806 101.055H247.811C249.31 89.1218 252.934 62.6633 254.839 61.2888C256.463 60.1018 266.741 56.0096 272.082 53.9791C274.55 53.042 276.424 52.386 276.799 52.3548C278.018 52.2923 293.043 53.7292 293.043 53.7292C293.043 53.7292 295.198 54.4789 297.385 55.4786C301.134 57.1966 307.006 59.8831 311.192 61.8823C312.536 62.5383 314.222 63.413 315.628 64.1627Z" fill="#D8D5E0"/>
<path d="M276.83 52.3547C277.923 62.4758 289.169 62.4758 289.169 62.4758C289.169 62.4758 293.823 58.4148 293.667 55.3848C293.667 55.3223 293.667 55.2598 293.636 55.1973C293.574 54.635 292.949 53.9478 292.886 52.8545C292.886 52.6983 292.886 52.5421 292.855 52.3859C292.855 52.2297 292.855 52.0735 292.855 51.9486C292.855 51.1676 292.918 50.4179 292.949 49.8869C292.98 49.6995 292.98 49.5433 292.98 49.4183C293.011 49.2309 293.011 49.1372 293.011 49.1372C293.011 49.1372 291.2 47.2317 288.888 44.9513C284.858 40.9841 279.329 35.8923 279.329 37.8915C279.329 37.9852 279.36 38.1414 279.392 38.2664C280.391 42.8271 276.83 52.3547 276.83 52.3547Z" fill="#EEA886"/>
<path d="M284.514 58.29L289.2 62.4447C289.2 62.4447 283.796 62.1011 282.796 61.1952L284.514 58.29Z" fill="#B4B1BA"/>
<path d="M311.16 61.9136C308.317 60.5704 304.725 58.8835 301.507 57.4153C299.977 56.6969 298.54 56.0409 297.322 55.5098L295.385 54.6976C295.478 54.9475 299.008 63.3818 301.632 81.8746C302.32 86.5915 303.35 93.4639 304.413 101.117H314.284C314.815 90.2464 315.096 80.8438 315.096 80.8438C315.533 74.8773 315.783 69.317 315.971 64.1315C314.534 63.4755 312.691 62.6321 311.16 61.9136Z" fill="#323657"/>
<path d="M285.077 101.055H263.585C263.148 97.2749 262.648 93.9636 262.211 92.433C262.211 92.433 261.274 96.244 260.43 101.055H246.373C247.872 87.841 250.903 62.9132 252.746 61.6012C254.12 60.6016 264.397 56.9779 269.427 54.9787C270.333 54.6039 271.238 54.2603 272.051 53.9479C273.113 55.1349 284.452 76.0956 285.327 93.089C285.42 95.0882 285.295 97.8684 285.077 101.055Z" fill="#323657"/>
<path d="M294.293 59.0396C294.293 59.0396 294.699 64.7874 289.826 64.9124C284.953 65.0373 281.11 60.3829 281.11 60.3829L289.17 62.4758L294.074 58.3212L294.293 59.0396Z" fill="#D8D5E0"/>
<path d="M277.486 50.4492C277.486 50.4492 282.109 56.3532 284.514 58.2899L280.578 64.9124L273.769 53.3544L277.486 50.4492Z" fill="#EAE6F2"/>
<path d="M293.355 59.3833L289.2 62.4759C289.2 62.4759 292.855 55.8222 292.918 52.8546L293.355 59.3833Z" fill="#B4B1BA"/>
<path d="M292.917 52.8235L295.572 54.729L298.54 63.6006L293.354 59.3834L292.917 52.8235Z" fill="#EAE6F2"/>
<path d="M306.131 23.2099C306.131 23.2099 309.068 30.3634 307.162 31.2068C305.569 31.9253 308.131 38.8914 308.443 40.0159C308.755 41.1405 305.538 41.6091 304.819 42.2338C304.07 42.8586 301.196 51.2303 298.603 51.2303C296.01 51.2303 284.827 45.9511 282.016 42.3588C279.204 38.7352 278.174 23.616 280.922 17.5871C283.671 11.5269 300.946 10.7148 306.131 23.2099Z" fill="#EEA886"/>
<path d="M306.725 24.7405C306.725 24.7405 311.224 17.8369 305.038 11.7143C298.853 5.59163 285.39 13.776 283.953 13.9946C282.516 14.2133 274.05 16.0251 276.862 28.8639C279.361 40.3282 279.611 40.6093 279.611 40.6093C279.611 40.6093 282.953 34.5492 284.546 33.6433C287.014 32.2376 291.95 33.1435 291.95 33.1435C291.95 33.1435 290.232 26.5523 294.043 26.0525C297.854 25.5839 303.102 22.9599 306.725 24.7405Z" fill="#0E2D3D"/>
<path d="M288.356 29.1451C288.106 28.2392 287.45 24.3969 284.014 26.2399C280.577 28.083 285.044 35.6738 285.576 35.83C286.138 35.9862 290.324 36.7359 288.356 29.1451Z" fill="#EEA886"/>
<path d="M282.422 42.8273C282.484 43.0147 285.046 49.231 292.887 52.3548C292.887 52.1986 292.887 52.0425 292.887 51.9175C292.887 51.1366 292.949 50.3868 292.98 49.8558C293.012 49.6684 293.012 49.5122 293.012 49.3872C293.012 49.3872 284.609 45.4513 282.422 42.8273Z" fill="#A77860"/>
<path d="M192.738 4.87311H178.338C177.838 4.87311 177.463 4.46702 177.463 3.99845V0.874662C177.463 0.374856 177.869 0 178.338 0H192.738C193.238 0 193.613 0.406094 193.613 0.874662V3.99845C193.613 4.46702 193.238 4.87311 192.738 4.87311Z" fill="url(#paint3_linear)"/>
<path d="M192.737 16.5562H178.337C177.837 16.5562 177.462 16.1501 177.462 15.6816V12.5578C177.462 12.058 177.868 11.6831 178.337 11.6831H192.737C193.237 11.6831 193.612 12.0892 193.612 12.5578V15.6816C193.612 16.1501 193.237 16.5562 192.737 16.5562Z" fill="url(#paint4_linear)"/>
<path d="M192.737 28.2391H178.337C177.837 28.2391 177.462 27.833 177.462 27.3644V24.2406C177.462 23.7408 177.868 23.366 178.337 23.366H192.737C193.237 23.366 193.612 23.7721 193.612 24.2406V27.3644C193.612 27.833 193.237 28.2391 192.737 28.2391Z" fill="url(#paint5_linear)"/>
<path d="M204.013 4.87311H201.171C200.671 4.87311 200.296 4.46702 200.296 3.99845V0.874662C200.296 0.374856 200.702 0 201.171 0H204.013C204.513 0 204.888 0.406094 204.888 0.874662V3.99845C204.888 4.46702 204.482 4.87311 204.013 4.87311Z" fill="url(#paint6_linear)"/>
<path d="M204.013 16.5562H201.171C200.671 16.5562 200.296 16.1501 200.296 15.6816V12.5578C200.296 12.058 200.702 11.6831 201.171 11.6831H204.013C204.513 11.6831 204.888 12.0892 204.888 12.5578V15.6816C204.888 16.1501 204.482 16.5562 204.013 16.5562Z" fill="url(#paint7_linear)"/>
<path d="M204.013 28.2391H201.171C200.671 28.2391 200.296 27.833 200.296 27.3644V24.2406C200.296 23.7408 200.702 23.366 201.171 23.366H204.013C204.513 23.366 204.888 23.7721 204.888 24.2406V27.3644C204.888 27.833 204.482 28.2391 204.013 28.2391Z" fill="url(#paint8_linear)"/>
<defs>
<linearGradient id="paint0_linear" x1="137.461" y1="384.135" x2="124.594" y2="150.929" gradientUnits="userSpaceOnUse">
<stop stop-color="#D1D7E0"/>
<stop offset="1" stop-color="#EBEBFF"/>
</linearGradient>
<linearGradient id="paint1_linear" x1="347.932" y1="449.15" x2="347.932" y2="209.061" gradientUnits="userSpaceOnUse">
<stop stop-color="#D1D7E0"/>
<stop offset="1" stop-color="#EBEBFF"/>
</linearGradient>
<linearGradient id="paint2_linear" x1="284.787" y1="152.472" x2="284.787" y2="53.5796" gradientUnits="userSpaceOnUse">
<stop stop-color="#D1D7E0"/>
<stop offset="1" stop-color="#EBEBFF"/>
</linearGradient>
<linearGradient id="paint3_linear" x1="177.468" y1="2.44193" x2="193.624" y2="2.44193" gradientUnits="userSpaceOnUse">
<stop stop-color="#D1D7E0"/>
<stop offset="1" stop-color="#EBEBFF"/>
</linearGradient>
<linearGradient id="paint4_linear" x1="177.467" y1="14.1173" x2="193.623" y2="14.1173" gradientUnits="userSpaceOnUse">
<stop stop-color="#D1D7E0"/>
<stop offset="1" stop-color="#EBEBFF"/>
</linearGradient>
<linearGradient id="paint5_linear" x1="177.467" y1="25.7926" x2="193.623" y2="25.7926" gradientUnits="userSpaceOnUse">
<stop stop-color="#D1D7E0"/>
<stop offset="1" stop-color="#EBEBFF"/>
</linearGradient>
<linearGradient id="paint6_linear" x1="200.293" y1="2.44193" x2="204.89" y2="2.44193" gradientUnits="userSpaceOnUse">
<stop stop-color="#D1D7E0"/>
<stop offset="1" stop-color="#EBEBFF"/>
</linearGradient>
<linearGradient id="paint7_linear" x1="200.293" y1="14.1173" x2="204.89" y2="14.1173" gradientUnits="userSpaceOnUse">
<stop stop-color="#D1D7E0"/>
<stop offset="1" stop-color="#EBEBFF"/>
</linearGradient>
<linearGradient id="paint8_linear" x1="200.293" y1="25.7926" x2="204.89" y2="25.7926" gradientUnits="userSpaceOnUse">
<stop stop-color="#D1D7E0"/>
<stop offset="1" stop-color="#EBEBFF"/>
</linearGradient>
</defs>
</svg>
