<svg width="579" height="552" viewBox="0 0 579 552" fill="none" xmlns="http://www.w3.org/2000/svg">
<path opacity="0.7" d="M330.121 0.878235C330.121 0.878235 227.917 -12.1215 146.552 61.9082C65.1869 135.938 41.5096 252.776 19.8352 346.956C-1.83922 441.137 40.3424 522.908 120.061 546.978C199.78 571.048 235.339 502.093 334.409 477.519C433.48 452.945 463.424 461.288 533.817 386.89C604.209 312.491 590.128 176.203 503.369 92.0608C416.61 7.91874 330.121 0.878235 330.121 0.878235Z" fill="#EBF6FD"/>
<path d="M496.878 550.013H575.504L474.111 454.948H487.688L415.452 415.887L413.535 454.948H427.125L496.878 550.013Z" fill="#F5821F"/>
<path d="M0.345703 550.013H78.9708L148.737 454.948H162.326L160.397 415.887L88.1616 454.948H101.739L0.345703 550.013Z" fill="#F5821F"/>
<path d="M217.766 550.013H353.169L321.432 414.609H342.222L285.468 366.935L228.713 414.609H249.503L217.766 550.013Z" fill="#F5821F"/>
<path d="M270.062 107.837L273.183 125.494L296.234 124.867L300.178 107.42L270.062 107.837Z" fill="white" stroke="#263238" stroke-linecap="round" stroke-linejoin="round"/>
<path d="M265.071 95.3906C265.071 95.3906 261.385 93.3141 261.385 99.0767C261.385 104.839 266.988 108.636 268.659 108.636C270.33 108.636 270.526 107.174 270.109 105.306C269.691 103.439 265.071 95.3906 265.071 95.3906Z" fill="white" stroke="#263238" stroke-linecap="round" stroke-linejoin="round"/>
<path d="M302.241 95.3906C302.241 95.3906 305.78 92.9331 306.296 98.7695C306.812 104.606 301.577 108.796 299.919 108.943C298.26 109.091 297.928 107.715 298.174 105.761C298.42 103.807 302.241 95.3906 302.241 95.3906Z" fill="white" stroke="#263238" stroke-linecap="round" stroke-linejoin="round"/>
<path d="M268.5 72.598C268.5 72.598 262.725 80.1792 262.725 86.679C262.725 93.1789 266.73 102.21 269.188 107.272C271.645 112.334 274.963 118.097 276.769 118.466C278.575 118.834 291.218 118.822 293.381 117.372C295.543 115.922 299.156 112.322 300.606 104.741C302.056 97.1599 304.218 85.9541 304.218 85.9541C304.218 85.9541 312.168 84.8728 313.249 79.8106C314.33 74.7483 307.106 71.8608 304.943 68.617C302.781 65.3732 308.912 62.4735 302.768 58.5047C296.625 54.536 291.575 57.4235 287.25 58.8611C282.925 60.2986 283.269 54.1674 278.219 56.6985C273.169 59.2297 273.525 63.1984 273.525 63.1984C273.525 63.1984 269.913 62.8298 269.913 61.0236C269.913 59.2174 266.3 59.2174 265.219 65.0046C264.138 70.7918 268.5 72.598 268.5 72.598Z" fill="#263238" stroke="#263238" stroke-linecap="round" stroke-linejoin="round"/>
<path d="M299.97 121.193C299.97 121.193 283.996 121.193 277.128 121.808C270.259 122.422 267.777 130.323 267.777 130.323C275 129.127 282.279 128.307 289.587 127.865C299.134 127.448 305.155 127.656 305.155 127.656L299.97 121.193Z" fill="white" stroke="#263238" stroke-linecap="round" stroke-linejoin="round"/>
<path d="M345.453 136.221C345.453 136.221 366.01 217.414 365.666 220.154C365.322 222.894 327.981 234.898 327.981 234.898L324.209 221.886L340.317 210.238L332.441 188.306C332.441 188.306 342.369 141.357 345.453 136.221Z" fill="#0066B3" stroke="#263238" stroke-linecap="round" stroke-linejoin="round"/>
<path d="M363.799 219.343C362.672 212.499 361.154 205.726 359.253 199.057L333.855 181.855C332.995 185.787 333.941 187.396 333.941 187.396L343.193 213.039L324.234 221.898L328.105 232.957C328.105 232.957 363.43 222.083 363.799 219.343Z" fill="#263238" stroke="#263238" stroke-linecap="round" stroke-linejoin="round"/>
<path d="M336.645 169.113L360.506 196.821C359.671 193.343 358.774 189.657 357.852 185.885L336.767 168.646L336.645 169.113Z" fill="#263238" stroke="#263238" stroke-linecap="round" stroke-linejoin="round"/>
<path d="M203.318 276.183C203.318 276.183 198.046 293.114 197.592 296.543C197.137 299.971 195.306 301.58 196.904 304.554C198.501 307.527 206.058 310.697 207.655 311.422C209.252 312.147 212.459 309.358 212.459 309.358C212.459 309.358 214.29 310.734 215.666 307.761C217.042 304.787 217.497 299.295 217.497 296.776C217.497 294.257 212.926 287.622 212.459 285.57C212.138 283.905 211.912 282.223 211.783 280.532L203.318 276.183Z" fill="white" stroke="#263238" stroke-linecap="round" stroke-linejoin="round"/>
<path d="M211.55 288.765C211.55 288.765 211.784 296.137 211.317 297.009C210.85 297.882 203.539 302.035 203.539 302.035" stroke="#263238" stroke-linecap="round" stroke-linejoin="round"/>
<path d="M205.602 300.892L208.796 305.696" stroke="#263238" stroke-linecap="round" stroke-linejoin="round"/>
<path d="M211.316 297.009C211.316 297.009 213.774 296.543 214.069 298.607C214.364 300.671 213.147 308.215 212.459 309.358" stroke="#263238" stroke-linecap="round" stroke-linejoin="round"/>
<path d="M261.178 466.461C261.178 466.461 262.21 478.453 264.262 480.161C266.314 481.869 272.482 483.589 275.91 482.618C278.154 481.869 280.238 480.707 282.054 479.19L282.742 465.146C282.742 465.146 268.722 469.557 261.178 466.461Z" fill="#263238" stroke="#263238" stroke-linecap="round" stroke-linejoin="round"/>
<path d="M245.424 285.595C245.424 285.595 251.567 339.375 251.924 348.972C252.28 358.568 248.508 378.092 249.872 388.364C251.236 398.636 256.015 430.14 256.015 430.14L260.131 452.748C260.131 452.748 256.703 457.196 257.674 460.28L260.131 467.481C260.131 467.481 266.631 471.585 271.78 471.929C276.928 472.273 281.364 469.471 282.052 468.169C282.74 466.866 283.76 452.748 283.76 449.32C283.76 445.892 281.708 437.033 281.364 430.14C281.02 423.247 283.76 393.131 283.76 383.548C283.76 373.964 284.792 346.207 285.136 345.175C285.48 344.143 287.188 298.926 287.188 298.926L287.876 292.07L245.424 285.595Z" fill="#263238" stroke="#263238" stroke-linecap="round" stroke-linejoin="round"/>
<path d="M285.164 444.897C285.164 444.897 279.34 449.689 279.34 454.137C279.382 456.964 279.961 459.758 281.048 462.369L283.788 463.733C283.788 463.733 282.768 466.473 281.392 471.953C280.016 477.433 284.476 492.841 285.164 494.23C285.852 495.618 292.352 495.937 292.352 495.937C294.884 492.884 296.856 489.406 298.176 485.665C299.896 480.173 299.896 466.817 299.896 463.045C299.987 460.154 300.328 457.276 300.916 454.444C300.916 454.444 294.072 439.749 285.164 444.897Z" fill="#263238" stroke="#263238" stroke-linecap="round" stroke-linejoin="round"/>
<path d="M288.932 450.721C284.128 446.949 280.331 451.741 280.331 451.741L279.655 452.146C279.43 452.786 279.31 453.458 279.299 454.137C279.341 456.964 279.92 459.758 281.007 462.369L283.747 463.733C283.747 463.733 282.727 466.473 281.351 471.953C279.975 477.433 284.435 492.841 285.123 494.23C285.811 495.618 292.311 495.938 292.311 495.938C293.98 493.91 295.422 491.706 296.611 489.364C297.632 482.654 297.335 475.81 295.739 469.213C293.761 461.337 293.761 454.481 288.932 450.721Z" fill="#636363" stroke="#263238" stroke-linecap="round" stroke-linejoin="round"/>
<path d="M286.195 292.439L300.94 365.068C300.94 365.068 292.339 388.708 291.7 398.648C291.061 408.589 286.551 436.333 286.22 439.073C285.888 441.813 285.188 444.897 285.188 444.897C285.188 444.897 292.044 444.209 295.46 447.981C298.875 451.753 302.66 460.649 302.66 460.649C302.66 460.649 312.588 433.617 316.016 426.049C319.444 418.48 330.404 388.708 330.76 378.436C331.117 368.164 334.188 312.651 334.188 305.119V287.991C334.188 287.991 289.611 292.783 286.195 292.439Z" fill="#0066B3" stroke="#263238" stroke-linecap="round" stroke-linejoin="round"/>
<path d="M325.584 371.58C320.448 364.724 303.664 364.724 303.664 364.724C309.674 363.032 315.921 362.339 322.156 362.672" stroke="#263238" stroke-linecap="round" stroke-linejoin="round"/>
<path d="M286.195 292.439L291.307 317.578C294.993 314.42 314.259 298.545 334.164 292.316V287.991C334.164 287.991 289.611 292.783 286.195 292.439Z" fill="#263238" stroke="#263238" stroke-linecap="round" stroke-linejoin="round"/>
<path d="M207.926 300.069H203.355V322.493H207.926V300.069Z" fill="#263238" stroke="#263238" stroke-linecap="round" stroke-linejoin="round"/>
<path d="M214.377 319.421H196.904V391.362H214.377V319.421Z" fill="#263238" stroke="#263238" stroke-linecap="round" stroke-linejoin="round"/>
<path d="M267.778 130.261L266.549 131.035C263.465 132.866 255.884 137.388 255.06 137.941C254.041 138.617 228.68 147.181 228.68 150.609C228.68 154.037 221.836 195.838 221.836 195.838C221.836 195.838 209.549 221.53 207.792 227.698C206.035 233.866 200.592 279.083 200.592 279.083L215.336 286.615C215.336 286.615 229.38 254.41 234.861 239.002C240.341 223.594 245.489 200.286 245.489 200.286L249.249 224.27L232.12 283.531C232.12 283.531 257.137 293.815 273.233 295.179C289.329 296.543 312.97 294.503 320.858 292.721C328.746 290.94 345.862 288.617 345.862 288.617C345.862 288.617 340.382 267.729 336.954 257.433C333.526 247.136 330.098 223.52 330.098 223.52L329.766 221.812L345.518 136.159L309.885 130.679L305.216 127.509C305.216 127.509 277.792 126.71 267.778 130.261Z" fill="#0066B3" stroke="#263238" stroke-linecap="round" stroke-linejoin="round"/>
<path d="M245.194 197.902L236.863 169.801L243.24 209.464L245.194 197.902Z" fill="#263238" stroke="#263238" stroke-linecap="round" stroke-linejoin="round"/>
<path d="M282.58 167.356C283.428 168.327 284.177 169.162 284.816 169.813" stroke="#263238" stroke-linecap="round" stroke-linejoin="round"/>
<path d="M263.574 142.389C263.574 142.389 272.888 155.425 279.769 163.965" stroke="#263238" stroke-linecap="round" stroke-linejoin="round"/>
<path d="M260.834 144.109C260.834 144.109 270.086 157.121 273.858 162.945" stroke="#263238" stroke-linecap="round" stroke-linejoin="round"/>
<path d="M328.168 227.071C328.168 227.071 314.517 255.946 309.258 263.306" stroke="#263238" stroke-linecap="round" stroke-linejoin="round"/>
<path d="M312.107 269.56C311.001 271.76 309.883 273.897 308.777 275.9" stroke="#263238" stroke-linecap="round" stroke-linejoin="round"/>
<path d="M326.103 238.093C326.103 238.093 320.992 251.007 314.873 263.896" stroke="#263238" stroke-linecap="round" stroke-linejoin="round"/>
<path d="M269.115 254.128C269.914 255.123 270.7 256.081 271.487 257.003" stroke="#263238" stroke-linecap="round" stroke-linejoin="round"/>
<path d="M252.061 226.015C251.176 227.329 258.745 240.391 266.805 251.093" stroke="#263238" stroke-linecap="round" stroke-linejoin="round"/>
<path d="M253.104 234.419C253.104 234.419 260.476 250.699 264.162 256.474" stroke="#263238" stroke-linecap="round" stroke-linejoin="round"/>
</svg>
