<svg width="137" height="16" viewBox="0 0 137 16" fill="none" xmlns="http://www.w3.org/2000/svg">
<path fill-rule="evenodd" clip-rule="evenodd" d="M54.5593 0.0449298L54.3396 0.0898596L54.12 0.134789L53.9452 0.179719L53.7705 0.224649L53.6407 0.269579L53.5109 0.314509L53.3811 0.359438L53.2962 0.404368L53.1664 0.449298L53.0816 0.494228L52.9967 0.539158L52.9069 0.584087L52.822 0.629017L52.7371 0.673947L52.6922 0.718877L52.6023 0.763807L52.5175 0.808736L52.4725 0.853666L52.3877 0.898596L52.3427 0.943526L52.2978 0.988456L52.2079 1.03339L52.163 1.07832L52.1181 1.12324L52.0732 1.16817L51.9883 1.2131L51.9434 1.25803L51.8984 1.30296L51.8535 1.34789L51.8086 1.39282L51.7636 1.43775L51.7187 1.48268L51.6738 1.52761L51.6288 1.57254L51.5839 1.61747L51.539 1.6624L51.4941 1.70733L51.4491 1.7922L51.4042 1.83713L51.3593 1.88206L51.3143 1.92699L51.2694 1.97192L51.2245 2.01685L51.1795 2.06178L51.1346 2.14665L51.0897 2.19158L51.0448 2.23651L50.9998 2.28144L50.9549 2.3663L50.91 2.41123L50.865 2.45616L50.8201 2.54103L50.7752 2.58596L50.7303 2.67083L50.6853 2.75569L50.6404 2.80062L50.5955 2.88549L50.5505 2.93042L50.5056 3.01529L50.4607 3.10515L50.4157 3.19002L50.3708 3.27988L50.3259 3.36474L50.281 3.4546L50.236 3.53947L50.1911 3.66927L50.1462 3.75413L50.1012 3.84399L50.0563 3.97379L50.0114 4.10359L49.9664 4.23339L49.9215 4.36318L49.8766 4.49298L49.8317 4.62278L49.7867 4.7975L49.7418 4.97223L49.6969 5.14696L49.6519 5.36661L49.6719 5.54134L49.627 5.80094L49.582 6.10546L49.5371 6.49984L49.4922 7.06895V8.90109L49.5371 9.4702L49.582 9.81966L49.627 10.1242L49.6719 10.3838L49.7168 10.6034L49.7618 10.8231L49.8067 10.9978L49.8516 11.1725L49.8966 11.3473L49.9415 11.4771L49.9864 11.6069L50.0313 11.7816L50.0763 11.8665L50.1212 11.9963L50.1661 12.1261L50.2111 12.2109L50.256 12.3407L50.3009 12.4256L50.3459 12.5105L50.3908 12.5953L50.4357 12.6802L50.4806 12.7651L50.5256 12.8499L50.5705 12.9398L50.6154 13.0246L50.6604 13.1095L50.7053 13.1544L50.7502 13.2393L50.7952 13.2842L50.8401 13.3691L50.885 13.454L50.9299 13.4989L50.9749 13.5438L51.0198 13.6287L51.0647 13.6736L51.1097 13.7635L51.1546 13.8084L51.1995 13.8534L51.2445 13.8983L51.2894 13.9832L51.3343 14.0281L51.3792 14.073L51.4242 14.1179L51.4691 14.1629L51.514 14.2078L51.559 14.2927L51.6039 14.3376L51.6488 14.3825L51.6937 14.4275L51.7387 14.4724L51.7836 14.5173L51.8285 14.5622L51.8735 14.6072L51.9184 14.6521L51.9633 14.697L52.0083 14.742L52.0532 14.7869L52.1381 14.8318L52.183 14.8768L52.2279 14.9217L52.2728 14.9666L52.3627 15.0115L52.4076 15.0565L52.4526 15.1014L52.5374 15.1463L52.5824 15.1913L52.6672 15.2362L52.7571 15.2811L52.802 15.3261L52.8869 15.371L52.9718 15.4159L53.0616 15.4608L53.1465 15.5058L53.2313 15.5507L53.3611 15.5956L53.446 15.6406L53.5758 15.6855L53.7056 15.7304L53.8354 15.7754L54.0101 15.8203L54.1849 15.8652L54.4045 15.9101L54.6242 15.9551L54.9736 16H56.676L57.0254 15.9551L57.2451 15.9101L57.4647 15.8652L57.6395 15.8203L57.8142 15.7754L57.944 15.7304L58.0738 15.6855L58.2036 15.6406L58.2934 15.5956L58.4232 15.5507L58.5081 15.5058L58.593 15.4608L58.6778 15.4159L58.7627 15.371L58.8476 15.3261L58.8925 15.2811L58.9824 15.2362L59.0672 15.1913L59.1122 15.1463L59.197 15.1014L59.242 15.0565L59.2869 15.0115L59.3718 14.9666L59.4167 14.9217L59.4616 14.8768L59.5065 14.8318L59.5914 14.7869L59.6363 14.742L59.6813 14.697L59.7262 14.6521L59.7711 14.6072L59.8161 14.5622L59.861 14.5173L59.9059 14.4724L59.9508 14.4275L59.9958 14.3825L60.0407 14.3376L60.0856 14.2927L60.1306 14.2477L60.1755 14.1629L60.2204 14.1179L60.2654 14.073L60.3103 14.0281L60.3552 13.9832L60.4001 13.9382L60.4451 13.8534L60.49 13.8084L60.5349 13.7635L60.5799 13.6736L60.6248 13.6287L60.6697 13.5438L60.7147 13.4989L60.7596 13.454L60.8045 13.3691L60.8494 13.2842L60.8944 13.2393L60.9393 13.1544L60.9842 13.0696L61.0292 13.0246L61.0741 12.9398L61.119 12.8499L61.1639 12.7651L61.2089 12.6802L61.2538 12.5953L61.2987 12.5105L61.3437 12.4256L61.3886 12.2958L61.4335 12.2109L61.4785 12.1261L61.5234 11.9963L61.5683 11.8665L61.6132 11.7367L61.6582 11.6069L61.7031 11.4771L61.748 11.3473L61.793 11.1725L61.8379 10.9978L61.8828 10.8231L61.9278 10.6034L61.9727 10.3838L62.0176 10.1242L62.0625 9.77473L62.1075 9.38034L62.1524 8.77129V7.19875L62.1075 6.54477L62.0625 6.15039L62.0176 5.84587L61.9727 5.58627L61.9278 5.32668L61.8828 5.10702L61.8379 4.93229L61.793 4.75757L61.748 4.62777L61.7031 4.45304L61.6582 4.32324L61.6132 4.19345L61.5683 4.06365L61.5234 3.93385L61.4785 3.84399L61.4335 3.7142L61.3886 3.62933L61.3437 3.49953L61.2987 3.41466L61.2538 3.32481L61.2089 3.23994L61.1639 3.15008L61.119 3.06521L61.0741 2.97535L61.0292 2.93042L60.9842 2.84555L60.9393 2.76069L60.8944 2.71576L60.8494 2.63089L60.8045 2.54602L60.7596 2.50109L60.7147 2.41622L60.6697 2.37129L60.6248 2.32637L60.5799 2.2415L60.5349 2.19657L60.49 2.15164L60.4451 2.10671L60.4001 2.02184L60.3552 1.97691L60.3103 1.93198L60.2654 1.88705L60.2204 1.84212L60.1755 1.79719L60.1306 1.71232L60.0856 1.66739L60.0407 1.62246L59.9958 1.57754L59.9508 1.53261L59.9059 1.48768L59.861 1.44275L59.8161 1.39782L59.7711 1.35289L59.7262 1.30796L59.6813 1.26303L59.6363 1.2181L59.5914 1.17317L59.5065 1.12824L59.4067 1.09329L59.3618 1.04836L59.3168 1.00343L59.232 0.958502L59.187 0.913573L59.1421 0.868643L59.0572 0.823713L59.0123 0.778783L58.9274 0.733853L58.8376 0.688924L58.7927 0.643994L58.7078 0.599064L58.6229 0.554134L58.5381 0.509204L58.4532 0.464275L58.3683 0.419345L58.2385 0.374415L58.1487 0.329485L58.0189 0.284555L57.8891 0.239626L57.7593 0.194696L57.5845 0.149766L57.4098 0.104836L57.1902 0.0599064L56.9705 0.0149766L56.6111 0H54.9087L54.5593 0.0449298ZM59.187 9.03588L59.1421 9.43027L59.0972 9.73479L59.0523 9.99438L59.0073 10.1691L58.9624 10.3438L58.9175 10.5186L58.8725 10.6484L58.8276 10.7782L58.7827 10.908L58.7377 11.0378L58.6928 11.1276L58.6479 11.2574L58.603 11.3423L58.558 11.4321L58.5131 11.517L58.4682 11.6019L58.4232 11.6867L58.3783 11.7317L58.3334 11.8165L58.2884 11.8615L58.2435 11.9463L58.1986 11.9913L58.1537 12.0811L58.1087 12.1261L58.0638 12.171L58.0189 12.2559L57.9739 12.3008L57.929 12.3457L57.8841 12.3906L57.8391 12.4356L57.7942 12.4805L57.7493 12.5254L57.7044 12.5704L57.6594 12.6153L57.6145 12.6602L57.5296 12.7051L57.4847 12.7501L57.4398 12.795L57.3549 12.8399L57.31 12.8849L57.2251 12.9298L57.1352 12.9747L57.0504 13.0197L56.9655 13.0646L56.8757 13.1095L56.7459 13.1544L56.6161 13.1994L56.4863 13.2443L56.2666 13.2892H55.2182L54.9586 13.2443L54.8289 13.1994L54.6991 13.1544L54.5693 13.1095L54.4794 13.0646L54.3945 13.0197L54.3097 12.9747L54.2248 12.9298L54.1399 12.8849L54.095 12.8399L54.0101 12.795L53.9652 12.7501L53.9203 12.7051L53.8304 12.6602L53.7855 12.6153L53.7406 12.5704L53.6956 12.5254L53.6507 12.4805L53.6058 12.4356L53.5608 12.3906L53.5159 12.3457L53.471 12.3008L53.426 12.2559L53.3811 12.2109L53.3362 12.1261L53.2913 12.0811L53.2463 12.0362L53.2014 11.9513L53.1565 11.9064L53.1115 11.8215L53.0666 11.7766L53.0217 11.6917L52.9767 11.6069L52.9318 11.5619L52.8869 11.4771L52.842 11.3922L52.797 11.2624L52.7521 11.1725L52.7072 11.0877L52.6622 10.9579L52.6173 10.8281L52.5724 10.7432L52.5274 10.5685L52.4825 10.4387L52.4376 10.264L52.3927 10.0892L52.3477 9.86958L52.3028 9.60998L52.2579 9.26053L52.2129 8.78128V7.20874L52.2579 6.72949L52.3028 6.38003L52.3477 6.12044L52.3927 5.90078L52.4376 5.72605L52.4825 5.55133L52.5274 5.42153L52.5724 5.2468L52.6173 5.16193L52.6622 5.03214L52.7072 4.90234L52.7521 4.81747L52.797 4.73261L52.842 4.60281L52.8869 4.51794L52.9318 4.43307L52.9767 4.38814L53.0217 4.30328L53.0666 4.21841L53.1115 4.17348L53.1565 4.08861L53.2014 4.04368L53.2463 3.95881L53.2913 3.91388L53.3362 3.86895L53.3811 3.78409L53.426 3.73916L53.471 3.69423L53.5159 3.6493L53.5608 3.60437L53.6058 3.55944L53.6507 3.51451L53.6956 3.46958L53.7406 3.42465L53.7855 3.37972L53.8304 3.33479L53.9203 3.28986L53.9652 3.24493L54.0101 3.2L54.095 3.15507L54.1399 3.11014L54.2248 3.06521L54.3097 3.02028L54.3945 2.97535L54.4794 2.93042L54.5693 2.88549L54.6991 2.84056L54.8289 2.79563L54.9586 2.7507L55.2182 2.70577H56.2666L56.4863 2.7507L56.6161 2.79563L56.7459 2.84056L56.8757 2.88549L56.9655 2.93042L57.0504 2.97535L57.1352 3.02028L57.2251 3.06521L57.31 3.11014L57.3549 3.15507L57.4398 3.2L57.4847 3.24493L57.5296 3.28986L57.6145 3.33479L57.6594 3.37972L57.7044 3.42465L57.7493 3.46958L57.7942 3.51451L57.8391 3.55944L57.8841 3.60437L57.929 3.6493L57.9739 3.69423L58.0189 3.7791L58.0638 3.82402L58.1087 3.86895L58.1537 3.91388L58.1986 3.99875L58.2435 4.04368L58.2884 4.12855L58.3334 4.17348L58.3783 4.26334L58.4232 4.34821L58.4682 4.39314L58.5131 4.478L58.558 4.56287L58.603 4.64774L58.6479 4.73261L58.6928 4.8624L58.7377 4.94727L58.7827 5.07707L58.8276 5.20686L58.8725 5.33666L58.9175 5.46646L58.9624 5.64119L59.0073 5.81591L59.0523 6.03557L59.0972 6.25523L59.1421 6.55975L59.187 6.95413L59.232 7.73791V8.26209L59.187 9.03588Z" fill="#EA741C"/>
<path fill-rule="evenodd" clip-rule="evenodd" d="M7.68359 6.76443L7.72852 6.93916L7.76846 7.11389L7.81339 7.28861L7.85832 7.46334L7.90325 7.63807L7.94319 7.8128L7.98812 8.03245L8.03305 8.20718L8.07798 8.38191L8.11792 8.55663L8.16284 8.73136L8.20777 8.90609L8.24771 9.08081L8.29264 9.25554L8.33757 9.47021L8.3825 9.64493L8.42244 9.81966L8.46737 9.99439L8.5123 10.1691L8.55723 10.3438L8.59717 10.5186L8.6421 10.7382L8.68703 10.913L8.73196 11.0877L8.77189 11.2624L8.81682 11.4371L8.86175 11.6119L8.90668 11.7866L8.94662 12.0013L8.99155 12.176L9.03648 12.3507L9.08141 12.5254L9.12135 12.7002L9.16628 12.8749L9.21121 13.0496L9.25614 13.2243L9.29607 13.444L9.341 13.6187L9.38593 13.7935L9.43086 13.9682L9.4708 14.1429L9.51573 14.3176L9.56066 14.4924L9.60559 14.707L9.64553 14.8818L9.69046 15.0565L9.73539 15.2312L9.77533 15.4059L9.82026 15.5807H11.9619L12.0018 15.4958L12.0468 15.2761L12.0917 15.0565L12.1366 14.7969L12.1766 14.5772L12.2215 14.3576L12.2664 14.098L12.3114 13.8783L12.3513 13.6637L12.3962 13.3991L12.4412 13.1794L12.4861 12.9647L12.526 12.7002L12.571 12.4855L12.6159 12.2658L12.6608 12.0013L12.7008 11.7866L12.7457 11.5669L12.7906 11.3023L12.8355 11.0877L12.8755 10.868L12.9204 10.6084L12.9653 10.3888L13.0053 10.1691L13.0502 9.90952L13.0951 9.68986L13.1401 9.47021L13.165 9.20562L13.18 9.34041L13.2249 9.56007L13.2699 9.81966L13.3148 10.0393L13.3547 10.259L13.3997 10.5186L13.4446 10.7382L13.4895 10.9978L13.5295 11.2175L13.5744 11.4371L13.6193 11.6967L13.6642 11.9164L13.7042 12.176L13.7491 12.3956L13.794 12.6153L13.839 12.8749L13.8789 13.0945L13.9238 13.3541L13.9688 13.5738L14.0137 13.7935L14.0536 14.053L14.0986 14.2727L14.1435 14.4924L14.1884 14.752L14.2284 14.9716L14.2733 15.2312L14.3182 15.4509L14.3582 15.5807H16.4549L16.4998 15.5407L16.5447 15.366L16.5847 15.1913L16.6296 15.0165L16.6745 14.8418L16.7195 14.6671L16.7594 14.4924L16.8043 14.3176L16.8493 14.1429L16.8942 13.9682L16.9341 13.7935L16.9791 13.6187L17.024 13.444L17.0689 13.2693L17.1089 13.0945L17.1538 12.9198L17.1987 12.7451L17.2437 12.5704L17.2836 12.3956L17.3285 12.2209L17.3735 12.0462L17.4184 11.8715L17.4583 11.6967L17.5033 11.522L17.5482 11.3473L17.5931 11.1725L17.633 10.9978L17.678 10.8231L17.7229 10.6484L17.7678 10.4736L17.8078 10.2989L17.8527 10.1242L17.8976 9.94946L17.9376 9.77473L17.9825 9.6L18.0274 9.43027L18.0724 9.25554L18.1123 9.08081L18.1572 8.90609L18.2022 8.73136L18.2471 8.55663L18.287 8.38191L18.332 8.20718L18.3769 8.03245L18.4218 7.85773L18.4618 7.683L18.5067 7.50827L18.5516 7.33354L18.5965 7.15882L18.6365 6.98409L18.6814 6.80936L18.7263 6.63464V6.58971H16.5447L16.4998 6.80936L16.4549 7.02902L16.41 7.28861L16.37 7.50827L16.3251 7.72294L16.2802 7.98752L16.2352 8.20718L16.1953 8.42184L16.1504 8.68643L16.1054 8.90609L16.0655 9.12075L16.0206 9.38534L15.9756 9.6L15.9307 9.81966L15.8908 10.0842L15.8458 10.2989L15.8009 10.5635L15.756 10.7832L15.716 10.9978L15.6711 11.2624L15.6262 11.4771L15.5813 11.6967L15.5413 11.9613L15.4964 12.176L15.4515 12.3956L15.4065 12.6552V12.8749H15.3666V12.6552L15.3217 12.4406L15.2767 12.176L15.2318 11.9613L15.1919 11.6967L15.1469 11.4771L15.102 11.2175L15.0571 10.9978L15.0171 10.7382L14.9722 10.5186L14.9273 10.259L14.8823 10.0393L14.8424 9.77473L14.7975 9.56007L14.7525 9.29548L14.7076 9.08081L14.6677 8.81623L14.6228 8.59657L14.5778 8.33698L14.5379 8.11732L14.493 7.85773L14.448 7.63807L14.4031 7.37847L14.3582 7.15882L14.3182 6.89423L14.2733 6.67957L14.2284 6.58971H12.1366L12.0917 6.76443L12.0468 7.02902L12.0018 7.28861L11.9619 7.50827L11.917 7.76787L11.872 8.03245L11.8271 8.29205L11.7872 8.5117L11.7423 8.7713L11.6973 9.03588L11.6524 9.29548L11.6125 9.56007L11.5675 9.77473L11.5226 10.0393L11.4777 10.2989L11.4377 10.5635L11.3928 10.7832L11.3479 11.0427L11.3029 11.3023L11.263 11.5669L11.2181 11.8265L11.1731 12.0462L11.1332 12.3108L11.0883 12.5704L11.0583 12.8349L11.0433 12.6552L10.9984 12.4406L10.9585 12.2209L10.9135 11.9613L10.8686 11.7417L10.8237 11.522L10.7837 11.2624L10.7388 11.0427L10.6939 10.8231L10.649 10.5635L10.609 10.3438L10.5641 10.1242L10.5192 9.86459L10.4742 9.64493L10.4343 9.43027L10.3894 9.16568L10.3444 8.94602L10.2995 8.73136L10.2596 8.46677L10.2146 8.24712L10.1697 8.03245L10.1248 7.76787L10.0848 7.5532L10.0399 7.33354L9.99498 7.06896L9.95005 6.85429L9.91011 6.63464L9.86518 6.58971H7.68359V6.76443Z" fill="#EA741C"/>
<path fill-rule="evenodd" clip-rule="evenodd" d="M36.6621 15.5807H38.7139L38.7588 10.5186L38.8038 9.99439L38.8437 9.7348L38.8886 9.56007L38.9336 9.43027L38.9785 9.29548L39.0184 9.21061L39.0634 9.12075L39.1083 9.03589L39.1532 8.94603L39.1932 8.90609L39.2381 8.81623L39.283 8.7713L39.3279 8.73136L39.3679 8.68643L39.4128 8.6415L39.5027 8.59657L39.5426 8.55664L39.6325 8.51171L39.7173 8.46678L39.8072 8.42185L39.9819 8.38191H40.6808L40.8106 8.42185L40.8955 8.46678L40.9854 8.51171L41.0303 8.55664L41.1152 8.59657L41.1601 8.6415L41.205 8.73136L41.2449 8.7713L41.2899 8.86116L41.3348 8.94603L41.3797 9.03589L41.4197 9.16568L41.4646 9.34041L41.5095 9.56007L41.5545 15.5807H43.6911V9.90952L43.6462 8.7713L43.6013 8.42185L43.5613 8.24712L43.5164 8.11732L43.4715 7.98753L43.4315 7.85773L43.3866 7.76787L43.3417 7.683L43.2967 7.63807L43.2568 7.5532L43.2119 7.46334L43.1669 7.41841L43.122 7.37848L43.0821 7.28862L43.0371 7.24369L42.9922 7.20375L42.9473 7.15882L42.9073 7.11389L42.8624 7.06896L42.8175 7.02902L42.7726 6.98409L42.7326 6.93916L42.6877 6.89423L42.6428 6.8543L42.5579 6.80937L42.513 6.76444L42.4231 6.71951L42.3832 6.67957L42.2933 6.63464L42.2084 6.58971L42.1186 6.54478L41.9888 6.50484L41.859 6.45991L41.6843 6.41498L41.5095 6.37005H40.4612L40.2415 6.41498L40.1117 6.45991L39.9819 6.50484L39.8921 6.54478L39.8072 6.58971L39.7173 6.63464L39.6325 6.67957L39.5426 6.71951L39.5027 6.76444L39.4128 6.80937L39.3679 6.8543L39.3279 6.89423L39.283 6.93916L39.2381 6.98409L39.1932 7.02902L39.1532 7.06896L39.1083 7.11389L39.0634 7.15882L39.0184 7.20375L38.9785 7.24369L38.9336 7.33355L38.8886 7.37848L38.8437 7.46334L38.8038 7.50827L38.7588 7.59314L38.7139 3.44962H36.6621V15.5807Z" fill="#EA741C"/>
<path fill-rule="evenodd" clip-rule="evenodd" d="M111.739 6.41498L111.565 6.45991L111.39 6.50484L111.305 6.54977L111.175 6.5947L111.09 6.63963L111.006 6.68456L110.921 6.72949L110.831 6.77442L110.746 6.81935L110.701 6.86428L110.616 6.90921L110.571 6.95414L110.486 6.99907L110.441 7.044L110.397 7.08893L110.312 7.13386L110.267 7.17879L110.222 7.22372L110.177 7.26865L110.132 7.31358L110.087 7.35851L110.042 7.40344L109.997 7.44837L109.952 7.4933L109.907 7.53823L109.862 7.58316L109.817 7.66803L109.773 7.71296L109.728 7.75789L109.683 7.80282L109.638 7.88768L109.593 7.93261L109.553 7.98753L109.508 8.03246L109.463 8.11732L109.418 8.20219L109.373 8.28706L109.328 8.37193L109.283 8.45679L109.238 8.54166L109.193 8.63152L109.149 8.76132L109.104 8.89111L109.059 9.02091L109.014 9.19564L108.969 9.32544L108.924 9.54509L108.879 9.76475L108.834 10.0693L108.789 10.5485V11.7716L108.834 12.2509L108.879 12.5554L108.924 12.775L108.969 12.9498L109.014 13.1245L109.059 13.2992L109.104 13.3841L109.149 13.5139L109.193 13.6437L109.238 13.7286L109.283 13.8134L109.328 13.8983L109.373 13.9832L109.418 14.068L109.463 14.1579L109.508 14.2028L109.553 14.2877L109.598 14.3326L109.643 14.3775L109.688 14.4624L109.733 14.5073L109.778 14.5523L109.822 14.5972L109.867 14.6421L109.912 14.6871L109.957 14.732L110.002 14.7769L110.047 14.8218L110.092 14.8668L110.137 14.9117L110.182 14.9566L110.267 15.0016L110.312 15.0465L110.357 15.0914L110.402 15.1364L110.486 15.1813L110.531 15.2262L110.621 15.2711L110.666 15.3161L110.751 15.361L110.836 15.4059L110.881 15.4509L110.966 15.4958L111.056 15.5407L111.185 15.5857L111.27 15.6306L111.4 15.6755L111.53 15.7204L111.66 15.7654L111.834 15.8103L112.054 15.8552H113.362L113.582 15.8103L113.801 15.7654L113.931 15.7204L114.061 15.6755L114.191 15.6306L114.28 15.5857L114.365 15.5407L114.45 15.4958L114.54 15.4509L114.625 15.4059L114.71 15.361L114.755 15.3161L114.84 15.2711L114.885 15.2262L114.929 15.1813L115.014 15.1364L115.059 15.0914L115.104 15.0465L115.149 15.0016L115.194 14.9566L115.239 14.9117L115.284 14.8668L115.329 14.8218L115.374 14.7769L115.419 14.732L115.464 14.6871L115.509 14.6421L115.553 14.5972L115.598 14.5073L115.643 14.4624L115.688 14.4175L115.733 14.3326L115.778 14.2877L115.823 14.2028L115.868 14.1579L115.913 14.068L115.958 14.0231L116.003 13.9332L116.048 13.8484L116.093 13.7635L116.138 13.6736L116.183 13.5438L116.227 13.459L116.272 13.2843L116.317 13.1095V12.8899H114.221L114.176 12.9348L114.131 13.0197L114.086 13.1045L114.041 13.1944L113.996 13.2793L113.951 13.3242L113.906 13.4091L113.861 13.454L113.816 13.4989L113.771 13.5438L113.726 13.5888L113.681 13.6337L113.597 13.6786L113.552 13.7236L113.467 13.7685L113.377 13.8134L113.247 13.8584L113.117 13.9033H112.334L112.204 13.8584L112.074 13.8134L111.989 13.7685L111.904 13.7236L111.814 13.6786L111.729 13.6337L111.685 13.5888L111.64 13.5438L111.595 13.4989L111.55 13.454L111.505 13.4091L111.46 13.3641L111.415 13.3192L111.37 13.2743L111.325 13.1894L111.28 13.1445L111.235 13.0596L111.19 12.9697L111.145 12.8849L111.1 12.7551L111.056 12.6253L111.011 12.4506L110.966 12.2309L110.921 11.8365L110.876 11.7516H116.377V10.1392L116.332 9.78971L116.287 9.53012L116.242 9.35539L116.197 9.18066L116.153 9.00594L116.108 8.87614L116.063 8.74634L116.018 8.66147L115.973 8.53168L115.928 8.44681L115.883 8.36194L115.838 8.27707L115.793 8.19221L115.748 8.10734L115.703 8.02247L115.663 7.98753L115.618 7.90266L115.573 7.85773L115.529 7.77286L115.484 7.72793L115.439 7.64306L115.394 7.59814L115.349 7.55321L115.319 7.50828L115.274 7.46335L115.229 7.37848L115.184 7.33355L115.139 7.28862L115.094 7.24369L115.049 7.19876L114.959 7.15383L114.914 7.1089L114.87 7.06397L114.825 7.01904L114.78 6.97411L114.695 6.92918L114.65 6.88425L114.56 6.83932L114.515 6.79439L114.425 6.74946L114.34 6.70453L114.256 6.6596L114.166 6.61467L114.036 6.56974L113.906 6.52481L113.821 6.47988L113.646 6.43495L113.472 6.39002L113.212 6.34509H111.944L111.739 6.41498ZM110.996 9.90952L111.041 9.7348L111.085 9.56007L111.13 9.43027L111.175 9.3454L111.22 9.21561L111.265 9.13074L111.31 9.08581L111.355 9.00094L111.4 8.95601L111.445 8.87115L111.49 8.82622L111.535 8.78129L111.58 8.73636L111.625 8.69143L111.67 8.6465L111.714 8.60157L111.799 8.55664L111.889 8.51171L111.974 8.46678L112.059 8.42185L112.234 8.37692H112.978L113.152 8.42185L113.237 8.46678L113.367 8.51171L113.412 8.55664L113.497 8.60157L113.542 8.6465L113.627 8.69143L113.671 8.73636L113.716 8.78129L113.761 8.82622L113.806 8.87115L113.851 8.95601L113.896 9.00094L113.941 9.04587L113.986 9.13074L114.031 9.21561L114.076 9.30047L114.121 9.43027L114.166 9.56007L114.211 9.7348L114.256 10.0393L114.3 10.1691H110.976L110.996 9.90952Z" fill="#0073B8"/>
<path fill-rule="evenodd" clip-rule="evenodd" d="M78.5213 6.41497L78.3466 6.4599L78.2168 6.50483L78.087 6.54477L77.9971 6.5897L77.8673 6.63463L77.7774 6.67956L77.6926 6.71949L77.6476 6.76442L77.5628 6.80935L77.4729 6.85428L77.428 6.89422L77.3881 6.93915L77.2982 6.98408L77.2533 7.02901L77.2133 7.06895L77.1684 7.11388L77.1235 7.15881L77.0785 7.20374L77.0386 7.24368L76.9937 7.28861L76.9487 7.33354L76.9088 7.37847L76.8639 7.46333L76.8189 7.50826L76.774 7.55319L76.7341 7.63806L76.6891 7.68299L76.6442 7.76786L76.5993 7.81279L76.5593 7.90265L76.5144 7.98751L76.4695 8.07238L76.4246 8.20717L76.3846 8.29204L76.3397 8.42184L76.2948 8.59656L76.2498 8.81622V9.90951L76.2948 10.1242L76.3397 10.2989L76.3846 10.4337L76.4246 10.5186L76.4695 10.6084L76.5144 10.6933L76.5593 10.7382L76.5993 10.8231L76.6442 10.868L76.6891 10.9129L76.7341 10.9579L76.774 10.9978L76.8189 11.0427L76.8639 11.0877L76.9088 11.1326L76.9487 11.1725L76.9937 11.2175L77.0785 11.2624L77.1235 11.3023L77.2133 11.3473L77.2533 11.3922L77.3431 11.4371L77.428 11.4771L77.5178 11.522L77.6027 11.5669L77.6926 11.6119L77.7774 11.6518L77.9122 11.6967L77.9971 11.7416L78.1269 11.7866L78.2617 11.8265L78.3915 11.8714L78.5213 11.9164L78.696 11.9613L78.8258 12.0012L79.0005 12.0462L79.1303 12.0911L79.3051 12.136L79.4398 12.176L79.6146 12.2209L79.7444 12.2658L79.8742 12.3108L80.004 12.3507L80.1388 12.3956L80.2685 12.4406L80.3983 12.4855L80.4832 12.5254L80.5731 12.5704L80.6579 12.6153L80.7478 12.6552L80.7927 12.7002L80.8327 12.7451L80.8776 12.8299L80.9225 12.9198L80.9675 13.0496V13.3142L80.9225 13.444L80.8776 13.5289L80.8327 13.6187L80.7927 13.6636L80.7478 13.7036L80.6579 13.7485L80.5731 13.7934L80.4832 13.8384L80.3534 13.8783L80.1787 13.9232H79.1753L79.0005 13.8783L78.8707 13.8384L78.7409 13.7934L78.6511 13.7485L78.5662 13.7036L78.5213 13.6636L78.4763 13.6187L78.4364 13.5738L78.3915 13.5289L78.3466 13.4889L78.3016 13.3991L78.2617 13.3142L78.2168 13.2243L78.1718 13.0496L78.1269 12.8299L78.087 12.6552H75.9902V13.0047L76.0352 13.3541L76.0751 13.5738L76.12 13.7036L76.165 13.8783L76.2099 13.9682L76.2498 14.098L76.2948 14.1878L76.3397 14.2727L76.3846 14.3576L76.4246 14.4025L76.4695 14.4924L76.5144 14.5772L76.5593 14.6221L76.5993 14.6671L76.6442 14.7519L76.6891 14.7969L76.7341 14.8418L76.774 14.8817L76.8189 14.9267L76.8639 14.9716L76.9088 15.0165L76.9487 15.0565L76.9937 15.1014L77.0386 15.1463L77.0785 15.1913L77.1235 15.2312L77.2133 15.2761L77.2533 15.3211L77.3431 15.366L77.3881 15.4059L77.4729 15.4509L77.5628 15.4958L77.6476 15.5407L77.7375 15.5806L77.8673 15.6256L77.9971 15.6705L78.1269 15.7154L78.3016 15.7554L78.5213 15.8003L78.7809 15.8452H80.3534L80.618 15.8003L80.8327 15.7554L81.0074 15.7154L81.1422 15.6705L81.272 15.6256L81.4018 15.5806L81.4916 15.5407L81.5765 15.4958L81.6664 15.4509L81.7512 15.4059L81.8361 15.366L81.881 15.3211L81.926 15.2761L82.0108 15.2312L82.0558 15.1913L82.1007 15.1463L82.1456 15.1014L82.1856 15.0565L82.2305 15.0165L82.2754 14.9716L82.3203 14.9267L82.3603 14.8817L82.4052 14.8418L82.4501 14.7969L82.4951 14.7519L82.535 14.6671L82.5799 14.6221L82.6249 14.5772L82.6698 14.4924L82.7097 14.4025L82.7547 14.3176L82.7996 14.2278L82.8445 14.1429L82.8845 14.053L82.9294 13.9232L82.9743 13.7934L83.0193 13.6187L83.0592 13.3541V12.3507L83.0193 12.136L82.9743 11.9613L82.9294 11.8265L82.8845 11.7416L82.8445 11.6518L82.7996 11.5669L82.7547 11.4771L82.7097 11.3922L82.6698 11.3473L82.6249 11.3023L82.5799 11.2175L82.535 11.1725L82.4951 11.1326L82.4501 11.0877L82.4052 11.0427L82.3603 10.9978L82.3203 10.9579L82.2754 10.9129L82.2305 10.868L82.1856 10.8231L82.1007 10.7831L82.0558 10.7382L82.0108 10.6933L81.926 10.6484L81.8361 10.6084L81.7962 10.5635L81.7063 10.5186L81.6214 10.4736L81.5316 10.4337L81.4467 10.3888L81.3568 10.3438L81.2271 10.2989L81.0973 10.259L80.9675 10.214L80.8327 10.1691L80.7029 10.1242L80.5281 10.0842L80.3534 10.0393L80.1787 9.99438L80.004 9.94945L79.8742 9.90951L79.6994 9.86458L79.5247 9.81965L79.3949 9.77472L79.2651 9.73478L79.0904 9.68985L78.9556 9.64492L78.8258 9.59999L78.7409 9.56006L78.6511 9.51513L78.5662 9.4702L78.4763 9.43026L78.4364 9.3404L78.3915 9.29547L78.3466 9.2106L78.3016 8.99095V8.90608L78.3466 8.73135L78.3915 8.64149L78.4364 8.55662L78.4763 8.51169L78.5213 8.46676L78.5662 8.42184L78.6511 8.3819L78.7409 8.33697L78.8258 8.29204L79.0005 8.24711H79.8742L80.0489 8.29204L80.1787 8.33697L80.2685 8.3819L80.3085 8.42184L80.3983 8.46676L80.4433 8.51169L80.4832 8.55662L80.5281 8.59656L80.5731 8.68642L80.618 8.73135L80.6579 8.81622L80.7029 8.94602L80.7478 9.12074L80.7927 9.38533H82.8445V8.99095L82.7996 8.73135L82.7547 8.51169L82.7097 8.3819L82.6698 8.20717L82.6249 8.11731L82.5799 7.98751L82.535 7.90265L82.4951 7.81279L82.4501 7.72293L82.4052 7.63806L82.3603 7.59313L82.3203 7.50826L82.2754 7.46333L82.2305 7.37847L82.1856 7.33354L82.1456 7.28861L82.1007 7.24368L82.0558 7.20374L82.0108 7.15881L81.9709 7.11388L81.926 7.06895L81.8361 7.02901L81.7962 6.98408L81.7512 6.93915L81.6664 6.89422L81.6214 6.85428L81.5316 6.80935L81.4467 6.76442L81.3568 6.71949L81.272 6.67956L81.1821 6.63463L81.0523 6.5897L80.9225 6.54477L80.7927 6.50483L80.6579 6.4599L80.4433 6.41497L80.1787 6.37004H78.7809L78.5213 6.41497Z" fill="#0073B8"/>
<path fill-rule="evenodd" clip-rule="evenodd" d="M127.625 6.41497L127.45 6.4599L127.32 6.50483L127.19 6.54477L127.101 6.5897L126.971 6.63463L126.881 6.67956L126.796 6.71949L126.751 6.76442L126.666 6.80935L126.576 6.85428L126.536 6.89422L126.492 6.93915L126.402 6.98408L126.362 7.02901L126.317 7.06895L126.272 7.11388L126.227 7.15881L126.187 7.20374L126.142 7.24368L126.097 7.28861L126.052 7.33354L126.012 7.37847L125.967 7.46333L125.922 7.50826L125.878 7.55319L125.838 7.63806L125.793 7.68299L125.748 7.76786L125.703 7.81279L125.663 7.90265L125.618 7.98751L125.573 8.07238L125.528 8.20717L125.488 8.29204L125.443 8.42184L125.398 8.59656L125.353 8.81622V9.90951L125.398 10.1242L125.443 10.2989L125.488 10.4337L125.528 10.5186L125.573 10.6084L125.618 10.6933L125.663 10.7382L125.703 10.8231L125.748 10.868L125.793 10.9129L125.838 10.9579L125.878 10.9978L125.922 11.0427L125.967 11.0877L126.012 11.1326L126.052 11.1725L126.097 11.2175L126.187 11.2624L126.227 11.3023L126.317 11.3473L126.362 11.3922L126.447 11.4371L126.536 11.4771L126.621 11.522L126.711 11.5669L126.796 11.6119L126.881 11.6518L127.016 11.6967L127.101 11.7416L127.23 11.7866L127.365 11.8265L127.495 11.8714L127.625 11.9164L127.8 11.9613L127.929 12.0012L128.104 12.0462L128.239 12.0911L128.409 12.136L128.543 12.176L128.718 12.2209L128.848 12.2658L128.978 12.3108L129.107 12.3507L129.242 12.3956L129.372 12.4406L129.502 12.4855L129.592 12.5254L129.677 12.5704L129.766 12.6153L129.851 12.6552L129.896 12.7002L129.936 12.7451L129.981 12.8299L130.026 12.9198L130.071 13.0496V13.3142L130.026 13.444L129.981 13.5289L129.936 13.6187L129.896 13.6636L129.851 13.7036L129.766 13.7485L129.677 13.7934L129.592 13.8384L129.457 13.8783L129.282 13.9232H128.279L128.104 13.8783L127.974 13.8384L127.844 13.7934L127.755 13.7485L127.67 13.7036L127.625 13.6636L127.58 13.6187L127.54 13.5738L127.495 13.5289L127.45 13.4889L127.405 13.3991L127.365 13.3142L127.32 13.2243L127.275 13.0496L127.23 12.8299L127.19 12.6552H125.094V13.0047L125.139 13.3541L125.184 13.5738L125.224 13.7036L125.268 13.8783L125.313 13.9682L125.353 14.098L125.398 14.1878L125.443 14.2727L125.488 14.3576L125.528 14.4025L125.573 14.4924L125.618 14.5772L125.663 14.6221L125.703 14.6671L125.748 14.7519L125.793 14.7969L125.838 14.8418L125.878 14.8817L125.922 14.9267L125.967 14.9716L126.012 15.0165L126.052 15.0565L126.097 15.1014L126.142 15.1463L126.187 15.1913L126.227 15.2312L126.317 15.2761L126.362 15.3211L126.447 15.366L126.492 15.4059L126.576 15.4509L126.666 15.4958L126.751 15.5407L126.841 15.5806L126.971 15.6256L127.101 15.6705L127.23 15.7154L127.405 15.7554L127.625 15.8003L127.889 15.8452H129.457L129.722 15.8003L129.936 15.7554L130.111 15.7154L130.246 15.6705L130.375 15.6256L130.505 15.5806L130.595 15.5407L130.68 15.4958L130.77 15.4509L130.855 15.4059L130.945 15.366L130.985 15.3211L131.029 15.2761L131.119 15.2312L131.159 15.1913L131.204 15.1463L131.249 15.1014L131.294 15.0565L131.334 15.0165L131.379 14.9716L131.424 14.9267L131.469 14.8817L131.509 14.8418L131.554 14.7969L131.599 14.7519L131.639 14.6671L131.683 14.6221L131.728 14.5772L131.773 14.4924L131.813 14.4025L131.858 14.3176L131.903 14.2278L131.948 14.1429L131.988 14.053L132.033 13.9232L132.078 13.7934L132.123 13.6187L132.163 13.3541V12.3507L132.123 12.136L132.078 11.9613L132.033 11.8265L131.988 11.7416L131.948 11.6518L131.903 11.5669L131.858 11.4771L131.813 11.3922L131.773 11.3473L131.728 11.3023L131.683 11.2175L131.639 11.1725L131.599 11.1326L131.554 11.0877L131.509 11.0427L131.469 10.9978L131.424 10.9579L131.379 10.9129L131.334 10.868L131.294 10.8231L131.204 10.7831L131.159 10.7382L131.119 10.6933L131.029 10.6484L130.945 10.6084L130.9 10.5635L130.81 10.5186L130.725 10.4736L130.635 10.4337L130.55 10.3888L130.46 10.3438L130.331 10.2989L130.201 10.259L130.071 10.214L129.936 10.1691L129.806 10.1242L129.632 10.0842L129.457 10.0393L129.282 9.99438L129.107 9.94945L128.978 9.90951L128.803 9.86458L128.628 9.81965L128.498 9.77472L128.369 9.73478L128.194 9.68985L128.064 9.64492L127.929 9.59999L127.844 9.56006L127.755 9.51513L127.67 9.4702L127.58 9.43026L127.54 9.3404L127.495 9.29547L127.45 9.2106L127.405 8.99095V8.90608L127.45 8.73135L127.495 8.64149L127.54 8.55662L127.58 8.51169L127.625 8.46676L127.67 8.42184L127.755 8.3819L127.844 8.33697L127.929 8.29204L128.104 8.24711H128.978L129.152 8.29204L129.282 8.33697L129.372 8.3819L129.417 8.42184L129.502 8.46676L129.547 8.51169L129.592 8.55662L129.632 8.59656L129.677 8.68642L129.722 8.73135L129.766 8.81622L129.806 8.94602L129.851 9.12074L129.896 9.38533H131.948V8.99095L131.903 8.73135L131.858 8.51169L131.813 8.3819L131.773 8.20717L131.728 8.11731L131.683 7.98751L131.639 7.90265L131.599 7.81279L131.554 7.72293L131.509 7.63806L131.469 7.59313L131.424 7.50826L131.379 7.46333L131.334 7.37847L131.294 7.33354L131.249 7.28861L131.204 7.24368L131.159 7.20374L131.119 7.15881L131.074 7.11388L131.029 7.06895L130.945 7.02901L130.9 6.98408L130.855 6.93915L130.77 6.89422L130.725 6.85428L130.635 6.80935L130.55 6.76442L130.46 6.71949L130.375 6.67956L130.286 6.63463L130.156 6.5897L130.026 6.54477L129.896 6.50483L129.766 6.4599L129.547 6.41497L129.282 6.37004H127.889L127.625 6.41497Z" fill="#0073B8"/>
<path fill-rule="evenodd" clip-rule="evenodd" d="M2.53105 6.41497L2.35632 6.4599L2.22652 6.50483L2.09672 6.54477L2.00686 6.5897L1.87707 6.63463L1.78721 6.67956L1.70234 6.71949L1.65741 6.76442L1.57254 6.80935L1.48268 6.85428L1.44275 6.89422L1.39782 6.93915L1.30796 6.98408L1.26802 7.02901L1.22309 7.06895L1.17816 7.11388L1.13323 7.15881L1.09329 7.20374L1.04836 7.24368L1.00343 7.28861L0.958502 7.33354L0.918565 7.37847L0.873635 7.46333L0.828705 7.50826L0.783775 7.55319L0.743838 7.63806L0.698908 7.68299L0.653978 7.76786L0.609048 7.81279L0.569111 7.90265L0.524181 7.98751L0.479251 8.07238L0.434321 8.20717L0.394384 8.29204L0.349454 8.42184L0.304524 8.59656L0.259594 8.81622V9.90951L0.304524 10.1242L0.349454 10.2989L0.394384 10.4337L0.434321 10.5186L0.479251 10.6084L0.524181 10.6933L0.569111 10.7382L0.609048 10.8231L0.653978 10.868L0.698908 10.9129L0.743838 10.9579L0.783775 10.9978L0.828705 11.0427L0.873635 11.0877L0.918565 11.1326L0.958502 11.1725L1.00343 11.2175L1.09329 11.2624L1.13323 11.3023L1.22309 11.3473L1.26802 11.3922L1.35289 11.4371L1.44275 11.4771L1.52761 11.522L1.61248 11.5669L1.70234 11.6119L1.78721 11.6518L1.922 11.6967L2.00686 11.7416L2.13666 11.7866L2.27145 11.8265L2.40125 11.8714L2.53105 11.9164L2.70577 11.9613L2.83557 12.0012L3.0103 12.0462L3.14509 12.0911L3.31482 12.136L3.44961 12.176L3.62434 12.2209L3.75413 12.2658L3.88393 12.3108L4.01373 12.3507L4.14852 12.3956L4.27832 12.4406L4.40811 12.4855L4.49797 12.5254L4.58284 12.5704L4.6727 12.6153L4.75757 12.6552L4.8025 12.7002L4.84743 12.7451L4.88736 12.8299L4.93229 12.9198L4.97722 13.0496V13.3142L4.93229 13.444L4.88736 13.5289L4.84743 13.6187L4.8025 13.6636L4.75757 13.7036L4.6727 13.7485L4.58284 13.7934L4.49797 13.8384L4.36318 13.8783L4.18846 13.9232H3.18502L3.0103 13.8783L2.8805 13.8384L2.7507 13.7934L2.66084 13.7485L2.57598 13.7036L2.53105 13.6636L2.48612 13.6187L2.44618 13.5738L2.40125 13.5289L2.35632 13.4889L2.31139 13.3991L2.27145 13.3142L2.22652 13.2243L2.18159 13.0496L2.13666 12.8299L2.09672 12.6552H0V13.0047L0.0449298 13.3541L0.0848674 13.5738L0.129797 13.7036L0.174727 13.8783L0.219657 13.9682L0.259594 14.098L0.304524 14.1878L0.349454 14.2727L0.394384 14.3576L0.434321 14.4025L0.479251 14.4924L0.524181 14.5772L0.569111 14.6221L0.609048 14.6671L0.653978 14.7519L0.698908 14.7969L0.743838 14.8418L0.783775 14.8817L0.828705 14.9267L0.873635 14.9716L0.918565 15.0165L0.958502 15.0565L1.00343 15.1014L1.04836 15.1463L1.09329 15.1913L1.13323 15.2312L1.22309 15.2761L1.26802 15.3211L1.35289 15.366L1.39782 15.4059L1.48268 15.4509L1.57254 15.4958L1.65741 15.5407L1.74727 15.5806L1.87707 15.6256L2.00686 15.6705L2.13666 15.7154L2.31139 15.7554L2.53105 15.8003L2.79563 15.8452H4.36318L4.62777 15.8003L4.84743 15.7554L5.01716 15.7154L5.15195 15.6705L5.28175 15.6256L5.41154 15.5806L5.5014 15.5407L5.58627 15.4958L5.67613 15.4509L5.761 15.4059L5.85086 15.366L5.8908 15.3211L5.93573 15.2761L6.02559 15.2312L6.06552 15.1913L6.11045 15.1463L6.15538 15.1014L6.20031 15.0565L6.24025 15.0165L6.28518 14.9716L6.33011 14.9267L6.37504 14.8817L6.41498 14.8418L6.45991 14.7969L6.50484 14.7519L6.54477 14.6671L6.5897 14.6221L6.63463 14.5772L6.67956 14.4924L6.7195 14.4025L6.76443 14.3176L6.80936 14.2278L6.85429 14.1429L6.89423 14.053L6.93916 13.9232L6.98409 13.7934L7.02902 13.6187L7.06895 13.3541V12.3507L7.02902 12.136L6.98409 11.9613L6.93916 11.8265L6.89423 11.7416L6.85429 11.6518L6.80936 11.5669L6.76443 11.4771L6.7195 11.3922L6.67956 11.3473L6.63463 11.3023L6.5897 11.2175L6.54477 11.1725L6.50484 11.1326L6.45991 11.0877L6.41498 11.0427L6.37504 10.9978L6.33011 10.9579L6.28518 10.9129L6.24025 10.868L6.20031 10.8231L6.11045 10.7831L6.06552 10.7382L6.02559 10.6933L5.93573 10.6484L5.85086 10.6084L5.80593 10.5635L5.71607 10.5186L5.6312 10.4736L5.54134 10.4337L5.45647 10.3888L5.36661 10.3438L5.23682 10.2989L5.10702 10.259L4.97722 10.214L4.84743 10.1691L4.71264 10.1242L4.53791 10.0842L4.36318 10.0393L4.18846 9.99438L4.01373 9.94945L3.88393 9.90951L3.7092 9.86458L3.53448 9.81965L3.40468 9.77472L3.27488 9.73478L3.10016 9.68985L2.97036 9.64492L2.83557 9.59999L2.7507 9.56006L2.66084 9.51513L2.57598 9.4702L2.48612 9.43026L2.44618 9.3404L2.40125 9.29547L2.35632 9.2106L2.31139 8.99095V8.90608L2.35632 8.73135L2.40125 8.64149L2.44618 8.55662L2.48612 8.51169L2.53105 8.46676L2.57598 8.42184L2.66084 8.3819L2.7507 8.33697L2.83557 8.29204L3.0103 8.24711H3.88393L4.05866 8.29204L4.18846 8.33697L4.27832 8.3819L4.32324 8.42184L4.40811 8.46676L4.45304 8.51169L4.49797 8.55662L4.53791 8.59656L4.58284 8.68642L4.62777 8.73135L4.6727 8.81622L4.71264 8.94602L4.75757 9.12074L4.8025 9.38533H6.85429V8.99095L6.80936 8.73135L6.76443 8.51169L6.7195 8.3819L6.67956 8.20717L6.63463 8.11731L6.5897 7.98751L6.54477 7.90265L6.50484 7.81279L6.45991 7.72293L6.41498 7.63806L6.37504 7.59313L6.33011 7.50826L6.28518 7.46333L6.24025 7.37847L6.20031 7.33354L6.15538 7.28861L6.11045 7.24368L6.06552 7.20374L6.02559 7.15881L5.98066 7.11388L5.93573 7.06895L5.85086 7.02901L5.80593 6.98408L5.761 6.93915L5.67613 6.89422L5.6312 6.85428L5.54134 6.80935L5.45647 6.76442L5.36661 6.71949L5.28175 6.67956L5.19189 6.63463L5.06209 6.5897L4.93229 6.54477L4.8025 6.50483L4.6727 6.4599L4.45304 6.41497L4.18846 6.37004H2.79563L2.53105 6.41497Z" fill="#EA741C"/>
<path fill-rule="evenodd" clip-rule="evenodd" d="M119.553 6.41497L119.378 6.4599L119.243 6.50483L119.113 6.54477L119.028 6.5897L118.894 6.63463L118.809 6.67956L118.719 6.71949L118.679 6.76442L118.589 6.80935L118.504 6.85428L118.459 6.89422L118.414 6.93915L118.329 6.98408L118.285 7.02901L118.24 7.06895L118.2 7.11388L118.155 7.15881L118.11 7.20374L118.065 7.24368L118.025 7.28861L117.98 7.33354L117.935 7.37847L117.89 7.46333L117.85 7.50826L117.805 7.55319L117.76 7.63806L117.715 7.68299L117.675 7.76786L117.631 7.81279L117.586 7.90265L117.541 7.98751L117.501 8.07238L117.456 8.20717L117.411 8.29204L117.366 8.42184L117.326 8.59656L117.281 8.81622V9.90951L117.326 10.1242L117.366 10.2989L117.411 10.4337L117.456 10.5186L117.501 10.6084L117.541 10.6933L117.586 10.7382L117.631 10.8231L117.675 10.868L117.715 10.9129L117.76 10.9579L117.805 10.9978L117.85 11.0427L117.89 11.0877L117.935 11.1326L117.98 11.1725L118.025 11.2175L118.11 11.2624L118.155 11.3023L118.24 11.3473L118.285 11.3922L118.374 11.4371L118.459 11.4771L118.549 11.522L118.634 11.5669L118.719 11.6119L118.809 11.6518L118.938 11.6967L119.028 11.7416L119.158 11.7866L119.288 11.8265L119.418 11.8714L119.553 11.9164L119.727 11.9613L119.857 12.0012L120.032 12.0462L120.162 12.0911L120.336 12.136L120.466 12.176L120.641 12.2209L120.771 12.2658L120.905 12.3108L121.035 12.3507L121.165 12.3956L121.295 12.4406L121.43 12.4855L121.514 12.5254L121.604 12.5704L121.689 12.6153L121.779 12.6552L121.819 12.7002L121.864 12.7451L121.909 12.8299L121.949 12.9198L121.994 13.0496V13.3142L121.949 13.444L121.909 13.5289L121.864 13.6187L121.819 13.6636L121.779 13.7036L121.689 13.7485L121.604 13.7934L121.514 13.8384L121.385 13.8783L121.21 13.9232H120.207L120.032 13.8783L119.902 13.8384L119.767 13.7934L119.682 13.7485L119.592 13.7036L119.553 13.6636L119.508 13.6187L119.463 13.5738L119.418 13.5289L119.378 13.4889L119.333 13.3991L119.288 13.3142L119.243 13.2243L119.203 13.0496L119.158 12.8299L119.113 12.6552H117.021V13.0047L117.061 13.3541L117.106 13.5738L117.151 13.7036L117.191 13.8783L117.236 13.9682L117.281 14.098L117.326 14.1878L117.366 14.2727L117.411 14.3576L117.456 14.4025L117.501 14.4924L117.541 14.5772L117.586 14.6221L117.631 14.6671L117.675 14.7519L117.715 14.7969L117.76 14.8418L117.805 14.8817L117.85 14.9267L117.89 14.9716L117.935 15.0165L117.98 15.0565L118.025 15.1014L118.065 15.1463L118.11 15.1913L118.155 15.2312L118.24 15.2761L118.285 15.3211L118.374 15.366L118.414 15.4059L118.504 15.4509L118.589 15.4958L118.679 15.5407L118.764 15.5806L118.894 15.6256L119.028 15.6705L119.158 15.7154L119.333 15.7554L119.553 15.8003L119.812 15.8452H121.385L121.644 15.8003L121.864 15.7554L122.039 15.7154L122.168 15.6705L122.298 15.6256L122.433 15.5806L122.518 15.5407L122.608 15.4958L122.693 15.4509L122.782 15.4059L122.867 15.366L122.912 15.3211L122.957 15.2761L123.042 15.2312L123.087 15.1913L123.132 15.1463L123.172 15.1014L123.217 15.0565L123.262 15.0165L123.307 14.9716L123.347 14.9267L123.392 14.8817L123.436 14.8418L123.481 14.7969L123.521 14.7519L123.566 14.6671L123.611 14.6221L123.651 14.5772L123.696 14.4924L123.741 14.4025L123.786 14.3176L123.826 14.2278L123.871 14.1429L123.916 14.053L123.961 13.9232L124.001 13.7934L124.046 13.6187L124.09 13.3541V12.3507L124.046 12.136L124.001 11.9613L123.961 11.8265L123.916 11.7416L123.871 11.6518L123.826 11.5669L123.786 11.4771L123.741 11.3922L123.696 11.3473L123.651 11.3023L123.611 11.2175L123.566 11.1725L123.521 11.1326L123.481 11.0877L123.436 11.0427L123.392 10.9978L123.347 10.9579L123.307 10.9129L123.262 10.868L123.217 10.8231L123.132 10.7831L123.087 10.7382L123.042 10.6933L122.957 10.6484L122.867 10.6084L122.822 10.5635L122.738 10.5186L122.648 10.4736L122.563 10.4337L122.473 10.3888L122.388 10.3438L122.258 10.2989L122.124 10.259L121.994 10.214L121.864 10.1691L121.734 10.1242L121.559 10.0842L121.385 10.0393L121.21 9.99438L121.035 9.94945L120.905 9.90951L120.731 9.86458L120.556 9.81965L120.421 9.77472L120.291 9.73478L120.117 9.68985L119.987 9.64492L119.857 9.59999L119.767 9.56006L119.682 9.51513L119.592 9.4702L119.508 9.43026L119.463 9.3404L119.418 9.29547L119.378 9.2106L119.333 8.99095V8.90608L119.378 8.73135L119.418 8.64149L119.463 8.55662L119.508 8.51169L119.553 8.46676L119.592 8.42184L119.682 8.3819L119.767 8.33697L119.857 8.29204L120.032 8.24711H120.905L121.08 8.29204L121.21 8.33697L121.295 8.3819L121.34 8.42184L121.43 8.46676L121.47 8.51169L121.514 8.55662L121.559 8.59656L121.604 8.68642L121.644 8.73135L121.689 8.81622L121.734 8.94602L121.779 9.12074L121.819 9.38533H123.871V8.99095L123.826 8.73135L123.786 8.51169L123.741 8.3819L123.696 8.20717L123.651 8.11731L123.611 7.98751L123.566 7.90265L123.521 7.81279L123.481 7.72293L123.436 7.63806L123.392 7.59313L123.347 7.50826L123.307 7.46333L123.262 7.37847L123.217 7.33354L123.172 7.28861L123.132 7.24368L123.087 7.20374L123.042 7.15881L122.997 7.11388L122.957 7.06895L122.867 7.02901L122.822 6.98408L122.782 6.93915L122.693 6.89422L122.648 6.85428L122.563 6.80935L122.473 6.76442L122.388 6.71949L122.298 6.67956L122.213 6.63463L122.084 6.5897L121.949 6.54477L121.819 6.50483L121.689 6.4599L121.47 6.41497L121.21 6.37004H119.812L119.553 6.41497Z" fill="#0073B8"/>
<path fill-rule="evenodd" clip-rule="evenodd" d="M84.457 12.9198L84.502 13.3142L84.5469 13.6187L84.5868 13.7935L84.6318 13.9682L84.6767 14.1429L84.7216 14.2727L84.7616 14.3576L84.8065 14.4474L84.8514 14.5323L84.8963 14.6222L84.9363 14.707L84.9812 14.7969L85.0261 14.8418L85.0661 14.8818L85.111 14.9716L85.1559 15.0165L85.2009 15.0565L85.2408 15.1014L85.2857 15.1463L85.3307 15.1913L85.3756 15.2312L85.4155 15.2761L85.4605 15.3211L85.5503 15.366L85.5903 15.4059L85.6801 15.4509L85.7251 15.4958L85.8099 15.5407L85.8998 15.5807L86.0296 15.6256L86.1594 15.6705L86.2892 15.7154L86.5088 15.7554L87.0779 15.8003H87.1179L87.687 15.7554L87.8617 15.7154L88.0364 15.6705L88.1213 15.6256L88.2561 15.5807L88.341 15.5407L88.3859 15.4958L88.4708 15.4509L88.5606 15.4059L88.6056 15.366L88.6455 15.3211L88.7354 15.2761L88.7803 15.2312L88.8202 15.1913L88.8651 15.1463L88.9101 15.1014L88.955 15.0565L88.9949 15.0165L89.0399 14.9716L89.0848 14.9267L89.1297 14.8818L89.1697 14.8418L89.2146 14.7969L89.2595 14.707L89.3045 14.6671L89.3444 14.5772L89.3893 14.5323L89.4343 14.4474V15.5807H91.4411V6.58971H89.3444L89.3045 12.0911L89.2595 12.3956L89.2146 12.5704L89.1697 12.7451L89.1297 12.8749L89.0848 12.9647L89.0399 13.0496L88.9949 13.1395L88.955 13.1794L88.9101 13.2693L88.8651 13.3142L88.8202 13.3541L88.7803 13.3991L88.7354 13.444L88.6904 13.4889L88.6455 13.5289L88.5606 13.5738L88.5157 13.6187L88.4308 13.6637L88.296 13.7036L88.1662 13.7485H87.4274L87.2926 13.7036L87.2077 13.6637L87.1179 13.6187L87.033 13.5738L86.9881 13.5289L86.9432 13.4889L86.9032 13.444L86.8583 13.3541L86.8134 13.3142L86.7684 13.2243L86.7285 13.0945L86.6836 12.9647L86.6386 12.79L86.5987 12.4406L86.5538 6.58971H84.457V12.9198Z" fill="#0073B8"/>
<path fill-rule="evenodd" clip-rule="evenodd" d="M67.1751 6.41497L67.0004 6.4599L66.8706 6.50483L66.7807 6.54477L66.6959 6.5897L66.606 6.63463L66.5611 6.67956L66.4762 6.71949L66.4313 6.76442L66.3464 6.80935L66.3015 6.85428L66.2565 6.89422L66.2116 6.93915L66.1717 6.98408L66.1268 7.02901L66.0818 7.06895L66.0369 7.11388L65.997 7.15881L65.952 7.24368L65.9071 7.28861L65.8622 7.33354L65.8222 7.4184L65.7773 7.46333L65.7324 7.55319L65.6924 7.59313L65.6475 7.68299L65.6026 7.76786V6.5897H63.5957V15.5407H65.6475L65.6924 10.4736L65.7324 9.94945L65.7773 9.68985L65.8222 9.51513L65.8622 9.38533L65.9071 9.25553L65.952 9.16567L65.997 9.08081L66.0369 8.99095L66.0818 8.94602L66.1268 8.86115L66.1717 8.81622L66.2116 8.77129L66.2565 8.73135L66.3015 8.68642L66.3464 8.64149L66.3863 8.59656L66.4762 8.55662L66.5211 8.51169L66.606 8.46676L66.7358 8.42184L66.8706 8.3819H67.6094L67.7392 8.42184L67.8291 8.46676L67.914 8.51169L68.0038 8.55662L68.0487 8.59656L68.0887 8.64149L68.1336 8.68642L68.1785 8.73135L68.2235 8.81622L68.2634 8.86115L68.3083 8.94602L68.3533 9.08081L68.3982 9.2106L68.4381 9.43026L68.4831 9.86458L68.528 15.5407H70.6197V8.90608L70.5798 8.55662L70.5349 8.33697L70.4899 8.16224L70.45 7.98751L70.4051 7.85772L70.3601 7.76786L70.3152 7.68299L70.2753 7.59313L70.2303 7.50826L70.1854 7.4184L70.1405 7.37847L70.1005 7.28861L70.0556 7.24368L70.0107 7.20374L69.9657 7.15881L69.9258 7.11388L69.8809 7.06895L69.836 7.02901L69.791 6.98408L69.7511 6.93915L69.7062 6.89422L69.6163 6.85428L69.5764 6.80935L69.5314 6.76442L69.4416 6.71949L69.3567 6.67956L69.2668 6.63463L69.182 6.5897L69.0921 6.54477L68.9623 6.50483L68.8325 6.4599L68.7027 6.41497L68.4831 6.37004H67.3498L67.1751 6.41497Z" fill="#EA741C"/>
<path fill-rule="evenodd" clip-rule="evenodd" d="M30.9909 6.41497L30.8162 6.4599L30.6814 6.50483L30.5516 6.54477L30.4218 6.5897L30.337 6.63463L30.2471 6.67956L30.1622 6.71949L30.0724 6.76442L30.0275 6.80935L29.9426 6.85428L29.8977 6.89422L29.8128 6.93915L29.7679 6.98408L29.7229 7.02901L29.6381 7.06895L29.5931 7.11388L29.5482 7.15881L29.5033 7.20374L29.4633 7.24368L29.4184 7.28861L29.3735 7.33354L29.3285 7.37847L29.2886 7.4184L29.2437 7.50826L29.1987 7.55319L29.1538 7.59313L29.1139 7.63806L29.0689 7.72293L29.024 7.76786L28.9841 7.85772L28.9392 7.90265L28.8942 7.98751L28.8493 8.07238L28.8094 8.11731L28.7644 8.20717L28.7195 8.29204L28.6746 8.42184L28.6346 8.51169L28.5897 8.64149L28.5448 8.73135L28.4998 8.86115L28.4599 8.99095L28.415 9.16567L28.37 9.3404L28.3251 9.56006L28.2852 9.77472L28.2402 10.0842L28.1953 10.6084V11.8265L28.2402 12.3108L28.2852 12.6153L28.3251 12.8299L28.37 13.0496L28.415 13.1794L28.4599 13.3541L28.4998 13.4889L28.5448 13.6187L28.5897 13.7036L28.6346 13.8384L28.6746 13.9232L28.7195 14.0131L28.7644 14.098L28.8094 14.1878L28.8493 14.2727L28.8942 14.3576L28.9392 14.4474L28.9841 14.4924L29.024 14.5772L29.0689 14.6221L29.1139 14.6671L29.1538 14.7519L29.1987 14.7969L29.2437 14.8418L29.2886 14.8817L29.3285 14.9267L29.3735 14.9716L29.4184 15.0165L29.4633 15.0565L29.5033 15.1014L29.5482 15.1463L29.5931 15.1913L29.6381 15.2312L29.678 15.2761L29.7679 15.3211L29.8128 15.366L29.8977 15.4059L29.9875 15.4509L30.0275 15.4958L30.1173 15.5407L30.2022 15.5806L30.337 15.6256L30.4218 15.6705L30.5516 15.7154L30.7264 15.7554L30.9011 15.8003L31.1657 15.8452H32.4287L32.6933 15.8003L32.868 15.7554L32.9978 15.7154L33.1276 15.6705L33.2175 15.6256L33.3473 15.5806L33.4321 15.5407L33.522 15.4958L33.5669 15.4509L33.6518 15.4059L33.6967 15.366L33.7816 15.3211L33.8265 15.2761L33.9114 15.2312L33.9563 15.1913L34.0012 15.1463L34.0462 15.1014L34.0861 15.0565L34.131 15.0165L34.176 14.9716L34.2209 14.9267L34.2608 14.8817L34.3058 14.8418L34.3507 14.7969L34.3956 14.7519L34.4356 14.6671L34.4805 14.6221L34.5254 14.5772L34.5704 14.4924L34.6103 14.4474L34.6552 14.3576L34.7002 14.3176L34.7451 14.2278L34.785 14.1429L34.8299 14.053L34.8749 14.0131L34.9198 13.9232L34.9597 13.7934L35.0047 13.7036L35.0496 13.6187L35.0945 13.4889L35.1345 13.3541L35.1794 13.2243L35.2243 13.0945L35.2643 12.8749L35.3092 12.6153V12.3108H33.2175L33.1725 12.5254L33.1276 12.7451L33.0827 12.9198L33.0427 13.0496L32.9978 13.1794L32.9529 13.2693L32.9079 13.3541L32.868 13.3991L32.8231 13.4889L32.7782 13.5289L32.7332 13.5738L32.6933 13.6187L32.6484 13.6636L32.5585 13.7036L32.5186 13.7485L32.3838 13.7934L32.254 13.8384H31.5151L31.3803 13.7934L31.2955 13.7485L31.2056 13.7036L31.1657 13.6636L31.0758 13.6187L31.0309 13.5738L30.9909 13.5289L30.946 13.4889L30.9011 13.444L30.8562 13.3991L30.8162 13.3142L30.7713 13.2693L30.7264 13.1794L30.6814 13.0945L30.6415 12.9647L30.5966 12.8749L30.5516 12.7451L30.5117 12.5704L30.4668 12.3956L30.4218 12.136L30.3769 11.6967V10.6484L30.4218 10.1691L30.4668 9.90951L30.5117 9.68985L30.5516 9.56006L30.5966 9.43026L30.6415 9.29547L30.6814 9.2106L30.7264 9.12074L30.7713 9.03588L30.8162 8.94602L30.8562 8.90608L30.9011 8.81622L30.946 8.77129L30.9909 8.73135L31.0309 8.68642L31.0758 8.64149L31.1207 8.59656L31.1657 8.55662L31.2505 8.51169L31.3404 8.46676L31.4253 8.42184L31.5551 8.3819H32.254L32.3838 8.42184L32.5186 8.46676L32.5585 8.51169L32.6484 8.55662L32.6933 8.59656L32.7332 8.64149L32.7782 8.68642L32.8231 8.73135L32.868 8.77129L32.9079 8.86115L32.9529 8.90608L32.9978 8.99095L33.0427 9.12074L33.0827 9.2106L33.1276 9.3404L33.1725 9.51513L33.2175 9.77472L33.2574 9.81965H35.3541V9.68985L35.3092 9.29547L35.2643 9.03588L35.2243 8.86115L35.1794 8.68642L35.1345 8.51169L35.0945 8.3819L35.0496 8.24711L35.0047 8.16224L34.9597 8.03244L34.9198 7.94258L34.8749 7.85772L34.8299 7.76786L34.785 7.72293L34.7451 7.63806L34.7002 7.55319L34.6552 7.50826L34.6103 7.46333L34.5704 7.4184L34.5254 7.33354L34.4805 7.28861L34.4356 7.24368L34.3956 7.20374L34.3507 7.15881L34.3058 7.11388L34.2209 7.06895L34.176 7.02901L34.131 6.98408L34.0462 6.93915L34.0012 6.89422L33.9114 6.85428L33.8714 6.80935L33.7816 6.76442L33.6967 6.71949L33.6069 6.67956L33.522 6.63463L33.3922 6.5897L33.3023 6.54477L33.1725 6.50483L32.9978 6.4599L32.8231 6.41497L32.5585 6.37004H31.2056L30.9909 6.41497Z" fill="#EA741C"/>
<path fill-rule="evenodd" clip-rule="evenodd" d="M95.7195 6.41497L95.5447 6.4599L95.4149 6.50483L95.2801 6.54477L95.1504 6.5897L95.0655 6.63463L94.9756 6.67956L94.8908 6.71949L94.8009 6.76442L94.756 6.80935L94.6711 6.85428L94.6262 6.89422L94.5413 6.93915L94.4964 6.98408L94.4514 7.02901L94.3666 7.06895L94.3216 7.11388L94.2767 7.15881L94.2368 7.20374L94.1918 7.24368L94.1469 7.28861L94.102 7.33354L94.062 7.37847L94.0171 7.4184L93.9722 7.50826L93.9273 7.55319L93.8873 7.59313L93.8424 7.63806L93.7975 7.72293L93.7525 7.76786L93.7126 7.85772L93.6677 7.90265L93.6227 7.98751L93.5778 8.07238L93.5379 8.11731L93.4929 8.20717L93.448 8.29204L93.4031 8.42184L93.3631 8.51169L93.3182 8.64149L93.2733 8.73135L93.2284 8.86115L93.1884 8.99095L93.1435 9.16567L93.0986 9.3404L93.0536 9.56006L93.0137 9.77472L92.9688 10.0842L92.9238 10.6084V11.8265L92.9688 12.3108L93.0137 12.6153L93.0536 12.8299L93.0986 13.0496L93.1435 13.1794L93.1884 13.3541L93.2284 13.4889L93.2733 13.6187L93.3182 13.7036L93.3631 13.8384L93.4031 13.9232L93.448 14.0131L93.4929 14.098L93.5379 14.1878L93.5778 14.2727L93.6227 14.3576L93.6677 14.4474L93.7126 14.4924L93.7525 14.5772L93.7975 14.6221L93.8424 14.6671L93.8873 14.7519L93.9273 14.7969L93.9722 14.8418L94.0171 14.8817L94.062 14.9267L94.102 14.9716L94.1469 15.0165L94.1918 15.0565L94.2368 15.1014L94.2767 15.1463L94.3216 15.1913L94.3666 15.2312L94.4115 15.2761L94.4964 15.3211L94.5413 15.366L94.6262 15.4059L94.716 15.4509L94.756 15.4958L94.8458 15.5407L94.9307 15.5806L95.0655 15.6256L95.1504 15.6705L95.2801 15.7154L95.4549 15.7554L95.6296 15.8003L95.8942 15.8452H97.1572L97.4218 15.8003L97.5965 15.7554L97.7263 15.7154L97.8561 15.6705L97.946 15.6256L98.0758 15.5806L98.1606 15.5407L98.2505 15.4958L98.2954 15.4509L98.3803 15.4059L98.4252 15.366L98.5101 15.3211L98.555 15.2761L98.6449 15.2312L98.6848 15.1913L98.7298 15.1463L98.7747 15.1014L98.8196 15.0565L98.8596 15.0165L98.9045 14.9716L98.9494 14.9267L98.9943 14.8817L99.0343 14.8418L99.0792 14.7969L99.1241 14.7519L99.1691 14.6671L99.209 14.6221L99.2539 14.5772L99.2989 14.4924L99.3388 14.4474L99.3837 14.3576L99.4287 14.3176L99.4736 14.2278L99.5185 14.1429L99.5585 14.053L99.6034 14.0131L99.6483 13.9232L99.6883 13.7934L99.7332 13.7036L99.7781 13.6187L99.8231 13.4889L99.863 13.3541L99.9079 13.2243L99.9528 13.0945L99.9978 12.8749L100.038 12.6153V12.3108H97.946L97.9011 12.5254L97.8561 12.7451L97.8162 12.9198L97.7713 13.0496L97.7263 13.1794L97.6814 13.2693L97.6415 13.3541L97.5965 13.3991L97.5516 13.4889L97.5067 13.5289L97.4667 13.5738L97.4218 13.6187L97.3769 13.6636L97.292 13.7036L97.2471 13.7485L97.1173 13.7934L96.9825 13.8384H96.2436L96.1138 13.7934L96.024 13.7485L95.9391 13.7036L95.8942 13.6636L95.8043 13.6187L95.7644 13.5738L95.7195 13.5289L95.6745 13.4889L95.6296 13.444L95.5897 13.3991L95.5447 13.3142L95.4998 13.2693L95.4549 13.1794L95.4149 13.0945L95.37 12.9647L95.3251 12.8749L95.2801 12.7451L95.2402 12.5704L95.1953 12.3956L95.1504 12.136L95.1054 11.6967V10.6484L95.1504 10.1691L95.1953 9.90951L95.2402 9.68985L95.2801 9.56006L95.3251 9.43026L95.37 9.29547L95.4149 9.2106L95.4549 9.12074L95.4998 9.03588L95.5447 8.94602L95.5897 8.90608L95.6296 8.81622L95.6745 8.77129L95.7195 8.73135L95.7644 8.68642L95.8043 8.64149L95.8493 8.59656L95.8942 8.55662L95.9791 8.51169L96.0689 8.46676L96.1538 8.42184L96.2836 8.3819H96.9825L97.1173 8.42184L97.2471 8.46676L97.292 8.51169L97.3769 8.55662L97.4218 8.59656L97.4667 8.64149L97.5067 8.68642L97.5516 8.73135L97.5965 8.77129L97.6415 8.86115L97.6814 8.90608L97.7263 8.99095L97.7713 9.12074L97.8162 9.2106L97.8561 9.3404L97.9011 9.51513L97.946 9.77472L97.9859 9.81965H100.083V9.68985L100.038 9.29547L99.9978 9.03588L99.9528 8.86115L99.9079 8.68642L99.863 8.51169L99.8231 8.3819L99.7781 8.24711L99.7332 8.16224L99.6883 8.03244L99.6483 7.94258L99.6034 7.85772L99.5585 7.76786L99.5185 7.72293L99.4736 7.63806L99.4287 7.55319L99.3837 7.50826L99.3388 7.46333L99.2989 7.4184L99.2539 7.33354L99.209 7.28861L99.1691 7.24368L99.1241 7.20374L99.0792 7.15881L99.0343 7.11388L98.9494 7.06895L98.9045 7.02901L98.8596 6.98408L98.7747 6.93915L98.7298 6.89422L98.6449 6.85428L98.6 6.80935L98.5101 6.76442L98.4252 6.71949L98.3354 6.67956L98.2505 6.63463L98.1207 6.5897L98.0308 6.54477L97.9011 6.50483L97.7263 6.4599L97.5516 6.41497L97.292 6.37004H95.9391L95.7195 6.41497Z" fill="#0073B8"/>
<path fill-rule="evenodd" clip-rule="evenodd" d="M103.753 6.41497L103.578 6.4599L103.443 6.50483L103.313 6.54477L103.184 6.5897L103.094 6.63463L103.009 6.67956L102.919 6.71949L102.834 6.76442L102.789 6.80935L102.704 6.85428L102.659 6.89422L102.575 6.93915L102.53 6.98408L102.485 7.02901L102.4 7.06895L102.355 7.11388L102.31 7.15881L102.265 7.20374L102.225 7.24368L102.18 7.28861L102.135 7.33354L102.09 7.37847L102.05 7.4184L102.005 7.50826L101.96 7.55319L101.916 7.59313L101.876 7.63806L101.831 7.72293L101.786 7.76786L101.741 7.85772L101.701 7.90265L101.656 7.98751L101.611 8.07238L101.566 8.11731L101.526 8.20717L101.481 8.29204L101.436 8.42184L101.391 8.51169L101.351 8.64149L101.306 8.73135L101.262 8.86115L101.217 8.99095L101.177 9.16567L101.132 9.3404L101.087 9.56006L101.042 9.77472L101.002 10.0842L100.957 10.6084V11.8265L101.002 12.3108L101.042 12.6153L101.087 12.8299L101.132 13.0496L101.177 13.1794L101.217 13.3541L101.262 13.4889L101.306 13.6187L101.351 13.7036L101.391 13.8384L101.436 13.9232L101.481 14.0131L101.526 14.098L101.566 14.1878L101.611 14.2727L101.656 14.3576L101.701 14.4474L101.741 14.4924L101.786 14.5772L101.831 14.6221L101.876 14.6671L101.916 14.7519L101.96 14.7969L102.005 14.8418L102.05 14.8817L102.09 14.9267L102.135 14.9716L102.18 15.0165L102.225 15.0565L102.265 15.1014L102.31 15.1463L102.355 15.1913L102.4 15.2312L102.44 15.2761L102.53 15.3211L102.575 15.366L102.659 15.4059L102.749 15.4509L102.789 15.4958L102.879 15.5407L102.964 15.5806L103.094 15.6256L103.184 15.6705L103.313 15.7154L103.488 15.7554L103.663 15.8003L103.927 15.8452H105.19L105.455 15.8003L105.63 15.7554L105.76 15.7154L105.889 15.6705L105.974 15.6256L106.109 15.5806L106.194 15.5407L106.284 15.4958L106.324 15.4509L106.414 15.4059L106.458 15.366L106.543 15.3211L106.588 15.2761L106.673 15.2312L106.718 15.1913L106.763 15.1463L106.808 15.1014L106.848 15.0565L106.893 15.0165L106.938 14.9716L106.983 14.9267L107.023 14.8817L107.067 14.8418L107.112 14.7969L107.157 14.7519L107.197 14.6671L107.242 14.6221L107.287 14.5772L107.332 14.4924L107.372 14.4474L107.417 14.3576L107.462 14.3176L107.502 14.2278L107.547 14.1429L107.592 14.053L107.637 14.0131L107.677 13.9232L107.721 13.7934L107.766 13.7036L107.811 13.6187L107.851 13.4889L107.896 13.3541L107.941 13.2243L107.986 13.0945L108.026 12.8749L108.071 12.6153V12.3108H105.974L105.934 12.5254L105.889 12.7451L105.844 12.9198L105.804 13.0496L105.76 13.1794L105.715 13.2693L105.67 13.3541L105.63 13.3991L105.585 13.4889L105.54 13.5289L105.495 13.5738L105.455 13.6187L105.41 13.6636L105.32 13.7036L105.28 13.7485L105.145 13.7934L105.016 13.8384H104.272L104.142 13.7934L104.057 13.7485L103.967 13.7036L103.927 13.6636L103.838 13.6187L103.793 13.5738L103.753 13.5289L103.708 13.4889L103.663 13.444L103.618 13.3991L103.578 13.3142L103.533 13.2693L103.488 13.1794L103.443 13.0945L103.403 12.9647L103.358 12.8749L103.313 12.7451L103.268 12.5704L103.228 12.3956L103.184 12.136L103.139 11.6967V10.6484L103.184 10.1691L103.228 9.90951L103.268 9.68985L103.313 9.56006L103.358 9.43026L103.403 9.29547L103.443 9.2106L103.488 9.12074L103.533 9.03588L103.578 8.94602L103.618 8.90608L103.663 8.81622L103.708 8.77129L103.753 8.73135L103.793 8.68642L103.838 8.64149L103.882 8.59656L103.927 8.55662L104.012 8.51169L104.102 8.46676L104.187 8.42184L104.317 8.3819H105.016L105.145 8.42184L105.28 8.46676L105.32 8.51169L105.41 8.55662L105.455 8.59656L105.495 8.64149L105.54 8.68642L105.585 8.73135L105.63 8.77129L105.67 8.86115L105.715 8.90608L105.76 8.99095L105.804 9.12074L105.844 9.2106L105.889 9.3404L105.934 9.51513L105.974 9.77472L106.019 9.81965H108.116V9.68985L108.071 9.29547L108.026 9.03588L107.986 8.86115L107.941 8.68642L107.896 8.51169L107.851 8.3819L107.811 8.24711L107.766 8.16224L107.721 8.03244L107.677 7.94258L107.637 7.85772L107.592 7.76786L107.547 7.72293L107.502 7.63806L107.462 7.55319L107.417 7.50826L107.372 7.46333L107.332 7.4184L107.287 7.33354L107.242 7.28861L107.197 7.24368L107.157 7.20374L107.112 7.15881L107.067 7.11388L106.983 7.06895L106.938 7.02901L106.893 6.98408L106.808 6.93915L106.763 6.89422L106.673 6.85428L106.633 6.80935L106.543 6.76442L106.458 6.71949L106.369 6.67956L106.284 6.63463L106.149 6.5897L106.064 6.54477L105.934 6.50483L105.76 6.4599L105.585 6.41497L105.32 6.37004H103.967L103.753 6.41497Z" fill="#0073B8"/>
<path fill-rule="evenodd" clip-rule="evenodd" d="M23.0039 6.67957V8.38191H24.0922V14.4025L24.1371 14.6222L24.1821 14.752L24.222 14.8418L24.2669 14.9267L24.3119 15.0165L24.3568 15.0565L24.3967 15.1463L24.4417 15.1913L24.4866 15.2312L24.5315 15.2761L24.6164 15.3211L24.6613 15.366L24.7062 15.4059L24.7911 15.4509L24.881 15.4958L25.0108 15.5407L25.0956 15.5807L25.2704 15.6256L25.49 15.6705L25.9243 15.7155H26.4086L26.8878 15.6705L27.3671 15.6256V13.8384L26.4485 13.7935L26.3187 13.7485L26.2339 13.7036L26.1889 13.6187L26.144 13.3541L26.0991 8.38191H27.3671V6.67957H26.0991V4.18846H24.0922V6.67957H23.0039Z" fill="#EA741C"/>
<path d="M21.8662 6.58971H19.8145V15.5807H21.8662V6.58971Z" fill="#EA741C"/>
<path fill-rule="evenodd" clip-rule="evenodd" d="M132.512 0.0449298L132.382 0.0898596L132.253 0.134789L132.123 0.179719L131.993 0.224649L131.903 0.269579L131.818 0.314509L131.733 0.359438L131.648 0.404368L131.604 0.449298L131.519 0.494228L131.474 0.539158L131.389 0.584087L131.344 0.629017L131.294 0.653978L131.249 0.698908L131.164 0.743838L131.119 0.788768L131.074 0.833697L131.029 0.878627L130.985 0.923557L130.94 0.968487L130.895 1.05335L130.85 1.09828L130.805 1.14321L130.76 1.18814L130.715 1.27301L130.67 1.31794L130.625 1.40281L130.58 1.48768L130.535 1.53261L130.49 1.61747L130.445 1.70234L130.4 1.78721L130.355 1.917L130.311 2.0468L130.266 2.1766L130.221 2.35133L130.176 2.57098V3.48955L130.221 3.74914L130.266 3.87894L130.311 4.00874L130.355 4.13853L130.4 4.26833L130.445 4.3532L130.49 4.43807L130.535 4.52293L130.58 4.56786L130.625 4.65273L130.67 4.7376L130.715 4.78253L130.76 4.8674L130.805 4.91233L130.85 4.95725L130.895 5.00218L130.94 5.04711L130.985 5.13198L131.029 5.17691L131.074 5.22184L131.119 5.26677L131.204 5.3117L131.249 5.35663L131.294 5.40156L131.339 5.44649L131.384 5.49142L131.469 5.53635L131.514 5.58128L131.599 5.62621L131.683 5.67114L131.728 5.71607L131.813 5.761L131.898 5.80593L132.028 5.85086L132.113 5.89579L132.243 5.94072L132.372 5.98565L132.502 6.03058L132.722 6.07551H133.815L134.035 6.03058L134.165 5.98565L134.294 5.94072L134.424 5.89579L134.509 5.85086L134.639 5.80593L134.729 5.761L134.814 5.71607L134.858 5.67114L134.943 5.62621L135.028 5.58128L135.073 5.53635L135.163 5.49142L135.208 5.44649L135.253 5.40156L135.298 5.35663L135.343 5.3117L135.433 5.26677L135.477 5.22184L135.522 5.17691L135.567 5.13198L135.612 5.04711L135.657 5.00218L135.702 4.95725L135.747 4.91233L135.787 4.88736L135.832 4.8025L135.877 4.75757L135.922 4.6727L135.967 4.58783L136.012 4.5429L136.057 4.45803L136.102 4.37317L136.146 4.2883L136.191 4.1585L136.236 4.07364L136.281 3.89891L136.326 3.76911L136.371 3.50952V2.57598L136.326 2.31638L136.281 2.18658L136.236 2.05679L136.191 1.92699L136.146 1.79719L136.102 1.71232L136.057 1.62746L136.012 1.54259L135.967 1.49766L135.922 1.41279L135.877 1.32793L135.832 1.283L135.787 1.17816L135.742 1.13323L135.697 1.0883L135.652 1.04337L135.607 0.958502L135.562 0.913573L135.517 0.868643L135.472 0.823713L135.428 0.778783L135.383 0.733853L135.298 0.688924L135.253 0.643994L135.208 0.599064L135.163 0.554134L135.073 0.509204L135.028 0.464275L134.943 0.419345L134.898 0.374415L134.814 0.329485L134.729 0.284555L134.639 0.239626L134.554 0.194696L134.424 0.149766L134.294 0.104836L134.165 0.0599064L134.035 0.0149766L133.825 0H132.732L132.512 0.0449298ZM135.657 3.48955L135.612 3.66427L135.567 3.79407L135.522 3.92387L135.477 4.00874L135.433 4.0936L135.388 4.18346L135.343 4.26833L135.298 4.31326L135.253 4.39813L135.208 4.44306L135.163 4.48799L135.118 4.57286L135.073 4.61779L135.028 4.66272L134.983 4.70764L134.938 4.75257L134.893 4.7975L134.848 4.84243L134.764 4.88736L134.719 4.93229L134.629 4.97722L134.584 5.02215L134.494 5.06708L134.409 5.11201L134.364 5.15694L134.234 5.20187L134.15 5.2468L134.02 5.29173L133.89 5.33666L133.715 5.38159H132.797L132.622 5.33666L132.492 5.29173L132.362 5.2468L132.277 5.20187L132.193 5.15694L132.108 5.11201L132.023 5.06708L131.938 5.02215L131.893 4.97722L131.808 4.93229L131.763 4.88736L131.718 4.84243L131.633 4.7975L131.589 4.75257L131.544 4.70764L131.499 4.66272L131.454 4.61779L131.409 4.53292L131.364 4.48799L131.319 4.44306L131.294 4.36318L131.249 4.31825L131.204 4.23339L131.159 4.14353L131.114 4.0986L131.069 3.9688L131.024 3.88393L130.98 3.75413L130.935 3.62434L130.89 3.44961V2.62091L130.935 2.44618L130.98 2.31638L131.024 2.18658L131.069 2.10172L131.114 1.97192L131.159 1.88705L131.204 1.84212L131.249 1.75725L131.294 1.70234L131.339 1.61747L131.384 1.57254L131.429 1.52761L131.474 1.44275L131.519 1.39782L131.564 1.35289L131.609 1.30796L131.653 1.26303L131.698 1.2181L131.783 1.17317L131.828 1.12824L131.913 1.08331L131.958 1.03838L132.043 0.993448L132.088 0.948518L132.173 0.903588L132.302 0.858658L132.387 0.813729L132.517 0.768799L132.647 0.723869L132.822 0.678939H133.74L133.915 0.723869L134.045 0.768799L134.175 0.813729L134.304 0.858658L134.389 0.903588L134.479 0.948518L134.524 0.993448L134.614 1.03838L134.699 1.08331L134.744 1.12824L134.789 1.17317L134.873 1.2181L134.918 1.26303L134.963 1.30796L135.008 1.35289L135.053 1.39782L135.098 1.44275L135.143 1.48768L135.188 1.53261L135.233 1.61747L135.278 1.6624L135.323 1.74727L135.368 1.7922L135.413 1.87707L135.458 1.96193L135.502 2.0468L135.547 2.13167L135.592 2.26147L135.637 2.39126L135.682 2.56599L135.727 2.87052V3.17504L135.657 3.48955Z" fill="#0073B8"/>
<path fill-rule="evenodd" clip-rule="evenodd" d="M131.86 4.6727H132.559V3.40468L132.993 3.4546L133.083 3.49953L133.168 3.54446L133.212 3.58939L133.257 3.63432L133.302 3.67925L133.347 3.76412L133.392 3.80905L133.437 3.89391L133.482 3.93884L133.527 4.02371L133.572 4.10858L133.617 4.19844L133.662 4.24337L133.707 4.32824L133.752 4.4131L133.797 4.49797L133.842 4.58284L133.886 4.66771H134.76V4.53791L134.715 4.49298L134.67 4.40811L134.625 4.32324L134.58 4.27831L134.535 4.19345L134.49 4.10359L134.446 4.05866L134.401 3.9688L134.356 3.88393L134.311 3.839L134.266 3.75413L134.221 3.7092L134.176 3.62434L134.131 3.57941L134.086 3.49454L134.041 3.44961L133.996 3.40468L133.951 3.35975L133.906 3.31482L133.817 3.26989L133.946 3.22496L134.031 3.18003L134.116 3.1351L134.201 3.09017L134.246 3.04524L134.291 3.00031L134.336 2.95538L134.381 2.91045L134.426 2.86552L134.471 2.78065L134.515 2.69579L134.56 2.47613V2.22652L134.515 2.05179L134.471 1.96692L134.426 1.88206L134.381 1.79719L134.336 1.75226L134.291 1.70733L134.246 1.6624L134.161 1.61747L134.116 1.57254L134.031 1.52761L133.856 1.48268H131.85V4.6727H131.86ZM133.737 2.57597L133.692 2.66583L133.607 2.71076L133.522 2.75569L132.823 2.80062L132.564 2.84555V2.09173L133.522 2.13666L133.607 2.18159L133.692 2.22652L133.737 2.27145L133.782 2.40125V2.48611L133.737 2.57597Z" fill="#0073B8"/>
<path d="M21.8662 3.44962H19.8145V5.63121H21.8662V3.44962Z" fill="#EA741C"/>
</svg>
