<svg width="170" height="15" viewBox="0 0 170 15" fill="none" xmlns="http://www.w3.org/2000/svg">
<path d="M5.454 14.216C4.35 14.216 3.414 14.03 2.646 13.658C1.878 13.274 1.224 12.782 0.684 12.182L2.484 10.364C3.336 11.324 4.386 11.804 5.634 11.804C6.306 11.804 6.804 11.666 7.128 11.39C7.452 11.114 7.614 10.748 7.614 10.292C7.614 9.944 7.518 9.656 7.326 9.428C7.134 9.188 6.744 9.026 6.156 8.942L4.914 8.78C3.582 8.612 2.604 8.21 1.98 7.574C1.368 6.938 1.062 6.092 1.062 5.036C1.062 4.472 1.17 3.956 1.386 3.488C1.602 3.02 1.908 2.618 2.304 2.282C2.712 1.946 3.204 1.688 3.78 1.508C4.368 1.316 5.034 1.22 5.778 1.22C6.726 1.22 7.56 1.37 8.28 1.67C9 1.97 9.618 2.408 10.134 2.984L8.316 4.82C8.016 4.472 7.65 4.19 7.218 3.974C6.798 3.746 6.264 3.632 5.616 3.632C5.004 3.632 4.548 3.74 4.248 3.956C3.948 4.172 3.798 4.472 3.798 4.856C3.798 5.288 3.912 5.6 4.14 5.792C4.38 5.984 4.764 6.122 5.292 6.206L6.534 6.404C7.83 6.608 8.79 7.01 9.414 7.61C10.038 8.198 10.35 9.038 10.35 10.13C10.35 10.73 10.242 11.282 10.026 11.786C9.81 12.29 9.492 12.722 9.072 13.082C8.664 13.442 8.154 13.724 7.542 13.928C6.93 14.12 6.234 14.216 5.454 14.216ZM12.2944 4.55H14.8684L15.7864 8.366L16.4344 11.246H16.5064L17.2624 8.366L18.3424 4.55H20.7724L21.8704 8.366L22.6444 11.246H22.7164L23.3644 8.366L24.2824 4.55H26.7484L24.1384 14H21.3484L20.1964 10.004L19.5304 7.556H19.4764L18.8284 10.004L17.6764 14H14.9404L12.2944 4.55ZM30.3812 3.542C29.8412 3.542 29.4452 3.422 29.1932 3.182C28.9532 2.93 28.8332 2.612 28.8332 2.228V1.832C28.8332 1.448 28.9532 1.136 29.1932 0.895999C29.4452 0.644 29.8412 0.518 30.3812 0.518C30.9212 0.518 31.3112 0.644 31.5512 0.895999C31.8032 1.136 31.9292 1.448 31.9292 1.832V2.228C31.9292 2.612 31.8032 2.93 31.5512 3.182C31.3112 3.422 30.9212 3.542 30.3812 3.542ZM29.0492 4.55H31.7132V14H29.0492V4.55ZM38.2316 14C37.3076 14 36.6056 13.766 36.1256 13.298C35.6576 12.83 35.4236 12.146 35.4236 11.246V6.62H34.0916V4.55H34.7576C35.1176 4.55 35.3636 4.466 35.4956 4.298C35.6276 4.118 35.6936 3.866 35.6936 3.542V1.994H38.0876V4.55H39.9596V6.62H38.0876V11.93H39.8156V14H38.2316ZM46.2759 14.216C45.5679 14.216 44.9379 14.102 44.3859 13.874C43.8339 13.634 43.3719 13.304 42.9999 12.884C42.6279 12.452 42.3459 11.93 42.1539 11.318C41.9619 10.706 41.8659 10.022 41.8659 9.266C41.8659 8.51 41.9619 7.832 42.1539 7.232C42.3459 6.62 42.6279 6.098 42.9999 5.666C43.3719 5.234 43.8339 4.904 44.3859 4.676C44.9379 4.448 45.5679 4.334 46.2759 4.334C47.2359 4.334 48.0339 4.55 48.6699 4.982C49.3179 5.414 49.7799 6.02 50.0559 6.8L47.8959 7.736C47.8119 7.376 47.6379 7.07 47.3739 6.818C47.1099 6.566 46.7439 6.44 46.2759 6.44C45.7359 6.44 45.3279 6.62 45.0519 6.98C44.7759 7.328 44.6379 7.802 44.6379 8.402V10.166C44.6379 10.766 44.7759 11.24 45.0519 11.588C45.3279 11.936 45.7359 12.11 46.2759 12.11C46.7559 12.11 47.1339 11.984 47.4099 11.732C47.6979 11.468 47.9079 11.126 48.0399 10.706L50.1099 11.606C49.7979 12.506 49.3119 13.166 48.6519 13.586C48.0039 14.006 47.2119 14.216 46.2759 14.216ZM52.4787 0.68H55.1427V6.152H55.2507C55.4187 5.66 55.7127 5.234 56.1327 4.874C56.5527 4.514 57.1347 4.334 57.8787 4.334C58.8507 4.334 59.5827 4.658 60.0747 5.306C60.5787 5.954 60.8307 6.878 60.8307 8.078V14H58.1667V8.294C58.1667 7.682 58.0707 7.232 57.8787 6.944C57.6867 6.644 57.3447 6.494 56.8527 6.494C56.6367 6.494 56.4267 6.524 56.2227 6.584C56.0187 6.632 55.8327 6.716 55.6647 6.836C55.5087 6.956 55.3827 7.106 55.2867 7.286C55.1907 7.454 55.1427 7.652 55.1427 7.88V14H52.4787V0.68ZM103.093 14.216C101.989 14.216 101.053 14.03 100.285 13.658C99.5175 13.274 98.8635 12.782 98.3235 12.182L100.123 10.364C100.975 11.324 102.025 11.804 103.273 11.804C103.945 11.804 104.443 11.666 104.767 11.39C105.091 11.114 105.253 10.748 105.253 10.292C105.253 9.944 105.157 9.656 104.965 9.428C104.773 9.188 104.383 9.026 103.795 8.942L102.553 8.78C101.221 8.612 100.243 8.21 99.6195 7.574C99.0075 6.938 98.7015 6.092 98.7015 5.036C98.7015 4.472 98.8095 3.956 99.0255 3.488C99.2415 3.02 99.5475 2.618 99.9435 2.282C100.351 1.946 100.843 1.688 101.419 1.508C102.007 1.316 102.673 1.22 103.417 1.22C104.365 1.22 105.199 1.37 105.919 1.67C106.639 1.97 107.257 2.408 107.773 2.984L105.955 4.82C105.655 4.472 105.289 4.19 104.857 3.974C104.437 3.746 103.903 3.632 103.255 3.632C102.643 3.632 102.187 3.74 101.887 3.956C101.587 4.172 101.437 4.472 101.437 4.856C101.437 5.288 101.551 5.6 101.779 5.792C102.019 5.984 102.403 6.122 102.931 6.206L104.173 6.404C105.469 6.608 106.429 7.01 107.053 7.61C107.677 8.198 107.989 9.038 107.989 10.13C107.989 10.73 107.881 11.282 107.665 11.786C107.449 12.29 107.131 12.722 106.711 13.082C106.303 13.442 105.793 13.724 105.181 13.928C104.569 14.12 103.873 14.216 103.093 14.216ZM116.414 12.416H116.324C116.24 12.656 116.126 12.884 115.982 13.1C115.85 13.316 115.676 13.508 115.46 13.676C115.244 13.844 114.986 13.976 114.686 14.072C114.398 14.168 114.062 14.216 113.678 14.216C112.706 14.216 111.968 13.898 111.464 13.262C110.972 12.614 110.726 11.69 110.726 10.49V4.55H113.39V10.256C113.39 10.832 113.492 11.276 113.696 11.588C113.9 11.9 114.248 12.056 114.74 12.056C114.944 12.056 115.148 12.026 115.352 11.966C115.556 11.906 115.736 11.822 115.892 11.714C116.048 11.594 116.174 11.45 116.27 11.282C116.366 11.114 116.414 10.916 116.414 10.688V4.55H119.078V14H116.414V12.416ZM126.093 14.216C125.385 14.216 124.755 14.102 124.203 13.874C123.651 13.634 123.189 13.304 122.817 12.884C122.445 12.452 122.163 11.93 121.971 11.318C121.779 10.706 121.683 10.022 121.683 9.266C121.683 8.51 121.779 7.832 121.971 7.232C122.163 6.62 122.445 6.098 122.817 5.666C123.189 5.234 123.651 4.904 124.203 4.676C124.755 4.448 125.385 4.334 126.093 4.334C127.053 4.334 127.851 4.55 128.487 4.982C129.135 5.414 129.597 6.02 129.873 6.8L127.713 7.736C127.629 7.376 127.455 7.07 127.191 6.818C126.927 6.566 126.561 6.44 126.093 6.44C125.553 6.44 125.145 6.62 124.869 6.98C124.593 7.328 124.455 7.802 124.455 8.402V10.166C124.455 10.766 124.593 11.24 124.869 11.588C125.145 11.936 125.553 12.11 126.093 12.11C126.573 12.11 126.951 11.984 127.227 11.732C127.515 11.468 127.725 11.126 127.857 10.706L129.927 11.606C129.615 12.506 129.129 13.166 128.469 13.586C127.821 14.006 127.029 14.216 126.093 14.216ZM136.023 14.216C135.315 14.216 134.685 14.102 134.133 13.874C133.581 13.634 133.119 13.304 132.747 12.884C132.375 12.452 132.093 11.93 131.901 11.318C131.709 10.706 131.613 10.022 131.613 9.266C131.613 8.51 131.709 7.832 131.901 7.232C132.093 6.62 132.375 6.098 132.747 5.666C133.119 5.234 133.581 4.904 134.133 4.676C134.685 4.448 135.315 4.334 136.023 4.334C136.983 4.334 137.781 4.55 138.417 4.982C139.065 5.414 139.527 6.02 139.803 6.8L137.643 7.736C137.559 7.376 137.385 7.07 137.121 6.818C136.857 6.566 136.491 6.44 136.023 6.44C135.483 6.44 135.075 6.62 134.799 6.98C134.523 7.328 134.385 7.802 134.385 8.402V10.166C134.385 10.766 134.523 11.24 134.799 11.588C135.075 11.936 135.483 12.11 136.023 12.11C136.503 12.11 136.881 11.984 137.157 11.732C137.445 11.468 137.655 11.126 137.787 10.706L139.857 11.606C139.545 12.506 139.059 13.166 138.399 13.586C137.751 14.006 136.959 14.216 136.023 14.216ZM146.08 14.216C145.36 14.216 144.718 14.102 144.154 13.874C143.59 13.634 143.11 13.304 142.714 12.884C142.33 12.452 142.036 11.93 141.832 11.318C141.64 10.706 141.544 10.022 141.544 9.266C141.544 8.522 141.64 7.85 141.832 7.25C142.024 6.638 142.306 6.116 142.678 5.684C143.062 5.252 143.53 4.922 144.082 4.694C144.634 4.454 145.264 4.334 145.972 4.334C146.752 4.334 147.418 4.466 147.97 4.73C148.534 4.994 148.99 5.348 149.338 5.792C149.698 6.236 149.956 6.752 150.112 7.34C150.28 7.916 150.364 8.522 150.364 9.158V9.95H144.298V10.094C144.298 10.718 144.466 11.216 144.802 11.588C145.138 11.948 145.666 12.128 146.386 12.128C146.938 12.128 147.388 12.02 147.736 11.804C148.084 11.576 148.408 11.306 148.708 10.994L150.04 12.65C149.62 13.142 149.068 13.526 148.384 13.802C147.712 14.078 146.944 14.216 146.08 14.216ZM146.026 6.296C145.486 6.296 145.06 6.476 144.748 6.836C144.448 7.184 144.298 7.652 144.298 8.24V8.384H147.61V8.222C147.61 7.646 147.478 7.184 147.214 6.836C146.962 6.476 146.566 6.296 146.026 6.296ZM156.17 14.216C155.258 14.216 154.49 14.072 153.866 13.784C153.242 13.484 152.684 13.064 152.192 12.524L153.758 10.94C154.094 11.312 154.466 11.606 154.874 11.822C155.282 12.038 155.744 12.146 156.26 12.146C156.788 12.146 157.154 12.068 157.358 11.912C157.562 11.744 157.664 11.522 157.664 11.246C157.664 10.802 157.346 10.538 156.71 10.454L155.684 10.328C153.56 10.064 152.498 9.092 152.498 7.412C152.498 6.956 152.582 6.542 152.75 6.17C152.93 5.786 153.176 5.462 153.488 5.198C153.812 4.922 154.196 4.712 154.64 4.568C155.096 4.412 155.606 4.334 156.17 4.334C156.662 4.334 157.094 4.37 157.466 4.442C157.85 4.502 158.186 4.598 158.474 4.73C158.774 4.85 159.044 5.006 159.284 5.198C159.536 5.378 159.782 5.582 160.022 5.81L158.492 7.376C158.192 7.076 157.85 6.842 157.466 6.674C157.094 6.494 156.71 6.404 156.314 6.404C155.858 6.404 155.534 6.476 155.342 6.62C155.15 6.764 155.054 6.956 155.054 7.196C155.054 7.448 155.12 7.646 155.252 7.79C155.396 7.922 155.66 8.018 156.044 8.078L157.106 8.222C159.182 8.498 160.22 9.446 160.22 11.066C160.22 11.522 160.124 11.942 159.932 12.326C159.74 12.71 159.464 13.046 159.104 13.334C158.756 13.61 158.33 13.826 157.826 13.982C157.334 14.138 156.782 14.216 156.17 14.216ZM165.837 14.216C164.925 14.216 164.157 14.072 163.533 13.784C162.909 13.484 162.351 13.064 161.859 12.524L163.425 10.94C163.761 11.312 164.133 11.606 164.541 11.822C164.949 12.038 165.411 12.146 165.927 12.146C166.455 12.146 166.821 12.068 167.025 11.912C167.229 11.744 167.331 11.522 167.331 11.246C167.331 10.802 167.013 10.538 166.377 10.454L165.351 10.328C163.227 10.064 162.165 9.092 162.165 7.412C162.165 6.956 162.249 6.542 162.417 6.17C162.597 5.786 162.843 5.462 163.155 5.198C163.479 4.922 163.863 4.712 164.307 4.568C164.763 4.412 165.273 4.334 165.837 4.334C166.329 4.334 166.761 4.37 167.133 4.442C167.517 4.502 167.853 4.598 168.141 4.73C168.441 4.85 168.711 5.006 168.951 5.198C169.203 5.378 169.449 5.582 169.689 5.81L168.159 7.376C167.859 7.076 167.517 6.842 167.133 6.674C166.761 6.494 166.377 6.404 165.981 6.404C165.525 6.404 165.201 6.476 165.009 6.62C164.817 6.764 164.721 6.956 164.721 7.196C164.721 7.448 164.787 7.646 164.919 7.79C165.063 7.922 165.327 8.018 165.711 8.078L166.773 8.222C168.849 8.498 169.887 9.446 169.887 11.066C169.887 11.522 169.791 11.942 169.599 12.326C169.407 12.71 169.131 13.046 168.771 13.334C168.423 13.61 167.997 13.826 167.493 13.982C167.001 14.138 166.449 14.216 165.837 14.216Z" fill="#0066B3"/>
<path d="M74.0793 14.216C73.2513 14.216 72.4953 14.078 71.8113 13.802C71.1273 13.526 70.5453 13.118 70.0653 12.578C69.5853 12.026 69.2133 11.348 68.9493 10.544C68.6853 9.728 68.5533 8.786 68.5533 7.718C68.5533 6.65 68.6853 5.714 68.9493 4.91C69.2133 4.094 69.5853 3.416 70.0653 2.876C70.5453 2.324 71.1273 1.91 71.8113 1.634C72.4953 1.358 73.2513 1.22 74.0793 1.22C74.9073 1.22 75.6633 1.358 76.3473 1.634C77.0313 1.91 77.6133 2.324 78.0933 2.876C78.5733 3.416 78.9453 4.094 79.2093 4.91C79.4733 5.714 79.6053 6.65 79.6053 7.718C79.6053 8.786 79.4733 9.728 79.2093 10.544C78.9453 11.348 78.5733 12.026 78.0933 12.578C77.6133 13.118 77.0313 13.526 76.3473 13.802C75.6633 14.078 74.9073 14.216 74.0793 14.216ZM74.0793 11.786C74.9073 11.786 75.5493 11.516 76.0053 10.976C76.4733 10.436 76.7073 9.662 76.7073 8.654V6.782C76.7073 5.774 76.4733 5 76.0053 4.46C75.5493 3.92 74.9073 3.65 74.0793 3.65C73.2513 3.65 72.6033 3.92 72.1353 4.46C71.6793 5 71.4513 5.774 71.4513 6.782V8.654C71.4513 9.662 71.6793 10.436 72.1353 10.976C72.6033 11.516 73.2513 11.786 74.0793 11.786ZM82.4649 14V4.55H85.1289V6.152H85.2369C85.4049 5.66 85.6989 5.234 86.1189 4.874C86.5389 4.514 87.1209 4.334 87.8649 4.334C88.8369 4.334 89.5689 4.658 90.0609 5.306C90.5649 5.954 90.8169 6.878 90.8169 8.078V14H88.1529V8.294C88.1529 7.682 88.0569 7.232 87.8649 6.944C87.6729 6.644 87.3309 6.494 86.8389 6.494C86.6229 6.494 86.4129 6.524 86.2089 6.584C86.0049 6.632 85.8189 6.716 85.6509 6.836C85.4949 6.956 85.3689 7.106 85.2729 7.286C85.1769 7.454 85.1289 7.652 85.1289 7.88V14H82.4649Z" fill="#F5821F"/>
</svg>
