<svg width="698" height="387" viewBox="0 0 698 387" fill="none" xmlns="http://www.w3.org/2000/svg">
<path d="M97.9047 108.601C97.8181 108.168 96.7786 103.403 89.4447 104.212C89.4447 104.212 93.0828 104.125 93.949 105.598C93.949 105.598 91.2349 104.01 89.3292 104.905C87.4235 105.829 86.7595 109.467 86.9327 110.622C87.0771 111.777 88.7229 115.299 90.051 115.444C90.5419 115.501 91.0905 115.386 91.5814 115.213C91.3215 115.79 91.0616 116.425 90.8595 117.118C88.8095 123.528 92.6786 128.928 95.0462 127.917C96.5765 127.282 97.4138 129.909 97.4138 129.909L110.984 115.242C110.927 115.299 103.593 104.443 97.9047 108.601Z" fill="#2C3A64"/>
<path d="M115.573 285.278L112.282 286.52C112.282 286.52 97.9604 266.655 96.1991 249.186C95.8815 246.068 95.9969 243.036 96.661 240.264C96.661 240.264 96.5167 239.456 96.2857 238.041C96.1702 237.377 96.0258 236.597 95.8815 235.673C95.4195 233.017 94.7843 229.35 94.0335 225.192C92.3589 215.635 90.1645 203.393 88.4609 194.413L89.356 194.124L98.9709 191.035L100.963 184.712L108.124 182.835C108.124 182.835 109.712 185.953 111.156 200.736C111.415 202.671 111.646 204.808 111.849 207.117C112.397 214.192 112.455 222.969 111.156 233.017C110.838 235.587 110.405 238.243 109.885 240.957C109.51 242.95 109.452 245.664 109.596 248.811C110.318 263.075 115.573 285.278 115.573 285.278Z" fill="#2B478B"/>
<path d="M111.82 207.117L96.2857 238.012C96.1702 237.348 96.0258 236.568 95.8815 235.645C95.4195 232.988 94.7843 229.321 94.0335 225.163C92.3589 215.606 90.1645 203.364 88.4609 194.384L89.356 194.095L98.9709 191.006L100.963 184.683L108.124 182.806C108.124 182.806 109.712 185.924 111.156 200.707C111.387 202.671 111.646 204.808 111.82 207.117Z" fill="#233862"/>
<path d="M104.976 186.79L104.63 183.701C98.595 185.289 82.4835 179.226 82.4835 179.226C82.4835 179.226 76.651 184.365 77.4017 196.665C77.7771 202.671 78.4701 228.195 79.163 235.76C79.4229 238.503 79.6539 240.438 79.7405 241.217C79.7694 241.448 79.6828 241.679 79.5673 241.881C78.5278 243.671 77.6327 245.519 76.9398 247.425C69.9235 266.106 78.0081 289.09 78.0081 289.09L80.1159 288.252C80.1159 288.252 84.7068 262.641 88.4603 251.352C89.0955 249.446 89.7019 247.916 90.2505 247.021C91.8674 244.393 93.3977 240.12 94.7548 235.009C97.3534 225.366 99.4323 212.834 100.818 203.133C101.02 203.162 104.976 186.79 104.976 186.79Z" fill="#2B478B"/>
<path d="M106.938 161.439C106.996 161.613 107.025 161.757 107.112 161.93C109.479 168.571 113.666 175.53 116.524 178.071C118.401 179.745 123.569 181.507 127.958 182.748C130.875 183.614 133.473 184.221 134.541 184.481C134.888 184.567 135.09 184.596 135.09 184.596L136.072 181.709C136.072 181.709 133.791 180.294 131.019 178.417C127.15 175.79 122.328 172.325 121.404 170.852C119.267 167.387 117.853 156.849 116.005 149.717C115.918 149.341 115.831 148.966 115.716 148.591C115.658 148.331 115.571 148.071 115.514 147.811C115.485 147.753 115.485 147.667 115.456 147.609C115.369 147.32 115.283 147.032 115.196 146.801C115.196 146.772 115.167 146.743 115.167 146.714C114.792 145.53 113.926 143.884 113.926 143.884C113.377 143.047 112.8 142.643 112.164 142.787C112.164 142.787 111.298 143.047 110.201 143.798C109.97 143.942 109.739 144.144 109.479 144.346C109.306 144.433 109.19 144.577 109.046 144.693C108.18 145.472 107.256 146.541 106.563 148.013C106.043 149.11 105.61 150.41 105.408 151.969C105.061 154.539 105.726 157.917 106.938 161.439Z" fill="#FFB27D"/>
<path d="M110.203 149.313C108.441 150.439 106.276 151.363 103.562 151.911C93.3983 153.961 89.7602 145.299 88.4609 139.409C89.8757 138.658 91.1751 138.514 91.9258 138.456C92.6476 138.398 93.4272 138.341 94.0624 138.341C95.2174 137.503 97.0075 133.981 97.5561 128.466L98.0181 128.61L105.929 131.007C105.929 131.007 105.496 133.519 105.237 135.915C105.034 137.792 104.977 139.582 105.323 140.015C105.929 140.16 106.305 140.275 106.305 140.275C106.42 140.477 108.644 144.346 110.203 149.313Z" fill="#FFB27D"/>
<path d="M105.931 131.036C105.931 131.036 105.498 133.548 105.238 135.944C100.734 135.367 98.7702 131.007 98.0195 128.639L105.931 131.036Z" fill="#ED7D2B"/>
<path d="M107.232 133.461C107.232 133.461 96.5199 132.566 97.1839 125.925C97.848 119.284 96.8952 114.664 103.767 114.953C110.639 115.242 111.707 117.898 112.025 120.179C112.343 122.46 110.033 133.519 107.232 133.461Z" fill="#FFB27D"/>
<path d="M115.692 148.591C115.635 148.331 115.548 148.071 115.49 147.811C115.461 147.753 115.461 147.667 115.432 147.609C115.346 147.32 115.259 147.032 115.173 146.801C115.173 146.772 115.144 146.743 115.144 146.714C114.768 145.53 113.902 143.884 113.902 143.884C113.527 143.278 113.123 142.758 112.689 142.556C112.343 142.354 110.495 141.257 106.337 140.275C106.453 140.506 109.282 147.003 108.82 148.562C108.33 150.121 94.528 147.291 93.6618 146.31C92.9688 145.53 92.2758 140.939 92.0448 139.149C91.9871 138.716 91.9582 138.427 91.9582 138.427C91.9582 138.427 86.9631 138.485 84.3645 139.986C84.3645 139.986 85.8081 142.181 86.5588 144.722C86.6455 144.953 86.7032 145.212 86.761 145.443C86.8765 145.963 86.992 146.483 87.0208 147.003C87.0786 147.696 86.8187 148.331 86.3567 148.995C85.9236 149.601 85.3173 150.236 84.6243 150.929C84.1623 151.363 83.6715 151.825 83.1806 152.344C83.5849 155.405 84.5377 160.429 84.7398 165.886C84.7976 167.272 84.5377 168.629 83.9891 169.899C83.787 170.39 83.4983 170.881 83.2095 171.343C80.7841 175.01 76.5975 182.2 78.301 186.069C78.9362 189.851 111.65 190.198 110.38 186.126C110.38 186.126 111.823 162.248 113.613 156.271C113.671 156.04 113.729 155.838 113.787 155.636C114.277 153.355 113.844 151.16 113.296 149.226C114.133 148.908 115.057 148.706 115.692 148.591Z" fill="#ED7D2B"/>
<path d="M112.052 116.454C110.608 114.289 109.309 114.607 108.558 115.126C103.044 111.344 98.7991 115.704 98.7991 115.704C97.6153 120.41 93.8906 122.807 93.8906 122.807C93.8906 122.807 95.7097 124.193 100.329 123.5C101.744 123.297 103.044 122.431 104.227 121.363C102.12 124.221 99.4055 126.185 99.4055 126.185C105.007 124.25 107.923 117.003 108.212 116.223C108.818 116.888 109.973 118.273 110.233 119.573C110.608 121.334 110.493 124.828 111.504 124.828C111.504 124.77 114.247 119.688 112.052 116.454Z" fill="#2C3A64"/>
<path d="M100.617 179.63C94.2941 180.467 87.9996 174.692 83.9862 169.928C84.5348 168.658 84.7947 167.301 84.7369 165.915C84.5348 160.458 83.582 155.434 83.1777 152.373C83.6686 151.882 84.1594 151.42 84.6214 150.958C85.3144 150.265 85.9207 149.659 86.3538 149.024C92.7926 157.051 109.193 178.475 100.617 179.63Z" fill="#E2782A"/>
<path d="M145.023 185.953C143.608 186.357 141.471 188.119 138.555 186.56C136.476 185.462 134.253 184.596 133.156 184.192C132.723 184.048 132.463 183.961 132.463 183.961L134.08 180.583C134.08 180.583 134.109 180.612 134.224 180.64C134.975 180.9 138.873 182.229 140.778 182.026C142.915 181.795 146.149 184.712 146.149 184.712C146.149 184.712 146.438 185.549 145.023 185.953Z" fill="#FFB27D"/>
<path d="M90.2239 290.822H73.6216C73.6216 290.822 73.2173 288.281 74.0835 286.376C74.9209 284.528 76.2202 283.69 75.9026 281.467C76.9709 282.564 78.6744 283.777 81.0709 283.459C81.3597 283.95 82.9766 286.491 83.9583 287.184C85.0555 287.964 89.9063 287.675 90.2239 290.822Z" fill="#233862"/>
<path d="M125.885 290.822H109.283C109.283 290.822 108.647 288.166 109.744 286.375C110.697 284.787 110.351 283.863 109.629 282.564C110.38 282.882 111.361 283.142 112.43 283.084C113.267 283.026 114.133 282.651 114.913 282.218C115.635 283.026 118.695 286.491 119.648 287.184C120.716 287.963 125.567 287.675 125.885 290.822Z" fill="#233862"/>
<path d="M104.66 129.592C104.66 129.592 104.805 130.487 106.97 130.487C106.97 130.487 108.789 130.487 108.789 129.534C108.818 129.534 107.086 128.726 104.66 129.592Z" fill="white"/>
<path d="M122.533 181.824C122.533 181.824 123.948 181.766 124.987 181.218C126.027 180.669 129.376 181.564 129.059 181.997C128.741 182.431 126.835 181.882 126.662 182.142C126.489 182.402 125.796 182.719 125.796 182.719L122.533 181.824Z" fill="#FFB27D"/>
<path d="M208.116 233.537H142.4C132.958 233.537 125.307 225.885 125.307 216.444V150.727C125.307 141.286 132.958 133.634 142.4 133.634H208.116C217.558 133.634 225.209 141.286 225.209 150.727V216.444C225.209 225.885 217.558 233.537 208.116 233.537Z" fill="#E3F0FF"/>
<path d="M212.277 158.235V207.002C212.277 208.446 212.046 209.832 211.584 211.131C210.053 215.578 206.098 218.898 201.305 219.562C200.756 219.649 200.179 219.678 199.601 219.678H150.834C145.348 219.678 140.67 216.184 138.909 211.304C138.418 209.976 138.158 208.532 138.158 207.031V158.235C138.158 151.247 143.817 145.559 150.834 145.559H199.601C206.589 145.559 212.277 151.218 212.277 158.235Z" fill="#D2E4FF"/>
<path d="M168.853 179.168C168.853 179.168 168.593 186.79 167.64 190.226L159.873 195.626L188.978 199.986L182.048 190.4C182.048 190.4 179.94 180.149 181.037 176.367C182.135 172.585 168.853 179.168 168.853 179.168Z" fill="#FFB27D"/>
<path d="M168.791 180.236C168.791 180.236 171.101 185.78 175.432 185.664C179.763 185.549 180.745 180.64 180.745 180.64L168.791 180.236Z" fill="#ED7D2B"/>
<path d="M166.226 175.732C166.226 175.732 164.811 168.744 163.858 166.637C162.877 164.529 162.068 155.058 172.896 154.596C172.896 154.596 177.054 155.087 179.335 153.701C179.335 153.701 179.335 155.087 178.757 155.578C178.757 155.578 182.511 154.683 185.427 157.946C188.372 161.208 183.464 172.613 183.724 175.299L166.226 175.732Z" fill="#B64C41"/>
<path d="M174.943 183.499C171.796 183.441 166.021 179.254 166.021 174.086V166.001C166.021 164.096 167.35 162.565 168.967 162.565H180.949C182.566 162.565 183.894 164.125 183.894 166.001V173.624C183.865 179.052 178.553 183.585 174.943 183.499Z" fill="#FFB27D"/>
<path d="M166.023 170.332C166.023 170.332 166.052 165.482 169.892 164.731C173.732 163.98 182.365 167.099 183.578 163.547C184.791 159.996 166.918 160.053 166.023 162.334C165.128 164.587 166.023 170.332 166.023 170.332Z" fill="#B64C41"/>
<path d="M193.192 192.536C192.354 192.219 191.95 192.19 191.95 192.19C188.774 191.381 185.8 190.833 182.999 190.486C182.682 190.457 182.364 190.399 182.046 190.371C180.141 192.911 178.611 194.066 176.994 194.875C176.647 195.048 176.272 195.221 175.896 195.366C175.579 195.51 175.261 195.626 174.915 195.77C174.482 195.712 174.077 195.597 173.673 195.452C173.442 195.366 173.211 195.279 172.98 195.164C169.891 193.72 167.581 190.284 167.581 190.197C167.148 190.255 166.743 190.284 166.339 190.342C162.701 190.804 160.218 191.468 159.15 191.814C158.919 191.843 151.007 192.94 138.852 211.275C140.613 216.155 145.29 219.648 150.776 219.648H199.544C200.121 219.648 200.699 219.62 201.247 219.533C206.04 218.898 209.967 215.548 211.526 211.102C202.402 197.214 195.819 193.518 193.192 192.536Z" fill="#2F5196"/>
<path d="M168.015 188.378C168.015 188.378 166.716 188.927 166.369 190.371C166.369 190.371 171.566 195.712 174.945 195.799L168.015 188.378Z" fill="#ED7D2B"/>
<path d="M174.945 195.799L181.644 188.119C181.644 188.119 183.03 189.014 183.001 190.515C183.001 190.515 177.833 196.001 174.945 195.799Z" fill="#ED7D2B"/>
<path d="M177.945 219.677H171.246C172.026 210.698 173.007 201.805 173.469 197.647C173.556 196.809 173.643 196.145 173.671 195.741C173.671 195.683 173.671 195.597 173.7 195.539C173.7 195.51 173.7 195.481 173.7 195.452C173.729 195.279 173.729 195.193 173.729 195.193H174.393L175.462 195.164H175.895C175.895 195.164 175.895 195.221 175.924 195.366C175.924 195.423 175.924 195.539 175.953 195.654C175.953 195.741 175.952 195.828 175.981 195.943C176.01 196.434 176.097 197.156 176.155 198.051C176.501 202.411 177.223 211.044 177.945 219.677Z" fill="#ED7D2B"/>
<path d="M172.402 193.056C172.402 193.056 175.492 192.738 177.369 192.94C177.744 192.969 177.946 193.373 177.773 193.72C177.253 194.673 176.185 196.319 175.059 196.319C173.471 196.319 170.988 193.171 172.402 193.056Z" fill="#E58638"/>
<path d="M132.289 185.376C131.422 186.559 129.084 188.378 126.11 186.992C123.973 186.011 121.692 185.289 120.566 184.942C120.133 184.827 119.873 184.74 119.873 184.74L121.288 181.276C121.288 181.276 121.317 181.304 121.432 181.333C122.212 181.535 126.052 181.564 128.16 182.69C130.614 184.019 133.328 183.99 132.289 185.376Z" fill="#FFB27D"/>
<path d="M122.676 181.795L122.07 185.058C122.07 185.058 120.972 184.942 119.182 184.769C118.663 184.711 118.345 184.654 118.345 184.654C116.93 184.509 115.227 184.278 113.379 184.018H113.35C110.174 183.557 106.622 182.95 103.591 182.199C101.454 181.651 99.606 181.045 98.3355 180.38C98.1912 180.323 98.1045 180.236 97.9602 180.149C94.8707 178.302 90.8861 172.382 87.5945 165.944C87.1326 165.049 86.6995 164.153 86.2952 163.287C84.7649 160.053 83.4945 156.877 82.6283 154.077C82.1086 152.431 81.7332 150.9 81.56 149.63C81.5022 149.197 81.4445 148.764 81.4156 148.36C81.3867 148.129 81.3867 147.898 81.3867 147.696C82.6283 146.598 85.5156 144.548 89.4425 144.779C89.5291 144.924 89.6157 145.068 89.6734 145.212C91.377 148.302 93.2249 152.315 94.9573 156.329C95.939 158.523 96.863 160.717 97.7869 162.739C98.3067 163.98 98.8553 165.135 99.3461 166.175C100.299 168.196 101.136 169.813 101.858 170.852C102.32 171.516 103.533 172.382 105.15 173.335C107.95 175.01 111.993 177.002 115.515 178.59C116.988 179.254 118.345 179.861 119.5 180.38C121.434 181.276 122.676 181.795 122.676 181.795Z" fill="#FFB27D"/>
<path d="M89.732 145.299C84.8235 144.404 81.4741 148.446 81.4741 148.446C80.8966 141.257 84.4192 139.957 84.4192 139.957C85.7763 139.235 87.6819 141.574 89.732 145.299Z" fill="#ED7D2B"/>
<path d="M634.402 252.305H560.313C559.071 252.305 558.061 251.294 558.061 250.052V239.947C558.061 238.705 559.071 237.694 560.313 237.694H634.402C635.644 237.694 636.654 238.705 636.654 239.947V250.052C636.654 251.294 635.644 252.305 634.402 252.305Z" fill="#ED7D2B"/>
<path d="M577.093 252.305L576.169 260.851L562.656 384.748C562.627 385.181 562.309 385.499 561.963 385.499C561.27 385.499 560.721 384.777 560.808 383.939L571.52 257.069L571.924 252.276H577.093V252.305Z" fill="#EFCBAB"/>
<path d="M577.09 252.305L576.166 260.851C575.531 257.444 571.488 257.098 571.488 257.098L571.892 252.305H577.09Z" fill="#CCA07F"/>
<path d="M632.761 385.527C632.385 385.527 632.097 385.21 632.068 384.777L618.555 260.88L617.977 255.538L617.631 252.333H622.828L623.232 257.127L623.55 260.88L633.944 383.997C634.002 384.806 633.454 385.527 632.761 385.527Z" fill="#EFCBAB"/>
<path d="M623.523 260.88C622.194 256.809 617.95 255.538 617.95 255.538L617.604 252.333H622.801L623.205 257.127L623.523 260.88Z" fill="#CCA07F"/>
<path d="M130.614 300.177H55.6003C54.6186 300.177 53.7812 299.368 53.7812 298.358V292.612C53.7812 291.63 54.5897 290.793 55.6003 290.793H130.614C131.596 290.793 132.433 291.601 132.433 292.612V298.358C132.404 299.368 131.596 300.177 130.614 300.177Z" fill="#ED7D2B"/>
<path d="M72.8406 300.177L71.9167 305.663L58.4038 385.036C58.3749 385.325 58.0573 385.527 57.7108 385.527C57.0179 385.527 56.4693 385.065 56.5559 384.545L67.268 303.266L67.6722 300.206H72.8406V300.177Z" fill="#EFCBAB"/>
<path d="M72.8398 300.177L71.9158 305.663C71.2806 303.468 67.2383 303.237 67.2383 303.237L67.6425 300.177H72.8398Z" fill="#CCA07F"/>
<path d="M128.509 385.527C128.133 385.527 127.845 385.325 127.816 385.036L114.303 305.663L113.725 302.256L113.379 300.206H118.576L118.98 303.266L119.298 305.663L129.692 384.517C129.75 385.065 129.202 385.527 128.509 385.527Z" fill="#EFCBAB"/>
<path d="M119.269 305.663C117.941 303.064 113.696 302.256 113.696 302.256L113.35 300.206H118.547L118.951 303.266L119.269 305.663Z" fill="#CCA07F"/>
<path d="M244.726 112.556H178.317C168.789 112.556 161.051 104.818 161.051 95.29V28.8807C161.051 19.3524 168.789 11.6143 178.317 11.6143H244.726C254.255 11.6143 261.993 19.3524 261.993 28.8807V95.29C261.993 104.818 254.255 112.556 244.726 112.556Z" fill="#E3F0FF"/>
<path d="M248.916 36.4455V85.7328C248.916 86.8589 248.771 87.9272 248.511 88.9666C247.472 92.98 244.527 96.2139 240.744 97.6864C240.6 97.7442 240.456 97.8019 240.311 97.8597C239.012 98.3217 237.597 98.5527 236.125 98.5527H186.809C186.173 98.5527 185.509 98.4949 184.903 98.4083C180.918 97.8019 177.511 95.3766 175.634 91.9983C174.595 90.1504 174.018 88.0138 174.018 85.7616V36.4455C174.018 29.3715 179.763 23.6256 186.837 23.6256H236.125C243.17 23.6545 248.916 29.3715 248.916 36.4455Z" fill="#D2E4FF"/>
<path d="M207.248 54.9245C207.248 54.9245 207.017 61.6232 206.18 64.626L199.395 69.3613L224.977 73.2015L218.884 64.7704C218.884 64.7704 217.036 55.7618 218.018 52.4414C218.971 49.1498 207.248 54.9245 207.248 54.9245Z" fill="#FFB27D"/>
<path d="M207.223 55.8484C207.223 55.8484 209.244 60.728 213.055 60.6125C216.866 60.497 217.733 56.1948 217.733 56.1948L207.223 55.8484Z" fill="#ED7D2B"/>
<path d="M204.941 51.9215C204.941 51.9215 203.7 45.7715 202.862 43.9236C201.996 42.0757 201.274 33.76 210.803 33.3269C210.803 33.3269 214.441 33.7601 216.462 32.5474C216.462 32.5474 216.462 33.76 215.971 34.1932C215.971 34.1932 219.263 33.4136 221.832 36.2721C224.402 39.1305 220.129 49.1497 220.331 51.5173L204.941 51.9215Z" fill="#2C3A64"/>
<path d="M220.473 43.3461V50.0447C220.473 51.1708 220.213 52.2391 219.78 53.2208C219.03 54.9244 217.759 56.3969 216.344 57.3498C215.103 58.216 213.775 58.7357 212.62 58.7068C211.638 58.6779 210.339 58.216 209.097 57.3786C207.422 56.2526 205.806 54.5201 205.141 52.499V52.4701L205.113 52.3835C204.91 51.7483 204.795 51.1131 204.795 50.449V43.3461C204.795 41.6714 205.95 40.3143 207.365 40.3143H217.904C219.318 40.3432 220.473 41.7003 220.473 43.3461Z" fill="#FFB27D"/>
<path d="M227.576 66.3872C227.576 66.3872 221.571 65.0879 218.885 64.7703C216.518 67.9175 214.814 68.7837 212.649 69.6211C209.155 69.1302 206.21 64.7125 206.21 64.6259C202.399 65.0301 199.858 65.8386 198.789 66.1562C198.558 66.1851 189.232 67.4844 175.633 92.0847C177.538 95.4629 180.917 97.9172 184.901 98.4947C186.663 96.9932 190.416 93.7016 193.361 91.1608C193.332 91.9981 193.332 92.7488 193.332 93.384C193.39 95.1453 193.448 96.9066 193.477 98.639H230.579C230.522 97.7439 230.464 96.9066 230.406 96.0693C230.291 93.5284 230.146 91.1896 230.06 89.053C230.06 89.0241 230.06 89.0241 230.06 88.9952C230.06 88.9664 230.06 88.9375 230.06 88.9375C230.608 89.3995 231.243 89.9481 231.936 90.5544C232.081 90.6699 232.225 90.7854 232.369 90.9298C232.485 91.0453 232.629 91.1319 232.745 91.2474C232.918 91.3918 233.091 91.5361 233.265 91.7094C233.582 91.9981 233.9 92.258 234.217 92.5467C234.362 92.6622 234.506 92.8066 234.65 92.922C234.737 92.9798 234.795 93.0664 234.881 93.1242C234.968 93.2108 235.055 93.2685 235.141 93.3552C235.199 93.4129 235.286 93.4707 235.343 93.5284C235.517 93.6728 235.661 93.8171 235.805 93.9326C235.95 94.0481 236.065 94.1636 236.181 94.2791C236.296 94.3657 236.383 94.4524 236.498 94.5678C236.874 94.9143 237.278 95.2319 237.653 95.5496C237.798 95.6651 237.942 95.8094 238.086 95.9249C238.231 96.0693 238.375 96.1848 238.52 96.3003C238.635 96.3869 238.722 96.4735 238.837 96.5601C238.895 96.589 238.924 96.6467 238.982 96.6756C239.126 96.82 239.299 96.9355 239.443 97.051C239.588 97.1953 239.732 97.3108 239.877 97.4263C239.934 97.4841 239.992 97.513 240.05 97.5707C240.108 97.6285 240.165 97.6862 240.223 97.7151C240.367 97.6573 240.512 97.5996 240.656 97.5418C244.467 96.0693 247.384 92.8354 248.423 88.822C235.777 67.0513 227.576 66.3872 227.576 66.3872Z" fill="#ED7D2B"/>
<path d="M204.766 47.1575C204.766 47.1575 204.795 42.8843 208.173 42.2202C211.552 41.5561 219.117 44.2991 220.185 41.1807C221.253 38.0624 205.546 38.1201 204.766 40.1124C203.987 42.1047 204.766 47.1575 204.766 47.1575Z" fill="#2C3A64"/>
<path d="M197.893 98.5524H193.504C193.475 96.7911 193.417 95.0587 193.36 93.2974C193.331 92.6333 193.36 91.8826 193.388 91.0741C193.388 90.9009 193.388 90.6988 193.417 90.4966C193.446 90.5544 193.533 90.6987 193.648 90.8431C194.255 91.9403 196.045 94.9143 197.893 98.5524Z" fill="#E2782A"/>
<path d="M216.345 54.4336V57.3787C215.103 58.2449 213.775 58.7646 212.62 58.7357C211.639 58.7069 210.339 58.2449 209.098 57.4076V54.4336C209.098 52.7878 210.455 51.4307 212.101 51.4307H213.342C214.988 51.4307 216.345 52.7878 216.345 54.4336Z" fill="#2C3A64"/>
<path d="M240.715 97.6863C240.571 97.744 240.427 97.8018 240.282 97.8595C240.224 97.8018 240.167 97.7729 240.109 97.7151C240.051 97.6574 239.993 97.6285 239.936 97.5708C239.791 97.4553 239.647 97.3109 239.503 97.1954C239.358 97.0799 239.214 96.9355 239.041 96.8201C238.983 96.7912 238.954 96.7334 238.896 96.7046C238.781 96.6179 238.694 96.5313 238.579 96.4447C238.434 96.3292 238.29 96.1848 238.146 96.0693C238.001 95.9539 237.857 95.8095 237.712 95.694C237.337 95.3764 236.962 95.0299 236.558 94.7123C236.442 94.6257 236.355 94.539 236.24 94.4235C236.124 94.3081 235.98 94.1926 235.865 94.0771C235.72 93.9327 235.547 93.7883 235.403 93.6728C235.345 93.6151 235.258 93.5573 235.2 93.4996C235.114 93.413 235.027 93.3264 234.941 93.2686C234.854 93.2109 234.767 93.1242 234.71 93.0665C234.565 92.9221 234.421 92.8066 234.277 92.6911C233.959 92.4024 233.641 92.1425 233.324 91.8538C233.15 91.7094 232.977 91.5362 232.804 91.3918C232.688 91.2763 232.544 91.1608 232.429 91.0742C232.284 90.9587 232.14 90.8143 231.995 90.6988C231.303 90.0925 230.667 89.5439 230.119 89.0819L230.09 89.0531C230.09 89.0531 230.09 89.0531 230.119 89.0242C230.465 88.7643 233.67 86.6565 235.691 90.2369C237.077 92.6623 239.358 95.8384 240.715 97.6863Z" fill="#E2782A"/>
<path d="M219.779 53.2498C218.364 56.4836 215.043 58.7935 212.618 58.7358C210.279 58.7069 206.295 56.0794 205.111 52.5279V52.4991L205.082 52.4124C205.082 52.4124 207.594 54.5491 209.24 53.4808H216.198C216.198 53.4808 218.017 54.5202 219.779 53.2498Z" fill="#2C3A64"/>
<path d="M213.455 54.0872H211.953C211.607 54.0872 211.174 53.5386 211.174 53.1922C211.174 53.1922 211.607 52.8457 211.953 52.8457H213.455C213.801 52.8457 214.292 53.1344 214.379 53.3365C214.379 53.3077 214.177 54.0872 213.455 54.0872Z" fill="#FFB27D"/>
<path d="M365.476 110.477H299.067C289.539 110.477 281.801 102.739 281.801 93.211V26.8017C281.801 17.2734 289.539 9.53531 299.067 9.53531H365.476C375.005 9.53531 382.743 17.2734 382.743 26.8017V93.211C382.743 102.768 375.005 110.477 365.476 110.477Z" fill="#E3F0FF"/>
<path d="M369.664 34.3955V83.6827C369.664 86.8299 368.538 89.7173 366.632 91.9406C364.293 94.7124 360.771 96.4737 356.844 96.4737H307.557C304.323 96.4737 301.378 95.2899 299.126 93.2976C296.44 90.9588 294.766 87.494 294.766 83.6538V34.3955C294.766 27.3214 300.511 21.5756 307.586 21.5756H356.873C363.947 21.5756 369.664 27.3214 369.664 34.3955Z" fill="#D2E4FF"/>
<path d="M326.989 67.4557C326.989 67.4557 318.963 67.0515 318.732 62.4028C318.501 57.7542 311.86 54.376 313.794 50.6513C316.162 46.0892 313.996 41.7004 316.97 38.611C320.262 35.2328 324.391 37.0518 326.585 35.0884C328.78 33.125 332.764 31.3059 336.72 33.7313C340.676 36.1567 343.678 34.8574 346.277 37.1962C349.136 39.7948 348.067 43.0575 350.406 44.8188C352.571 46.4357 351.676 50.8823 349.857 54.4915C348.529 57.0901 351.561 59.5155 346.364 62.5183C344.198 63.7599 344.66 66.8782 338.106 67.4268C335.132 67.6867 328.722 66.3008 326.989 67.4557Z" fill="#2C3A64"/>
<path d="M327.219 63.3267C327.219 63.3267 326.988 70.574 326.064 73.8367L318.73 78.9473L346.391 83.0763L339.808 73.9522C339.808 73.9522 337.816 64.2218 338.855 60.6415C339.866 57.0612 327.219 63.3267 327.219 63.3267Z" fill="#B56F40"/>
<path d="M327.191 64.3373C327.191 64.3373 329.386 69.5923 333.486 69.4768C337.615 69.3614 338.539 64.7127 338.539 64.7127L327.191 64.3373Z" fill="#99592E"/>
<path d="M333.028 67.4558C330.054 67.398 324.539 63.4423 324.539 58.505V50.8246C324.539 49.0344 325.781 47.5619 327.311 47.5619H338.687C340.217 47.5619 341.459 49.0344 341.459 50.8246V58.0718C341.488 63.2402 336.435 67.5135 333.028 67.4558Z" fill="#B56F40"/>
<path d="M349.165 75.8291C345.816 74.9918 342.668 74.3277 339.752 73.9812C337.182 77.3883 335.334 78.2834 332.996 79.2362C329.213 78.7165 326.037 73.9523 326.037 73.8368C321.937 74.2699 319.165 75.1361 318.039 75.4826C317.722 75.5115 310.359 76.6664 299.127 93.442C301.379 95.4343 304.324 96.6181 307.558 96.6181H312.64H316.74H351.677C351.677 96.5892 351.677 96.5315 351.677 96.5026H356.874C360.801 96.5026 364.295 94.7413 366.662 91.9694C358.751 78.3988 349.165 75.8291 349.165 75.8291Z" fill="#B64C41"/>
<path d="M324.537 53.9428C324.537 53.9428 326.616 47.6195 333.401 48.6012C340.186 49.5829 340.764 51.0265 341.485 52.7301C342.207 54.4048 343.593 46.58 343.593 46.58L335.595 44.2124C335.595 44.2124 325.923 45.3096 325.201 46.9265C324.508 48.5434 324.508 48.5434 324.508 48.5434L324.537 53.9428Z" fill="#2C3A64"/>
<path d="M340.761 54.7802C340.386 54.3182 339.75 54.0584 339.057 54.0584H335.448C334.755 54.0584 334.293 54.2605 334.033 54.6359C333.918 54.8091 333.86 55.0112 333.831 55.2422C333.225 55.0978 332.648 55.1556 332.243 55.2711C332.214 55.0401 332.157 54.838 332.041 54.6359C331.781 54.2605 331.29 54.0584 330.626 54.0584H327.017C326.295 54.0584 325.689 54.3182 325.314 54.7802C324.967 55.2133 324.852 55.7619 324.967 56.3683C325.371 58.4183 327.71 58.6782 328.894 58.6782C329.269 58.6782 329.5 58.6493 329.558 58.6493C330.655 58.6493 331.435 58.0141 331.983 56.6859C332.07 56.4549 332.243 56.0218 332.243 55.5887C332.619 55.4732 333.225 55.3866 333.831 55.5598C333.86 56.0218 334.005 56.4549 334.091 56.6859C334.64 58.0141 335.419 58.6493 336.517 58.6493C336.574 58.6493 336.805 58.6782 337.181 58.6782C338.365 58.6782 340.703 58.4183 341.107 56.3971C341.223 55.733 341.107 55.1845 340.761 54.7802ZM331.983 55.6176C331.955 56.0218 331.81 56.3971 331.724 56.5704C331.204 57.8119 330.511 58.3894 329.5 58.3894H329.471C329.471 58.3894 328.49 58.5049 327.479 58.3028C326.151 58.0429 325.371 57.35 325.14 56.3105C325.025 55.7619 325.14 55.2999 325.429 54.9246C325.776 54.5204 326.324 54.2894 326.959 54.2894H330.569C331.175 54.2894 331.579 54.4626 331.781 54.7802C331.897 54.9535 331.926 55.1267 331.955 55.3288C331.781 55.3866 331.666 55.4443 331.637 55.4443C331.579 55.4732 331.521 55.5598 331.579 55.6464C331.608 55.7042 331.666 55.733 331.695 55.733C331.724 55.733 331.724 55.733 331.752 55.733C331.781 55.7042 331.868 55.6753 331.983 55.6176ZM340.876 56.3105C340.674 57.35 339.866 58.0141 338.538 58.3028C337.527 58.5049 336.545 58.3894 336.545 58.3894C335.564 58.3894 334.842 57.8119 334.322 56.5704C334.264 56.3971 334.12 56.0218 334.062 55.6176C334.12 55.6464 334.207 55.6753 334.264 55.7042C334.322 55.733 334.409 55.7042 334.467 55.6464C334.495 55.5887 334.467 55.5021 334.409 55.4443C334.293 55.3866 334.178 55.3288 334.062 55.2999C334.062 55.0978 334.12 54.9246 334.236 54.7802C334.438 54.4626 334.871 54.2894 335.448 54.2894H339.057C339.693 54.2894 340.27 54.5204 340.588 54.9246C340.876 55.2999 340.963 55.7619 340.876 56.3105Z" fill="#2C3A64"/>
<path d="M502.136 108.139L436.16 100.516C426.689 99.4189 419.904 90.8723 421.001 81.4018L428.624 15.4256C429.721 5.95503 438.268 -0.830266 447.738 0.266932L513.714 7.88956C523.185 8.98676 529.97 17.5334 528.873 27.0039L521.25 92.9801C520.182 102.451 511.606 109.236 502.136 108.139Z" fill="#E3F0FF"/>
<path d="M515.013 33.0385L509.354 82.0082C509.123 83.9138 508.488 85.6751 507.564 87.2343C506.091 89.6308 503.897 91.4498 501.298 92.4604C499.826 93.0379 498.209 93.3555 496.534 93.3266C496.072 93.3266 495.61 93.2978 495.148 93.24L474.388 90.8435L470.288 90.3815L456.862 88.8223L455.129 88.6202L446.178 87.5808C441.357 87.0322 437.459 83.8561 435.755 79.6405C435.64 79.3807 435.553 79.0919 435.437 78.8032C435.062 77.6771 434.86 76.5222 434.831 75.2806C434.802 74.6454 434.831 74.0102 434.918 73.3461L440.577 24.3765C441.385 17.3602 447.738 12.3073 454.754 13.1158L503.724 18.775C510.798 19.6412 515.822 25.9934 515.013 33.0385Z" fill="#D2E4FF"/>
<path d="M494.28 44.328C494.28 44.2991 494.28 44.2414 494.251 44.2125C494.107 43.3174 493.905 42.4223 493.732 41.5561C494.829 34.5687 492.143 31.5658 489.805 30.0355C488.563 27.5813 487.206 25.8777 485.965 25.3003C483.655 24.2319 480.998 24.3186 479.179 24.5784C479.612 24.0587 480.536 23.7988 480.536 23.7988C479.381 23.7122 476.927 25.0693 476.927 25.0693C460.469 20.2763 459.949 43.9237 460.758 49.352C461.537 54.7802 456.023 57.0324 448.082 62.0275C440.893 66.5606 436.995 71.4403 434.916 75.3382C434.945 76.5509 435.176 77.7347 435.522 78.8608C435.782 78.6298 436.042 78.4566 436.302 78.37C436.273 78.4277 436.1 78.9474 435.84 79.6981C437.543 83.9137 441.441 87.0609 446.263 87.6384L455.214 88.6778L456.947 88.8799L470.373 90.4391C471.788 88.4468 473.318 86.3679 474.906 84.3179C478.775 79.3228 483.019 74.4143 486.715 70.8339C487.928 69.6501 489.083 68.6107 490.151 67.7733C490.18 67.7445 490.238 67.7156 490.267 67.6867C490.786 66.7628 491.191 65.6944 491.537 64.5972C492.663 60.8726 492.894 56.7436 492.894 56.3394C492.894 60.1796 492.548 62.836 492.115 64.6839C491.941 65.4057 491.739 66.012 491.566 66.5029C492.028 65.9832 492.461 65.4057 492.836 64.7705C495.579 59.9486 495.608 51.9217 494.28 44.328Z" fill="#163560"/>
<path d="M487.64 69.1304C487.698 69.1593 482.241 71.2382 478.459 69.7368C474.936 68.3219 473.088 63.3268 473.146 63.3268C474.734 63.2113 475.427 61.1324 476.437 52.0084L477.13 52.2393L488.593 55.9063C488.593 55.9063 487.9 59.5732 487.496 63.0381C487.15 65.9543 487.005 68.755 487.64 69.1304Z" fill="#FFB27D"/>
<path d="M473.031 30.2667C473.031 30.2667 478.315 23.5969 486.111 28.8519C486.111 28.823 481.809 28.4476 473.031 30.2667Z" fill="#BC3F3F"/>
<path d="M488.592 55.8774C488.592 55.8774 487.899 59.5443 487.495 63.0092C480.94 62.0564 478.168 55.6753 477.129 52.1816L488.592 55.8774Z" fill="#EF9E67"/>
<path d="M490.414 57.9852C490.414 57.9852 474.851 59.5443 474.014 49.8428C473.176 40.1413 470.607 33.7891 480.51 32.3743C490.414 30.9595 492.666 34.5109 493.734 37.687C494.831 40.8631 494.456 57.3211 490.414 57.9852Z" fill="#FFB27D"/>
<path d="M487.61 31.5369C487.61 31.5369 484.29 43.2885 477.88 45.5406C471.47 47.7639 468.467 46.2625 468.467 46.2625C468.467 46.2625 473.144 41.8448 473.606 34.7996C473.635 34.7708 483.943 26.3974 487.61 31.5369Z" fill="#163560"/>
<path d="M486.627 32.5475C486.627 32.5475 490.034 34.8285 491.016 37.225C491.997 39.6215 492.777 44.7033 494.25 44.3857C494.25 44.3857 496.819 36.3588 492.835 32.2876C488.619 27.9855 486.627 32.5475 486.627 32.5475Z" fill="#163560"/>
<path d="M500.95 68.3798C499.333 66.3587 496.042 65.2904 492.779 64.7418C492.548 64.7129 492.317 64.6552 492.086 64.6263C491.884 64.5974 491.682 64.5685 491.48 64.5397C490.123 64.3664 488.794 64.2798 487.697 64.2221C487.524 63.9911 487.437 63.8467 487.408 63.7889L474.242 62.7206H474.098C474.098 62.7206 474.098 62.7206 474.069 62.7206H474.04C473.058 62.6051 459.401 61.2481 456.774 66.07C455.041 69.2172 455.012 75.2229 455.821 81.9216C455.561 84.1737 455.359 86.4836 455.186 88.6491L456.918 88.8512L470.344 90.4104L474.444 90.8724L495.204 93.2689C495.666 93.3266 496.128 93.3555 496.59 93.3555C498.265 93.3555 499.853 93.0668 501.354 92.4893C503.953 91.4787 506.147 89.6308 507.62 87.2632C505.57 79.0342 503.087 71.0362 500.95 68.3798Z" fill="#BC3F3F"/>
<path d="M511.288 233.883H444.907C435.379 233.883 427.67 226.174 427.67 216.646V150.237C427.67 140.708 435.379 132.999 444.907 132.999H511.288C520.816 132.999 528.525 140.708 528.525 150.237V216.617C528.554 226.145 520.816 233.883 511.288 233.883Z" fill="#E3F0FF"/>
<path d="M515.475 157.83V207.089C515.475 208.33 515.302 209.514 514.984 210.64C513.512 215.78 508.863 219.62 503.319 219.88C503.117 219.88 502.915 219.908 502.684 219.908H453.426C453.339 219.908 453.253 219.908 453.166 219.908C453.079 219.908 452.993 219.908 452.906 219.908C447.333 219.677 442.656 215.895 441.155 210.756C440.808 209.601 440.635 208.388 440.635 207.117V157.83C440.635 150.756 446.352 145.039 453.426 145.039H502.684C509.758 145.01 515.475 150.756 515.475 157.83Z" fill="#D2E4FF"/>
<path d="M470.693 180.64C470.693 180.64 470.404 189.389 469.278 193.316L460.414 199.495L493.821 204.49L485.852 193.489C485.852 193.489 483.455 181.738 484.697 177.407C485.967 173.076 470.693 180.64 470.693 180.64Z" fill="#FFB27D"/>
<path d="M470.637 181.853C470.637 181.853 473.264 188.205 478.259 188.061C483.226 187.917 484.381 182.286 484.381 182.286L470.637 181.853Z" fill="#ED7D2B"/>
<path d="M467.664 176.714C467.664 176.714 466.047 168.687 464.95 166.261C463.824 163.836 462.9 152.979 475.315 152.431C475.315 152.431 480.08 152.979 482.707 151.391C482.707 151.391 482.707 152.979 482.043 153.528C482.043 153.528 486.345 152.489 489.695 156.242C493.073 159.967 487.442 173.075 487.731 176.136L467.664 176.714Z" fill="#2C3A64"/>
<path d="M477.684 185.607C474.075 185.549 467.434 180.756 467.434 174.808V165.539C467.434 163.374 468.935 161.584 470.812 161.584H484.556C486.404 161.584 487.934 163.374 487.934 165.539V174.288C487.934 180.525 481.813 185.693 477.684 185.607Z" fill="#FFB27D"/>
<path d="M467.431 170.477C467.431 170.477 467.46 164.904 471.877 164.038C476.295 163.172 486.17 166.752 487.585 162.681C489 158.61 468.47 158.696 467.46 161.266C466.42 163.894 467.431 170.477 467.431 170.477Z" fill="#2C3A64"/>
<path d="M500.174 219.88H453.428C453.341 219.88 453.255 219.88 453.168 219.88C454.352 209.167 456.893 196.261 458.914 195.395C458.914 195.395 459.145 195.308 459.607 195.164C460.675 194.846 462.927 194.211 466.19 193.72H466.219C467.172 193.576 468.182 193.431 469.308 193.316C469.308 193.46 473.149 199.062 477.711 199.697C480.54 198.571 482.763 197.618 485.882 193.489C486.892 193.605 487.961 193.749 489.029 193.922C491.628 194.326 494.371 194.875 497.258 195.597C497.604 195.683 497.951 195.77 498.269 195.857C498.413 195.886 498.528 195.914 498.673 195.972C498.673 195.972 498.702 196.117 498.788 196.954C498.933 198.86 499.337 204.346 500.174 219.88Z" fill="#739AF0"/>
<path d="M459.289 195.222H459.26C459.087 195.25 458.856 195.337 458.538 195.424C458.509 195.424 458.509 195.424 458.48 195.453C458.452 195.453 458.452 195.453 458.452 195.453C458.423 195.453 458.423 195.453 458.423 195.453C455.968 196.319 449.789 199.437 441.156 210.669C442.658 215.808 447.335 219.62 452.908 219.822C452.994 219.822 453.081 219.822 453.168 219.822C453.254 219.822 453.341 219.822 453.428 219.822H458.076H465.843C465.988 211.911 466.074 205.039 466.132 200.303C466.161 198.224 466.19 196.55 466.19 195.424C466.19 194.269 466.219 193.662 466.219 193.662H466.19C463.735 194.009 460.733 194.817 459.289 195.222Z" fill="#2B478B"/>
<path d="M498.644 195.973C498.009 195.742 497.575 195.655 497.373 195.597C495.728 195.193 492.003 194.269 489 193.922C489 193.98 489 195.424 489.029 197.878C489.029 199.466 489.058 201.458 489.087 203.797C489.116 208.157 489.202 213.701 489.26 219.88H498.124H502.686C502.888 219.88 503.119 219.88 503.321 219.851C508.894 219.591 513.514 215.751 514.986 210.611C506.931 200.073 501.156 196.896 498.644 195.973Z" fill="#2B478B"/>
<path d="M486.402 170.015C485.969 169.495 485.276 169.207 484.468 169.207H480.425C479.646 169.207 479.126 169.438 478.837 169.871C478.693 170.073 478.635 170.304 478.606 170.535C477.913 170.362 477.278 170.448 476.816 170.564C476.787 170.304 476.73 170.073 476.585 169.871C476.296 169.438 475.748 169.207 474.997 169.207H470.955C470.146 169.207 469.453 169.495 469.02 170.015C468.645 170.477 468.501 171.112 468.645 171.805C469.107 174.086 471.734 174.375 473.063 174.375C473.467 174.375 473.756 174.346 473.813 174.346C475.055 174.346 475.921 173.653 476.556 172.123C476.672 171.863 476.845 171.372 476.874 170.881C477.307 170.766 477.971 170.65 478.664 170.852C478.693 171.372 478.866 171.863 478.982 172.123C479.617 173.624 480.483 174.346 481.725 174.346C481.782 174.346 482.071 174.375 482.475 174.375C483.804 174.375 486.431 174.086 486.893 171.805C486.922 171.112 486.778 170.506 486.402 170.015ZM476.527 170.997C476.47 171.459 476.325 171.863 476.239 172.065C475.661 173.451 474.853 174.115 473.756 174.115H473.727C473.727 174.115 472.629 174.231 471.475 174C469.973 173.682 469.078 172.931 468.847 171.776C468.732 171.17 468.847 170.621 469.165 170.217C469.54 169.755 470.175 169.495 470.897 169.495H474.939C475.603 169.495 476.065 169.669 476.325 170.044C476.441 170.217 476.499 170.448 476.527 170.679C476.325 170.737 476.181 170.795 476.181 170.824C476.094 170.852 476.065 170.968 476.094 171.026C476.123 171.083 476.181 171.112 476.239 171.112C476.268 171.112 476.296 171.112 476.296 171.112C476.296 171.055 476.383 171.026 476.527 170.997ZM486.518 171.747C486.287 172.931 485.392 173.682 483.89 173.971C482.735 174.202 481.667 174.086 481.638 174.086H481.609C480.483 174.086 479.704 173.422 479.126 172.036C479.039 171.863 478.895 171.401 478.837 170.939C478.924 170.968 478.982 170.997 479.068 171.055C479.155 171.083 479.242 171.055 479.27 170.997C479.299 170.91 479.27 170.824 479.213 170.795C479.097 170.737 478.953 170.679 478.837 170.621C478.866 170.419 478.924 170.188 479.039 170.015C479.27 169.669 479.732 169.466 480.425 169.466H484.468C485.19 169.466 485.825 169.726 486.2 170.188C486.518 170.593 486.633 171.141 486.518 171.747Z" fill="#B64C41"/>
<path d="M349.711 246.01H272.734C261.675 246.01 252.725 237.059 252.725 226.001V149.024C252.725 137.965 261.675 129.014 272.734 129.014H349.711C360.77 129.014 369.72 137.965 369.72 149.024V226.001C369.72 237.03 360.77 246.01 349.711 246.01Z" fill="#E3F0FF"/>
<path d="M354.559 157.801V214.942C354.559 221.179 350.719 226.492 345.291 228.715C344.973 228.83 344.656 228.975 344.309 229.061C342.865 229.523 341.306 229.783 339.718 229.783H282.577C274.377 229.783 267.736 223.142 267.736 214.942V157.801C267.736 149.601 274.377 142.96 282.577 142.96H339.718C347.918 142.96 354.559 149.601 354.559 157.801Z" fill="#D2E4FF"/>
<path d="M311.65 158.09C310.062 157.715 308.185 157.628 306.02 157.917C306.02 157.917 302.151 158.292 298.513 160.747C295.625 162.71 291.439 166.925 296.116 178.504L298.34 182.488C297.589 191.15 294.066 191.15 294.066 191.15C294.066 191.15 295.625 191.901 296.376 191.901C296.376 191.901 297.473 191.497 297.675 190.891C297.675 190.891 297.473 191.843 297.185 192.132C297.185 192.132 303.219 192.71 306.222 190.429C307.868 189.187 309.658 186.3 310.813 183.326L315.375 183.643C315.433 185.607 314.711 187.83 312.545 190.198C312.545 190.198 318.176 190.746 320.052 189.187C320.052 189.187 319.677 189.938 319.331 190.284C319.331 190.284 325.625 190.515 328.195 188.552C330.736 186.646 329.09 154.51 311.65 158.09Z" fill="#233862"/>
<path d="M333.423 229.783H288.958C288.409 226.319 288.092 223.114 288.294 220.024C288.554 216.155 290.257 212.661 292.278 209.803C295.57 205.183 299.67 202.296 299.67 202.296C299.67 202.296 299.785 202.267 299.959 202.238C300.276 202.18 300.825 202.094 301.402 202.036C301.951 201.747 302.182 199.726 302.24 197.358C302.269 196.694 302.269 196.03 302.269 195.337C302.269 194.76 302.269 194.153 302.24 193.576C302.24 193.316 302.24 193.027 302.211 192.767C302.211 192.681 302.211 192.623 302.211 192.536C302.211 192.421 302.211 192.305 302.211 192.19C302.211 192.103 302.211 192.017 302.211 191.93C302.211 191.786 302.211 191.67 302.211 191.526C302.211 191.353 302.211 191.179 302.182 191.006C302.182 190.977 302.182 190.948 302.182 190.891C302.182 190.717 302.182 190.573 302.153 190.429C302.153 190.255 302.124 190.053 302.124 189.88V189.736C302.124 189.447 302.095 189.216 302.095 188.985C302.095 188.927 302.095 188.869 302.095 188.812C302.095 188.754 302.095 188.667 302.095 188.61C302.095 188.552 302.095 188.494 302.095 188.436C302.095 188.234 302.066 188.09 302.066 187.945C302.066 187.917 302.066 187.888 302.066 187.859C302.066 187.83 302.066 187.801 302.066 187.772C302.066 187.657 302.066 187.57 302.066 187.57L309.574 186.098L314.713 185.087L315.319 184.971L315.464 184.943C315.464 186.877 315.55 188.667 315.752 190.284C315.897 191.67 316.128 192.912 316.388 194.067C317.312 198.224 318.784 200.708 319.824 201.112C319.853 201.141 319.881 201.141 319.939 201.141C324.992 202.238 332.759 215.52 333.423 229.783Z" fill="#D9935C"/>
<path d="M301.98 187.628C301.98 187.628 302.269 191.612 302.269 195.366C309.343 195.164 313.097 188.696 314.627 185.116L301.98 187.628Z" fill="#CB7D45"/>
<path d="M299.612 191.179C299.612 191.179 316.359 191.468 316.387 181.016C316.387 170.592 318.582 163.576 307.87 162.97C297.187 162.363 295.079 166.319 294.241 169.813C293.404 173.306 295.252 190.833 299.612 191.179Z" fill="#D9935C"/>
<path d="M300.246 162.71C300.246 162.71 304.837 174.952 311.882 176.771C318.927 178.59 321.988 176.685 321.988 176.685C321.988 176.685 316.589 172.382 315.462 164.904C315.434 164.933 303.711 156.906 300.246 162.71Z" fill="#233862"/>
<path d="M301.37 163.721C301.37 163.721 297.934 166.464 297.097 169.12C296.26 171.776 295.884 177.262 294.296 177.06C294.296 177.06 290.831 168.745 294.729 164.038C298.858 159.043 301.37 163.721 301.37 163.721Z" fill="#233862"/>
<path d="M300.738 164.125C300.738 164.125 304.001 176.945 312.894 181.045C312.894 181.045 304.001 173.162 303.25 164.702C302.5 156.242 300.738 164.125 300.738 164.125Z" fill="#233862"/>
<path d="M343.123 223.431C342.834 222.738 342.546 222.074 342.286 221.41C342.141 221.092 341.997 220.746 341.882 220.428C341.882 220.399 341.882 220.399 341.882 220.399C338.013 211.218 334.952 204.259 334.634 203.768C333.768 202.296 321.959 200.852 320.255 200.881C319.014 200.881 318.321 196.723 318.032 194.442C317.945 193.807 317.252 193.489 316.733 193.836C316.617 193.922 316.473 194.009 316.357 194.096C316.213 194.182 316.04 194.298 315.895 194.384C315.751 194.471 315.578 194.586 315.433 194.673C315.318 194.731 315.231 194.789 315.116 194.846C315 194.904 314.885 194.962 314.769 195.048C314.654 195.106 314.567 195.164 314.452 195.222C314.336 195.279 314.25 195.337 314.134 195.395C314.019 195.453 313.932 195.51 313.816 195.539C313.73 195.568 313.643 195.626 313.557 195.655C313.412 195.713 313.239 195.799 313.095 195.857C312.979 195.915 312.864 195.944 312.748 196.001C312.662 196.03 312.604 196.059 312.517 196.088C312.084 196.261 311.651 196.406 311.218 196.55C307.609 197.734 304.259 197.849 302.325 197.387C302.267 197.387 302.238 197.358 302.18 197.358C301.199 197.098 300.304 197.994 300.506 198.975C300.766 200.159 300.823 201.458 300.159 202.094C297.156 202.758 289.88 204.634 288.494 207.204C287.513 209.052 287.426 220.024 286.906 229.755H288.061H302.065H339.774C341.391 229.755 342.921 229.495 344.365 229.033C344.682 228.917 345.029 228.802 345.346 228.686C344.567 226.896 343.816 225.135 343.123 223.431Z" fill="#ED7D2B"/>
<path d="M327.07 229.783H319.967C321.757 226.809 323.461 224.644 324.471 224.528C325.337 224.442 326.232 226.665 327.07 229.783Z" fill="#E2782A"/>
<path d="M320.225 200.881C320.225 200.881 311.39 206.482 304.72 205.154C304.72 205.154 303.103 204.144 305.326 203.133C307.405 202.18 312.227 199.351 311.188 196.579C313.036 195.972 314.913 195.106 316.703 193.865C317.222 193.518 317.944 193.836 318.002 194.471C318.262 196.723 318.955 200.881 320.225 200.881Z" fill="#E2782A"/>
<path d="M411.9 231.66C411.9 231.66 425.355 245.432 426.02 250.716C426.684 256.029 419.523 264.316 419.523 264.316L411.9 231.66Z" fill="#E2782A"/>
<path d="M405.895 377.529C405.895 377.529 405.433 385.007 403.989 385.123C403.787 385.123 396.655 385.123 396.655 385.123L387.531 385.065C387.531 385.065 387.589 382.871 390.245 382.409C392.902 381.947 397.377 380.07 398.994 376.547C400.698 372.823 405.895 377.529 405.895 377.529Z" fill="#163560"/>
<path d="M426.221 377.529C426.221 377.529 425.759 385.007 424.315 385.123C424.113 385.123 416.981 385.123 416.981 385.123L407.857 385.065C407.857 385.065 407.915 382.871 410.572 382.409C413.228 381.947 417.703 380.07 419.32 376.547C420.995 372.823 426.221 377.529 426.221 377.529Z" fill="#163560"/>
<path d="M395.789 297.116C395.789 297.116 398.186 312.39 407.079 339.474C415.972 366.557 417.184 378.309 417.184 378.309L426.742 378.049C426.742 378.049 426.828 348.425 422.728 334.796C418.628 321.168 421.833 285.682 421.833 285.682L395.789 297.116Z" fill="#163560"/>
<path d="M391.142 286.52C391.142 286.52 390.796 309.532 394.78 337.77C398.765 366.009 397.408 377.991 397.408 377.991L406.936 378.309C406.936 378.309 412.624 350.042 411.007 335.922C409.39 321.803 418.803 287.415 418.803 287.415L391.142 286.52Z" fill="#1C468A"/>
<path d="M409.589 232.699L404.508 236.02L397.174 234.662C397.289 234.056 397.751 231.602 398.213 229.379C398.242 229.234 398.271 229.119 398.3 228.974C398.675 227.069 398.993 225.452 398.993 225.452L405.836 222.42L408.406 221.294C408.406 221.323 408.204 223.402 408.175 223.691C407.684 229.061 409.589 232.699 409.589 232.699Z" fill="#FFB27D"/>
<path d="M399.053 230.996C399.197 230.938 407.888 228.368 408.841 228.686C409.794 229.003 410.342 230.823 410.342 230.823L396.107 234.027C396.107 234.056 397.233 231.775 399.053 230.996Z" fill="#E2782A"/>
<path d="M422.467 289.349C420.995 296.077 396.452 296.885 390.129 290.764C389.407 290.071 389.378 286.837 389.638 282.477C390.158 273.96 391.861 261.111 391.948 254.556C391.977 251.38 392.41 248.147 392.987 245.201C394.229 238.936 396.106 234.027 396.106 234.027C396.106 234.027 408.088 230.158 410.34 230.822C421.139 233.998 423.94 282.622 422.467 289.349Z" fill="#ED7D2B"/>
<path d="M389.639 282.477C390.158 273.959 391.862 261.111 391.949 254.556C391.977 251.38 392.411 248.146 392.988 245.201L400.206 243.931C400.206 243.96 407.252 272.747 389.639 282.477Z" fill="#E2782A"/>
<path d="M393.565 270.581C393.565 270.581 394.056 271.765 393.016 272.545C391.977 273.324 391.313 274.624 391.544 275.548C391.775 276.472 394.056 278.002 394.836 277.771C395.615 277.54 397.203 276.298 397.059 275.807C396.914 275.317 398.127 271.476 396.221 270.004C394.287 268.531 393.565 270.581 393.565 270.581Z" fill="#FFB27D"/>
<path d="M401.621 232.324C401.621 232.324 394.605 233.652 389.003 241.881C383.402 250.11 379.706 256.26 380.745 259.234C381.785 262.208 391.169 272.516 392.815 272.516C394.431 272.516 397.059 271.332 397.203 268.676C397.203 268.676 390.591 258.743 391.891 257.271C392.439 256.635 400.495 250.11 401.621 253.055C403.498 257.964 401.621 232.324 401.621 232.324Z" fill="#ED7D2B"/>
<path d="M407.655 223.806C406.153 226.347 400.552 228.57 398.213 229.379C398.242 229.234 398.271 229.119 398.3 228.975C398.675 227.069 398.992 225.452 398.992 225.452L405.836 222.42C407.337 222.42 408.261 222.767 407.655 223.806Z" fill="#FCA56B"/>
<path d="M396.393 225.048C396.393 225.048 407.422 228.484 409.472 221.583C411.522 214.682 414.323 210.466 407.336 207.983C400.377 205.5 398.212 207.723 396.97 209.86C395.757 211.997 393.563 223.979 396.393 225.048Z" fill="#FFB27D"/>
<path d="M397.435 209.196C397.435 209.196 398.128 217.223 399.803 216.876C401.477 216.53 402.979 216.27 402.719 218.695C402.488 221.121 401.333 224.961 406.473 225.394C411.583 225.827 417.791 211.564 416.376 209.052C412.305 201.833 391.545 200.39 397.435 209.196Z" fill="#163560"/>
<path d="M590.402 80.9973C590.402 80.9973 585.349 86.9742 578.939 84.4622C578.939 84.4622 577.553 81.1128 577.553 78.6586C577.553 78.3698 577.553 78.0522 577.553 77.7924C577.524 75.0205 577.438 73.4613 577.438 73.4613C577.726 73.3458 587.255 69.419 587.255 69.7655C587.052 77.2726 590.402 80.9973 590.402 80.9973Z" fill="#FFB27D"/>
<path d="M586.243 71.5556C585.32 73.2592 582.172 76.5796 577.524 77.7923C577.495 75.0205 577.408 73.4613 577.408 73.4613C577.668 73.4036 586.532 71.0648 586.243 71.5556Z" fill="#ED975D"/>
<path d="M575.418 73.2015C575.418 73.2015 586.13 75.7135 587.603 69.0148C589.075 62.3161 591.443 58.1294 584.657 56.2526C577.872 54.3759 575.995 56.628 574.956 58.7358C573.917 60.8435 572.646 72.3641 575.418 73.2015Z" fill="#FFB27D"/>
<path d="M587.196 70.8339C587.34 70.9205 589.65 71.6423 594.01 62.9514C594.703 61.5943 595.165 58.6492 593.577 56.0217C591.989 53.4231 586.329 51.3731 581.623 50.478C576.917 49.5829 575.79 52.2393 574.693 54.8956C573.538 57.6964 570.16 59.9774 570.16 59.9774C574.202 62.2295 579.111 58.9957 580.786 59.5443C582.489 60.064 583.067 62.7493 583.211 63.5866C583.327 64.4528 583.529 65.1458 585.665 64.3951C587.802 63.6443 586.618 67.3979 586.301 68.1197C586.272 68.1197 585.983 70.0543 587.196 70.8339Z" fill="#A9453D"/>
<path d="M614.799 237.694H621.295C622.652 237.694 624.154 236.337 624.529 233.854C624.904 231.371 627.705 230.014 628.312 227.964C628.918 225.914 625.828 223.056 625.828 223.056L625.309 222.391L624.76 221.698L619.621 222.911C619.621 222.911 619.505 224.124 619.418 225.683C619.361 226.809 619.332 228.108 619.39 229.235C619.534 231.949 618.639 234.894 616.213 235.413C613.788 235.962 614.799 237.694 614.799 237.694Z" fill="#2C3A64"/>
<path d="M569.67 237.695H586.85C587.023 237.666 587.138 237.637 587.225 237.579C588.38 237.002 588.005 232.613 587.889 231.256C587.86 230.996 587.831 230.852 587.831 230.852C587.831 230.852 581.797 226.03 580.96 229.725C580.931 229.841 580.902 229.956 580.873 230.072C579.833 233.537 575.127 235.096 572.413 235.558C570.334 235.904 569.785 237.117 569.67 237.695Z" fill="#2C3A64"/>
<path d="M573.135 138.6C573.135 138.6 574.059 150.063 575.127 163.807C576.6 182.517 578.361 205.472 578.534 209.832C578.823 217.397 580.036 229.466 580.036 229.466C580.036 229.466 582.894 232.324 588.64 231.14C588.64 231.14 593.751 213.903 595.223 195.626C595.252 195.337 595.281 195.019 595.281 194.731C596.638 176.165 598.746 137.012 598.746 137.012L573.135 138.6Z" fill="#2B478B"/>
<path d="M573.135 138.6C573.135 138.6 574.059 150.063 575.127 163.807L595.223 195.626C595.252 195.337 595.281 195.019 595.281 194.731C596.638 176.165 598.746 137.012 598.746 137.012L573.135 138.6Z" fill="#233862"/>
<path d="M577.32 139.957C577.32 139.957 593.865 181.42 604.75 200.91C615.636 220.399 619.014 225.827 619.014 225.827C619.014 225.827 625.25 223.344 625.799 221.641C625.799 221.641 621.641 184.018 614.365 174.837C610.236 169.668 605.414 154.105 605.183 148.677C604.952 143.249 603.711 132.479 603.711 132.479L577.32 139.957Z" fill="#2B478B"/>
<path d="M615.033 132.45L615.206 135.106C615.206 135.106 613.444 139.842 618.382 142.267C618.382 142.267 620.49 143.104 620.576 141.488C620.663 139.871 620.403 140.477 620.576 138.138C620.75 135.828 619.826 133.634 618.295 132.912L617.054 131.468L615.033 132.45Z" fill="#FFB27D"/>
<path d="M616.967 134.385C615.148 134.962 614.831 134.847 614.831 134.847C614.831 134.847 605.909 118.62 605.014 117.147C604.119 115.675 586.102 98.9567 586.102 98.9567L590.721 81.6903C590.721 81.6903 611.222 108.225 613.416 112.036C617.083 118.331 619.22 132.941 619.22 132.941C619.22 132.941 618.411 133.923 616.967 134.385Z" fill="#1E3D70"/>
<path d="M569.64 105.713C569.698 109.265 569.9 113.249 570.189 117.291C570.218 117.522 570.218 117.782 570.247 118.013C570.42 120.525 570.622 123.037 570.824 125.492C570.911 126.473 570.997 127.455 571.113 128.408L571.142 128.523C571.142 128.87 571.199 129.274 571.228 129.621C572.123 138.802 573.076 146.05 573.249 146.165C573.452 146.309 573.683 146.367 573.942 146.338C576.339 146.05 583.528 146.569 589.419 145.299C594.385 144.259 598.658 142.267 603.191 139.582C603.798 139.235 605.155 138.283 605.039 137.59C604.924 136.81 604.722 135.713 604.462 134.298C603.567 129.418 602.036 121.016 601.517 111.17C601.401 109.351 601.257 107.532 601.084 105.742C600.593 101.122 599.784 96.7046 598.687 92.8067C596.666 85.5594 593.721 79.9868 589.996 77.8213C589.505 77.5614 586.907 79.2072 584.51 80.7664C582.287 82.1812 579.948 82.5854 577.696 82.3833L575.704 84.6066C573.278 87.4073 570.709 91.1609 570.016 96.4736C569.958 96.8779 569.929 97.2821 569.871 97.7152C569.611 99.8807 569.582 102.624 569.64 105.713Z" fill="#2A4E96"/>
<path d="M569.641 105.713C569.699 109.265 569.901 113.249 570.189 117.291C570.218 117.522 570.218 117.782 570.247 118.013C583.991 109.409 586.128 93.644 586.128 93.644C579.371 93.9327 573.972 95.4919 569.843 97.7152C569.612 99.8807 569.583 102.624 569.641 105.713Z" fill="#1E3D70"/>
<path d="M528.987 90.5545L526.475 89.2552C526.475 89.2552 524.858 83.9136 518.824 84.6931C518.824 84.6931 516.369 85.184 517.409 86.7143C518.448 88.2446 518.275 87.5228 519.661 89.7172C521.076 91.9116 523.357 93.3264 525.205 93.0665L527.313 93.6151L528.987 90.5545Z" fill="#ED975D"/>
<path d="M526.532 91.2474C527.254 89.3418 528.351 89.4573 528.351 89.4573C528.351 89.4573 548.793 94.539 550.641 94.77C552.489 95.001 572.672 86.8875 572.672 86.8875C572.672 86.8875 580.612 83.3072 584.337 86.5699C587.571 89.3995 587.715 92.9799 586.964 95.9827C586.069 99.563 583.038 102.219 579.371 102.681C571.142 103.721 554.713 105.713 551.248 105.222C543.596 104.154 526.214 94.1348 526.214 94.1348C526.214 94.1348 525.983 92.7489 526.532 91.2474Z" fill="#2A4E96"/>
<path d="M238.087 244.018C238.087 244.018 238.664 237.666 231.59 237.666C231.59 237.666 233.727 238.243 234.853 239.398C234.853 239.398 230.349 236.742 225.411 240.813C220.503 244.884 223.563 255.105 222.062 257.04C220.56 258.974 214.757 259.379 215.45 265.644C216.172 271.91 233.929 279.763 232.774 284.961C232.774 284.961 239.732 274.739 234.766 270.062C234.766 270.062 237.192 272.343 237.451 275.057C237.451 275.057 238.116 269.744 234.737 268.07C231.763 266.568 229.309 261.082 229.569 260.101C229.8 259.148 238.087 244.018 238.087 244.018Z" fill="#2C3A64"/>
<path d="M231.648 273.844C230.551 268.589 223.737 266.944 220.503 271.246C219.925 272.025 219.521 272.92 219.377 274.018C218.655 279.994 228.183 304.306 229.54 306.5C232.024 310.514 246.691 324.258 246.691 324.258L249.405 322.612C249.405 322.612 239.011 305.028 237.394 303.382C235.546 301.448 233.727 283.835 231.648 273.844Z" fill="#ED7D2B"/>
<path d="M230.089 270.582C230.089 270.582 232.168 272.747 233.121 275.317C233.121 275.317 229.801 284.816 222.062 286.029C222.062 286.029 228.184 270.582 230.089 270.582Z" fill="#005DA3"/>
<path d="M236.094 243.152C236.18 242.776 227.692 246.992 227.287 247.454C223.303 251.871 224.429 257.617 226.71 257.675C228.182 257.704 227.894 260.129 227.894 260.129L244.149 253.257C244.149 253.257 242.186 241.852 236.094 243.152Z" fill="#2C3A64"/>
<path d="M218.19 381.052L214.668 380.532C214.668 380.532 202.83 371.12 201.068 353.564C200.895 351.774 200.837 349.955 200.982 348.136C201.011 347.934 200.982 347.703 200.866 347.53C200.491 346.952 199.538 345.48 198.268 343.43C196.997 341.38 194.861 337.54 192.493 333.208C188.22 325.413 183.253 316.115 181.55 313.141C176.122 303.671 178.749 297.319 178.749 297.319C178.749 297.319 193.908 295.817 198.065 292.179L199.567 294.489C199.567 294.489 202.858 309.012 202.685 309.099C202.858 309.59 203.003 310.11 203.176 310.6C205.775 318.598 208.749 328.589 210.366 336.731C211.29 341.322 211.752 345.307 211.492 348.021C211.405 348.945 211.521 350.388 211.752 352.15C213.195 362.631 218.19 381.052 218.19 381.052Z" fill="#2B478B"/>
<path d="M225.583 385.527H210.886C210.886 385.527 210.54 383.275 211.291 381.601C212.013 379.984 213.081 379.926 211.435 377.356C212.359 378.309 215.362 378.713 217.499 378.425C217.758 378.858 219.173 381.687 220.039 382.294C220.992 382.987 225.294 382.727 225.583 385.527Z" fill="#233862"/>
<path d="M203.147 310.629C201.877 317.703 198.845 329.484 192.493 333.237C188.22 325.442 183.253 316.144 181.55 313.17C176.122 303.7 178.749 297.348 178.749 297.348C178.749 297.348 193.908 295.846 198.065 292.208L199.567 294.518C199.567 294.518 202.858 309.041 202.685 309.128C202.801 309.619 202.974 310.11 203.147 310.629Z" fill="#233862"/>
<path d="M192.838 298.445L192.895 295.702C187.409 296.395 174.012 289.147 174.012 289.147C174.012 289.147 168.295 292.959 167.515 303.844C167.14 309.157 164.715 331.592 164.455 338.319C164.368 340.744 164.31 342.477 164.31 343.17C164.31 343.372 164.195 343.574 164.079 343.747C162.953 345.191 161.972 346.721 161.105 348.28C152.761 363.814 157.121 384.921 157.121 384.921L159.055 384.43C159.055 384.43 166.129 362.544 170.72 353.074C171.5 351.457 172.222 350.215 172.799 349.493C174.532 347.385 176.351 343.805 178.17 339.503C181.577 331.361 184.897 320.62 187.236 312.304C187.438 312.333 192.838 298.445 192.838 298.445Z" fill="#2B478B"/>
<path d="M224.863 280.11C215.912 278.06 221.629 265.471 222.149 265.702C223.39 265.442 226.104 263.277 228.559 259.032L228.876 259.321L234.362 264.143C234.362 264.143 233.092 266.02 232.023 267.839C231.186 269.282 230.464 270.697 230.58 271.188C231.042 271.534 227.259 280.659 224.863 280.11Z" fill="#FFB27D"/>
<path d="M234.387 264.114C234.387 264.114 233.117 265.991 232.048 267.81C228.641 265.702 228.641 261.486 228.901 259.292L234.387 264.114Z" fill="#ED7D2B"/>
<path d="M234.531 266.539C234.531 266.539 226.245 261.919 229.19 256.809C232.135 251.698 233.059 247.627 238.487 250.37C243.915 253.113 243.8 255.654 243.222 257.588C242.645 259.523 236.755 267.608 234.531 266.539Z" fill="#FFB27D"/>
<path d="M244.641 254.586C244.265 252.305 243.11 252.102 242.302 252.247C239.241 247.194 234.246 249.157 234.246 249.157C231.561 252.507 227.721 253.084 227.721 253.084C227.721 253.084 228.674 254.874 232.658 255.971C233.871 256.318 235.257 256.116 236.585 255.654C233.842 257.184 230.955 257.762 230.955 257.762C236.181 258.252 241.147 253.459 241.667 252.94C241.898 253.69 242.331 255.221 242.071 256.376C241.724 257.906 240.367 260.707 241.205 261.053C241.147 261.111 245.189 258.022 244.641 254.586Z" fill="#2C3A64"/>
<path d="M168.788 385.527H154.092C154.092 385.527 153.745 383.275 154.496 381.601C155.218 379.984 156.373 379.233 156.113 377.27C157.037 378.222 158.567 379.32 160.704 379.031C160.963 379.464 162.378 381.716 163.244 382.322C164.226 382.987 168.499 382.727 168.788 385.527Z" fill="#233862"/>
<path d="M225.93 290.071C224.054 290.735 221.397 291.082 218.683 291.399C214.814 291.832 210.829 292.121 208.751 292.93C208 293.247 207.48 293.623 207.307 294.085C206.412 296.799 202.398 301.014 202.398 301.014C176.816 299.859 174.016 289.147 174.016 289.147C191.224 269.138 220.358 263.334 220.358 263.334C220.358 263.334 222.437 262.439 227.692 266.626C231.185 269.398 230.723 270.466 230.723 270.466C230.723 270.466 231.474 288.137 225.93 290.071Z" fill="#0066B3"/>
<path d="M218.682 291.399C214.813 291.833 210.828 292.121 208.749 292.93C207.883 280.168 213.918 270.582 213.918 270.582C213.918 270.582 217.815 286.549 218.682 291.399Z" fill="#005DA3"/>
<path d="M332.993 385.123H262.195C252.032 385.123 243.803 376.894 243.803 366.731V295.933C243.803 285.769 252.032 277.54 262.195 277.54H332.993C343.157 277.54 351.386 285.769 351.386 295.933V366.731C351.415 376.894 343.157 385.123 332.993 385.123Z" fill="#E3F0FF"/>
<path d="M337.464 304.017V356.538C337.464 360.147 336.078 363.41 333.797 365.835C331.314 368.521 327.763 370.195 323.807 370.195H271.286C267.244 370.195 263.606 368.434 261.094 365.633C258.928 363.208 257.629 360.032 257.629 356.538V304.017C257.629 296.481 263.75 290.36 271.286 290.36H323.807C331.343 290.36 337.464 296.481 337.464 304.017Z" fill="#D2E4FF"/>
<path d="M287.254 329.917C287.254 329.917 279.631 316.086 286.619 309.994C293.606 303.873 305.935 307.54 308.187 309.994C310.44 312.448 313.471 319.464 307.206 329.426L287.254 329.917Z" fill="#2C3A64"/>
<path d="M290.429 335.605C290.429 335.605 290.141 344.151 289.072 347.963L280.41 353.997L312.98 358.877L305.213 348.136C305.213 348.136 302.874 336.673 304.087 332.457C305.299 328.242 290.429 335.605 290.429 335.605Z" fill="#B56F40"/>
<path d="M290.371 336.788C290.371 336.788 292.941 342.996 297.792 342.852C302.642 342.708 303.74 337.222 303.74 337.222L290.371 336.788Z" fill="#99592E"/>
<path d="M297.244 340.455C293.722 340.398 287.254 335.72 287.254 329.916V320.879C287.254 318.771 288.726 317.039 290.546 317.039H303.943C305.733 317.039 307.234 318.771 307.234 320.879V329.397C307.234 335.489 301.286 340.513 297.244 340.455Z" fill="#B56F40"/>
<path d="M333.797 365.864C331.314 368.549 327.763 370.224 323.807 370.224H271.286C267.244 370.224 263.606 368.463 261.094 365.662C272.354 350.706 279.486 349.753 279.688 349.724C281.017 349.32 284.25 348.367 289.101 347.876C289.101 347.991 292.884 353.535 297.33 354.141C300.102 353.044 302.152 351.976 305.184 347.963C308.62 348.367 312.402 349.146 316.358 350.157V350.128C316.329 350.099 322.999 351.774 333.797 365.864Z" fill="#74ACBE"/>
<path d="M287.255 324.546C287.255 324.546 289.68 317.097 297.678 318.252C305.676 319.407 306.369 321.11 307.207 323.102C308.044 325.095 309.69 315.855 309.69 315.855L300.248 313.054C300.248 313.054 288.843 314.354 288.006 316.259C287.197 318.165 287.197 318.165 287.197 318.165L287.255 324.546Z" fill="#2C3A64"/>
<path d="M296.578 310.138C296.578 310.138 288.118 302.458 291.756 300.812C295.394 299.166 296.578 310.138 296.578 310.138Z" fill="#2C3A64"/>
<path d="M296.234 310.34C296.234 310.34 285.551 306.327 288.322 303.468C291.094 300.581 296.234 310.34 296.234 310.34Z" fill="#2C3A64"/>
<path d="M296.954 310.542C296.954 310.542 295.193 300.639 299.437 300.725C303.653 300.812 296.954 310.542 296.954 310.542Z" fill="#2C3A64"/>
<path d="M297.533 309.907C297.533 309.907 302.095 299.253 306.369 300.263C310.642 301.245 297.533 309.907 297.533 309.907Z" fill="#2C3A64"/>
<path d="M297.299 310.542C297.299 310.542 304.575 301.534 308.415 303.642C312.255 305.749 297.299 310.542 297.299 310.542Z" fill="#2C3A64"/>
<path d="M222.638 268.127C222.638 268.127 212.965 269.08 212.186 275.375C211.406 281.669 221.454 307.28 222.898 309.59C225.525 313.805 240.973 328.3 240.973 328.3L243.831 326.568C243.831 326.568 232.888 308.031 231.184 306.298C228.499 303.555 225.929 270.293 222.638 268.127Z" fill="#FFB27D"/>
<path d="M212.476 279.157C212.505 279.301 221.398 282.073 227.144 279.157C227.144 279.157 228.357 265.933 221.514 266.655C214.671 267.376 210.628 269.542 210.455 272.805C210.282 276.067 212.476 279.157 212.476 279.157Z" fill="#005DA3"/>
<path d="M240.973 328.3C240.973 328.3 239.79 332.833 240.973 334.883C242.157 336.933 243.832 338.521 243.832 338.521V326.568L240.973 328.3Z" fill="#FFB27D"/>
<path d="M566.812 385.123H491.25L516.081 277.54H588.034L591.326 278.984L566.812 385.123Z" fill="#CCA07F"/>
<path d="M563.172 385.123H487.609L512.441 277.54H588.032L563.172 385.123Z" fill="#E3F0FF"/>
<path d="M567.734 292.67H532.855C532.076 292.67 531.296 293.305 531.123 294.085C530.949 294.864 531.44 295.499 532.191 295.499H567.07C567.85 295.499 568.63 294.864 568.803 294.085C568.976 293.305 568.485 292.67 567.734 292.67Z" fill="#CBE2F7"/>
<path d="M566.983 300.119H530.169C529.938 300.119 529.707 300.321 529.649 300.552C529.592 300.783 529.736 300.985 529.967 300.985H566.781C567.012 300.985 567.243 300.783 567.301 300.552C567.358 300.321 567.214 300.119 566.983 300.119Z" fill="#CBE2F7"/>
<path d="M566.522 302.083H529.708C529.477 302.083 529.246 302.285 529.189 302.516C529.131 302.747 529.275 302.949 529.506 302.949H566.32C566.551 302.949 566.782 302.747 566.84 302.516C566.897 302.285 566.753 302.083 566.522 302.083Z" fill="#CBE2F7"/>
<path d="M516.832 295.47H526.244C527.024 295.47 527.804 294.835 527.977 294.056C528.15 293.276 527.659 292.641 526.909 292.641H517.496C516.716 292.641 515.937 293.276 515.763 294.056C515.59 294.835 516.081 295.47 516.832 295.47Z" fill="#CBE2F7"/>
<path d="M561.988 314.383H527.109C526.329 314.383 525.55 315.018 525.377 315.798C525.203 316.577 525.694 317.212 526.445 317.212H561.324C562.104 317.212 562.883 316.577 563.057 315.798C563.23 315.018 562.739 314.383 561.988 314.383Z" fill="#CBE2F7"/>
<path d="M561.235 321.832H524.421C524.19 321.832 523.959 322.034 523.901 322.265C523.844 322.496 523.988 322.698 524.219 322.698H561.033C561.264 322.698 561.495 322.496 561.553 322.265C561.61 322.034 561.466 321.832 561.235 321.832Z" fill="#CBE2F7"/>
<path d="M560.776 323.824H523.962C523.731 323.824 523.5 324.027 523.442 324.258C523.385 324.488 523.529 324.691 523.76 324.691H560.574C560.805 324.691 561.036 324.488 561.094 324.258C561.151 323.998 561.007 323.824 560.776 323.824Z" fill="#CBE2F7"/>
<path d="M511.082 317.183H520.494C521.274 317.183 522.054 316.548 522.227 315.769C522.4 314.989 521.909 314.354 521.159 314.354H511.746C510.966 314.354 510.187 314.989 510.013 315.769C509.84 316.548 510.331 317.183 511.082 317.183Z" fill="#CBE2F7"/>
<path d="M557.399 336.096H522.519C521.74 336.096 520.96 336.731 520.787 337.51C520.614 338.29 521.104 338.925 521.855 338.925H556.734C557.514 338.925 558.294 338.29 558.467 337.51C558.669 336.731 558.178 336.096 557.399 336.096Z" fill="#CBE2F7"/>
<path d="M556.647 343.545H519.833C519.602 343.545 519.371 343.747 519.314 343.978C519.256 344.209 519.4 344.411 519.631 344.411H556.445C556.676 344.411 556.907 344.209 556.965 343.978C557.051 343.747 556.878 343.545 556.647 343.545Z" fill="#CBE2F7"/>
<path d="M556.215 345.537H519.402C519.171 345.537 518.94 345.739 518.882 345.97C518.824 346.201 518.968 346.403 519.199 346.403H556.013C556.244 346.403 556.475 346.201 556.533 345.97C556.591 345.71 556.446 345.537 556.215 345.537Z" fill="#CBE2F7"/>
<path d="M506.52 338.896H515.933C516.713 338.896 517.492 338.261 517.665 337.482C517.839 336.702 517.348 336.067 516.597 336.067H507.184C506.405 336.067 505.625 336.702 505.452 337.482C505.25 338.261 505.741 338.896 506.52 338.896Z" fill="#CBE2F7"/>
<path d="M552.057 358.704H517.177C516.398 358.704 515.618 359.339 515.445 360.118C515.272 360.898 515.763 361.533 516.513 361.533H551.393C552.172 361.533 552.952 360.898 553.125 360.118C553.327 359.339 552.836 358.704 552.057 358.704Z" fill="#CBE2F7"/>
<path d="M551.305 366.153H514.491C514.26 366.153 514.029 366.355 513.972 366.586C513.914 366.817 514.058 367.019 514.289 367.019H551.103C551.334 367.019 551.565 366.817 551.623 366.586C551.681 366.355 551.565 366.153 551.305 366.153Z" fill="#CBE2F7"/>
<path d="M550.874 368.145H514.06C513.829 368.145 513.598 368.348 513.54 368.578C513.482 368.809 513.627 369.012 513.858 369.012H550.672C550.903 369.012 551.134 368.809 551.191 368.578C551.249 368.319 551.105 368.145 550.874 368.145Z" fill="#CBE2F7"/>
<path d="M511.258 358.704H501.816C501.037 358.704 500.257 359.339 500.084 360.118C499.91 360.898 500.401 361.533 501.152 361.533H510.565C511.344 361.533 512.124 360.898 512.297 360.118C512.499 359.339 512.008 358.704 511.258 358.704Z" fill="#CBE2F7"/>
<path d="M561.96 285.478H532.682C530.69 285.478 529.189 283.601 529.651 281.667L530.748 276.903H566.782L565.425 282.706C565.078 284.323 563.606 285.478 561.96 285.478Z" fill="#ED7D2B"/>
<path d="M566.787 276.876L569.27 277.54H566.643L566.787 276.876Z" fill="#E2782A"/>
<path d="M584.076 382.611C584.076 383.304 583.787 383.939 583.354 384.372C583.036 384.69 582.603 384.95 582.141 385.037C581.968 385.065 581.766 385.094 581.593 385.094H511.141C509.755 385.094 508.629 383.968 508.629 382.582C508.629 381.889 508.918 381.254 509.351 380.821C509.813 380.359 510.419 380.099 511.112 380.099H581.564C581.766 380.099 581.939 380.128 582.112 380.157C583.238 380.446 584.076 381.427 584.076 382.611Z" fill="#ED7D2B"/>
<path d="M582.113 380.128L591.324 382.149L582.113 385.123V380.128Z" fill="#739AF0"/>
<path d="M526.648 380.126V385.121H511.114C509.728 385.121 508.602 383.995 508.602 382.609C508.602 381.916 508.89 381.281 509.323 380.848C509.785 380.386 510.392 380.126 511.085 380.126H526.648Z" fill="#739AF0"/>
<path d="M634.338 387H56.7971C56.3573 387 56 386.725 56 386.387V386.175C56 385.837 56.3573 385.562 56.7971 385.562H634.338C634.778 385.562 635.135 385.837 635.135 386.175V386.387C635.135 386.725 634.778 387 634.338 387Z" fill="#2E3552"/>
</svg>
