<svg width="485" height="445" viewBox="0 0 485 445" fill="none" xmlns="http://www.w3.org/2000/svg">
<path opacity="0.7" d="M69.7398 35.788C86.3494 15.9452 108.796 0.655971 135.549 0.915111C181.207 1.48275 205.887 41.8962 232.072 73.0671C245.646 89.2325 261.059 104.83 281.223 112.432C311.468 123.822 345.156 117.17 374.624 106.595C387.828 101.856 403.463 95.1927 418.332 98.5985C463.534 108.939 458.832 164.099 451.367 199.034C441.285 246.222 424.897 296.396 391.69 332.602C312.184 419.34 169.101 366.167 97.3814 296.952C92.1122 291.855 87.0651 286.549 82.3142 280.91C69.9719 266.52 59.5253 250.607 51.2298 233.561C28.1293 185.497 24.9456 127.079 45.0598 77.4108C51.0998 62.3512 59.4241 48.3122 69.7398 35.788Z" fill="#EBF6FD"/>
<path opacity="0.7" d="M69.7398 35.788C86.3494 15.9452 108.796 0.655971 135.549 0.915111C181.207 1.48275 205.887 41.8962 232.072 73.0671C245.646 89.2325 261.059 104.83 281.223 112.432C311.468 123.822 345.156 117.17 374.624 106.595C387.828 101.856 403.463 95.1927 418.332 98.5985C463.534 108.939 458.832 164.099 451.367 199.034C441.285 246.222 424.897 296.396 391.69 332.602C312.184 419.34 169.101 366.167 97.3814 296.952C92.1122 291.855 87.0651 286.549 82.3142 280.91C69.9719 266.52 59.5253 250.607 51.2298 233.561C28.1293 185.497 24.9456 127.079 45.0598 77.4108C51.0998 62.3512 59.4241 48.3122 69.7398 35.788Z" fill="#EBF6FD"/>
<path d="M0.697266 444.193H484.302" stroke="#263238" stroke-linecap="round" stroke-linejoin="round"/>
<path d="M339.629 157.485L334.693 184.312L294.439 208.77L300.005 218.988C300.005 218.988 346.539 204.797 347.674 201.477C348.809 198.158 359.533 163.001 359.533 163.001L339.629 157.485Z" fill="white" stroke="#263238" stroke-linecap="round" stroke-linejoin="round"/>
<path d="M357.262 112.123L354.572 144.651L353.153 161.718C345.391 165.494 337.802 159.817 337.333 159.447C339.443 153.252 341.899 118.293 357.262 112.123Z" fill="#F5821F" stroke="#263238" stroke-linecap="round" stroke-linejoin="round"/>
<path d="M354.523 144.651L353.104 161.718C345.342 165.494 337.753 159.817 337.284 159.447C337.617 159.595 341.702 161.323 344.355 159.447C343.427 158.445 342.6 157.354 341.887 156.189C341.727 155.548 344.355 155.375 344.355 155.375C344.355 155.375 342.627 141.542 347.23 135.631C349.032 133.385 351.845 138.074 354.523 144.651Z" fill="#263238"/>
<path d="M385.138 413.355L386.372 416.983C384.502 420.07 382.407 423.015 380.103 425.794C380.103 425.794 378.869 425.399 376.846 427.188C375.599 428.431 374.83 430.074 374.674 431.828C374.674 431.828 365.246 443.131 353.289 443.292C341.331 443.452 344.934 437.43 344.934 437.43L385.138 413.355Z" fill="#0066B3" stroke="#263238" stroke-linecap="round" stroke-linejoin="round"/>
<path d="M373.896 384.59C373.896 384.59 357.854 378.68 354.72 390.501C354.72 390.501 357.583 403.52 355.868 410.64C354.152 417.76 345.514 431.359 344.984 433.938C343.935 438.997 344.725 439.343 344.725 439.343C344.725 439.343 351.006 442.971 359.446 439.084C367.887 435.197 382.497 418.464 384.78 415.021C387.063 411.578 377.623 398.004 377.623 398.004L373.896 384.59Z" fill="white"/>
<path opacity="0.4" d="M373.896 384.59C373.896 384.59 357.854 378.68 354.72 390.501C354.72 390.501 357.583 403.52 355.868 410.64C354.152 417.76 345.514 431.359 344.984 433.938C343.935 438.997 344.725 439.343 344.725 439.343C344.725 439.343 351.006 442.971 359.446 439.084C367.887 435.197 382.497 418.464 384.78 415.021C387.063 411.578 377.623 398.004 377.623 398.004L373.896 384.59Z" fill="#0066B3"/>
<path d="M373.896 384.59C373.896 384.59 357.854 378.68 354.72 390.501C354.72 390.501 357.583 403.52 355.868 410.64C354.152 417.76 345.514 431.359 344.984 433.938C343.935 438.997 344.725 439.343 344.725 439.343C344.725 439.343 351.006 442.971 359.446 439.084C367.887 435.197 382.497 418.464 384.78 415.021C387.063 411.578 377.623 398.004 377.623 398.004L373.896 384.59Z" stroke="#263238" stroke-linecap="round" stroke-linejoin="round"/>
<path d="M365.69 401.311C367.086 409.275 365.668 417.477 361.68 424.51" stroke="#263238" stroke-linecap="round" stroke-linejoin="round"/>
<path d="M361.68 427.62C361.083 429.123 360.157 430.472 358.97 431.57C357.782 432.668 356.364 433.485 354.819 433.963C351.586 434.828 348.181 434.828 344.947 433.963L348.797 426.164C352.884 427.792 357.333 428.295 361.68 427.62Z" fill="#0066B3" stroke="#263238" stroke-linecap="round" stroke-linejoin="round"/>
<path d="M363.951 422.894C363.951 422.894 355.559 423.4 351.179 421.66" stroke="#263238" stroke-linecap="round" stroke-linejoin="round"/>
<path d="M365.505 418.266C365.505 418.266 357.657 419.5 353.276 417.032" stroke="#263238" stroke-linecap="round" stroke-linejoin="round"/>
<path d="M366.838 413.121C366.838 413.121 359.964 414.12 355.473 411.998" stroke="#263238" stroke-linecap="round" stroke-linejoin="round"/>
<path d="M367.603 407.296C367.603 407.296 359.953 409.69 356.337 407.296" stroke="#263238" stroke-linecap="round" stroke-linejoin="round"/>
<path d="M368.751 392.908L370.084 401.311C370.084 401.311 359.965 407.975 353.276 399.645V390.871C353.276 390.871 355.794 396.77 368.751 392.908Z" fill="#0066B3" stroke="#263238" stroke-linecap="round" stroke-linejoin="round"/>
<path d="M359.964 204.266C349.71 236.757 317.885 288.869 321.106 302.209C322.87 309.489 333.372 350.742 341.59 368.845C344.712 375.767 351.462 380.395 351.462 380.395L356.336 390.847C368.22 396.017 372.477 385.504 372.477 385.504L370.083 373.657C376.451 362.082 373.785 362.082 365.505 302.085C364.53 295.014 380.93 273.16 380.93 273.16L389.346 328.147L390.716 373.188L395.084 387.108C395.084 387.108 396.17 400.176 396.071 400.966H415.605L417.728 386.602C417.728 386.602 426.798 378.05 426.798 368.178C426.798 358.306 424.848 308.021 426.798 293.373C428.748 278.726 422.232 210.436 422.232 210.436L359.964 204.266Z" fill="#A7A7A7"/>
<path d="M227.17 175.315L254.318 177.759C254.933 177.814 255.501 178.112 255.897 178.586C256.293 179.06 256.484 179.672 256.429 180.287L254.685 199.661L222.897 196.8L224.641 177.426C224.696 176.811 224.994 176.243 225.468 175.847C225.942 175.451 226.554 175.26 227.17 175.315Z" fill="#0066B3"/>
<path opacity="0.3" d="M227.169 175.315L254.317 177.759C254.932 177.814 255.5 178.112 255.896 178.586C256.292 179.06 256.483 179.672 256.428 180.287L254.684 199.661L222.896 196.8L224.64 177.426C224.695 176.811 224.993 176.243 225.467 175.847C225.941 175.451 226.553 175.26 227.169 175.315Z" fill="black" fill-opacity="0.7"/>
<path opacity="0.3" d="M254.744 177.422L246.961 176.754L245.624 192.319L253.406 192.988L254.744 177.422Z" fill="white" fill-opacity="0.7"/>
<path d="M227.17 175.315L254.318 177.759C254.933 177.814 255.501 178.112 255.897 178.586C256.293 179.06 256.484 179.672 256.429 180.287L254.685 199.661L222.897 196.8L224.641 177.426C224.696 176.811 224.994 176.243 225.468 175.847C225.942 175.451 226.554 175.26 227.17 175.315V175.315Z" stroke="#263238" stroke-width="1.00404" stroke-linecap="round" stroke-linejoin="round"/>
<path d="M274.028 177.03L301.077 179.354C301.69 179.407 302.257 179.701 302.653 180.172C303.049 180.642 303.242 181.251 303.189 181.864L301.531 201.167L269.86 198.446L271.518 179.143C271.571 178.53 271.865 177.963 272.336 177.567C272.806 177.171 273.415 176.978 274.028 177.03Z" fill="#0066B3"/>
<path opacity="0.3" d="M274.027 177.03L301.076 179.354C301.689 179.407 302.256 179.701 302.652 180.172C303.048 180.642 303.241 181.251 303.188 181.864L301.53 201.167L269.859 198.446L271.517 179.143C271.57 178.53 271.864 177.963 272.335 177.567C272.805 177.171 273.414 176.978 274.027 177.03Z" fill="black" fill-opacity="0.7"/>
<path opacity="0.3" d="M300.929 181.398L296.232 180.994L294.895 196.56L299.592 196.963L300.929 181.398Z" fill="white" fill-opacity="0.7"/>
<path d="M274.028 177.03L301.077 179.354C301.69 179.407 302.257 179.701 302.653 180.172C303.049 180.642 303.242 181.251 303.189 181.864L301.531 201.167L269.86 198.446L271.518 179.143C271.571 178.53 271.865 177.963 272.336 177.567C272.806 177.171 273.415 176.978 274.028 177.03Z" stroke="#263238" stroke-linecap="round" stroke-linejoin="round"/>
<path d="M264.203 176.18L291.251 178.503C291.864 178.556 292.431 178.85 292.828 179.321C293.224 179.791 293.417 180.4 293.364 181.013L291.706 200.316L260.035 197.595L261.693 178.292C261.746 177.679 262.04 177.112 262.51 176.716C262.981 176.32 263.59 176.127 264.203 176.18Z" fill="#0066B3" stroke="#263238" stroke-linecap="round" stroke-linejoin="round"/>
<path d="M310.913 180.2L337.961 182.524C338.574 182.577 339.141 182.871 339.538 183.341C339.934 183.812 340.127 184.421 340.074 185.034L338.417 204.324L306.746 201.604L308.404 182.301C308.46 181.69 308.755 181.127 309.225 180.733C309.695 180.339 310.302 180.148 310.913 180.2Z" fill="#0066B3" stroke="#263238" stroke-linecap="round" stroke-linejoin="round"/>
<path opacity="0.3" d="M291.628 180.593L283.846 179.924L282.509 195.489L290.291 196.158L291.628 180.593Z" fill="white" fill-opacity="0.7"/>
<path opacity="0.3" d="M337.825 184.557L330.043 183.888L328.706 199.454L336.488 200.122L337.825 184.557Z" fill="white" fill-opacity="0.7"/>
<path d="M352.561 201.045L344.922 289.807L201.914 277.467L209.553 188.718C209.615 187.983 209.821 187.268 210.16 186.613C210.499 185.959 210.964 185.378 211.528 184.903C212.092 184.429 212.744 184.07 213.447 183.848C214.15 183.626 214.89 183.544 215.624 183.609L347.44 194.937C348.179 194.997 348.898 195.204 349.557 195.544C350.215 195.885 350.8 196.353 351.276 196.921C351.753 197.489 352.111 198.147 352.332 198.854C352.552 199.562 352.63 200.307 352.561 201.045Z" fill="#0066B3"/>
<path opacity="0.3" d="M352.561 201.045L344.922 289.807L201.914 277.467L209.553 188.718C209.615 187.983 209.821 187.268 210.16 186.613C210.499 185.959 210.964 185.378 211.528 184.903C212.092 184.429 212.744 184.07 213.447 183.848C214.15 183.626 214.89 183.544 215.624 183.609L347.44 194.937C348.179 194.997 348.898 195.204 349.557 195.544C350.215 195.885 350.8 196.353 351.276 196.921C351.753 197.489 352.111 198.147 352.332 198.854C352.552 199.562 352.63 200.307 352.561 201.045Z" fill="black" fill-opacity="0.7"/>
<path d="M352.561 201.045L344.922 289.807L201.914 277.467L209.553 188.718C209.615 187.983 209.821 187.268 210.16 186.613C210.499 185.959 210.964 185.378 211.528 184.903C212.092 184.429 212.744 184.07 213.447 183.848C214.15 183.626 214.89 183.544 215.624 183.609L347.44 194.937C348.179 194.997 348.898 195.204 349.557 195.544C350.215 195.885 350.8 196.353 351.276 196.921C351.753 197.489 352.111 198.147 352.332 198.854C352.552 199.562 352.63 200.307 352.561 201.045V201.045Z" stroke="#263238" stroke-linecap="round" stroke-linejoin="round"/>
<path d="M352.56 201.045L344.922 289.807L238.798 280.675L246.449 191.926C246.511 191.192 246.717 190.477 247.056 189.822C247.395 189.167 247.86 188.586 248.424 188.112C248.988 187.637 249.64 187.278 250.343 187.056C251.046 186.834 251.786 186.753 252.52 186.817L347.452 194.974C348.186 195.036 348.901 195.243 349.556 195.582C350.21 195.921 350.791 196.385 351.266 196.949C351.741 197.513 352.099 198.165 352.321 198.868C352.543 199.571 352.625 200.311 352.56 201.045Z" fill="#0066B3" stroke="#263238" stroke-linecap="round" stroke-linejoin="round"/>
<path opacity="0.3" d="M345.107 203.587L254.396 195.788C253.791 195.735 253.231 195.447 252.837 194.985C252.442 194.524 252.244 193.926 252.286 193.32C252.339 192.716 252.628 192.156 253.089 191.762C253.55 191.367 254.148 191.169 254.754 191.21L345.465 199.009C346.07 199.063 346.629 199.351 347.024 199.812C347.418 200.274 347.616 200.872 347.575 201.477C347.522 202.082 347.233 202.642 346.772 203.036C346.31 203.431 345.713 203.628 345.107 203.587Z" fill="white" fill-opacity="0.7"/>
<path d="M416.248 401.472C416.248 401.472 409.412 396.597 395.27 397.572C395.27 397.572 394.233 414.54 392.308 419.476C390.383 424.412 380.24 432.963 378.352 434.432C376.464 435.9 376.464 441.021 376.464 441.021H419.432C418.881 433.677 417.737 426.389 416.014 419.229L416.248 401.472Z" fill="white"/>
<path opacity="0.4" d="M416.248 401.472C416.248 401.472 409.412 396.597 395.27 397.572C395.27 397.572 394.233 414.54 392.308 419.476C390.383 424.412 380.24 432.963 378.352 434.432C376.464 435.9 376.464 441.021 376.464 441.021H419.432C418.881 433.677 417.737 426.389 416.014 419.229L416.248 401.472Z" fill="#0066B3"/>
<path d="M416.248 401.472C416.248 401.472 409.412 396.597 395.27 397.572C395.27 397.572 394.233 414.54 392.308 419.476C390.383 424.412 380.24 432.963 378.352 434.432C376.464 435.9 376.464 441.021 376.464 441.021H419.432C418.881 433.677 417.737 426.389 416.014 419.229L416.248 401.472Z" stroke="#263238" stroke-linecap="round" stroke-linejoin="round"/>
<path d="M407.375 403.668C407.375 403.668 406.363 419.291 403.932 423.412C402.634 425.677 401.031 427.753 399.169 429.582" stroke="#263238" stroke-linecap="round" stroke-linejoin="round"/>
<path d="M397.985 431.742C397.985 431.742 395.825 434.432 393.431 434.79C391.037 435.147 378.389 434.432 378.389 434.432L383.547 429.965C383.547 429.965 394.036 428.2 397.985 431.742Z" fill="#0066B3" stroke="#263238" stroke-linecap="round" stroke-linejoin="round"/>
<path d="M402.452 428.077C402.452 428.077 393.295 422.82 386.768 426.843" stroke="#263238" stroke-linecap="round" stroke-linejoin="round"/>
<path d="M404.66 424.51C404.66 424.51 398.268 419.513 390.729 422.252" stroke="#263238" stroke-linecap="round" stroke-linejoin="round"/>
<path d="M407.375 419.068C407.375 419.068 400.489 413.713 393.233 417.119" stroke="#263238" stroke-linecap="round" stroke-linejoin="round"/>
<path d="M408.313 412.269C408.313 412.269 399.959 407.777 393.888 411.183" stroke="#263238" stroke-linecap="round" stroke-linejoin="round"/>
<path d="M419.419 441.021V444.193H414.483C414.483 444.193 410.25 441.725 406.227 444.193H383.053C380.604 444.184 378.187 443.641 375.97 442.601L376.451 441.021H419.419Z" fill="#0066B3" stroke="#263238" stroke-linecap="round" stroke-linejoin="round"/>
<path d="M413.261 400.472L412.163 407.395C412.163 407.395 399.268 403.212 392.147 405.926V397.412C392.147 397.412 405.388 392.772 413.261 400.472Z" fill="#0066B3" stroke="#263238" stroke-linecap="round" stroke-linejoin="round"/>
<path d="M427.205 227.996C427.205 227.996 399.798 233.364 372.909 224.652C366.787 222.701 360.93 219.998 355.473 216.606C355.473 216.606 355.547 214.878 355.596 212.053C355.818 201.021 355.756 173.268 349.944 166.395C346.242 162.063 343.342 135.285 350.487 121.748L372.341 104.176C402.599 110.087 408.991 118.096 413.989 135.372C414.914 138.531 415.778 141.998 416.741 145.824C417.79 149.995 418.777 155.091 419.715 160.632C424.256 188.224 427.205 227.996 427.205 227.996Z" fill="#F5821F"/>
<path opacity="0.2" d="M419.715 160.632L407.375 215.755C407.375 215.755 389.543 220.69 372.921 224.652C366.795 222.702 360.934 219.999 355.473 216.606C355.473 216.606 355.547 214.878 355.596 212.053C370.527 204.414 392.32 193.185 392.147 192.654C391.863 191.827 392.147 163.038 392.147 163.038C392.147 163.038 411.891 158.46 413.989 135.335C414.914 138.494 415.778 141.961 416.741 145.787C417.79 149.97 418.777 155.029 419.715 160.632Z" fill="black"/>
<path d="M427.205 227.996C427.205 227.996 399.798 233.364 372.909 224.652C366.787 222.701 360.93 219.998 355.473 216.606C355.473 216.606 355.547 214.878 355.596 212.053C355.818 201.021 355.756 173.268 349.944 166.395C346.242 162.063 343.342 135.285 350.487 121.748L372.341 104.176C402.599 110.087 408.991 118.096 413.989 135.372C414.914 138.531 415.778 141.998 416.741 145.824C417.79 149.995 418.777 155.091 419.715 160.632C424.256 188.224 427.205 227.996 427.205 227.996Z" stroke="#263238" stroke-linecap="round" stroke-linejoin="round"/>
<path d="M373.304 81.1128C373.304 81.1128 363.654 94.9336 376.488 105.719C376.488 105.719 360.915 123.192 355.794 120.786C353.634 119.774 355.794 113.468 355.794 113.468L346.761 96.7599L373.304 81.1128Z" fill="white" stroke="#263238" stroke-linecap="round" stroke-linejoin="round"/>
<path d="M370.158 88.27C373.169 75.1032 371.725 55.495 353.277 57.2349C340.345 58.4689 331.127 65.6261 334.767 82.9761C336.285 90.2938 337.531 100.659 344.244 110.013C346.107 112.604 365.605 103.436 364.42 96.0195" fill="white"/>
<path d="M370.158 88.27C373.169 75.1032 371.725 55.495 353.277 57.2349C340.345 58.4689 331.127 65.6261 334.767 82.9761C336.285 90.2938 337.531 100.659 344.244 110.013C346.107 112.604 365.605 103.436 364.42 96.0195" stroke="#263238" stroke-linecap="round" stroke-linejoin="round"/>
<path d="M343.763 80.0393C345.064 79.5355 346.465 79.3435 347.853 79.4785C349.242 79.6135 350.579 80.0718 351.759 80.8167" stroke="#263238" stroke-linecap="round" stroke-linejoin="round"/>
<path d="M334.482 81.6557C334.719 81.1505 335.131 80.7476 335.641 80.521C336.151 80.2943 336.725 80.2591 337.259 80.4218" stroke="#263238" stroke-linecap="round" stroke-linejoin="round"/>
<path d="M339.098 84.3953C339.098 84.3953 335.298 91.318 335.285 92.3052C335.273 93.2924 339.962 93.6255 339.962 93.6255" fill="white"/>
<path d="M339.098 84.3953C339.098 84.3953 335.298 91.318 335.285 92.3052C335.273 93.2924 339.962 93.6255 339.962 93.6255" stroke="#263238" stroke-linecap="round" stroke-linejoin="round"/>
<path d="M347.267 85.802C347.267 86.5547 346.934 87.1717 346.465 87.1964C345.996 87.2211 345.601 86.6041 345.576 85.8514C345.552 85.0986 345.91 84.4816 346.378 84.4693C346.847 84.457 347.242 85.074 347.267 85.802Z" fill="#263238"/>
<path d="M341.899 98.6603C341.899 98.6603 349.192 97.2905 350.537 94.7238" stroke="#263238" stroke-linecap="round" stroke-linejoin="round"/>
<path d="M334.434 70.994L340.11 69.3404C340.11 69.3404 348.069 65.6384 349.76 66.1567C351.45 66.675 354.881 71.9442 354.77 74.9551C354.77 74.9551 360.125 79.669 360.804 86.5054L362.433 85.765C362.433 85.765 362.347 79.595 365.851 79.7554C369.356 79.9158 370.935 84.1114 370.701 85.4318C370.466 86.7522 366.629 92.2312 366.629 92.2312C366.629 92.2312 375.415 90.9231 375.699 73.7211C375.982 56.5192 357.127 53.718 347.958 54.4214C343.316 54.8661 338.652 55.0392 333.989 54.9397L334.508 59.8757L330.806 60.8505L333.595 64.2687L330.534 65.6631L334.434 70.994Z" fill="#263238"/>
<path d="M366.222 258.562C366.222 258.562 388.557 264.473 394.604 281.107" stroke="white" stroke-linecap="round" stroke-linejoin="round"/>
<path d="M376.451 267.508C376.451 267.508 364.382 287.61 345.909 298.05" stroke="white" stroke-linecap="round" stroke-linejoin="round"/>
<path d="M359.483 380.555C359.483 380.555 366.344 379.013 368.22 376.347" stroke="white" stroke-linecap="round" stroke-linejoin="round"/>
<path d="M397.688 383.11C397.688 383.11 404.401 379.63 411.09 383.11" stroke="white" stroke-linecap="round" stroke-linejoin="round"/>
<path d="M419.419 289.523C419.419 289.523 408.152 318.707 402.451 321.41" stroke="white" stroke-linecap="round" stroke-linejoin="round"/>
<path d="M370.084 243.816C370.392 246.987 383.658 261.684 394.604 267.508" stroke="white" stroke-linecap="round" stroke-linejoin="round"/>
<path d="M381.399 231.414C382.996 235.349 383.328 239.683 382.35 243.816C381.285 247.382 381.285 251.182 382.35 254.749" stroke="white" stroke-linecap="round" stroke-linejoin="round"/>
<path d="M357.263 170.726C357.263 170.726 378.031 197.602 400.354 206.425" stroke="#263238" stroke-linecap="round" stroke-linejoin="round"/>
<path d="M378.759 127.277C378.759 127.277 378.685 145.552 391.864 153.795" stroke="#263238" stroke-linecap="round" stroke-linejoin="round"/>
<path d="M386.174 153.943C383.386 156.683 386.421 191.062 386.421 191.062C386.421 191.062 370.219 197.405 365.147 201.49C360.075 205.574 336.049 214.952 336.049 214.952C336.049 214.952 332.347 227.564 336.963 227.996C341.578 228.428 389.371 212.139 400.304 206.426C400.304 206.426 407.424 164.47 407.375 153.795" fill="white"/>
<path d="M386.174 153.943C383.386 156.683 386.421 191.062 386.421 191.062C386.421 191.062 370.219 197.405 365.147 201.49C360.075 205.574 336.049 214.952 336.049 214.952C336.049 214.952 332.347 227.564 336.963 227.996C341.578 228.428 389.371 212.139 400.304 206.426C400.304 206.426 407.424 164.47 407.375 153.795" stroke="#263238" stroke-linecap="round" stroke-linejoin="round"/>
<path d="M337.95 214.2C335.729 213.78 331.78 212.324 329.707 212.805C327.634 213.287 323.845 215.569 319.946 216.507C316.046 217.445 317.663 218.975 319.946 219.432C321.617 219.71 323.322 219.71 324.993 219.432L321.821 222.529C320.005 223.512 318.13 224.382 316.207 225.133C315.059 225.133 310.999 226.231 311.271 227.959C311.542 229.686 313.875 229.489 316.478 229.588C316.478 229.588 312.332 230.414 312.776 232.771C313.048 234.388 317.712 232.932 320.094 232.932C320.094 232.932 318.144 235.054 319.6 235.708C321.056 236.362 324.289 234.733 324.289 234.733C324.289 234.733 324.166 236.486 325.622 236.659C327.078 236.831 330.743 235.425 333.236 233.919C335.691 232.337 338.04 230.598 340.27 228.712C341.213 227.849 342.293 227.148 343.466 226.638" fill="white"/>
<path d="M337.95 214.2C335.729 213.78 331.78 212.324 329.707 212.805C327.634 213.287 323.845 215.569 319.946 216.507C316.046 217.445 317.663 218.975 319.946 219.432C321.617 219.71 323.322 219.71 324.993 219.432L321.821 222.529C320.005 223.512 318.13 224.382 316.207 225.133C315.059 225.133 310.999 226.231 311.271 227.959C311.542 229.686 313.875 229.489 316.478 229.588C316.478 229.588 312.332 230.414 312.776 232.771C313.048 234.388 317.712 232.932 320.094 232.932C320.094 232.932 318.144 235.054 319.6 235.708C321.056 236.362 324.289 234.733 324.289 234.733C324.289 234.733 324.166 236.486 325.622 236.659C327.078 236.831 330.743 235.425 333.236 233.919C335.691 232.337 338.04 230.598 340.27 228.712C341.213 227.849 342.293 227.148 343.466 226.638" stroke="#263238" stroke-linecap="round" stroke-linejoin="round"/>
<path d="M316.54 229.637C317.686 229.575 318.828 229.443 319.958 229.242C320.933 228.995 321.908 228.674 321.908 228.674" stroke="#263238" stroke-linecap="round" stroke-linejoin="round"/>
<path d="M320.106 232.981C321.598 232.772 323.035 232.277 324.339 231.525" stroke="#263238" stroke-linecap="round" stroke-linejoin="round"/>
<path d="M324.302 234.783C325.405 234.644 326.461 234.251 327.387 233.635" stroke="#263238" stroke-linecap="round" stroke-linejoin="round"/>
<path d="M322.217 223.467C322.217 223.467 321.329 225.503 322.217 226.638C323.106 227.774 324.179 227.872 324.34 229.106C324.5 230.34 326.622 230.34 327.388 231.143C328.153 231.945 328.733 233.487 331.176 233.611" stroke="#263238" stroke-linecap="round" stroke-linejoin="round"/>
<path d="M385.138 118.293C376.735 137.309 385.138 163.692 385.138 163.692C385.138 163.692 405.475 170.602 407.35 167.628C409.226 164.655 412.656 150.069 413.236 143.331" fill="#F5821F"/>
<path d="M385.138 118.293C376.735 137.309 385.138 163.692 385.138 163.692C385.138 163.692 405.475 170.602 407.35 167.628C409.226 164.655 412.656 150.069 413.236 143.331" stroke="#263238" stroke-linecap="round" stroke-linejoin="round"/>
<path d="M407.375 145.441C407.375 145.441 398.737 157.325 391.863 157.485" stroke="#263238" stroke-linecap="round" stroke-linejoin="round"/>
<path d="M98.6283 444.193C98.6283 444.193 96.5181 436.135 98.9861 433.148C103.404 427.793 98.4432 423.276 102.886 421.438L104.749 423.597C105.107 421.413 104.07 414.737 112.313 413.873C122.284 412.824 122.469 420.043 123.012 422.511L122.839 419.167C127.097 419.167 124.888 423.412 131.329 430.347C133.018 432.22 134.303 434.419 135.106 436.81C135.908 439.2 136.211 441.73 135.994 444.242L98.6283 444.193Z" fill="#263238"/>
<path d="M174.63 444.193C170.62 442.403 174.297 427.275 174.297 427.275C174.297 427.275 168.905 423.659 174.297 419.871C176.383 421.638 178.912 422.802 181.61 423.237C184.309 423.672 187.076 423.361 189.611 422.339C189.611 422.339 190.66 412.22 197.015 413.515C197.015 413.515 198.644 419.932 202.358 423.597C212.415 433.469 225.409 434.703 227.581 439.442C228.235 440.873 227.446 444.143 227.446 444.143L174.63 444.193Z" fill="#263238"/>
<path d="M157.49 202.921L162.426 213.385C162.426 213.385 182.836 255.563 195.337 303.862C195.633 305.01 202.099 327.888 196.916 384.862L199.878 394.857L196.645 411.368C196.645 411.368 201.507 418.39 201.334 420.685C201.334 420.685 189.339 422.918 185.292 425.066C182.182 426.744 172.841 435.962 172.841 435.962C170.188 435.419 169.953 424.708 169.953 424.708C169.953 424.708 164.413 329.603 162.821 325.506C161.229 321.41 151.505 303.739 136.327 263.301C136.327 263.301 135.981 319.781 131.934 334.07C128.318 346.781 132.6 382.357 132.6 382.357L130.132 421.956C130.132 421.956 138.671 430.828 131.749 433.21C131.749 433.21 127.121 424.313 113.942 422.289C107.241 421.253 98.8996 433.148 98.8996 433.148C95.9627 432.21 100.134 417.267 100.134 417.267C90.7922 346.781 97.6656 359.54 95.8146 325.087C94.5806 302.974 88.3489 208.375 95.7035 200.687L157.49 202.921Z" fill="#BFBFBF"/>
<path opacity="0.2" d="M92.2726 235.499C125.27 238.09 153.837 227.292 166.239 221.653C163.882 216.372 162.438 213.385 162.438 213.385L157.502 202.933L95.8018 200.687C93.1857 203.464 92.2602 217.568 92.2726 235.499Z" fill="black"/>
<path opacity="0.2" d="M136.659 264.029C151.677 303.948 161.339 321.422 162.894 325.494C163.795 327.863 166.004 360.157 167.731 387.256C169.706 362.576 171.742 336.575 171.915 331.479C172.285 321.311 164.942 307.379 163.844 303.776C162.746 300.172 165.226 296.273 165.226 296.273L152.022 279.614C152.467 273.962 145.47 249.295 145.47 249.295C141.311 253.231 137.609 261.61 136.659 264.029Z" fill="black"/>
<path d="M157.49 202.921L162.426 213.385C162.426 213.385 182.836 255.563 195.337 303.862C195.633 305.01 202.099 327.888 196.916 384.862L199.878 394.857L196.645 411.368C196.645 411.368 201.507 418.39 201.334 420.685C201.334 420.685 189.339 422.918 185.292 425.066C182.182 426.744 172.841 435.962 172.841 435.962C170.188 435.419 169.953 424.708 169.953 424.708C169.953 424.708 164.413 329.603 162.821 325.506C161.229 321.41 151.505 303.739 136.327 263.301C136.327 263.301 135.981 319.781 131.934 334.07C128.318 346.781 132.6 382.357 132.6 382.357L130.132 421.956C130.132 421.956 138.671 430.828 131.749 433.21C131.749 433.21 127.121 424.313 113.942 422.289C107.241 421.253 98.8996 433.148 98.8996 433.148C95.9627 432.21 100.134 417.267 100.134 417.267C90.7922 346.781 97.6656 359.54 95.8146 325.087C94.5806 302.974 88.3489 208.375 95.7035 200.687L157.49 202.921Z" stroke="#263238" stroke-linecap="round" stroke-linejoin="round"/>
<path d="M136.376 263.301C136.376 263.301 143.916 248.752 150.345 244.692" stroke="#263238" stroke-linecap="round" stroke-linejoin="round"/>
<path d="M153.183 239.978C153.183 239.978 130.28 246.95 122.333 248.295" stroke="#263238" stroke-linecap="round" stroke-linejoin="round"/>
<path d="M141.46 216.606C142.448 235.671 149.173 238.917 142.694 243.075C142.694 243.075 142.88 251.997 139.646 257.649" stroke="#263238" stroke-linecap="round" stroke-linejoin="round"/>
<path d="M101.331 209.313C101.331 209.313 104.033 238.621 95.0127 244.137" stroke="#263238" stroke-linecap="round" stroke-linejoin="round"/>
<path d="M95.0126 218.766C95.0126 218.766 94.3339 238.275 95.0126 253.996C95.0126 253.996 97.2708 320.447 99.529 328.789C101.787 337.131 96.0491 349.767 96.5427 385.824" stroke="#263238" stroke-linecap="round" stroke-linejoin="round"/>
<path d="M116.632 414.046C114.496 413.582 112.266 413.878 110.326 414.885" stroke="#263238" stroke-linecap="round" stroke-linejoin="round"/>
<path d="M130.206 421.956C127.376 419.202 124.096 416.952 120.507 415.305" stroke="#263238" stroke-linecap="round" stroke-linejoin="round"/>
<path d="M126.504 267.903C121.445 273.58 113.424 284.279 105.205 285.179" stroke="#263238" stroke-linecap="round" stroke-linejoin="round"/>
<path d="M134.241 258.673C132.686 260.635 131.082 262.56 129.453 264.473" stroke="#263238" stroke-linecap="round" stroke-linejoin="round"/>
<path d="M127.035 325.087C127.035 325.087 115.534 340.746 109.229 341.647" stroke="#263238" stroke-linecap="round" stroke-linejoin="round"/>
<path d="M140.56 260.475C140.56 260.475 161.044 317.523 168.164 323.15C168.164 323.15 168.966 365.106 169.201 379.753C169.435 394.401 172.804 413.873 172.804 413.873" stroke="#263238" stroke-linecap="round" stroke-linejoin="round"/>
<path d="M194.67 413.454C194.67 413.454 186.785 416.181 182.947 417.921C180.591 419.071 178.744 421.054 177.765 423.486" stroke="#263238" stroke-linecap="round" stroke-linejoin="round"/>
<path d="M174.717 302.579C163.722 295.681 149.222 287.055 143.373 274.9" stroke="#263238" stroke-linecap="round" stroke-linejoin="round"/>
<path d="M184.305 308.268C182.219 307.12 180.171 305.923 178.135 304.689" stroke="#263238" stroke-linecap="round" stroke-linejoin="round"/>
<path d="M149.654 224.318C143.743 224.232 137.314 223.455 132.218 220.111" stroke="#263238" stroke-linecap="round" stroke-linejoin="round"/>
<path d="M159.045 223.763C157.354 223.998 155.651 224.146 153.948 224.232" stroke="#263238" stroke-linecap="round" stroke-linejoin="round"/>
<path d="M170.015 92.7618C165.499 85.9254 142.484 84.1855 127.713 84.1855C112.943 84.1855 95.0125 81.7175 86.9175 98.3765C80.7475 111.099 94.9631 178.377 94.9631 178.377L91.4833 207.425C118.236 215.816 164.067 213.965 164.067 213.965L157.897 187.706C157.897 187.706 174.531 99.5858 170.015 92.7618Z" fill="#F5821F"/>
<path d="M118.939 67.292C118.939 67.292 120.926 83.1242 114.904 86.5424C114.904 86.5424 117.915 98.1544 128.478 98.8824C139.041 99.6105 143.706 88.27 143.706 88.27L118.939 67.292Z" fill="white" stroke="#263238" stroke-linecap="round" stroke-linejoin="round"/>
<path d="M174.919 26.6415L201.952 24.148C202.565 24.0915 203.175 24.2807 203.648 24.6739C204.121 25.0672 204.419 25.6323 204.476 26.245L206.255 45.5369L174.651 48.4521L172.871 29.1602C172.815 28.5559 172.999 27.9538 173.381 27.483C173.764 27.0122 174.316 26.7101 174.919 26.6415Z" fill="#0066B3"/>
<path opacity="0.3" d="M174.919 26.6415L201.952 24.148C202.565 24.0915 203.175 24.2807 203.648 24.6739C204.121 25.0672 204.419 25.6323 204.476 26.245L206.255 45.5369L174.651 48.4521L172.871 29.1602C172.815 28.5559 172.999 27.9538 173.381 27.483C173.764 27.0122 174.316 26.7101 174.919 26.6415Z" fill="black" fill-opacity="0.7"/>
<path opacity="0.3" d="M202.74 26.0994L194.962 26.8169L196.397 42.3733L204.175 41.6559L202.74 26.0994Z" fill="white" fill-opacity="0.7"/>
<path d="M174.919 26.6415L201.952 24.148C202.565 24.0915 203.175 24.2807 203.648 24.6739C204.121 25.0672 204.419 25.6323 204.476 26.245L206.255 45.5369L174.651 48.4521L172.871 29.1602C172.815 28.5559 172.999 27.9538 173.381 27.483C173.764 27.0122 174.316 26.7101 174.919 26.6415V26.6415Z" stroke="#263238" stroke-linecap="round" stroke-linejoin="round"/>
<path d="M221.66 22.3047L248.693 19.8112C249.306 19.7547 249.916 19.9439 250.389 20.3371C250.862 20.7304 251.16 21.2955 251.216 21.9082L252.996 41.2001L221.342 44.1198L219.563 24.8279C219.506 24.2152 219.695 23.6052 220.089 23.132C220.482 22.6588 221.047 22.3612 221.66 22.3047Z" fill="#0066B3"/>
<path opacity="0.3" d="M221.66 22.3047L248.693 19.8112C249.306 19.7547 249.916 19.9439 250.389 20.3371C250.862 20.7304 251.16 21.2955 251.216 21.9082L252.996 41.2001L221.342 44.1198L219.563 24.8279C219.506 24.2152 219.695 23.6052 220.089 23.132C220.482 22.6588 221.047 22.3612 221.66 22.3047Z" fill="black" fill-opacity="0.7"/>
<path opacity="0.3" d="M248.922 21.8521L244.229 22.2851L245.663 37.8415L250.357 37.4085L248.922 21.8521Z" fill="white" fill-opacity="0.7"/>
<path d="M221.66 22.3047L248.693 19.8112C249.306 19.7547 249.916 19.9439 250.389 20.3371C250.862 20.7304 251.16 21.2955 251.216 21.9082L252.996 41.2001L221.342 44.1198L219.563 24.8279C219.506 24.2152 219.695 23.6052 220.089 23.132C220.482 22.6588 221.047 22.3612 221.66 22.3047V22.3047Z" stroke="#263238" stroke-linecap="round" stroke-linejoin="round"/>
<path d="M211.838 23.2031L238.871 20.7096C239.484 20.6531 240.094 20.8423 240.567 21.2356C241.04 21.6288 241.338 22.194 241.394 22.8066L243.174 42.0985L211.471 45.0228L209.692 25.7309C209.663 25.4233 209.696 25.1132 209.789 24.8187C209.882 24.5242 210.033 24.2512 210.233 24.0157C210.433 23.7803 210.678 23.5871 210.954 23.4476C211.229 23.3081 211.53 23.225 211.838 23.2031Z" fill="#0066B3" stroke="#263238" stroke-linecap="round" stroke-linejoin="round"/>
<path d="M258.532 18.8954L285.565 16.4019C286.178 16.3454 286.788 16.5346 287.261 16.9279C287.734 17.3211 288.032 17.8863 288.088 18.4989L289.868 37.7908L258.214 40.7105L256.435 21.4186C256.378 20.806 256.567 20.1959 256.961 19.7227C257.354 19.2495 257.919 18.952 258.532 18.8954Z" fill="#0066B3" stroke="#263238" stroke-linecap="round" stroke-linejoin="round"/>
<path opacity="0.3" d="M239.613 22.7025L231.835 23.4199L233.27 38.9763L241.048 38.2589L239.613 22.7025Z" fill="white" fill-opacity="0.7"/>
<path opacity="0.3" d="M285.794 18.4299L278.016 19.1474L279.451 34.7038L287.229 33.9863L285.794 18.4299Z" fill="white" fill-opacity="0.7"/>
<path d="M303.225 32.0243L311.419 120.724L168.46 133.928L160.316 45.2034C160.179 43.7209 160.636 42.2445 161.587 41.0991C162.538 39.9536 163.905 39.2327 165.388 39.0951L297.13 26.9402C297.864 26.8724 298.604 26.9501 299.309 27.1691C300.013 27.3881 300.667 27.744 301.233 28.2164C301.8 28.6887 302.267 29.2683 302.609 29.9217C302.951 30.5752 303.16 31.2897 303.225 32.0243Z" fill="#0066B3"/>
<path opacity="0.3" d="M303.225 32.0243L311.419 120.724L168.46 133.928L160.316 45.2034C160.179 43.7209 160.636 42.2445 161.587 41.0991C162.538 39.9536 163.905 39.2327 165.388 39.0951L297.13 26.9402C297.864 26.8724 298.604 26.9501 299.309 27.1691C300.013 27.3881 300.667 27.744 301.233 28.2164C301.8 28.6887 302.267 29.2683 302.609 29.9217C302.951 30.5752 303.16 31.2897 303.225 32.0243Z" fill="black" fill-opacity="0.7"/>
<path d="M303.225 32.0243L311.419 120.724L168.46 133.928L160.316 45.2034C160.179 43.7209 160.636 42.2445 161.587 41.0991C162.538 39.9536 163.905 39.2327 165.388 39.0951L297.13 26.9402C297.864 26.8724 298.604 26.9501 299.309 27.1691C300.013 27.3881 300.667 27.744 301.233 28.2164C301.8 28.6887 302.267 29.2683 302.609 29.9217C302.951 30.5752 303.16 31.2897 303.225 32.0243V32.0243Z" stroke="#263238" stroke-linecap="round" stroke-linejoin="round"/>
<path d="M303.225 32.0243L311.419 120.724L205.295 130.51L197.114 41.8099C196.977 40.3274 197.434 38.851 198.385 37.7055C199.336 36.56 200.703 35.8392 202.186 35.7016L297.068 26.9402C297.807 26.8637 298.554 26.935 299.265 27.1501C299.977 27.3651 300.638 27.7195 301.211 28.1927C301.784 28.6658 302.258 29.2483 302.603 29.9061C302.949 30.5639 303.161 31.2839 303.225 32.0243Z" fill="#0066B3" stroke="#263238" stroke-linecap="round" stroke-linejoin="round"/>
<path opacity="0.3" d="M296.352 35.8373L205.69 44.2038C205.086 44.2451 204.49 44.0489 204.029 43.657C203.568 43.2651 203.279 42.7085 203.222 42.106C203.177 41.5036 203.371 40.9076 203.761 40.4461C204.151 39.9847 204.706 39.6945 205.308 39.638L295.97 31.2715C296.573 31.2303 297.169 31.4265 297.63 31.8184C298.091 32.2103 298.381 32.7669 298.438 33.3693C298.476 33.9704 298.28 34.563 297.891 35.023C297.503 35.483 296.951 35.7748 296.352 35.8373Z" fill="white" fill-opacity="0.7"/>
<path d="M137.043 35.899C137.043 35.899 116.127 31.7034 113.782 45.1664C111.437 58.6293 119.1 64.3551 119.1 64.3551L137.043 35.899Z" fill="#263238"/>
<path d="M119.1 71.7467C116.71 65.0542 116.337 57.8072 118.027 50.9045C120.075 42.2665 130.367 30.3831 145.977 41.1806C154.01 46.7459 154.504 58.8268 151.999 69.8834C151.406 72.5242 151.851 75.1032 150.974 77.5342C147.889 86.0488 142.25 92.6014 139.165 92.7494C134.019 93.0086 123.728 86.7769 124.147 81.3473" fill="white"/>
<path d="M119.1 71.7467C116.71 65.0542 116.337 57.8072 118.027 50.9045C120.075 42.2665 130.367 30.3831 145.977 41.1806C154.01 46.7459 154.504 58.8268 151.999 69.8834C151.406 72.5242 151.851 75.1032 150.974 77.5342C147.889 86.0488 142.25 92.6014 139.165 92.7494C134.019 93.0086 123.728 86.7769 124.147 81.3473" stroke="#263238" stroke-linecap="round" stroke-linejoin="round"/>
<path d="M139.943 67.835C139.943 67.835 135.784 64.824 131.786 67.292" stroke="#263238" stroke-linecap="round" stroke-linejoin="round"/>
<path d="M147.791 67.292C147.791 67.292 150.938 64.4044 152.986 64.824" stroke="#263238" stroke-linecap="round" stroke-linejoin="round"/>
<path d="M134.068 72.4501C134.068 73.2152 134.451 73.8446 134.932 73.8446C135.413 73.8446 135.808 73.2152 135.808 72.4501C135.808 71.685 135.413 71.0681 134.932 71.0681C134.451 71.0681 134.068 71.685 134.068 72.4501Z" fill="#263238"/>
<path d="M147.79 73.0671C148.274 73.0671 148.666 72.4483 148.666 71.685C148.666 70.9217 148.274 70.303 147.79 70.303C147.306 70.303 146.914 70.9217 146.914 71.685C146.914 72.4483 147.306 73.0671 147.79 73.0671Z" fill="#263238"/>
<path d="M146.027 70.2043C144.496 72.2034 146.644 79.8171 146.027 80.3601C145.41 80.903 141.485 79.3605 141.485 79.3605C141.485 79.3605 140.572 78.2006 142.485 77.5836" stroke="#263238" stroke-linecap="round" stroke-linejoin="round"/>
<path d="M142.546 84.1855C142.546 84.1855 137.277 84.1855 135.87 82.2604" stroke="#263238" stroke-linecap="round" stroke-linejoin="round"/>
<path d="M129.934 55.6677L129.527 62.0352C129.527 62.0352 125.011 64.3674 123.876 66.7367C123.2 68.2885 122.953 69.993 123.16 71.6727C123.16 71.6727 120.42 66.8848 118.94 67.2797C118.409 67.4154 118.409 69.4268 118.409 69.4268C118.409 69.4268 112.239 55.6554 117.817 48.3748C123.394 41.0942 129.934 55.6677 129.934 55.6677Z" fill="#757575" stroke="#263238" stroke-linecap="round" stroke-linejoin="round"/>
<path d="M121.235 70.303C121.235 70.303 120.001 65.6755 115.843 64.4538C111.684 63.2322 114.535 74.3258 118.076 75.7696C121.618 77.2134 122.506 78.2376 122.716 76.9172" fill="white"/>
<path d="M121.235 70.303C121.235 70.303 120.001 65.6755 115.843 64.4538C111.684 63.2322 114.535 74.3258 118.076 75.7696C121.618 77.2134 122.506 78.2376 122.716 76.9172" stroke="#263238" stroke-linecap="round" stroke-linejoin="round"/>
<path d="M115.571 54.8656C115.225 54.3967 113.695 42.5256 121.531 37.1948C129.367 31.8639 142.608 32.4315 151.036 39.8109C159.464 47.1902 157.07 59.9867 151.036 64.3551V59.0119C151.036 59.0119 148.259 64.3674 139.93 64.8117L142.472 60.8875C142.472 60.8875 138.375 63.3555 131.156 63.1458C131.156 63.1458 134.55 60.4433 134.056 58.037C134.068 58.037 122.605 64.4908 115.571 54.8656Z" fill="#263238"/>
<path d="M117.039 97.6608C111.264 98.3518 103.046 105.892 108.401 119.28C111.819 127.77 139.905 122.723 139.905 122.723C150.32 118.429 165.535 102.979 176.703 95.8098C176.703 95.8098 174.346 81.0018 171.631 83.0996C159.008 92.7618 148.63 93.4281 131.02 101.893C131.057 101.844 120.667 97.2289 117.039 97.6608Z" fill="white" stroke="#263238" stroke-linecap="round" stroke-linejoin="round"/>
<path d="M129.935 114.098C129.762 119.626 132.033 120.601 135.858 121.909L129.935 114.098Z" fill="white"/>
<path d="M129.935 114.098C129.762 119.626 132.033 120.601 135.858 121.909" stroke="#263238" stroke-linecap="round" stroke-linejoin="round"/>
<path d="M170.792 84.1855C171.051 83.3834 175.728 75.165 177.048 73.0795C178.369 70.994 184.267 69.106 186.55 67.8473C188.833 66.5887 189.018 64.676 190.252 66.0457C191.486 67.4154 190.252 70.5375 183.416 73.8569C185.845 73.9912 188.28 73.9912 190.709 73.8569C192.535 73.5854 194.164 71.9319 194.978 73.0795C195.793 74.2271 195.953 76.2879 191.881 77.5466C189.944 78.2486 187.916 78.6643 185.859 78.7806C187.851 79.2062 189.81 79.7754 191.721 80.4835C192.375 80.9648 193.35 82.0877 194.324 82.2605C195.299 82.4332 196.361 83.4945 194.571 84.7285C193.937 85.0792 193.226 85.2693 192.501 85.2822C191.776 85.2951 191.059 85.1304 190.413 84.8025C190.413 84.8025 195.139 87.0854 193.67 88.5045C192.202 89.9236 187.5 89.6398 187.5 89.6398C187.5 89.6398 180.528 98.142 174.63 96.3651" fill="white"/>
<path d="M170.792 84.1855C171.051 83.3834 175.728 75.165 177.048 73.0795C178.369 70.994 184.267 69.106 186.55 67.8473C188.833 66.5887 189.018 64.676 190.252 66.0457C191.486 67.4154 190.252 70.5375 183.416 73.8569C185.845 73.9912 188.28 73.9912 190.709 73.8569C192.535 73.5854 194.164 71.9319 194.978 73.0795C195.793 74.2271 195.953 76.2879 191.881 77.5466C189.944 78.2486 187.916 78.6643 185.859 78.7806C187.851 79.2062 189.81 79.7754 191.721 80.4835C192.375 80.9648 193.35 82.0877 194.324 82.2605C195.299 82.4332 196.361 83.4945 194.571 84.7285C193.937 85.0792 193.226 85.2693 192.501 85.2822C191.776 85.2951 191.059 85.1304 190.413 84.8025C190.413 84.8025 195.139 87.0854 193.67 88.5045C192.202 89.9236 187.5 89.6398 187.5 89.6398C187.5 89.6398 180.528 98.142 174.63 96.3651" stroke="#263238" stroke-linecap="round" stroke-linejoin="round"/>
<path d="M179.146 73.0671C179.546 73.1598 179.911 73.361 180.203 73.6484C180.495 73.9359 180.701 74.2984 180.8 74.696C181.207 76.1521 182.404 76.2385 183.132 77.8674C183.86 79.4963 183.651 82.0136 184.366 82.8774C185.082 83.7412 184.366 87.3815 184.366 87.3815" stroke="#263238" stroke-linecap="round" stroke-linejoin="round"/>
<path d="M118.249 96.6119C115.225 92.7618 108.438 94.5017 108.438 94.5017" stroke="white" stroke-linecap="round" stroke-linejoin="round"/>
<path d="M104.736 87.4062C104.736 87.4062 111.721 88.4304 113.782 94.2426" stroke="white" stroke-linecap="round" stroke-linejoin="round"/>
<path d="M117.04 124.204C117.04 124.204 110.228 129.473 99.8623 121.909" stroke="white" stroke-linecap="round" stroke-linejoin="round"/>
<path d="M108.438 125.796C108.438 125.796 104.983 130.572 96.5674 130.51" stroke="white" stroke-linecap="round" stroke-linejoin="round"/>
<path d="M151.727 185.879C151.727 185.879 133.908 200.083 115.806 198.219" stroke="white" stroke-linecap="round" stroke-linejoin="round"/>
<path d="M103.564 154.672C103.564 154.672 131.218 174.958 151.69 176.254" stroke="white" stroke-linecap="round" stroke-linejoin="round"/>
<path d="M104.292 304.849C109.049 302.21 114.642 301.512 119.902 302.9C128.923 305.17 152.356 338.686 155.614 341.956C158.872 345.226 164.968 346.892 170.582 352.803C179.467 362.07 192.387 370.264 193.695 370.264C195.003 370.264 196.052 369.449 197.681 369.128C199.31 368.808 211.921 367.66 211.921 367.66C211.921 367.66 216.154 368.598 211.921 370.412C207.689 372.226 208.01 373.842 208.01 373.842C208.01 373.842 207.158 375.212 208.861 376.52C210.564 377.828 211.564 377.112 213.995 380.555C216.426 383.998 210.564 382.048 210.564 382.048C210.564 382.048 211.86 385.75 209.256 385.38C206.652 385.01 208.935 388.996 204.703 388.453C200.47 387.91 191.412 382.196 189.142 376.212C189.142 376.212 152.196 358.553 146.668 354C141.139 349.446 117.866 325.025 116.274 324.704" fill="#263238"/>
<path d="M200.951 337.921H228.099C228.714 337.921 229.304 338.165 229.739 338.6C230.174 339.035 230.419 339.625 230.419 340.241V359.614H198.631V340.241C198.631 339.625 198.875 339.035 199.31 338.6C199.745 338.165 200.336 337.921 200.951 337.921Z" fill="#0066B3"/>
<path opacity="0.3" d="M200.951 337.921H228.099C228.714 337.921 229.304 338.165 229.739 338.6C230.174 339.035 230.419 339.625 230.419 340.241V359.614H198.631V340.241C198.631 339.625 198.875 339.035 199.31 338.6C199.745 338.165 200.336 337.921 200.951 337.921Z" fill="black" fill-opacity="0.7"/>
<path opacity="0.3" d="M228.654 339.969H220.843V355.591H228.654V339.969Z" fill="white" fill-opacity="0.7"/>
<path d="M200.951 337.921H228.099C228.714 337.921 229.304 338.165 229.739 338.6C230.174 339.035 230.419 339.625 230.419 340.241V359.614H198.631V340.241C198.631 339.625 198.875 339.035 199.31 338.6C199.745 338.165 200.336 337.921 200.951 337.921V337.921Z" stroke="#263238" stroke-linecap="round" stroke-linejoin="round"/>
<path d="M247.843 337.921H274.991C275.607 337.921 276.197 338.165 276.632 338.6C277.067 339.035 277.311 339.625 277.311 340.241V359.614H245.523V340.241C245.523 339.936 245.583 339.634 245.7 339.353C245.817 339.071 245.988 338.815 246.203 338.6C246.418 338.385 246.674 338.214 246.956 338.097C247.237 337.981 247.539 337.921 247.843 337.921Z" fill="#0066B3"/>
<path opacity="0.3" d="M247.843 337.921H274.991C275.607 337.921 276.197 338.165 276.632 338.6C277.067 339.035 277.311 339.625 277.311 340.241V359.614H245.523V340.241C245.523 339.936 245.583 339.634 245.7 339.353C245.817 339.071 245.988 338.815 246.203 338.6C246.418 338.385 246.674 338.214 246.956 338.097C247.237 337.981 247.539 337.921 247.843 337.921Z" fill="black" fill-opacity="0.7"/>
<path opacity="0.3" d="M275.028 339.969H270.314V355.591H275.028V339.969Z" fill="white" fill-opacity="0.7"/>
<path d="M247.843 337.921H274.991C275.607 337.921 276.197 338.165 276.632 338.6C277.067 339.035 277.311 339.625 277.311 340.241V359.614H245.523V340.241C245.523 339.936 245.583 339.634 245.7 339.353C245.817 339.071 245.988 338.815 246.203 338.6C246.418 338.385 246.674 338.214 246.956 338.097C247.237 337.981 247.539 337.921 247.843 337.921V337.921Z" stroke="#263238" stroke-linecap="round" stroke-linejoin="round"/>
<path d="M237.971 337.921H265.119C265.734 337.921 266.325 338.165 266.76 338.6C267.195 339.035 267.439 339.625 267.439 340.241V359.614H235.651V340.241C235.651 339.936 235.711 339.634 235.828 339.353C235.945 339.071 236.115 338.815 236.331 338.6C236.546 338.385 236.802 338.214 237.083 338.097C237.365 337.981 237.667 337.921 237.971 337.921Z" fill="#0066B3" stroke="#263238" stroke-linecap="round" stroke-linejoin="round"/>
<path d="M284.863 337.921H312.011C312.626 337.921 313.216 338.165 313.651 338.6C314.086 339.035 314.331 339.625 314.331 340.241V359.614H282.543V340.241C282.543 339.625 282.787 339.035 283.222 338.6C283.658 338.165 284.248 337.921 284.863 337.921Z" fill="#0066B3" stroke="#263238" stroke-linecap="round" stroke-linejoin="round"/>
<path opacity="0.3" d="M265.674 339.969H257.863V355.591H265.674V339.969Z" fill="white" fill-opacity="0.7"/>
<path opacity="0.3" d="M312.048 339.969H304.236V355.591H312.048V339.969Z" fill="white" fill-opacity="0.7"/>
<path d="M328.164 355.098V444.18H184.638V355.098C184.638 353.609 185.229 352.181 186.282 351.128C187.335 350.075 188.763 349.483 190.252 349.483H322.55C324.039 349.483 325.467 350.075 326.52 351.128C327.573 352.181 328.164 353.609 328.164 355.098Z" fill="#0066B3"/>
<path opacity="0.3" d="M328.164 355.098V444.18H184.638V355.098C184.638 353.609 185.229 352.181 186.282 351.128C187.335 350.075 188.763 349.483 190.252 349.483H322.55C324.039 349.483 325.467 350.075 326.52 351.128C327.573 352.181 328.164 353.609 328.164 355.098Z" fill="black" fill-opacity="0.7"/>
<path d="M328.164 355.098V444.18H184.638V355.098C184.638 353.609 185.229 352.181 186.282 351.128C187.335 350.075 188.763 349.483 190.252 349.483H322.55C324.039 349.483 325.467 350.075 326.52 351.128C327.573 352.181 328.164 353.609 328.164 355.098V355.098Z" stroke="#263238" stroke-linecap="round" stroke-linejoin="round"/>
<path d="M328.164 355.098V444.18H221.657V355.098C221.657 353.609 222.249 352.181 223.302 351.128C224.355 350.075 225.783 349.483 227.272 349.483H322.549C324.038 349.483 325.466 350.075 326.519 351.128C327.572 352.181 328.164 353.609 328.164 355.098Z" fill="#0066B3" stroke="#263238" stroke-linecap="round" stroke-linejoin="round"/>
<path opacity="0.3" d="M320.958 358.269H229.913C229.298 358.269 228.708 358.025 228.273 357.59C227.838 357.155 227.593 356.565 227.593 355.949C227.587 355.641 227.642 355.334 227.756 355.046C227.869 354.759 228.039 354.498 228.255 354.277C228.471 354.056 228.729 353.881 229.014 353.761C229.299 353.642 229.604 353.58 229.913 353.58H320.958C321.573 353.58 322.163 353.824 322.598 354.259C323.033 354.695 323.278 355.285 323.278 355.9C323.284 356.209 323.229 356.516 323.115 356.803C323.002 357.09 322.832 357.352 322.616 357.572C322.4 357.793 322.142 357.968 321.857 358.088C321.572 358.208 321.267 358.269 320.958 358.269Z" fill="white" fill-opacity="0.7"/>
<path d="M152.418 444.18C145.014 444.18 134.611 439.417 122.629 434.382C110.202 429.15 96.0485 423.622 81.6848 422.795C76.3292 422.487 79.5746 444.18 79.5746 444.18H67.8516C67.8516 444.18 56.2767 428.731 54.9316 414.897C54.9316 414.897 64.3841 409.061 66.6546 408.727C67.4375 408.646 68.2245 408.609 69.0116 408.616C71.5536 408.616 74.9471 408.727 74.9471 408.727C74.4042 408.407 65.7538 403.199 60.9782 397.905C57.0418 393.537 55.2401 386.639 55.1044 382.517C55.257 379.788 55.5577 377.069 56.0052 374.373L117.606 375.397C117.606 375.397 118.273 375.866 119.457 376.742C126.602 381.95 152.714 401.348 165.77 415.971C169.99 420.697 172.84 424.918 173.26 428.003C175.222 442.231 163.585 444.18 152.418 444.18Z" fill="#757575" stroke="#263238" stroke-linecap="round" stroke-linejoin="round"/>
<path d="M165.782 415.946L135.82 422.795C130.684 425.734 126.189 429.674 122.604 434.382C110.178 429.15 96.0238 423.622 81.6601 422.795C76.3045 422.487 79.5499 444.18 79.5499 444.18H67.8269C67.8269 444.18 56.2767 428.731 54.9316 414.897C54.9316 414.897 65.8402 430.446 68.5056 438.343C68.5056 438.343 72.7383 423.733 79.6116 417.871C76.5072 414.375 72.9797 411.278 69.1103 408.653C71.6523 408.653 75.0458 408.764 75.0458 408.764C74.5029 408.444 65.8525 403.236 61.077 397.942C57.1405 393.574 55.5486 386.664 55.2031 382.554C55.0304 380.531 55.2772 374.41 55.2772 374.41C55.2772 374.41 101.219 380.962 119.556 376.779C126.615 381.962 152.726 401.323 165.782 415.946Z" fill="#263238"/>
<path d="M117.619 414.897C117.619 414.897 142.028 427.126 148.543 431.914C155.059 436.702 156.996 435.406 156.996 435.406" stroke="#263238" stroke-linecap="round" stroke-linejoin="round"/>
<path d="M60.9902 413.602C60.9902 413.602 66.8517 422.548 67.1602 425.226" stroke="#263238" stroke-linecap="round" stroke-linejoin="round"/>
<path d="M159.167 241.878C159.167 241.878 172.161 236.227 170.927 260.265C169.693 284.303 174.099 285.537 174.099 285.537C174.099 285.537 141.398 298.963 133.093 287.487C124.788 276.011 132.673 244.606 159.167 241.878Z" fill="#263238"/>
<path d="M157.353 285.537C157.353 285.537 143.903 291.88 142.681 297.742C141.459 303.603 124.615 294.78 124.615 294.78L136.82 277.232L157.353 285.537Z" fill="white" stroke="#263238" stroke-linecap="round" stroke-linejoin="round"/>
<path d="M69.16 349.878C38.3099 389.169 63.3478 408.123 98.3194 404.989L91.3103 416.095L108.907 419.143C108.907 419.143 122.395 410.332 140.781 400.916C172.076 384.874 184.724 385.837 181.503 369.783C178.283 353.728 139.93 343.313 101.478 360.231C101.441 360.219 80.5621 335.416 69.16 349.878Z" fill="#757575" stroke="#263238" stroke-linecap="round" stroke-linejoin="round"/>
<path d="M79.9202 435.407C79.9202 435.407 87.9535 413.194 91.31 411.96C94.6665 410.726 107.352 415.539 108.907 419.118C108.907 419.118 113.189 412.553 114.941 415.342C116.693 418.13 114.164 422.746 114.941 426.275C115.719 429.804 124.394 434.74 127.861 435.394C131.329 436.048 133.303 437.998 133.303 439.948V444.18H79.9202C79.3278 442.794 79.0225 441.301 79.0225 439.793C79.0225 438.285 79.3278 436.793 79.9202 435.407Z" fill="white" stroke="#263238" stroke-linecap="round" stroke-linejoin="round"/>
<path d="M114.941 422.795C114.941 422.795 107.87 426.287 105.291 425.263C102.712 424.239 106.612 431.125 107.587 431.779C108.561 432.433 114.991 429.496 114.991 429.496" stroke="#263238" stroke-linecap="round" stroke-linejoin="round"/>
<path d="M86.5957 419.13C86.5957 419.13 96.1962 419.315 99.1208 422.832" stroke="#263238" stroke-linecap="round" stroke-linejoin="round"/>
<path d="M79.9199 435.406C79.9199 435.406 95.2215 438.985 96.5172 438.985C98.6216 438.568 100.686 437.969 102.687 437.196C102.687 437.196 106.883 439.306 109.672 440.614C112.46 441.922 130.65 440.614 130.65 440.614" stroke="#263238" stroke-linecap="round" stroke-linejoin="round"/>
<path d="M98.3193 405.013C112.93 403.434 141.312 385.43 151.184 379.173C161.056 372.917 163.524 374.558 163.524 374.558" stroke="#263238" stroke-linecap="round" stroke-linejoin="round"/>
<path d="M55.1904 374.348L57.5227 356.64L63.1497 352.395C72.269 330.27 113.583 288.943 124.85 289.079C141.768 289.276 144.754 307.034 146.84 326.469C148.925 345.905 122.567 342.98 122.567 342.98V347.854L107.574 355.616L116.656 355.332C116.656 355.332 90.5322 380.728 55.1904 374.348Z" fill="#0066B3" stroke="#263238" stroke-linecap="round" stroke-linejoin="round"/>
<path d="M128.416 254.86C131.958 243.754 148.16 240.792 153.984 242.606C158.766 244.473 162.684 248.048 164.979 252.639C166.46 255.835 163.363 261.487 165.572 264.781C168.731 269.508 168.459 279.478 167.324 285.759C166.707 289.091 152.849 291.066 141.521 283.291C129.354 274.876 124.985 265.547 128.416 254.86Z" fill="white" stroke="#263238" stroke-linecap="round" stroke-linejoin="round"/>
<path d="M144.791 239.287C144.791 239.287 159.057 236.967 159.155 240.632C159.785 264.979 145.186 270.088 145.186 270.088C145.186 270.088 139.226 265.337 137.893 268.594C136.561 271.852 139.991 280.86 144.212 281.046C143.239 282.556 142.707 284.309 142.677 286.105C142.646 287.901 143.118 289.671 144.039 291.214C144.039 291.214 119.877 295.249 117.878 284.056C118.812 280.166 119.48 276.216 119.877 272.235C121.444 256.551 117.779 246 144.791 239.287Z" fill="#263238"/>
<path d="M163.845 264.103C166.819 266.78 168.953 266.78 168.916 267.743C168.805 270.742 165.214 272.235 165.214 272.235" fill="white"/>
<path d="M163.845 264.103C166.819 266.78 168.953 266.78 168.916 267.743C168.805 270.742 165.214 272.235 165.214 272.235" stroke="#263238" stroke-linecap="round" stroke-linejoin="round"/>
<path d="M165.14 277.232C163.039 277.944 160.771 278 158.637 277.393" stroke="#263238" stroke-linecap="round" stroke-linejoin="round"/>
<path d="M157.23 249.159C157.23 249.159 166.719 246.407 164.979 261.807C164.979 261.807 168.928 256.44 168.916 250.405C168.916 239.953 154.935 242.051 154.935 242.051L156.761 249.455" fill="#263238"/>
<path d="M165.856 256.699C165.496 256.46 165.093 256.296 164.668 256.218C164.244 256.14 163.809 256.148 163.388 256.242" stroke="#263238" stroke-linecap="round" stroke-linejoin="round"/>
<path d="M159.464 256.526C159.464 256.526 154.367 256.822 152.158 260.228" stroke="#263238" stroke-linecap="round" stroke-linejoin="round"/>
<path d="M158.242 264.633C158.316 265.448 157.971 266.151 157.465 266.201C156.959 266.25 156.49 265.621 156.404 264.806C156.317 263.992 156.675 263.288 157.181 263.239C157.687 263.19 158.168 263.819 158.242 264.633Z" fill="#263238"/>
<path d="M99.1211 408.715C99.1211 408.715 110.474 409.949 112.942 414.885" stroke="#263238" stroke-linecap="round" stroke-linejoin="round"/>
<path d="M127.861 297.408C132.618 294.769 138.211 294.071 143.471 295.459C152.504 297.741 175.926 331.245 179.183 334.515C182.441 337.785 188.537 339.451 194.152 345.362C203.037 354.629 215.957 362.823 217.265 362.823C218.573 362.823 219.622 362.008 221.25 361.687C222.879 361.367 235.491 360.219 235.491 360.219C235.491 360.219 239.723 361.169 235.491 362.971C231.258 364.772 231.579 366.414 231.579 366.414C231.579 366.414 230.74 367.771 232.43 369.079C234.121 370.387 235.133 369.671 237.564 373.114C239.995 376.557 234.133 374.607 234.133 374.607C234.133 374.607 235.429 378.309 232.825 377.939C230.222 377.569 232.505 381.555 228.272 381.012C224.039 380.469 214.982 374.755 212.711 368.771C212.711 368.771 175.765 351.112 170.237 346.559C164.709 342.005 141.46 317.584 139.819 317.263" fill="white"/>
<path d="M127.861 297.408C132.618 294.769 138.211 294.071 143.471 295.459C152.504 297.741 175.926 331.245 179.183 334.515C182.441 337.785 188.537 339.451 194.152 345.362C203.037 354.629 215.957 362.823 217.265 362.823C218.573 362.823 219.622 362.008 221.25 361.687C222.879 361.367 235.491 360.219 235.491 360.219C235.491 360.219 239.723 361.169 235.491 362.971C231.258 364.772 231.579 366.414 231.579 366.414C231.579 366.414 230.74 367.771 232.43 369.079C234.121 370.387 235.133 369.671 237.564 373.114C239.995 376.557 234.133 374.607 234.133 374.607C234.133 374.607 235.429 378.309 232.825 377.939C230.222 377.569 232.505 381.555 228.272 381.012C224.039 380.469 214.982 374.755 212.711 368.771C212.711 368.771 175.765 351.112 170.237 346.559C164.709 342.005 141.46 317.584 139.819 317.263" stroke="#263238" stroke-linecap="round" stroke-linejoin="round"/>
<path d="M122.555 293.83C122.555 293.83 140.769 288.955 147.124 292.534C153.479 296.113 165.523 312.71 165.523 312.71C165.523 312.71 150.838 325.852 146.297 324.655C141.756 323.458 127.861 321.496 127.861 321.496" fill="#0066B3"/>
<path d="M122.555 293.83C122.555 293.83 140.769 288.955 147.124 292.534C153.479 296.113 165.523 312.71 165.523 312.71C165.523 312.71 150.838 325.852 146.297 324.655C141.756 323.458 127.861 321.496 127.861 321.496" stroke="#263238" stroke-linecap="round" stroke-linejoin="round"/>
<path d="M138.35 323.1C138.35 323.1 131.748 326.728 129.317 326.728" stroke="#263238" stroke-linecap="round" stroke-linejoin="round"/>
<path d="M127.861 304.899C128.417 305.874 128.232 316.548 139.819 319.867" stroke="#263238" stroke-linecap="round" stroke-linejoin="round"/>
<path d="M65.9268 352.741C65.9268 352.741 90.6067 356.973 99.1213 349.483" stroke="#263238" stroke-linecap="round" stroke-linejoin="round"/>
<path d="M107.562 355.616C107.562 355.616 101.392 354.53 99.1216 357.702C96.851 360.873 84.4863 363.872 84.4863 363.872" stroke="#263238" stroke-linecap="round" stroke-linejoin="round"/>
<path d="M57.9551 379.173C57.9551 379.173 54.3888 394.549 69.604 401.385" stroke="#263238" stroke-linecap="round" stroke-linejoin="round"/>
<path d="M65.9268 380.234C65.9268 380.234 66.0131 387.811 68.3948 391.957L75.9592 394.425L84.4244 389.712C84.4244 389.712 82.6228 380.025 82.4623 378.063" stroke="#263238" stroke-linecap="round" stroke-linejoin="round"/>
</svg>
