<svg width="72" height="72" viewBox="0 0 72 72" fill="none" xmlns="http://www.w3.org/2000/svg">
<circle cx="36" cy="36" r="36" fill="#0066B3"/>
<path d="M56.9016 34.0171C57.9629 33.6197 58.9718 33.1819 60 32.6933C59.7629 30.6898 59.1821 28.7395 58.4501 26.8646C57.3408 26.9448 56.1979 27.0902 55.091 27.2683C54.5381 26.0602 53.8714 24.9082 53.1034 23.8282C53.8051 22.9632 54.4795 22.0608 55.1237 21.1253C53.8968 19.5322 52.4669 18.1003 50.8738 16.8754C49.9402 17.5195 49.0378 18.192 48.1752 18.8918C47.1029 18.1272 45.9523 17.4581 44.7307 16.9008C44.9088 15.7958 45.0562 14.6554 45.1339 13.549C43.2595 12.8179 41.3078 12.2386 39.3077 12C38.819 13.0286 38.3789 14.0371 37.98 15.1027C36.6413 14.9746 35.316 14.976 34.0166 15.0989C33.6178 14.0347 33.18 13.0277 32.6899 12C30.6912 12.2386 28.7381 12.8179 26.8627 13.547C26.9429 14.6568 27.0893 15.8006 27.2678 16.909C26.0602 17.4624 24.9086 18.1277 23.8291 18.8962C22.9637 18.1939 22.0613 17.52 21.1253 16.8754C19.5322 18.1003 18.1013 19.5322 16.8739 21.1253C17.5171 22.0594 18.1915 22.9603 18.8923 23.8248C18.1286 24.8966 17.459 26.0467 16.9013 27.2674C15.7954 27.0898 14.6549 26.9448 13.548 26.8646C12.8179 28.7395 12.2357 30.6902 12 32.6933C13.0291 33.1824 14.0371 33.6216 15.1027 34.0186C14.9741 35.3582 14.976 36.6835 15.0984 37.9834C14.0342 38.3813 13.0282 38.8176 12 39.3077C12.2357 41.3098 12.8179 43.26 13.5475 45.1363C14.6568 45.0566 15.8002 44.9093 16.9075 44.7302C17.4614 45.9394 18.1272 47.0909 18.8957 48.1709C18.193 49.0349 17.5181 49.9368 16.8734 50.8752C18.1008 52.4674 19.5317 53.8982 21.1248 55.1261C22.0594 54.481 22.9594 53.809 23.8229 53.1072C24.8952 53.8718 26.0453 54.5414 27.2669 55.0982C27.0883 56.2027 26.9429 57.3442 26.8627 58.453C28.7381 59.1816 30.6912 59.7629 32.6899 60C33.18 58.9699 33.6192 57.9605 34.0181 56.8973C35.3568 57.0254 36.6821 57.024 37.9814 56.9016C38.3803 57.9638 38.8195 58.9718 39.3077 60C41.3078 59.7634 43.2595 59.1816 45.1344 58.453C45.0562 57.3422 44.9093 56.1984 44.7302 55.092C45.9394 54.5376 47.0918 53.8718 48.1718 53.1034C49.0354 53.8056 49.9392 54.4795 50.8742 55.1256C52.4674 53.8973 53.8978 52.4669 55.1242 50.8747C54.4819 49.9382 53.808 49.0387 53.1077 48.1757C53.8718 47.1034 54.5424 45.9523 55.0997 44.7307C56.2032 44.9117 57.3442 45.0562 58.4501 45.1358C59.1816 43.26 59.7624 41.3093 60 39.3072C58.9699 38.8171 57.9605 38.3794 56.8973 37.981C57.0254 36.6422 57.024 35.317 56.9016 34.0171ZM44.8632 49.1458V42.3514C44.8632 38.8934 41.5118 36.0912 38.0539 36.0912L36.1214 38.4518L38.0549 47.3928L35.8958 49.5974L33.7373 47.3928L35.6702 38.4518L33.7373 36.0898C30.2794 36.0898 26.9285 38.893 26.9285 42.3509V48.9245C22.8782 46.0589 20.2334 41.3381 20.2334 35.9995C20.2334 27.2616 27.3168 20.1778 36.0552 20.1778C44.7931 20.1778 51.8765 27.2616 51.8765 35.9995C51.8774 41.4782 49.0934 46.3056 44.8632 49.1458ZM41.1907 30.0403C41.1907 32.965 38.82 35.3352 35.8954 35.3352C32.9712 35.3352 30.6 32.965 30.6 30.0403C30.6 27.1157 32.9707 24.7454 35.8954 24.7454C38.82 24.7454 41.1907 27.1157 41.1907 30.0403Z" fill="white"/>
</svg>
