<svg width="72" height="72" viewBox="0 0 72 72" fill="none" xmlns="http://www.w3.org/2000/svg">
<circle cx="36" cy="36" r="36" fill="#0066B3"/>
<path d="M51.9996 35.5266H46.1816V58.795H51.9996V35.5266Z" fill="white"/>
<path d="M43.273 40.7627H37.4551V58.7946H43.273V40.7627Z" fill="white"/>
<path d="M34.5445 44.835H28.7266V58.7945H34.5445V44.835Z" fill="white"/>
<path d="M25.818 49.4899H20V58.7987H25.818V49.4899Z" fill="white"/>
<path d="M35.9789 15.7129C36.5035 13.9674 37.067 13.8062 38.1839 14.1421C39.3013 14.4781 39.692 14.9355 39.1694 16.672C38.8085 17.8715 37.8678 18.8187 36.8574 18.5146C35.8694 18.2175 35.533 17.1966 35.9789 15.7129Z" fill="white"/>
<path d="M33.2426 32.4224C32.607 32.2104 32.0455 31.8441 31.5881 31.3772L32.2182 37.1139L29.8789 43.7401H30.8126C31.6548 43.7401 32.4143 43.2349 32.7399 42.4584L34.781 37.5892C34.8318 37.4603 34.8458 37.4902 34.8667 37.1851L35.007 33.0097L33.2426 32.4224Z" fill="white"/>
<path d="M27.1324 32.7604C26.8417 33.0745 26.3515 33.0929 26.0379 32.8022L21.9943 29.0574C21.6803 28.7667 21.6619 28.2764 21.9525 27.9629L24.3267 25.3996C24.6174 25.0855 25.1076 25.0671 25.4212 25.3578L29.4648 29.1026C29.7788 29.3933 29.7972 29.8836 29.5066 30.1971L27.1324 32.7604Z" fill="white"/>
<path d="M41.7214 31.5484L35.5132 27.9723L38.5115 23.2146L38.9027 25.2259C39.1471 25.858 39.8051 26.2278 40.4721 26.1088L45.0168 25.2358L45.0039 25.1318C44.9153 24.423 44.313 23.891 43.5988 23.891L40.5567 23.9382L40.1819 21.0983C40.0545 20.1307 40.0774 19.3582 38.2985 19.3388L37.1856 21.3416L37.1895 20.068L37.3055 19.8201C37.4314 19.5508 37.2582 19.3423 37.1398 19.3423H36.7291C36.6107 19.3423 36.4375 19.5508 36.5634 19.8201L36.6794 20.068L36.2145 21.3601L35.5396 19.3353L33.8961 19.3418C33.5034 19.3433 33.1286 19.508 32.8618 19.7967L28.0438 25.0103C27.8019 25.2721 27.668 25.6151 27.668 25.9714V26.9156C27.668 26.9689 27.6988 27.0171 27.7471 27.0395C27.7954 27.0619 27.8521 27.054 27.8924 27.0196L32.5368 23.0667L31.2252 26.3193C30.8788 27.1779 30.8007 28.1206 31.0003 29.0245L31.0456 29.2295C31.3188 30.4678 32.2227 31.4712 33.4252 31.8719L35.2688 32.4866L39.5597 33.2849L39.7807 39.6L40.5552 39.5816C41.4322 39.5607 42.1459 38.8694 42.1957 37.9939L42.4829 32.9266C42.5043 32.3602 42.2111 31.8301 41.7214 31.5484Z" fill="white"/>
</svg>
