<svg width="72" height="72" viewBox="0 0 72 72" fill="none" xmlns="http://www.w3.org/2000/svg">
<circle cx="36" cy="36" r="36" fill="#0066B3"/>
<path d="M36 12C27.184 12 20 19.2228 20 28.0865C20 32.0759 21.488 35.9367 24.128 38.8644C24.32 39.0736 24.512 39.2666 24.72 39.4757C24.736 39.4918 24.768 39.524 24.8 39.5561V39.5722C24.88 39.6527 24.976 39.7331 25.056 39.7974C25.152 39.894 25.2482 39.9744 25.328 40.0548C26.048 40.7144 26.848 41.3096 27.68 41.8083C27.792 41.8726 27.888 41.953 28 42.0174C28.064 42.0496 28.128 42.0978 28.192 42.13C28.432 42.2587 28.672 42.3874 28.928 42.5161C28.928 42.5161 28.928 42.5161 28.944 42.5161C29.328 42.7091 29.696 42.87 30.08 43.0147C30.096 43.0308 30.128 43.0469 30.144 43.0469C30.288 43.1113 30.432 43.1595 30.576 43.2078C30.688 43.2721 30.8 43.3043 30.912 43.3365C30.928 43.3365 30.944 43.3526 30.96 43.3526C32.576 43.8995 34.272 44.173 36 44.173C37.728 44.173 39.424 43.8995 41.04 43.3526C41.0558 43.3526 41.072 43.3365 41.088 43.3365C41.2 43.3043 41.312 43.2721 41.424 43.2078C41.584 43.1595 41.728 43.1113 41.872 43.0469C41.904 43.0308 41.92 43.0308 41.952 43.0147C42.208 42.9182 42.4482 42.8217 42.688 42.693C42.928 42.5806 43.168 42.4678 43.392 42.3391C44.576 41.7439 45.664 40.9718 46.672 40.0709C46.848 39.9101 47.04 39.7331 47.2 39.5561C47.232 39.5401 47.264 39.5079 47.28 39.4757C47.68 39.0736 48.064 38.6555 48.416 38.221C50.704 35.3897 52 31.8025 52 28.0865C52 19.2228 44.816 12 36 12ZM42.464 34.8589C42.672 35.5184 42.432 36.2423 41.856 36.6445C41.584 36.8375 41.264 36.9341 40.9442 36.9341C40.6082 36.9341 40.256 36.8214 39.9682 36.5962L36 33.5559L32.032 36.5962C31.472 37.0306 30.72 37.0467 30.144 36.6445C29.568 36.2423 29.328 35.5184 29.536 34.8589L31.088 29.7756L27.024 26.6548C26.48 26.2365 26.272 25.5287 26.48 24.8692C26.704 24.2096 27.312 23.7753 28 23.7753H32.928L34.464 18.7563C34.672 18.0968 35.296 17.6303 36 17.6303C36.704 17.6303 37.328 18.0968 37.536 18.7563L39.072 23.7753H44C44.688 23.7753 45.296 24.2096 45.52 24.8692C45.728 25.5287 45.52 26.2365 44.976 26.6548L40.912 29.7756L42.464 34.8589Z" fill="white"/>
<path d="M36.0008 47.3903C33.2168 47.3903 30.4808 46.779 28.0008 45.6208C26.8808 45.1221 25.8088 44.4787 24.8008 43.7548V58.6508C24.8008 59.2139 25.0888 59.7286 25.5528 60.0182C26.0328 60.3078 26.6248 60.3399 27.1208 60.0825L36.0008 55.6266L44.8808 60.0825C45.1048 60.1951 45.3608 60.2595 45.6008 60.2595C45.8888 60.2595 46.1928 60.1791 46.4488 60.0182C46.9128 59.7286 47.2008 59.2139 47.2008 58.6508V43.7548C46.1928 44.4947 45.1208 45.1221 44.0008 45.6208C41.5208 46.779 38.7848 47.3903 36.0008 47.3903Z" fill="white"/>
</svg>
