<svg width="72" height="72" viewBox="0 0 72 72" fill="none" xmlns="http://www.w3.org/2000/svg">
<circle cx="36" cy="36" r="36" fill="#0066B3"/>
<path fill-rule="evenodd" clip-rule="evenodd" d="M36.9547 31.1337V35.1955H46.9762C48.2265 35.1955 49.3696 35.7098 50.1963 36.5382L50.1985 36.5365C51.023 37.3614 51.539 38.5041 51.539 39.7583V41.4543H49.6274V39.7583C49.6274 39.0312 49.3274 38.3663 48.8483 37.8867V37.8827C48.3687 37.4045 47.7056 37.1067 46.9762 37.1067H36.9547V41.4543H35.0449V37.1067H25.0233C24.2962 37.1067 23.6313 37.4063 23.1517 37.8867H23.1477C22.6704 38.3641 22.3726 39.0272 22.3726 39.7583V41.4543H20.4628V39.7583C20.4628 38.5058 20.9743 37.3654 21.8015 36.5382V36.5365C22.6281 35.7084 23.7691 35.196 25.0233 35.196H35.0453V31.1341H36.9547V31.1337ZM36 16C38.0014 16 39.6276 17.6231 39.6276 19.6259C39.6276 20.9561 38.9103 22.1175 37.8436 22.749C38.9041 22.9206 39.8548 23.2971 40.6161 24.0584C41.8664 25.3109 42.3539 27.2785 42.3357 29.0403H29.6634C29.6434 27.2785 30.131 25.3109 31.3835 24.0584C32.1444 23.2975 33.0955 22.9206 34.156 22.749C33.0875 22.1179 32.3719 20.9561 32.3719 19.6259C32.3724 17.6231 33.9964 16 36 16ZM21.4175 44.4046C23.1277 44.4046 24.518 45.7909 24.518 47.5029C24.518 48.6398 23.9068 49.6345 22.9917 50.1759C23.9006 50.3217 24.7113 50.6434 25.3647 51.2946C26.4336 52.363 26.8509 54.0449 26.8354 55.5533H16.0004C15.9844 54.0449 16.3996 52.3626 17.4707 51.2941C18.1223 50.643 18.933 50.3212 19.8396 50.1754C18.929 49.6341 18.3178 48.6394 18.3178 47.5025C18.3178 45.7909 19.7041 44.4046 21.4175 44.4046ZM36 44.4046C37.7098 44.4046 39.1005 45.7909 39.1005 47.5029C39.1005 48.6398 38.4889 49.6345 37.576 50.1759C38.4827 50.3217 39.2961 50.6434 39.945 51.2946C41.0157 52.363 41.4335 54.0449 41.417 55.5533H30.583C30.567 54.0449 30.9821 52.363 32.0532 51.2946C32.7044 50.6434 33.5155 50.3217 34.4222 50.1759C33.5111 49.6345 32.8999 48.6398 32.8999 47.5029C32.8995 45.7909 34.2862 44.4046 36 44.4046ZM50.5821 44.4046C52.2946 44.4046 53.6844 45.7909 53.6844 47.5029C53.6844 48.6398 53.071 49.6345 52.1581 50.1759C53.0648 50.3217 53.8777 50.6434 54.5289 51.2946C55.5978 52.363 56.0156 54.0449 55.9996 55.5533H45.1647C45.1487 54.0449 45.566 52.363 46.6349 51.2946C47.2865 50.6434 48.0972 50.3217 49.0061 50.1759C48.0932 49.6345 47.482 48.6398 47.482 47.5029C47.482 45.7909 48.8683 44.4046 50.5821 44.4046Z" fill="white"/>
</svg>
