<svg width="72" height="72" viewBox="0 0 72 72" fill="none" xmlns="http://www.w3.org/2000/svg">
<circle cx="36" cy="36" r="36" fill="#0066B3"/>
<path d="M46.2144 27.2619L46.3995 27.5426L47.8041 26.6194L47.6195 26.3387C45.0073 22.3697 40.6641 20 36.0008 20C31.5686 20 27.3505 22.1877 24.7176 25.8516L24.5215 26.1245L25.8873 27.1045L26.0834 26.8316C28.4008 23.6058 32.1086 21.68 36.0008 21.68C40.0963 21.68 43.9144 23.7671 46.2144 27.2619Z" fill="white"/>
<path d="M48.1074 36.7936L48.0364 37.122C47.2139 40.9471 44.6558 44.2213 41.1939 45.8787L40.8906 46.0239L41.6171 47.5387L41.9197 47.3936C45.848 45.5123 48.7487 41.8045 49.6803 37.4742L49.7506 37.1458L48.1074 36.7936Z" fill="white"/>
<path d="M23.9697 37.1485L23.8988 36.8201L22.2568 37.1768L22.3284 37.5052C23.2652 41.8194 26.1626 45.5156 30.0781 47.3917L30.3807 47.5368L31.1072 46.022L30.8039 45.8768C27.3536 44.2233 24.7988 40.9607 23.9697 37.1485Z" fill="white"/>
<path d="M40.0064 52.2579H31.9948C31.7167 52.2579 31.4902 52.0321 31.4902 51.754V47.1927C31.4902 46.1876 32.2928 45.3695 33.2793 45.3695H34.3947C34.5709 45.3695 34.7341 45.4611 34.8257 45.6114L36.0006 47.5424L37.1754 45.6114C37.2664 45.4611 37.4302 45.3695 37.6064 45.3695H38.7218C39.7083 45.3695 40.5109 46.1876 40.5109 47.1927V51.754C40.5109 52.0321 40.2851 52.2579 40.0064 52.2579Z" fill="white"/>
<path d="M36.0001 44.8425C34.433 44.8425 33.1582 43.5316 33.1582 41.92V41.1135C33.1582 39.5019 34.433 38.1909 36.0001 38.1909C37.5672 38.1909 38.8421 39.5019 38.8421 41.1135V41.92C38.8421 43.5316 37.5672 44.8425 36.0001 44.8425Z" fill="white"/>
<path d="M24.5161 35.2688H16.5045C16.2258 35.2688 16 35.043 16 34.765V29.4321C16 29.0366 16.2232 28.6708 16.5819 28.4772L18.0181 27.7011C18.2503 27.5759 18.5361 27.6495 18.6794 27.8675C19.0658 28.4566 19.7677 28.823 20.5103 28.823C21.2529 28.823 21.9548 28.4572 22.3413 27.8675C22.4903 27.6411 22.791 27.5721 23.0245 27.7133L24.4897 28.6037C24.8219 28.8056 25.02 29.1521 25.02 29.5301V34.765C25.0206 35.043 24.7948 35.2688 24.5161 35.2688Z" fill="white"/>
<path d="M20.5099 27.2314C18.9428 27.2314 17.668 25.9205 17.668 24.3089V23.5024C17.668 21.8908 18.9428 20.5798 20.5099 20.5798C22.077 20.5798 23.3518 21.8908 23.3518 23.5024V24.3089C23.3518 25.9205 22.077 27.2314 20.5099 27.2314Z" fill="white"/>
<path d="M55.4946 35.2692H47.483C47.205 35.2692 46.9785 35.0434 46.9785 34.7653V29.5215C46.9785 29.0866 47.2475 28.6944 47.6643 28.5208L49.8379 27.6202C50.0785 27.5215 50.3579 27.6215 50.4785 27.8544L51.4882 29.8053L52.4985 27.8544C52.6217 27.615 52.9134 27.515 53.1572 27.6286L55.354 28.6402C55.3546 28.6402 55.3546 28.6402 55.3546 28.6402C55.7463 28.8208 55.9992 29.2066 55.9992 29.6221V34.7653C55.9992 35.0434 55.7734 35.2692 55.4946 35.2692Z" fill="white"/>
<path d="M51.5044 27.2065C49.9379 27.2065 48.6631 25.8956 48.6631 24.284V23.4775C48.6631 21.8659 49.9379 20.5549 51.5044 20.5549C53.0715 20.5549 54.3463 21.8659 54.3463 23.4775V24.284C54.3463 25.8949 53.0715 27.2065 51.5044 27.2065Z" fill="white"/>
</svg>
