<svg width="72" height="72" viewBox="0 0 72 72" fill="none" xmlns="http://www.w3.org/2000/svg">
<circle cx="36" cy="36" r="36" fill="#0066B3"/>
<path d="M50.0314 21.9194C47.867 20.1028 45.3503 18.7532 42.6395 17.9555C40.9791 17.4489 39.2644 17.1414 37.5315 17.0395C36.6843 16.9868 35.8347 16.9868 34.9875 17.0395C33.8763 17.097 32.7692 17.2172 31.6716 17.3995C29.3451 17.8192 27.1066 18.6307 25.0516 19.7994C22.2873 21.2977 19.9604 23.4895 18.2997 26.1594C17.226 27.8469 16.5076 29.7356 16.1885 31.7101C15.8693 33.6846 15.9562 35.7035 16.4437 37.6433C17.2416 40.9 19.0457 43.8225 21.5997 45.9952C24.7952 48.7936 28.7676 50.5516 32.9876 51.0351C33.2369 51.0487 33.4807 51.1132 33.704 51.2248C33.9274 51.3364 34.1254 51.4927 34.2859 51.6839C34.4464 51.8752 34.5659 52.0973 34.6371 52.3366C34.7082 52.5759 34.7295 52.8273 34.6995 53.0751C34.6995 53.7311 34.5515 54.3831 34.4715 55.0351C34.348 55.5198 34.3208 56.024 34.3915 56.5191C34.3948 56.5892 34.4126 56.6578 34.4438 56.7207C34.4749 56.7835 34.5187 56.8392 34.5724 56.8843C34.6262 56.9294 34.6887 56.9629 34.756 56.9827C34.8233 57.0024 34.894 57.008 34.9635 56.9991C35.3751 56.946 35.7783 56.8412 36.1635 56.6871C37.8709 55.8963 39.4904 54.9284 40.9955 53.7991C44.3363 51.4378 47.4908 48.8234 50.4314 45.9792C51.4551 45.0392 52.3823 43.9994 53.1994 42.8752C54.9984 40.3288 55.9755 37.293 55.9993 34.1753C56.0012 32.7918 55.8113 31.4148 55.4353 30.0833C54.5001 26.8786 52.6161 24.0324 50.0314 21.9194Z" fill="white"/>
<path d="M36.0487 21.2852C35.7529 21.2852 35.513 21.525 35.513 21.8209V23.9637C35.513 24.2596 35.7529 24.4994 36.0487 24.4994C36.3446 24.4994 36.5844 24.2596 36.5844 23.9637V21.8209C36.5844 21.525 36.3446 21.2852 36.0487 21.2852ZM28.4735 24.4241C28.3364 24.4241 28.2014 24.4785 28.0968 24.5831C27.8876 24.7923 27.8876 25.1272 28.0968 25.3365L29.6119 26.8515C29.821 27.0607 30.156 27.0607 30.3652 26.8515C30.5744 26.6423 30.5744 26.3074 30.3652 26.0982L28.8501 24.5831C28.7455 24.4785 28.6105 24.4241 28.4735 24.4241ZM43.624 24.4241C43.4869 24.4241 43.3519 24.4785 43.2473 24.5831L41.7323 26.0982C41.5231 26.3074 41.5231 26.6423 41.7323 26.8515C41.9415 27.0607 42.2764 27.0607 42.4856 26.8515L44.0007 25.3365C44.2099 25.1272 44.2099 24.7923 44.0007 24.5831C43.896 24.4785 43.7611 24.4241 43.624 24.4241ZM36.0487 26.1065C32.7822 26.1065 29.6202 28.6408 29.6202 32.2254C29.6202 36.6114 32.7161 37.7269 33.0688 40.5707H39.0286C39.3813 37.7269 42.4772 36.6114 42.4772 32.2254C42.4772 28.6408 39.3153 26.1065 36.0487 26.1065ZM35.4544 27.4793C35.8035 27.4627 36.0996 27.6401 36.0906 27.9899C36.0994 28.2704 35.8521 28.5336 35.5716 28.5424C33.5734 28.7754 32.0309 30.469 32.0309 32.5351C32.0309 32.9465 32.092 33.3417 32.2067 33.7153C32.3183 33.9903 32.1475 34.3406 31.8635 34.4268C31.5795 34.5129 31.2454 34.3156 31.1855 34.025C31.0402 33.5522 30.9595 33.0553 30.9595 32.5351C30.9595 29.9322 32.9255 27.7743 35.4544 27.4793ZM25.3345 31.9993C25.0387 31.9993 24.7988 32.2392 24.7988 32.5351C24.7988 32.8309 25.0387 33.0708 25.3345 33.0708H27.4774C27.7732 33.0708 28.0131 32.8309 28.0131 32.5351C28.0131 32.2392 27.7732 31.9993 27.4774 31.9993H25.3345ZM44.6201 31.9993C44.3242 31.9993 44.0844 32.2392 44.0844 32.5351C44.0844 32.8309 44.3242 33.0708 44.6201 33.0708H46.7629C47.0588 33.0708 47.2986 32.8309 47.2986 32.5351C47.2986 32.2392 47.0588 31.9993 46.7629 31.9993H44.6201ZM33.1023 41.6421V42.7135H38.9951V41.6421H33.1023ZM33.1023 43.785V44.3207C33.1023 44.9362 33.6084 45.3921 34.1737 45.3921H37.9237C38.489 45.3921 38.9951 44.9362 38.9951 44.3207V43.785H33.1023ZM34.9773 45.9278C34.9773 46.5214 35.4552 46.9992 36.0487 46.9992C36.6423 46.9992 37.1201 46.5214 37.1201 45.9278H34.9773Z" fill="#0066B3"/>
</svg>
