<svg width="72" height="72" viewBox="0 0 72 72" fill="none" xmlns="http://www.w3.org/2000/svg">
<circle cx="36" cy="36" r="36" fill="#0066B3"/>
<path d="M55.5952 36.8698L51.5945 35.9057C51.5945 34.5561 51.4499 33.2064 51.1125 31.8568L44.316 38.7978C43.4002 41.4972 41.2793 43.7626 38.3872 44.7267C33.4706 46.3655 28.1684 43.7144 26.5295 38.7978C24.8906 33.8813 27.5899 28.579 32.4583 26.9402C35.736 25.8797 39.1584 26.651 41.5685 28.7719L46.3405 23.9035C45.521 23.1322 44.6052 22.4574 43.6412 21.9272L44.8944 18.1192C44.9908 17.9264 44.798 17.6372 44.5088 17.5408L40.6526 16.0466C40.3634 15.9501 40.026 15.9983 39.9778 16.2394L38.339 19.9991C36.5555 19.6617 34.6756 19.6617 32.8439 19.9509L31.3497 16.2394C31.2533 16.0466 30.9641 15.9501 30.6748 16.0466L26.6741 17.2998C26.3849 17.3962 26.1921 17.6854 26.2403 17.8782L27.3971 21.8308C25.7583 22.7466 24.3604 23.9517 23.1554 25.3495L19.5884 23.4696C19.3956 23.3732 19.1064 23.4696 18.9136 23.7589L16.7927 27.2776C16.6481 27.5668 16.6481 27.856 16.8409 28.0006L20.2632 30.2661C19.6366 32.0014 19.2992 33.833 19.251 35.6647L15.3466 36.4842C15.1056 36.5324 14.961 36.8216 15.0092 37.1108L15.6359 41.2079C15.6841 41.5454 15.9251 41.7382 16.1179 41.7382L20.215 41.3043C20.8417 43.0878 21.8057 44.6785 22.9625 46.0763L20.5043 49.3059C20.3596 49.4987 20.4078 49.7879 20.6971 49.9807L23.782 52.68C24.023 52.8728 24.3604 52.921 24.505 52.7764L27.3489 49.8361C28.9396 50.7519 30.6749 51.4267 32.5065 51.7642L32.6511 55.7649C32.6511 56.0059 32.8921 56.1987 33.2296 56.1987L37.3749 56.2951C37.7123 56.2951 37.9533 56.1023 37.9533 55.9095L38.2425 51.8124C39.0138 51.6677 39.785 51.4749 40.5562 51.2339C41.5685 50.8965 42.5325 50.4627 43.4001 49.9807L46.0995 52.9692C46.2441 53.162 46.5815 53.1138 46.8225 52.921L50.052 50.3181C50.293 50.1253 50.3894 49.7879 50.2448 49.6433L47.8347 46.3173C49.0398 44.9195 49.9556 43.2806 50.6304 41.5454L54.6312 42.1238C54.8722 42.172 55.065 41.931 55.1614 41.6418L55.9808 37.5928C55.9326 37.2072 55.788 36.918 55.5952 36.8698Z" fill="white"/>
<path d="M37.7615 34.9419L32.1701 29.2059L28.1211 33.3512L33.7125 39.0873L37.7615 43.2326L41.8104 39.0873L44.799 36.0505L53.7645 26.8922L54.4875 26.1209L50.4386 21.9756L47.4501 25.0123L42.6781 29.9289L37.7615 34.9419Z" fill="white"/>
</svg>
