<svg width="72" height="72" viewBox="0 0 72 72" fill="none" xmlns="http://www.w3.org/2000/svg">
<circle cx="36" cy="36" r="36" fill="#0066B3"/>
<path d="M52.2281 49.0127L45.6001 42.5911C47.252 40.1736 48.2191 37.2524 48.2191 34.1096C48.2191 25.7793 41.4399 19.0001 33.1095 19.0001C24.7791 19.0001 18 25.7793 18 34.1096C18 42.44 24.7791 49.2192 33.1095 49.2192C36.2523 49.2192 39.1735 48.2522 41.591 46.6002L48.2191 53.0218C49.3271 54.1298 51.1201 54.1298 52.2281 53.0218C53.3261 51.9138 53.3261 50.1208 52.2281 49.0127ZM40.5636 42.6012C40.1103 38.8641 36.9574 35.953 33.0995 35.953C29.2415 35.953 26.0886 38.8641 25.6353 42.6012C23.2682 40.5262 21.7673 37.4841 21.7673 34.0996C21.7673 27.8543 26.8542 22.7674 33.0995 22.7674C39.3447 22.7674 44.4316 27.8543 44.4316 34.0996C44.4316 37.4841 42.9307 40.5262 40.5636 42.6012Z" fill="white"/>
<path d="M33.0987 34.0996C35.1849 34.0996 36.8761 32.4084 36.8761 30.3222C36.8761 28.236 35.1849 26.5448 33.0987 26.5448C31.0125 26.5448 29.3213 28.236 29.3213 30.3222C29.3213 32.4084 31.0125 34.0996 33.0987 34.0996Z" fill="white"/>
</svg>
