<svg width="72" height="72" viewBox="0 0 72 72" fill="none" xmlns="http://www.w3.org/2000/svg">
<circle cx="36" cy="36" r="36" fill="#0066B3"/>
<path d="M15 23V39.5707H16.8336C17.625 39.5707 18.3438 39.0783 18.6215 38.3463L22.6369 27.7695C22.8166 27.2953 22.7977 26.7791 22.5822 26.3185C22.3681 25.8584 21.9842 25.5094 21.5012 25.3356L15 23ZM56.9999 24.8854L50.4988 27.2214C50.016 27.3955 49.6322 27.744 49.4178 28.2045C49.2025 28.665 49.1833 29.1809 49.3632 29.6561L53.3785 40.2328C53.6562 40.9649 54.375 41.4563 55.1664 41.4563H57V24.8856L56.9999 24.8854ZM37.4309 26.3795C37.2979 26.3762 37.1652 26.3785 37.0327 26.3857C35.266 26.4817 33.5308 27.5193 31.4202 29.6045C30.0565 30.9527 29.2349 32.3413 29.3271 33.1434C29.3476 33.323 29.4204 33.5584 29.7951 33.7905C30.4551 34.1975 32.5357 33.6394 33.2842 32.4662C33.4408 32.2204 33.703 32.0607 33.9957 32.0312C35.0938 31.9226 35.5326 31.7097 36.5049 31.1949C36.874 31.0006 37.3315 31.0665 37.6297 31.3594C38.712 32.4285 40.4029 33.8055 42.1934 35.2634C44.8798 37.4502 47.6366 39.6984 48.9084 41.3793L51.2816 40.0824L47.575 30.318C47.5229 30.1795 47.4973 30.0367 47.4616 29.8957C46.2323 29.5728 43.3036 28.7181 40.3359 27.2061C39.3111 26.6842 38.3623 26.4033 37.4312 26.3796L37.4309 26.3795ZM29.923 28.4226C29.2148 28.477 28.4745 28.5393 27.7341 28.6038C26.4252 28.7178 25.188 28.8236 24.2602 28.8637L20.6861 38.2807C21.1034 38.5978 21.6698 39.0176 22.2843 39.4733C23.4309 40.3242 24.6839 41.2559 25.233 41.7108C28.8618 44.713 33.0643 47.8102 33.7333 48.245C34.2823 48.6015 35.368 49 36 49C36.1606 49 36.3294 48.9893 36.4904 48.9699C35.0491 47.6257 33.1533 45.6408 32.5118 44.9626C32.152 44.5822 32.1725 43.9849 32.5574 43.6294C32.9415 43.2739 33.5472 43.2932 33.906 43.6745C34.4471 44.2466 37.1984 47.1402 38.5693 48.2884C39.1048 48.6794 39.5734 48.6118 39.8731 48.4803C40.2792 48.3032 40.5956 47.9382 40.751 47.4972C39.1702 46.104 36.3561 43.1044 36.325 43.0708C35.968 42.6878 35.9937 42.0913 36.3814 41.7385C36.7701 41.3867 37.3729 41.4102 37.73 41.7942C38.3798 42.4923 41.252 45.5074 42.3966 46.4106C42.4089 46.4204 42.4145 46.4349 42.4261 46.4451C42.4335 46.4515 42.4432 46.451 42.4503 46.4575C42.689 46.6767 43.327 46.7278 43.9385 46.4248C44.1358 46.327 44.5247 46.0715 44.6311 45.6574C43.2062 44.3764 39.6453 40.7132 39.2018 40.256C38.8364 39.8803 38.8501 39.2829 39.2313 38.9229C39.6107 38.5609 40.2154 38.5754 40.5799 38.952C42.4693 40.8988 45.5262 43.9892 46.2087 44.5215C46.2285 44.5371 46.2379 44.5596 46.2561 44.5763C46.2667 44.5861 46.2825 44.5847 46.2928 44.5949C46.4942 44.7938 46.9474 44.6577 47.2709 44.4128C47.476 44.2581 48.1107 43.6903 47.653 42.9011C46.8308 41.482 43.7224 38.952 40.9801 36.7196C39.4047 35.4368 37.9044 34.2151 36.7858 33.1763C36.124 33.5005 35.517 33.7272 34.6193 33.8552C33.2286 35.545 30.3416 36.3532 28.7822 35.389C27.9945 34.9028 27.5279 34.2002 27.43 33.3566C27.2167 31.5033 28.8346 29.5266 29.9231 28.4228L29.923 28.4226Z" fill="white"/>
</svg>
