<svg width="72" height="72" viewBox="0 0 72 72" fill="none" xmlns="http://www.w3.org/2000/svg">
<circle cx="36" cy="36" r="36" fill="#0066B3"/>
<path d="M36 20C27.1521 20 20 27.1521 20 36C20 44.8479 27.1521 52 36 52C44.8479 52 52 44.8479 52 36C52 27.1521 44.8479 20 36 20ZM43.7419 32.682L34.2673 42.1198C33.9724 42.4147 33.6037 42.5622 33.235 42.5622C32.8664 42.5622 32.4608 42.4147 32.2028 42.1198L27.5207 37.4747C26.9309 36.8848 26.9309 35.9631 27.5207 35.3733C28.1106 34.7834 29.0323 34.7834 29.6221 35.3733L33.235 38.9862L41.6406 30.5806C42.2304 29.9908 43.1521 29.9908 43.7419 30.5806C44.2949 31.1705 44.2949 32.129 43.7419 32.682Z" fill="white"/>
</svg>
