<svg width="486" height="503" viewBox="0 0 486 503" fill="none" xmlns="http://www.w3.org/2000/svg">
<path fill-rule="evenodd" clip-rule="evenodd" d="M250.419 118.194C297.792 145.599 341.41 158.093 394.992 161.811C399.975 163.039 403.731 166.794 403.731 173.041V310.14C403.731 421.061 330.217 447.239 251.683 500.822C247.965 503.313 242.945 503.313 240.454 500.822C161.958 447.239 87.1797 421.061 87.1797 310.14V173.004C87.1797 166.757 90.8981 163.039 97.1451 161.774C149.501 158.056 194.345 145.562 240.454 118.157C244.172 116.93 247.928 116.93 250.419 118.194Z" fill="#EBF6FD"/>
<path d="M100.249 451.93H0L177.481 410.964H205.184L100.249 451.93Z" fill="#005FA6"/>
<path d="M228.833 451.93H128.621L212.026 410.964H239.691L228.833 451.93Z" fill="#005FA6"/>
<path d="M260.292 451.93L246.459 410.964H274.124L357.417 451.93H257.205" fill="#005FA6"/>
<path d="M280.891 410.964L385.788 451.93H486L308.556 410.964H280.891Z" fill="#005FA6"/>
<path d="M170.715 322.576H177.482V380.845V410.964H205.185V322.576H211.952L191.315 298.48L170.715 322.576Z" fill="#0066B3"/>
<path d="M308.558 245.081V258.544V410.964H280.893V274.447L274.125 274.484V410.964H246.46V274.484L239.693 274.447V410.964H212.027V255.852H205.26L225.86 231.756L246.497 255.852H239.693V274.447L260.293 250.352L280.893 274.447V215.001H274.088L294.725 190.906L315.363 215.001H308.558V245.081Z" fill="#0066B3"/>
<path d="M239.824 35.4015H264.068V102.742H243.803L239.824 35.4015Z" fill="white"/>
<path d="M259.12 32.6868L261.053 31.7572L264.846 34.4717L257.595 42.4292L254.1 35.4013L259.12 32.6868Z" fill="#EBF6FD"/>
<path d="M266.965 9.55808C266.63 9.92993 263.99 12.7559 262.874 13.0906C262.54 13.2022 261.461 23.0932 258.152 24.5434L257.706 24.7293L259.082 32.724L254.545 35.4384H250.046L245.509 32.724L246.885 24.7293L246.439 24.5434C243.278 23.1676 242.2 18.2964 242.349 13.6484C242.349 13.6484 240.489 10.2646 239.597 8.36819C238.704 6.47179 240.155 5.50499 240.155 5.50499C240.155 5.50499 244.654 3.75732 242.906 2.90208C241.159 2.04684 241.902 1.60062 241.902 1.60062C243.65 2.71616 247.777 1.82373 247.777 1.82373C249.934 -1.00228 253.467 0.29917 253.467 0.29917C254.954 1.63781 256.962 2.26995 258.933 2.04684C262.428 1.74937 262.874 9.2978 264.064 10.339C265.18 11.2686 266.741 9.78119 266.965 9.55808Z" fill="#0066B3"/>
<path d="M245.588 32.6868L243.617 31.7572L239.824 34.4717L247.112 42.4292L250.571 35.4013L245.588 32.6868Z" fill="#EBF6FD"/>
<path d="M303.148 103.598C302.776 101.85 302.999 101.664 302.776 100.251C303.296 100.214 303.817 100.325 304.263 100.065C304.226 92.4794 302.032 79.8367 299.652 73.8872C297.273 67.9377 295.748 68.2352 292.848 63.9961C290.988 59.4224 287.642 54.8116 285.15 50.461C282.659 46.1104 281.32 41.2764 277.714 37.8555C274.107 34.4345 269.496 34.2858 264.81 34.5461C262.505 37.3349 260.237 40.0866 257.857 42.801C257.82 61.8022 256.332 80.7291 255.7 99.6932C253.506 99.6932 246.739 61.7279 246.59 42.7266C244.247 40.0122 242.016 37.2977 239.674 34.5089C235.026 34.323 230.229 34.3601 226.622 37.8183C223.015 41.2764 221.714 46.2963 219.334 50.7213C216.954 55.1462 213.608 59.8687 211.897 64.5911C209.257 68.7185 207.584 68.7185 205.315 74.259C203.047 79.7995 201.076 91.2151 201.225 98.2058C201.783 98.4289 202.378 98.3545 202.973 98.3917C202.75 99.7303 202.973 99.7675 202.713 101.404C202.266 103.709 201.671 105.94 200.965 108.171C201.709 110.142 202.489 112.001 203.233 113.935C203.865 114.084 204.46 114.121 205.13 114.307C205.799 114.493 206.468 114.79 207.137 114.976L208.439 114.678L212.306 115.608C212.306 114.53 212.306 113.489 212.269 112.41L213.682 111.815C214.128 110.03 214.612 108.283 214.946 106.498C213.831 105.42 212.083 103.969 211.079 103.04C210.075 102.11 209.964 101.59 209.183 100.697C209.183 99.9906 209.183 99.2841 209.145 98.5404C209.815 98.5776 210.41 98.652 211.153 98.652C212.046 93.9668 215.095 87.9801 216.954 84.1501C218.813 80.3201 218.293 78.1262 219.037 74.4821C219.446 74.1847 219.929 73.7756 220.375 73.4038C220.078 72.8088 219.78 72.2511 219.483 71.6561C222.011 67.7146 224.949 64.4423 228.147 60.9842C229.113 66.1156 231.456 69.0532 231.53 74.854C231.605 80.6548 229.708 89.2815 228.965 95.4541C228.221 101.627 227.105 106.944 226.511 113.191C226.399 114.418 228.333 119.438 229.894 119.81C230.08 119.847 230.043 119.698 230.155 119.661C230.117 126.987 230.043 134.237 230.043 141.563C231.307 145.058 233.985 149.706 234.542 153.053C235.1 156.399 234.059 155.172 233.91 158.854C233.762 162.535 235.063 162.126 234.505 168.819C233.947 175.512 232.795 193.323 234.542 200.983C236.29 208.643 236.588 211.953 237.183 218.72C238.224 218.051 239.339 217.642 240.418 217.084C240.566 218.758 240.715 220.245 240.864 222.03C239.785 225.934 237.629 233.557 239.042 237.015C240.455 240.473 242.76 244.973 245.921 245.233C249.082 245.493 251.089 237.387 250.755 235.119C250.42 232.851 249.862 231.363 249.9 229.058C249.937 226.752 250.085 223.815 250.16 221.361C250.569 220.766 250.941 220.245 251.35 219.65L250.532 215.151L248.189 213.366C248.97 212.994 249.714 212.622 250.494 212.25C249.453 204.776 247.743 196.298 248.933 188.861C250.123 181.424 249.379 174.248 248.71 166.923C249.007 166.476 249.305 166.03 249.602 165.584L248.71 163.911C249.342 163.279 249.974 162.646 250.643 161.977C250.048 161.865 249.565 161.308 248.933 161.494C249.193 156.176 247.966 159.448 248.561 152.16C249.156 144.872 251.238 128.957 252.131 119.959C252.428 119.624 252.465 119.624 252.726 119.959C253.692 128.957 255.812 144.872 256.407 152.16C257.002 159.448 255.775 156.176 256.035 161.494C255.403 161.308 254.882 161.865 254.324 161.977C254.957 162.646 255.589 163.241 256.221 163.911L255.366 165.547C255.663 165.993 255.961 166.476 256.258 166.885C255.589 174.248 254.845 181.424 255.961 188.824C257.076 196.224 255.328 204.739 254.213 212.213C254.845 212.548 255.477 212.845 256.109 213.143L253.469 215.114C253.172 216.601 252.912 218.088 252.614 219.576C253.023 220.133 253.395 220.691 253.804 221.286C253.841 223.74 253.99 226.641 254.027 228.983C254.064 231.326 253.506 232.739 253.135 235.044C252.763 237.35 254.808 245.456 257.969 245.196C261.129 244.935 263.397 240.436 264.848 237.015C266.298 233.594 264.178 225.934 263.137 222.03C263.286 220.171 263.472 218.572 263.658 216.787C264.922 217.456 266.298 217.977 267.525 218.758C268.194 211.953 268.529 208.643 270.314 200.983C272.099 193.323 271.057 175.438 270.537 168.745C270.016 162.051 271.281 162.423 271.169 158.742C271.057 155.061 270.016 156.251 270.537 152.904C271.057 149.557 273.735 144.909 274.999 141.377C274.925 130.891 274.776 120.516 274.59 110.068C275.668 110.663 275.891 110.551 277.156 111.443C278.42 112.336 282.399 116.872 284.221 116.612C282.138 109.807 277.974 102.11 276.338 95.417C274.702 88.7238 273.809 80.6176 273.623 74.6681C273.437 68.7186 275.929 65.9669 276.747 60.7611C279.907 64.2192 283.068 67.1196 285.597 71.024C285.299 71.6189 285.039 72.2139 284.741 72.8088C285.188 73.1435 285.708 73.5897 286.08 73.85C286.972 77.8287 286.303 79.8739 288.311 84.1501C290.319 88.4263 293.628 95.3426 294.632 100.586C295.413 100.66 296.12 100.548 296.863 100.548C296.863 101.329 296.826 102.147 296.826 102.928C296.045 103.932 295.897 104.564 294.967 105.643C294.037 106.721 292.253 108.246 291.137 109.435C291.546 111.258 292.067 113.042 292.587 114.827L294 115.385C294 116.463 294.037 117.504 294.037 118.583L297.867 117.542C298.314 117.616 298.76 117.728 299.206 117.802C299.875 117.579 300.545 117.244 301.214 117.058C301.883 116.872 302.441 116.798 303.073 116.649C303.78 114.678 304.523 112.745 305.23 110.737C304.375 108.729 303.519 105.345 303.148 103.598Z" fill="#0066B3"/>
<path d="M250.57 35.4015H254.102L255.775 38.7481L253.173 41.6484H251.574L249.008 38.525L250.57 35.4015Z" fill="#F5821F"/>
<path d="M252.315 38.5251C252.315 38.5251 255.996 55.7415 271.874 62.4718C287.751 69.2022 299.836 80.3203 299.279 84.1132L296.341 90.2486L290.615 83.8529C290.615 83.8529 282.992 73.5156 272.617 70.578C262.243 67.6405 246.96 49.7548 252.315 38.5251Z" fill="#F5821F"/>
</svg>
