<svg width="64" height="64" viewBox="0 0 64 64" fill="none" xmlns="http://www.w3.org/2000/svg">
<circle cx="32" cy="32" r="32" fill="#0066B3"/>
<path d="M20.9017 20.4306C22.2041 20.0363 22.9403 18.6607 22.5459 17.3583C22.1515 16.0558 20.776 15.3197 19.4735 15.714C18.1711 16.1084 17.4349 17.4839 17.8293 18.7864C18.2237 20.0888 19.5992 20.825 20.9017 20.4306Z" fill="white"/>
<path d="M17.232 28.921C17.508 28.921 17.76 28.829 17.972 28.673V34.645C17.972 35.325 18.52 35.877 19.2 35.877C19.88 35.877 20.428 35.325 20.428 34.645C20.428 35.325 20.972 35.877 21.652 35.877C22.332 35.877 22.876 35.325 22.876 34.645V22.969H27.144C27.824 22.969 28.4 22.417 28.404 21.741C28.4 21.061 27.824 20.517 27.144 20.517H22.896H22.228C21.672 20.945 20.96 21.269 20.184 21.269C19.416 21.269 18.716 21.005 18.164 20.557C16.944 20.701 16 21.741 16 23.005V27.689C16 28.369 16.552 28.921 17.232 28.921Z" fill="white"/>
<path d="M46.451 16.3569H38.339C38.339 15.9289 38.007 15.6089 37.599 15.6089H34.147C33.739 15.6089 33.407 15.9289 33.407 16.3569H26.283C25.875 16.3569 25.543 16.6969 25.543 17.1049C25.543 17.5129 25.875 17.8529 26.283 17.8529H46.451C46.487 17.8529 46.507 17.8609 46.507 17.8969V32.0689C46.507 32.1049 46.487 32.1449 46.451 32.1449H26.283C25.875 32.1449 25.543 32.4569 25.543 32.8649C25.543 33.2729 25.875 33.5849 26.283 33.5849H46.451C47.303 33.5849 47.999 32.9209 47.999 32.0689V17.8929C47.999 17.0409 47.303 16.3569 46.451 16.3569Z" fill="white"/>
<path d="M30.7352 27.4489C30.6552 26.9849 30.2512 26.6489 29.7792 26.6489C29.7232 26.6489 29.6672 26.6529 29.6112 26.6649C29.0832 26.7569 28.7312 27.2529 28.8232 27.7809C28.9032 28.2449 29.3072 28.5729 29.7792 28.5729C29.8352 28.5729 29.8912 28.5769 29.9472 28.5649C30.0152 28.5529 30.0872 28.5369 30.1512 28.5089L31.7192 29.6089C31.7152 29.6809 31.7192 29.7529 31.7312 29.8209C31.8112 30.2849 32.2152 30.6249 32.6872 30.6249C32.7432 30.6249 32.7992 30.6209 32.8552 30.6089C33.3832 30.5169 33.7352 30.0129 33.6432 29.4849C33.6352 29.4369 33.6232 29.3849 33.6032 29.3369L36.0192 25.8889C36.1392 25.9129 36.2632 25.9169 36.3872 25.8929C36.4792 25.8769 36.5712 25.8449 36.6552 25.8049L38.4432 27.0569C38.4432 27.1169 38.4472 27.1729 38.4592 27.2289C38.5392 27.6929 38.9432 28.0289 39.4152 28.0289C39.4712 28.0289 39.5272 28.0249 39.5832 28.0129C40.1112 27.9209 40.4632 27.4169 40.3712 26.8889C40.3592 26.8169 40.3392 26.7489 40.3112 26.6809L43.6672 21.8889C43.7592 21.8969 43.8512 21.8969 43.9392 21.8809C44.4672 21.7889 44.8192 21.2849 44.7272 20.7569C44.6472 20.2929 44.2432 19.9569 43.7712 19.9569C43.7152 19.9569 43.6592 19.9609 43.6032 19.9729C43.0752 20.0649 42.7232 20.5689 42.8152 21.0969C42.8312 21.1809 42.8552 21.2649 42.8952 21.3409L39.5632 26.1009C39.4592 26.0849 39.3552 26.0849 39.2512 26.1049C39.1352 26.1249 39.0232 26.1689 38.9192 26.2289L37.1912 25.0209C37.1992 24.9369 37.1952 24.8529 37.1792 24.7729C37.0992 24.3089 36.6952 23.9729 36.2232 23.9729C36.1672 23.9729 36.1112 23.9769 36.0552 23.9889C35.5272 24.0809 35.1752 24.5849 35.2672 25.1129C35.2752 25.1649 35.2912 25.2129 35.3072 25.2649L32.8952 28.7089C32.7752 28.6849 32.6472 28.6809 32.5272 28.7009C32.4232 28.7209 32.3232 28.7529 32.2312 28.8049L30.7472 27.7649C30.7552 27.6569 30.7552 27.5529 30.7352 27.4489Z" fill="white"/>
<path d="M37.7596 41.4209H34.3756C33.2036 41.4209 32.2676 42.3609 32.2676 43.5329V45.6809C32.2676 46.1769 32.6116 46.6049 33.1036 46.6529C33.3116 46.6729 33.4916 46.6249 33.6516 46.5289V47.6089H38.4516V46.5249C38.6116 46.6209 38.7916 46.6689 38.9996 46.6489C39.4916 46.6009 39.8356 46.1729 39.8356 45.6769V43.5289C39.8396 42.3609 38.9316 41.4209 37.7596 41.4209Z" fill="white"/>
<path d="M37.2193 40.5151C38.138 39.8784 38.3666 38.6175 37.7299 37.6987C37.0932 36.78 35.8323 36.5514 34.9135 37.1881C33.9948 37.8248 33.7662 39.0857 34.4029 40.0045C35.0396 40.9232 36.3005 41.1518 37.2193 40.5151Z" fill="white"/>
<path d="M45.8918 41.4209H42.5078C41.3358 41.4209 40.4238 42.3609 40.4238 43.5329V45.6809C40.4238 46.1769 40.7678 46.6049 41.2598 46.6529C41.4678 46.6729 41.6478 46.6249 41.8078 46.5289V47.6089H46.6078V46.5249C46.7678 46.6209 46.9478 46.6689 47.1558 46.6489C47.6478 46.6009 47.9918 46.1729 47.9918 45.6769V43.5289C47.9998 42.3609 47.0638 41.4209 45.8918 41.4209Z" fill="white"/>
<path d="M45.3521 40.5161C46.2708 39.8794 46.4994 38.6184 45.8627 37.6997C45.226 36.781 43.9651 36.5523 43.0463 37.189C42.1276 37.8258 41.899 39.0867 42.5357 40.0054C43.1724 40.9242 44.4333 41.1528 45.3521 40.5161Z" fill="white"/>
<path d="M29.6242 41.4209H26.2402C25.0682 41.4209 24.1602 42.3609 24.1602 43.5329V45.6809C24.1602 46.1769 24.5042 46.6049 24.9962 46.6529C25.2042 46.6729 25.3842 46.6249 25.5442 46.5289V47.6089H30.3442V46.5249C30.5042 46.6209 30.6842 46.6689 30.8922 46.6489C31.3842 46.6009 31.7282 46.1729 31.7282 45.6769V43.5289C31.7322 42.3609 30.7962 41.4209 29.6242 41.4209Z" fill="white"/>
<path d="M29.0845 40.5165C30.0032 39.8798 30.2319 38.6188 29.5952 37.7001C28.9584 36.7813 27.6975 36.5527 26.7788 37.1894C25.86 37.8261 25.6314 39.0871 26.2681 40.0058C26.9048 40.9246 28.1658 41.1532 29.0845 40.5165Z" fill="white"/>
<path d="M21.492 41.4209H18.108C16.936 41.4209 16 42.3609 16 43.5329V45.6809C16 46.1769 16.344 46.6049 16.836 46.6529C17.044 46.6729 17.224 46.6249 17.384 46.5289V47.6089H22.184V46.5249C22.344 46.6209 22.524 46.6689 22.732 46.6489C23.224 46.6009 23.568 46.1729 23.568 45.6769V43.5289C23.572 42.3609 22.664 41.4209 21.492 41.4209Z" fill="white"/>
<path d="M21.1378 40.3707C21.9758 39.6309 22.0555 38.3519 21.3157 37.5138C20.5759 36.6758 19.2968 36.5962 18.4588 37.3359C17.6208 38.0757 17.5411 39.3548 18.2809 40.1928C19.0207 41.0308 20.2997 41.1105 21.1378 40.3707Z" fill="white"/>
</svg>
