<svg width="64" height="64" viewBox="0 0 64 64" fill="none" xmlns="http://www.w3.org/2000/svg">
<circle cx="32" cy="32" r="32" fill="#0066B3"/>
<path d="M38.2452 17C33.4194 17 29.4961 20.9234 29.4961 25.7491C29.4961 30.5749 33.4194 34.4983 38.2452 34.4983C43.071 34.4983 46.9944 30.5749 46.9944 25.7491C46.9944 20.9234 43.071 17 38.2452 17ZM38.4249 25.1348C40.4368 25.722 40.859 26.8661 40.859 27.7226C40.859 28.9417 40.0164 29.9599 38.8855 30.2473V31.0294C38.8855 31.3828 38.599 31.6694 38.2455 31.6694C37.8921 31.6694 37.6055 31.3828 37.6055 31.0294V30.2473C36.4747 29.9598 35.6323 28.9417 35.6323 27.7226C35.6323 27.3692 35.9188 27.0826 36.2723 27.0826C36.6257 27.0826 36.9123 27.3692 36.9123 27.7226C36.9123 28.4577 37.5105 29.0559 38.2455 29.0559C38.9809 29.0559 39.579 28.4577 39.579 27.7226C39.579 27.4958 39.579 26.8051 38.0661 26.3635C36.0545 25.7763 35.6323 24.6322 35.6323 23.7756C35.6323 22.5566 36.4747 21.5385 37.6055 21.251V20.4689C37.6055 20.1155 37.8921 19.8289 38.2455 19.8289C38.599 19.8289 38.8855 20.1155 38.8855 20.4689V21.251C40.0164 21.5385 40.859 22.5566 40.859 23.7756C40.859 24.1291 40.5725 24.4157 40.219 24.4157C39.8656 24.4157 39.579 24.1291 39.579 23.7756C39.579 23.0406 38.9809 22.4425 38.2455 22.4425C37.5105 22.4425 36.9123 23.0406 36.9123 23.7756C36.9123 24.0025 36.9123 24.6932 38.4249 25.1348Z" fill="white"/>
<path d="M17.5233 45.9483H20.1282C20.9666 45.9483 21.6514 45.2634 21.6514 44.425V35.4647C21.6514 34.6262 20.9666 33.9414 20.1282 33.9414H17.5233C16.6848 33.9414 16 34.6262 16 35.4647V44.425C16 45.2634 16.6848 45.9483 17.5233 45.9483Z" fill="white"/>
<path d="M45.1411 36.2135L38.2032 38.3064C38.3248 38.748 38.3248 39.2408 38.1712 39.7145C37.8384 40.7449 36.8911 41.4042 35.8607 41.4042C35.6431 41.4042 35.4255 41.3785 35.2143 41.3145L28.366 39.4392C28.0204 39.3497 27.822 38.9976 27.918 38.6584C28.0076 38.3128 28.366 38.1208 28.6988 38.2104L35.5471 40.0793C36.1487 40.2456 36.7631 39.9129 36.9551 39.324C36.9551 39.3177 36.9551 39.3177 36.9615 39.3112C37.1279 38.7609 36.7695 38.1848 36.2319 37.9928L28.7948 35.3431C28.7116 35.3303 28.6348 35.3175 28.5516 35.3047L22.9322 35.5607V44.4251C22.9322 44.4506 22.9322 44.4763 22.9258 44.5018L33.5694 47.3435C33.627 47.3564 33.6846 47.3691 33.7486 47.3691C33.851 47.3691 33.9598 47.3371 34.0558 47.2859L46.8499 40.2841C47.7331 39.7977 48.1812 38.7736 47.9316 37.788C47.7844 37.1992 47.4067 36.7063 46.8755 36.4055C46.3443 36.1047 45.7299 36.0407 45.1411 36.2135Z" fill="white"/>
</svg>
