<svg width="64" height="64" viewBox="0 0 64 64" fill="none" xmlns="http://www.w3.org/2000/svg">
<circle cx="32" cy="32" r="32" fill="#0066B3"/>
<path d="M45.0695 23.8947H38.8716V22.3453C38.8716 19.9537 36.9179 18 34.5263 18H29.4737C27.0821 18 25.1284 19.9537 25.1284 22.3453V23.8947H18.8968C17.28 23.8947 16 25.2084 16 26.7916V30.6653C16 31.1705 16.4042 31.5747 16.9095 31.5747H30.1474V30.8674C30.1474 30.5305 30.4168 30.2611 30.7537 30.2611H33.2463C33.5832 30.2611 33.8526 30.5305 33.8526 30.8674V31.5747H47.0905C47.5958 31.5747 48 31.1705 48 30.6653V26.8253C48 25.2084 46.6863 23.8947 45.0695 23.8947ZM28.3621 22.3453C28.3621 21.7389 28.8674 21.2337 29.4737 21.2337H34.5263C35.1326 21.2337 35.6379 21.7389 35.6379 22.3453V23.8947H28.3621V22.3453Z" fill="white"/>
<path d="M45.8098 33.2589H33.8182C33.7172 34.1684 32.9425 34.8421 31.9993 34.8421C31.0561 34.8421 30.3151 34.1347 30.214 33.2589H18.1888C17.6835 33.2589 17.2793 33.6631 17.2793 34.1684V42.8926C17.2793 44.5094 18.593 45.7894 20.1761 45.7894H43.7888C45.4056 45.7894 46.7193 44.4758 46.7193 42.8589V34.1684C46.7193 33.6631 46.3151 33.2589 45.8098 33.2589Z" fill="white"/>
</svg>
