<svg width="64" height="64" viewBox="0 0 64 64" fill="none" xmlns="http://www.w3.org/2000/svg">
<circle cx="32" cy="32" r="32" fill="#0066B3"/>
<path d="M46.0898 16H17.9102C16.8558 16 16 16.8558 16 17.9102V38.2197C16 39.269 16.8558 40.1299 17.9102 40.1299H46.0898C47.1442 40.1299 48 39.269 48 38.2197V17.9102C48 16.8558 47.1442 16 46.0898 16ZM28.3734 38.4642H28.2346C28.0237 38.4642 27.8525 38.2931 27.8525 38.0822C27.8525 37.8712 28.0237 37.7001 28.2346 37.7001H28.3734C28.5843 37.7001 28.7554 37.8712 28.7554 38.0822C28.7554 38.2931 28.5843 38.4642 28.3734 38.4642ZM32.0704 38.4642H31.9316C31.7207 38.4642 31.5496 38.2931 31.5496 38.0822C31.5496 37.8712 31.7207 37.7001 31.9316 37.7001H32.0704C32.2814 37.7001 32.4525 37.8712 32.4525 38.0822C32.4525 38.2931 32.2814 38.4642 32.0704 38.4642ZM35.7675 38.4642H35.6287C35.4178 38.4642 35.2467 38.2931 35.2467 38.0822C35.2467 37.8712 35.4178 37.7001 35.6287 37.7001H35.7675C35.9784 37.7001 36.1495 37.8712 36.1495 38.0822C36.1495 38.2931 35.9784 38.4642 35.7675 38.4642ZM44.9436 36.419H19.0564V19.0564H44.9436V36.419Z" fill="white"/>
<path d="M38.0815 43.8688H34.6278C34.2661 42.8704 33.9351 41.8719 33.6447 40.8939H30.3591C30.0637 41.8719 29.7326 42.8704 29.3709 43.8688H25.9172C25.7084 43.8688 25.5352 44.0369 25.5352 44.2508V46.9149C25.5352 47.1238 25.7084 47.2919 25.9172 47.2919H38.0815C38.2954 47.2919 38.4635 47.1238 38.4635 46.9149V44.2508C38.4635 44.0369 38.2954 43.8688 38.0815 43.8688Z" fill="white"/>
<path d="M44.1852 33.7753C44.1852 31.5696 42.3972 29.7766 40.1865 29.7766H37.2116C35.006 29.7766 33.2129 31.5696 33.2129 33.7753V35.655H44.1852V33.7753Z" fill="white"/>
<path d="M38.6987 27.7951C40.1816 27.7951 41.3836 25.6724 41.3836 24.1895C41.3836 22.7066 40.1816 21.5045 38.6987 21.5045C37.2158 21.5045 36.0137 22.7066 36.0137 24.1895C36.0137 25.6724 37.2158 27.7951 38.6987 27.7951Z" fill="white"/>
<path d="M22.3238 32.6802H28.8901C29.3871 32.6802 29.8514 32.5417 30.2425 32.2973L32.3697 33.2591C32.6065 33.3662 32.8493 33.1224 32.7413 32.886L31.4889 30.1465C31.4971 30.1221 31.4971 30.0976 31.4971 30.0732V24.8756C31.4971 23.4357 30.3299 22.2686 28.8901 22.2686H22.3319C20.8981 22.2686 19.7168 23.4335 19.7168 24.8756V30.0732C19.7168 31.5071 20.8899 32.6802 22.3238 32.6802ZM29.1713 30.3174H22.0935C21.8826 30.3174 21.7115 30.1463 21.7115 29.9353C21.7115 29.7244 21.8826 29.5533 22.0935 29.5533H29.1713C29.3822 29.5533 29.5533 29.7244 29.5533 29.9353C29.5533 30.1463 29.3822 30.3174 29.1713 30.3174ZM22.0508 24.6312H29.128C29.3389 24.6312 29.5101 24.8024 29.5101 25.0133C29.5101 25.2242 29.3389 25.3953 29.128 25.3953H22.0508C21.8398 25.3953 21.6687 25.2242 21.6687 25.0133C21.6687 24.8024 21.8398 24.6312 22.0508 24.6312ZM22.0508 27.0924H29.128C29.3389 27.0924 29.5101 27.2635 29.5101 27.4744C29.5101 27.6854 29.3389 27.8565 29.128 27.8565H22.0508C21.8398 27.8565 21.6687 27.6854 21.6687 27.4744C21.6687 27.2635 21.8398 27.0924 22.0508 27.0924Z" fill="white"/>
</svg>
